<?xml version="1.0" encoding="UTF-8" standalone="no"?>
<!-- Created with Inkscape (http://www.inkscape.org/) -->

<svg
   width="70.202957mm"
   height="44.972626mm"
   viewBox="0 0 70.202955 44.972626"
   version="1.1"
   id="svg1"
   xmlns="http://www.w3.org/2000/svg"
   xmlns:svg="http://www.w3.org/2000/svg">
  <defs
     id="defs1" />
  <g
     id="layer1"
     transform="translate(-332.56215,-126.07206)">
    <path
       id="path128"
       d="m 402.76466,145.81968 c 0,0.14817 -0.0494,0.30692 -0.15169,0.46567 -0.13053,0.20461 -0.79375,1.13947 -1.0795,1.36525 -0.15875,0.12347 -0.33867,0.19402 -0.52917,0.26811 -0.15875,0.0635 -0.30339,0.11994 -0.43745,0.21519 -0.3563,0.25047 -0.49741,0.67028 -0.63147,1.0795 -0.10583,0.32103 -0.21519,0.64911 -0.43391,0.87136 -0.0882,0.0917 -0.19756,0.14464 -0.31398,0.14817 -0.0212,0.004 -0.0423,0.004 -0.0635,0 -0.0635,-0.004 -0.13052,0.0282 -0.1658,0.0847 -0.0988,0.16227 -0.21872,0.29986 -0.35278,0.40569 -0.12347,0.0988 -0.26106,0.17286 -0.40922,0.2152 -0.0564,0.0176 -0.0988,0.06 -0.11995,0.11641 -0.20461,0.61736 -0.52211,1.11478 -0.8255,1.29822 -0.0741,0.0459 -0.14816,0.0706 -0.21166,0.0741 -0.0811,0.007 -0.14111,-0.0212 -0.16581,-0.0388 -0.16933,-0.0952 -0.26458,-0.381 -0.28222,-0.82197 -0.004,-0.0741 -0.0529,-0.13758 -0.12347,-0.16228 -0.0847,-0.0247 -0.14817,-0.0635 -0.20109,-0.12347 -0.19402,-0.20814 -0.19402,-0.61383 -0.004,-1.35819 0.0141,-0.0565 -0.0141,-0.11642 -0.0529,-0.15875 -0.0388,-0.0423 -0.11289,-0.0635 -0.16581,-0.0565 -0.0423,-0.004 -0.16227,-0.007 -0.21166,-0.27869 -0.0494,-0.2787 -0.0212,-0.5715 0.0917,-0.92428 0.0282,-0.0847 -0.0141,-0.17639 -0.0953,-0.2152 -0.17639,-0.0811 -0.34925,-0.18344 -0.50447,-0.30338 -0.067,-0.0459 -0.13053,-0.10231 -0.1905,-0.15523 -0.0388,-0.0318 -0.0882,-0.0494 -0.13759,-0.0423 -0.0529,0.007 -0.0953,0.0353 -0.12347,0.0776 -0.0388,0.0564 -0.0882,0.0988 -0.14817,0.13758 -0.0388,0.0212 -0.0776,0.0353 -0.12347,0.0353 -0.1023,0.0106 -0.21872,-0.0423 -0.34572,-0.14111 -0.18344,-0.14464 -0.34925,-0.31397 -0.48683,-0.50094 -0.0317,-0.0423 -0.0776,-0.067 -0.13053,-0.0706 -0.0494,-0.004 -0.10231,0.0141 -0.13758,0.0494 -0.0529,0.0529 -0.10937,0.10231 -0.17287,0.14817 -0.0459,0.0318 -0.0741,0.0882 -0.0741,0.14464 0.004,0.40216 -0.13053,0.81491 -0.37747,1.15711 -0.0529,0.0706 -0.10936,0.14111 -0.16933,0.20108 -0.06,0.06 -0.067,0.15169 -0.0247,0.22225 0.0388,0.0564 0.067,0.11994 0.0847,0.18697 0.0529,0.20109 0,0.41275 -0.1517,0.58914 -0.0917,0.10936 -0.2293,0.22225 -0.39158,0.34925 l -0.0317,0.0247 c -0.0741,0.06 -0.14817,0.11994 -0.22225,0.18344 -0.0353,0.0318 -0.06,0.0811 -0.067,0.127 -1.13594,2.15547 -0.38452,4.03578 0.35631,4.72017 0.23636,0.21519 0.32103,0.37747 0.25753,0.47625 -0.0388,0.06 -0.12348,0.0953 -0.25048,0.1023 -0.1905,0.0106 -0.45508,-0.0388 -0.79022,-0.14464 -0.53269,-0.17286 -1.08655,-0.45508 -1.52047,-0.77611 -0.52211,-0.39158 -0.84667,-0.81844 -0.93839,-1.23472 -0.0141,-0.0635 -0.0564,-0.10936 -0.11642,-0.13053 -0.37747,-0.127 -0.65616,-0.38453 -0.78316,-0.71966 -0.0882,-0.24342 -0.0988,-0.52564 -0.0247,-0.79023 0.0212,-0.0635 0,-0.13405 -0.0494,-0.17991 -0.28575,-0.25048 -0.45508,-0.5327 -0.51505,-0.83609 -0.0741,-0.37747 -0.0212,-0.79022 0.14111,-1.15711 0.0317,-0.0741 0.0141,-0.15875 -0.0494,-0.20814 -0.4833,-0.39864 -0.82197,-0.91369 -0.9525,-1.45344 -0.0141,-0.0459 -0.0459,-0.0882 -0.0882,-0.11289 -0.0459,-0.0247 -0.0988,-0.0282 -0.14464,-0.0106 -0.23989,0.0882 -0.48684,0.13758 -0.73731,0.15169 -0.0353,0.004 -0.0741,0.004 -0.10583,0.004 -0.18697,0 -0.37395,-0.0141 -0.55739,-0.0529 -0.0706,-0.0176 -0.14464,0.0141 -0.18344,0.0776 -0.3422,0.53623 -0.889,0.97367 -1.49578,1.19945 -0.26106,0.0953 -0.52564,0.15169 -0.7867,0.1658 -0.1905,0.0106 -0.38452,0 -0.5715,-0.0353 -0.06,-0.0106 -0.11994,0.007 -0.16227,0.0529 -0.47273,0.51506 -1.48873,1.01953 -2.58939,1.28764 -0.0706,0.0176 -0.12348,0.0741 -0.13406,0.14464 -0.10583,0.72672 -0.5715,1.36525 -1.33703,1.8415 -0.73377,0.45508 -1.73214,0.75142 -2.73755,0.80786 l -0.13759,0.004 c -0.0564,0 -0.10583,0.0282 -0.13758,0.0706 -0.35983,0.48684 -1.09714,1.09362 -2.58233,1.23473 -0.0564,0.007 -0.10936,0.0106 -0.19403,0.0176 -0.34219,0.0176 -0.68439,0 -1.01953,-0.0529 -0.0494,-0.007 -0.10583,0.007 -0.14816,0.0423 -0.35278,0.32456 -0.81492,0.52211 -1.37584,0.58561 -0.06,0.007 -0.11994,0.0141 -0.18344,0.0176 -0.52211,0.0282 -1.09714,-0.067 -1.62278,-0.26458 -0.0529,-0.0176 -0.10936,-0.0141 -0.15875,0.0176 -0.4833,0.30691 -1.06186,0.34572 -1.69333,0.38453 -0.35278,0.0247 -0.71261,0.0494 -1.09361,0.12347 -0.37042,0.0741 -0.6597,0.26811 -0.98073,0.49036 -0.21872,0.14464 -0.44097,0.29633 -0.69497,0.39864 -0.12347,0.0494 -0.25047,0.0847 -0.37747,0.10936 -0.0494,0.0106 -0.0917,0.0423 -0.11994,0.0882 -0.34925,0.62795 -1.02306,1.06539 -1.49578,1.25236 -0.19756,0.0776 -0.39511,0.14111 -0.60325,0.19756 -0.0529,0.0141 -0.0952,0.0494 -0.11642,0.0988 -0.14817,0.34572 -0.40569,0.63147 -0.76553,0.85019 -0.42333,0.25753 -0.95602,0.41275 -1.54516,0.4445 -0.13053,0.007 -0.25753,0.007 -0.38453,0.004 -0.0741,0.007 -0.11995,0.0317 -0.1517,0.0847 -0.28575,0.45155 -0.79375,0.82197 -1.50636,1.10772 -0.45508,0.17991 -0.94191,0.30339 -1.41111,0.42333 l -0.0388,0.0106 c -0.38453,0.0988 -0.74789,0.1905 -1.10067,0.3175 -0.0882,0.0282 -0.13758,0.12348 -0.11289,0.21167 0.0282,0.10231 0.0388,0.21167 0.0318,0.32456 -0.0212,0.32808 -0.19403,0.64558 -0.47978,0.87136 -0.19402,0.15169 -0.4198,0.27869 -0.62441,0.39158 l -0.0776,0.0459 c -0.0635,0.0388 -0.0953,0.11289 -0.0811,0.18345 0.1658,0.8643 -0.16228,1.73214 -1.03364,2.71991 -0.0635,0.0741 -0.0282,0.21167 0.0423,0.2787 0.12347,0.13405 0.0247,0.40922 -0.27164,0.75494 -0.0459,0.0529 -0.11289,0.11642 -0.18344,0.18697 l -0.0388,0.0388 c -0.51153,0.49036 -1.46403,1.40053 -1.12889,2.76225 0.06,0.25047 0.0176,0.29986 -0.0564,0.3175 -0.067,0 -0.21872,-0.11289 -0.57503,-0.70203 -0.28222,-0.47272 -0.58208,-1.06539 -0.81492,-1.6263 -0.3563,-0.85725 -0.85372,-2.33892 -0.17991,-2.68111 0.0353,-0.0106 0.0635,-0.0353 0.0847,-0.067 0.0247,-0.0423 0.0353,-0.0917 0.0212,-0.13759 l -0.1023,-0.43391 c -0.0811,-0.32456 -0.16934,-0.68792 -0.23636,-1.05128 -0.28575,-1.56986 -0.0706,-2.67053 0.28927,-2.94569 0.0847,-0.067 0.18697,-0.0882 0.2787,-0.0529 0.0247,0.0106 0.0423,0.0212 0.0564,0.0282 0.0529,0.0388 0.11995,0.0459 0.17639,0.0176 0.06,-0.0282 0.0988,-0.0847 0.10231,-0.14817 0.1658,-2.20486 0.72319,-2.6035 0.95602,-2.67052 0.0811,-0.0247 0.13406,-0.10231 0.127,-0.18698 -0.12347,-1.26647 0.1905,-1.95438 0.49389,-2.159 0.0212,-0.0141 0.0423,-0.0247 0.067,-0.0353 0.067,-0.0282 0.10936,-0.0988 0.10231,-0.17639 -0.007,-0.0988 -0.007,-0.19403 -0.007,-0.28928 0,-0.29281 0.004,-1.18533 0.60678,-1.54869 0.0635,-0.0423 0.0988,-0.11995 0.0776,-0.19403 -0.28575,-1.13595 -0.0388,-1.96145 0.15875,-2.62114 0.19755,-0.67028 0.34219,-1.15006 -0.14111,-1.62278 -0.17992,-0.17286 -2.5012,-1.21355 -4.5967,0.7232 -0.21872,0.20461 -0.40216,0.43744 -0.57855,0.65969 -0.19756,0.25047 -0.39864,0.508 -0.64911,0.72319 -0.14111,0.12348 -0.26811,0.18345 -0.35278,0.16581 -0.0459,-0.007 -0.0741,-0.0317 -0.0952,-0.0706 -0.0318,-0.0705 0.007,-0.15169 0.10583,-0.31397 l 0.0706,-0.11641 c 0.0423,-0.0776 0.0247,-0.17287 -0.0423,-0.22931 -0.0706,-0.0529 -0.16581,-0.0494 -0.22931,0.0106 -0.86783,0.81492 -2.07786,1.32998 -3.60539,1.53811 -0.74436,0.10231 -0.91369,0.06 -0.92428,0.0106 -0.0212,-0.0917 0.0811,-0.17286 0.31398,-0.25753 0.0212,-0.007 0.0353,-0.0141 0.0494,-0.0176 0.26106,-0.10583 0.4445,-0.19755 0.59267,-0.30339 0.0706,-0.0494 0.0953,-0.14816 0.0529,-0.22578 -0.0423,-0.0776 -0.13406,-0.11288 -0.21872,-0.0811 -0.48684,0.18344 -1.49578,0.56444 -2.37067,0.32808 -0.90311,-0.24342 -1.31233,-0.93133 -1.74272,-1.66158 -0.34573,-0.58562 -0.67381,-1.13948 -1.25942,-1.46756 -0.95956,-0.53622 -1.89089,-0.0988 -2.39183,0.13406 -0.22931,0.10936 -0.35631,0.1658 -0.43392,0.13758 -0.0247,-0.007 -0.0423,-0.0247 -0.0529,-0.0388 -0.004,-0.0106 -0.0141,-0.0317 0.0494,-0.15875 0.10936,-0.23636 0.57856,-1.03364 1.87678,-1.38289 1.72861,-0.45861 2.28247,0.63148 2.69169,1.43934 0.18698,0.37041 0.34573,0.68791 0.57503,0.74083 0.11995,0.0282 0.27164,-0.0176 0.3422,-0.23283 0.0635,-0.19756 -0.0212,-0.41275 -0.0953,-0.60678 -0.33514,-0.85372 -0.77964,-1.143 -0.99484,-1.28411 -0.14111,-0.0917 -0.127,-0.11289 -0.11994,-0.13406 0.007,-0.0176 0.0282,-0.0317 0.0564,-0.0423 0.13053,-0.0459 0.45509,0.0176 0.70203,0.13406 0.37042,0.17286 0.62442,0.53975 0.87489,0.90311 0.38806,0.56797 0.75494,1.10419 1.54869,0.91369 0.13759,-0.0353 0.23637,-0.0741 0.29987,-0.11994 0.0706,-0.0529 0.0953,-0.1517 0.0494,-0.22931 -0.14463,-0.26105 -0.97366,-0.61383 -1.21002,-0.68439 -0.0282,-0.007 -0.0423,-0.0212 -0.0494,-0.0388 -0.0106,-0.0423 0,-0.0776 0.0318,-0.10936 0.18697,-0.18698 1.13594,-0.067 2.6035,0.18344 0.21872,0.0388 0.40922,0.0706 0.52916,0.0882 0.46567,0.0635 0.98425,0.0565 1.29117,-0.0176 0.0776,-0.0212 0.13053,-0.0882 0.13406,-0.16581 0.004,-0.0776 -0.0459,-0.14817 -0.11995,-0.17286 -0.28222,-0.0988 -0.75847,-0.25753 -1.1183,-0.68792 -0.0106,-0.007 -0.0212,-0.0247 -0.0353,-0.0353 -0.23989,-0.26105 -0.33514,-0.39863 -0.32808,-0.46566 0.004,-0.0141 0.007,-0.0353 0.0282,-0.0494 0.0741,-0.0564 0.28222,0.0141 0.66322,0.17639 l 0.0353,0.0141 c 0.0423,0.0176 0.0741,0.0317 0.0917,0.0388 0.889,0.27517 2.13431,0.38806 3.41136,0.31045 0.508,-0.0317 0.88547,-0.0882 1.28411,-0.14464 l 0.0847,-0.0141 c 0.21519,-0.0317 0.44097,-0.0635 0.70203,-0.0952 3.07269,-0.35983 5.59858,-1.74625 7.112,-3.89467 0.0917,-0.13053 0.10583,-0.12347 0.13405,-0.11289 0.0141,0.004 0.0247,0.0212 0.0212,0.0353 -0.0212,0.15875 -0.0529,0.32103 -0.0917,0.47978 -0.0176,0.0705 0.0106,0.14464 0.067,0.18344 0.06,0.0423 0.13759,0.0459 0.19756,0.0106 0.73378,-0.45156 1.47461,-1.0407 2.26483,-1.80623 0.15522,-0.14463 0.30339,-0.2928 0.44097,-0.43038 0.0388,-0.0388 0.0564,-0.0917 0.0494,-0.14112 -0.004,-0.0529 -0.0317,-0.1023 -0.0776,-0.13052 l -2.33186,-1.5487 c -0.0635,-0.0423 -0.14464,-0.0388 -0.20461,0.007 l -6.50522,5.03414 h -0.0564 c -0.0176,-0.0141 -0.0212,-0.0388 -0.0141,-0.0564 l 3.41842,-7.03439 c 0.0388,-0.0776 0.0141,-0.17286 -0.06,-0.22225 l -4.96711,-3.29847 c -0.0141,-0.0106 -0.0212,-0.0282 -0.0176,-0.0494 0.004,-0.0212 0.0176,-0.0318 0.0388,-0.0353 l 7.20372,-1.09362 c 0.0564,-0.007 0.10584,-0.0423 0.13406,-0.0952 l 3.47839,-7.16138 c 0.0106,-0.0176 0.0282,-0.0282 0.0494,-0.0247 0.0212,0.004 0.0353,0.0176 0.0388,0.0388 l 0.93839,6.36411 c 0.007,0.0459 0.0317,0.0882 0.067,0.11289 0.0388,0.0282 0.0882,0.0423 0.13406,0.0353 l 7.02733,-1.06538 c 0.0176,-0.004 0.0388,0.007 0.0494,0.0282 0.007,0.0212 0.004,0.0423 -0.0141,0.0564 l -6.55109,5.06589 c -0.0494,0.0388 -0.0741,0.10231 -0.067,0.16581 l 0.47272,3.19616 c 0.0106,0.0706 0.0635,0.127 0.13053,0.14464 0.0705,0.0176 0.14463,-0.007 0.18697,-0.067 0.17991,-0.24341 0.36689,-0.50447 0.55739,-0.77258 1.13947,-1.5875 1.97202,-2.71286 2.56469,-2.65642 0.0811,0.007 0.15875,0.0388 0.22225,0.10231 0.0353,0.0317 0.0847,0.0494 0.13406,0.0459 0.0494,-0.004 0.0953,-0.0282 0.12347,-0.067 0.38805,-0.4833 0.87489,-0.93133 1.40405,-1.30175 0.98778,-0.67733 1.98614,-0.9913 2.74109,-0.86077 0.0635,0.0212 0.13405,0.004 0.17991,-0.0459 1.62984,-1.74625 4.33564,-2.59291 5.3587,-2.31069 0.0564,0.0353 0.13053,0.0353 0.18697,0.004 2.032,-1.20297 4.24392,-1.89442 4.82953,-1.49931 0.0847,0.0529 0.13405,0.12347 0.15522,0.21167 0.0176,0.0917 0.10936,0.15522 0.20108,0.13758 3.1997,-0.56091 5.48217,-0.56444 6.11011,-0.0106 0.0847,0.0776 0.14464,0.1658 0.17287,0.26105 0.0212,0.0811 0.0988,0.13053 0.17991,0.127 0.63147,-0.0494 1.13242,0.067 1.40759,0.32456 0.10936,0.10583 0.1658,0.22225 0.1658,0.34572 0,0.0494 0.0212,0.0953 0.0565,0.13053 0.0353,0.0317 0.0847,0.0529 0.13052,0.0459 0.27164,-0.0176 0.54328,-0.0176 0.80434,0 0.762,0.0423 1.43933,0.23283 1.77094,0.49389 0.0917,0.0741 0.20108,0.1905 0.1905,0.32103 -0.004,0.0529 0.0176,0.10583 0.0564,0.14464 0.0388,0.0353 0.0917,0.0529 0.14463,0.0459 0.53623,-0.0741 1.06539,-0.0706 1.57339,0.007 0.54681,0.0847 0.67734,0.19756 0.73731,0.30692 0.0776,0.14111 0.06,0.32103 -0.0529,0.53269 -0.0247,0.0494 -0.0247,0.10937 0,0.15875 0.0212,0.0494 0.0706,0.0847 0.12347,0.0953 0.0776,0.0141 0.15523,0.0353 0.22931,0.06 0.23283,0.0776 0.44097,0.1905 0.62089,0.34219 0.0388,0.0318 0.0917,0.0459 0.14464,0.0388 0.0494,-0.0106 0.0953,-0.0423 0.11994,-0.0847 0.0564,-0.0952 0.11289,-0.18697 0.17286,-0.28575 l 0.0565,-0.0953 c 0.66322,-1.08656 1.41464,-2.32128 1.05127,-3.48897 -0.0353,-0.11642 -0.0776,-0.2152 -0.11641,-0.29634 l -0.0176,-0.0388 c -0.0776,-0.17286 -0.0706,-0.20461 -0.0353,-0.22931 0.14464,-0.10583 0.62795,0.24342 0.88547,0.5327 0.77259,0.87841 0.52917,2.55764 0.35278,3.7853 -0.0212,0.14111 -0.0388,0.27164 -0.0564,0.39159 -0.007,0.06 0.0176,0.11994 0.0635,0.15875 0.0494,0.0388 0.11289,0.0529 0.16933,0.0318 0.70556,-0.24695 1.59808,-0.0847 2.07433,0.37747 0.0741,0.0741 0.14111,0.15875 0.1905,0.25047 0.0282,0.0494 0.0811,0.0811 0.13759,0.0882 0.067,0.007 0.14111,0.0176 0.21166,0.0388 0.0388,0.0141 0.23636,0.0811 0.40923,0.22225 0.14463,0.11994 0.254,0.28575 0.32102,0.48683 0.0212,0.06 0.0706,0.10584 0.13053,0.11642 0.74083,0.16228 1.12183,0.84667 1.2312,1.43228 0.0741,0.39158 0.0529,0.79022 -0.0706,1.25941 -0.0635,0.24695 -0.16933,0.47625 -0.27517,0.6985 l -0.06,0.13053 c -0.0141,0.0353 -0.0353,0.0741 -0.0529,0.11642 -0.0882,0.17286 -0.18344,0.37394 -0.20461,0.53975 -0.007,0.0564 0.0141,0.11289 0.0529,0.15169 0.11642,0.10584 0.21519,0.22578 0.29986,0.35984 0.0706,0.10936 0.23636,0.40922 0.2787,0.83255 0.0353,0.34925 -0.0247,0.69497 -0.17639,1.03364 -0.0353,0.0847 -0.004,0.17992 0.0741,0.22578 0.10231,0.06 0.19403,0.13053 0.27164,0.21519 0.22578,0.23989 0.27517,0.50448 0.29986,0.64911 0.0353,0.20109 0.0212,0.37395 0.004,0.49037 -0.0106,0.0776 0.0353,0.15522 0.10936,0.18697 0.23283,0.0952 0.39158,0.24341 0.45861,0.43391 0.0212,0.0635 0.0317,0.127 0.0317,0.19756"
       style="fill:#ffffff;fill-opacity:1;fill-rule:nonzero;stroke:none;stroke-width:0.352778" />
  </g>
</svg>
