<?xml version="1.0" encoding="UTF-8" standalone="no"?>
<!-- Created with Inkscape (http://www.inkscape.org/) -->

<svg
   width="176.86964mm"
   height="20.97327mm"
   viewBox="0 0 176.86964 20.973271"
   version="1.1"
   id="svg1"
   xmlns="http://www.w3.org/2000/svg"
   xmlns:svg="http://www.w3.org/2000/svg">
  <defs
     id="defs1" />
  <g
     id="layer1"
     transform="translate(-279.11792,-137.97676)">
    <path
       d="m 392.71741,155.98636 c -0.30904,0 -0.5133,-0.0582 -0.60713,-0.17286 -0.12065,-0.14817 -0.13335,-0.45861 -0.0385,-0.92322 0.0663,-0.32491 0.16475,-0.67875 0.28434,-1.02553 0.0106,-0.0205 0.0198,-0.043 0.0282,-0.0667 0.77576,-2.25954 3.14925,-8.52594 4.09505,-10.74279 0.75388,-1.71944 1.39312,-2.38972 2.27965,-2.38972 0.48507,0 0.83679,-0.25576 0.98989,-0.72002 0.0325,-0.0988 0.0819,-0.20708 0.13617,-0.32702 0.061,-0.13406 0.12383,-0.27305 0.16687,-0.40534 0.1203,-0.32421 0.0282,-0.54399 -0.0374,-0.64629 -0.12312,-0.19156 -0.34007,-0.2914 -0.57573,-0.26882 -1.01812,0.10513 -2.14418,0.15381 -3.54365,0.15381 -1.403,0 -2.44652,-0.0487 -3.28048,-0.1524 -0.0469,-0.006 -0.0956,-0.006 -0.14394,0.002 -0.42439,0.0684 -0.74365,0.32703 -0.87806,0.71438 -0.0328,0.0998 -0.084,0.2159 -0.14146,0.34748 -0.0621,0.14076 -0.12595,0.28611 -0.17145,0.42545 -0.10619,0.30551 -0.0152,0.51188 0.048,0.60678 0.11501,0.17392 0.31186,0.26952 0.55492,0.26952 0.30092,0 0.5013,0.0582 0.59479,0.17286 0.127,0.15593 0.14005,0.4879 0.0381,0.98602 -0.0684,0.33443 -0.17886,0.71543 -0.29986,1.02976 -0.77576,2.25989 -3.1496,8.52628 -4.0947,10.74278 -0.54433,1.24072 -1.19732,2.38937 -2.28,2.38937 -0.48542,0 -0.83679,0.25576 -0.98989,0.72072 -0.0328,0.0991 -0.0833,0.21449 -0.1397,0.3429 -0.0621,0.14147 -0.1263,0.28752 -0.17427,0.43251 -0.10302,0.29845 -0.0328,0.49953 0.0441,0.6156 0.0639,0.0963 0.21767,0.25858 0.52846,0.25858 l 0.0402,-0.002 c 1.32433,-0.10548 2.43452,-0.15452 3.4925,-0.15452 1.05551,0 2.18757,0.0519 3.36762,0.15452 0.042,0.004 0.0818,10e-4 0.11888,-0.005 0.42439,-0.0681 0.74401,-0.32667 0.87807,-0.71332 0.0324,-0.0991 0.0818,-0.20708 0.1344,-0.32244 0.0617,-0.13582 0.12524,-0.27587 0.16899,-0.40957 0.0938,-0.25259 0.084,-0.46955 -0.0289,-0.64559 -0.0801,-0.12453 -0.24307,-0.27269 -0.56409,-0.27269 m 21.04074,-12.75465 0.019,-0.0945 c 0.01,-0.0476 0.0127,-0.096 0.008,-0.14111 -0.0526,-0.59196 -0.097,-1.22979 -0.1397,-1.84644 -0.0508,-0.72566 -0.10301,-1.47602 -0.16757,-2.15124 -0.0441,-0.54151 -0.34149,-0.7493 -0.51435,-0.82515 -0.18697,-0.0815 -0.5013,-0.13229 -0.94826,0.1009 l -0.97544,0.56515 c -1.2961,-0.73449 -2.81199,-0.79375 -3.26001,-0.79375 -3.35069,0 -7.24147,2.07998 -7.95303,5.56083 -0.52705,2.5781 1.2633,4.36845 3.14114,5.97994 1.4605,1.26682 2.74425,2.53753 2.41547,4.1469 -0.33303,1.62807 -1.81187,2.72204 -3.67983,2.72204 -1.11548,0 -1.94204,-0.29034 -2.39042,-0.83962 -0.32032,-0.39193 -0.43356,-0.91616 -0.31926,-1.47567 0.13088,-0.63993 0.57538,-1.18215 1.15958,-1.41569 0.12664,-0.0504 0.23353,-0.14887 0.2928,-0.27023 0.0691,-0.14005 0.072,-0.29669 0.008,-0.42898 -0.32033,-0.66886 -0.95639,-1.00824 -1.89019,-1.00824 -1.47073,0 -3.26213,1.11654 -3.68511,3.18523 -0.21308,1.04211 -0.004,1.95968 0.62265,2.72733 1.03328,1.26541 3.19722,2.02142 5.78873,2.02142 4.5653,0 8.28146,-2.58269 9.03711,-6.2798 0.63782,-3.11891 -1.55787,-5.05037 -3.32141,-6.60188 l -0.10548,-0.0931 c -1.19027,-1.06186 -2.42076,-2.1597 -2.17346,-3.36938 0.28892,-1.41393 1.87149,-1.94098 2.80105,-1.94098 2.15477,0 2.98486,1.3469 3.55636,2.79047 0.15593,0.44485 0.59231,0.71049 1.16663,0.71049 0.63253,0 1.38818,-0.35736 1.50636,-0.93486 m 12.07466,-2.87856 c 1.3455,0 2.23379,0.50306 2.71639,1.53847 0.45262,0.97225 0.51012,2.37596 0.16616,4.05871 h -3.5e-4 c -0.46849,2.29517 -1.69475,4.94065 -3.19934,6.90456 -1.25836,1.64253 -3.29495,3.60045 -5.85294,3.60045 -0.60184,0 -1.71979,-0.13158 -2.43946,-1.01353 -0.76553,-0.93804 -0.9331,-2.49061 -0.49918,-4.61504 0.46355,-2.26801 1.69369,-4.89796 3.21028,-6.86399 1.27035,-1.64677 3.32528,-3.60963 5.89844,-3.60963 m 7.41186,6.56661 c 0.55528,-2.7178 0.15628,-5.0031 -1.15429,-6.60859 -1.24354,-1.52294 -3.22968,-2.32833 -5.74498,-2.32833 -3.26355,0 -6.53662,1.31057 -9.21597,3.69005 -2.50789,2.22709 -4.30212,5.2444 -4.92231,8.27829 -0.55985,2.73861 -0.15839,5.02496 1.161,6.61141 1.2647,1.52153 3.29212,2.32551 5.86316,2.32551 3.22792,0 6.47312,-1.31974 9.1373,-3.71581 2.48355,-2.23344 4.2605,-5.24122 4.87609,-8.25253 m 22.64777,-8.35258 h -3.5e-4 c -0.12312,-0.19226 -0.33761,-0.29175 -0.57432,-0.26917 -1.04423,0.10478 -2.1904,0.15381 -3.60716,0.15381 -1.41993,0 -2.48355,-0.0487 -3.34398,-0.1524 -0.0476,-0.006 -0.0956,-0.005 -0.14322,0.002 -0.4244,0.0688 -0.74366,0.32703 -0.87772,0.71367 -0.0339,0.10266 -0.0875,0.22472 -0.14287,0.35066 -0.0614,0.14006 -0.12488,0.28434 -0.17074,0.42334 -0.10549,0.3055 -0.0145,0.51152 0.0487,0.60642 0.11465,0.17392 0.31185,0.26988 0.55457,0.26988 0.66286,0 1.09431,0.11677 1.28234,0.34713 0.14746,0.18062 0.17075,0.46955 0.0748,0.93662 -0.0526,0.2593 -0.13476,0.54293 -0.23777,0.82233 -0.0148,0.0275 -0.0272,0.055 -0.0363,0.0829 -0.45755,1.33879 -1.88454,5.13186 -2.88466,7.73712 l -1.86231,-11.57252 c -0.0819,-0.48048 -0.43322,-0.7239 -1.04317,-0.7239 -0.0215,0 -0.043,0.001 -0.0695,0.005 -0.73413,0.10195 -1.69298,0.15169 -2.93158,0.15169 -1.50636,0 -2.89313,-0.0938 -3.41453,-0.1531 -0.0459,-0.006 -0.0921,-0.004 -0.13512,0.003 -0.42439,0.0688 -0.74365,0.32703 -0.87771,0.71367 -0.0339,0.10266 -0.0878,0.22472 -0.14323,0.35066 -0.061,0.14006 -0.12453,0.28434 -0.17039,0.42334 -0.10548,0.3048 -0.0148,0.51117 0.0483,0.60642 0.11501,0.17392 0.31186,0.26988 0.55492,0.26988 0.68298,0 1.06539,0.0949 1.23931,0.30797 0.15169,0.18627 0.17886,0.52493 0.0804,1.00718 -0.0586,0.28752 -0.14993,0.58702 -0.23671,0.87418 -0.76553,2.24226 -3.10833,8.51959 -4.06682,10.7495 -0.66393,1.58044 -1.6824,2.3816 -3.02648,2.3816 -0.48543,0 -0.83715,0.25576 -0.9899,0.72072 -0.0328,0.0998 -0.084,0.21626 -0.14076,0.34537 -0.0621,0.14111 -0.12629,0.28787 -0.16898,0.41804 -0.11253,0.30339 -0.0226,0.514 0.0409,0.61278 0.11007,0.1711 0.30727,0.2734 0.52705,0.2734 l 0.0402,-0.001 c 1.25166,-0.0998 2.5146,-0.15452 3.5553,-0.15452 1.04951,0 2.23449,0.0533 3.42582,0.15417 0.0148,0.001 0.03,0.002 0.0448,0.002 0.0272,0 0.054,-0.002 0.0783,-0.006 0.42439,-0.0684 0.74401,-0.32667 0.87806,-0.71367 0.0325,-0.0977 0.0819,-0.20637 0.13477,-0.32349 0.0617,-0.13547 0.12523,-0.27552 0.16862,-0.40852 0.0935,-0.25259 0.084,-0.4692 -0.0293,-0.64594 -0.0801,-0.12417 -0.24271,-0.27234 -0.56374,-0.27234 -0.68227,0 -1.12007,-0.11218 -1.30104,-0.33338 -0.1337,-0.16369 -0.15769,-0.43709 -0.0748,-0.85901 0.0173,-0.0494 0.0342,-0.10513 0.0522,-0.16722 l 0.2406,-0.82938 c 0.61171,-1.7907 2.53753,-7.13211 4.04424,-10.81511 1.1236,5.352 2.25284,14.06067 2.27894,14.5034 0.002,0.0385 0.009,0.0762 0.0187,0.1069 0.18838,0.63923 0.7366,0.63923 0.94298,0.63923 h 0.63464 l 0.0822,-0.002 c 1.74272,-0.0332 2.15688,-0.0409 2.46239,-0.64665 0.0109,-0.0222 0.0205,-0.0448 0.0289,-0.0691 1.40299,-4.18536 3.66395,-10.48456 5.42325,-14.47447 0.63959,-1.59738 1.62877,-2.37384 3.02331,-2.37384 0.48506,0 0.83643,-0.25577 0.98989,-0.72073 0.0317,-0.0967 0.0804,-0.20426 0.1337,-0.32103 0.0617,-0.13582 0.12559,-0.27622 0.16934,-0.41063 0.12029,-0.3242 0.0282,-0.54398 -0.0374,-0.64629 m -81.44901,16.09524 v 0 l 0.30092,0.0885 0.12206,-0.42475 c 0.0575,-0.19932 0.11818,-0.40957 0.15452,-0.5334 0.28963,-0.87453 0.85196,-2.42711 1.55081,-4.28166 h 3.01378 c 0.69603,0 1.31445,0.26846 1.69686,0.73695 0.38805,0.47484 0.51047,1.12889 0.35489,1.89089 -0.51611,2.52589 -3.14395,3.84739 -5.47228,3.84739 -0.7292,0 -1.19275,-0.115 -1.37795,-0.34184 -0.12842,-0.15734 -0.15029,-0.40604 -0.0698,-0.80504 0.008,-0.0257 0.0162,-0.0526 0.024,-0.0783 z m 3.27378,-7.3854 c -0.0998,0.004 -0.19932,0.007 -0.29739,0.0109 0.69356,-1.79634 1.30563,-3.32493 1.69791,-4.24144 0.59055,-1.41535 1.19804,-2.30752 2.39149,-2.38125 l 0.0416,-0.003 c 1.32786,-0.0512 2.29659,0.23319 2.8,0.82762 0.37077,0.43815 0.4953,1.06786 0.35137,1.77271 -0.17886,0.87418 -0.64312,1.71485 -1.3074,2.36678 -0.0515,0.0508 -0.10371,0.0998 -0.15734,0.14746 -1.51694,1.35573 -3.59621,1.43052 -5.43101,1.49684 z m 7.03368,1.016 c 2.30223,-1.28129 3.88232,-3.12279 4.26579,-4.99886 0.11077,-0.54222 0.26494,-1.93005 -0.69391,-3.10445 -1.02588,-1.25694 -2.98486,-1.89406 -5.8226,-1.89406 -0.69815,0 -1.36208,0.0286 -2.07292,0.0593 l -0.0896,0.004 c -0.61948,0.0303 -1.46156,0.0303 -2.0761,0.0303 -1.14088,0 -1.85208,-0.0448 -2.37631,-0.078 l -0.20602,-0.0123 c -0.30233,-0.0346 -0.53904,-0.0346 -0.768,-0.0346 -3.40642,0 -6.76698,2.36044 -7.33813,5.15444 -0.17674,0.86501 -0.025,1.64676 0.42757,2.20098 0.387,0.47378 0.96732,0.73448 1.63477,0.73448 1.06504,0 2.13607,-0.75036 2.54706,-1.78541 0.0561,-0.14252 0.0462,-0.29668 -0.0275,-0.42263 -0.0783,-0.1337 -0.22013,-0.21766 -0.37959,-0.22401 -0.1905,-0.008 -0.34572,-0.0871 -0.46178,-0.23565 -0.17604,-0.22508 -0.23213,-0.57292 -0.15417,-0.95497 0.20532,-1.00436 1.39665,-2.12796 2.68288,-2.12796 0.38064,0 0.64205,0.0931 0.79869,0.2854 0.23918,0.2928 0.27693,0.84949 0.11218,1.65453 -0.0656,0.32138 -0.15805,0.62441 -0.23848,0.87982 -0.80927,2.4571 -2.91006,7.90646 -3.88867,10.18434 -0.6791,1.64501 -1.38077,2.37878 -2.27542,2.37878 -0.48506,0 -0.83678,0.25577 -0.98954,0.72038 -0.0335,0.10195 -0.0854,0.21907 -0.1397,0.3429 -0.0593,0.13405 -0.12629,0.2861 -0.17039,0.42086 -0.11218,0.30339 -0.0222,0.514 0.0409,0.61242 0.1203,0.18733 0.33197,0.28716 0.56621,0.27235 1.31551,-0.10231 2.63949,-0.12347 3.51861,-0.12347 1.74025,0 3.34116,0.0882 5.03766,0.18203 l 0.0628,0.003 c 0.33055,0.0339 0.62971,0.0339 0.91863,0.0339 2.55799,0 4.80907,-0.69744 6.50981,-2.01754 1.41605,-1.09855 2.41018,-2.61796 2.72732,-4.16842 0.24025,-1.1751 -0.0974,-2.78624 -1.68204,-3.97157 m -58.3259,-5.5552 -0.1143,1.21109 -0.64875,5.00274 -0.0445,0.21661 c -0.76941,-0.71685 -1.55293,-1.26118 -2.37561,-1.6503 z m 4.02273,13.24258 c -0.35701,0 -0.58914,-0.079 -0.75389,-0.25577 -0.25858,-0.27799 -0.36159,-0.81315 -0.3055,-1.58644 l 0.53375,-6.28015 c 0.0977,-1.09749 0.22366,-2.20169 0.34502,-3.26954 0.0596,-0.52035 0.11888,-1.0414 0.17568,-1.56634 l 0.41487,-3.85586 c 0.0413,-0.2353 -0.01,-0.45367 -0.14429,-0.61595 -0.13723,-0.16616 -0.35172,-0.26105 -0.58808,-0.26105 -0.0257,0 -0.0522,0.002 -0.0744,0.006 -0.35313,0.0526 -1.29822,0.0882 -2.35126,0.0882 -0.93028,0 -1.88771,-0.0349 -2.4959,-0.0914 -0.0427,-0.004 -0.0864,-0.003 -0.12841,0.004 -0.44203,0.0709 -0.67875,0.387 -0.85972,0.70167 l -0.36548,0.71791 c -0.0219,0.0427 -0.0378,0.0878 -0.0469,0.1337 -0.0441,0.21555 0.002,0.42086 0.13017,0.57785 0.12065,0.14781 0.29951,0.23248 0.49107,0.23248 0.2152,0 0.28046,0.0353 0.28752,0.0399 0.004,0.018 0.0303,0.19156 -0.23742,0.64947 l -3.74792,5.44724 c -0.57255,-0.10866 -1.03293,-0.16122 -1.40229,-0.16122 -1.91805,0 -4.01672,0.60043 -5.75839,1.64747 -1.80305,1.08409 -3.00425,2.52166 -3.29494,3.94441 -0.067,0.32773 -0.084,0.63571 -0.0505,0.91758 -1.67675,1.77835 -3.52813,2.83598 -4.97381,2.83598 h -0.40605 c -0.87136,0 -1.43439,-0.15382 -1.62807,-0.44521 -0.23142,-0.34784 -0.0402,-1.04316 0.20073,-1.74272 l 0.53658,-1.55822 c 0.7694,-2.16676 2.73685,-7.35683 3.52742,-9.18528 0.75389,-1.71943 1.39277,-2.38936 2.27965,-2.38936 0.48542,0 0.83679,-0.25576 0.98989,-0.72072 0.0325,-0.0984 0.0815,-0.20673 0.13477,-0.3235 0.0614,-0.13547 0.12488,-0.27517 0.16827,-0.40817 0.1203,-0.3242 0.0282,-0.54398 -0.0374,-0.64593 -0.11078,-0.17286 -0.30163,-0.27199 -0.52423,-0.27199 l -0.0505,0.003 c -1.04493,0.10477 -2.19145,0.15346 -3.60715,0.15346 -1.41958,0 -2.4832,-0.0487 -3.34398,-0.1524 -0.0466,-0.006 -0.0945,-0.005 -0.14288,0.003 -0.42404,0.0684 -0.74365,0.32667 -0.87806,0.71367 -0.0332,0.10089 -0.085,0.21872 -0.1397,0.3436 -0.0624,0.14182 -0.127,0.28858 -0.17357,0.43004 -0.10583,0.3048 -0.0152,0.51118 0.0483,0.60713 0.11536,0.17357 0.31221,0.26917 0.55457,0.26917 0.30092,0 0.50094,0.0579 0.59478,0.17251 0.127,0.15593 0.14006,0.48789 0.0381,0.98637 -0.0614,0.30056 -0.1591,0.6477 -0.26846,0.95638 -0.012,0.0233 -0.0226,0.0476 -0.031,0.0727 -0.65829,1.90923 -2.49661,6.97406 -3.40325,9.18598 l -0.6671,1.57268 c -0.79199,1.97697 -1.45698,2.3742 -2.2733,2.3742 -0.46708,0 -0.82656,0.26528 -0.98814,0.72778 l -0.35277,0.8262 c -0.0134,0.0325 -0.0236,0.0653 -0.0307,0.0995 -0.0441,0.21485 0.002,0.4191 0.12946,0.57539 0.12171,0.14922 0.30339,0.23459 0.51365,0.23424 h 10e-4 c 2.16182,-0.10019 4.40725,-0.15558 6.32213,-0.15558 2.06516,0 4.26896,0.0512 6.75076,0.15629 0.46037,0 0.86642,-0.21661 1.14582,-0.61313 l 1.79423,-2.93582 c 0.17709,0.0317 0.35842,0.0483 0.53445,0.0483 1.18957,0 2.27542,-0.77188 2.70158,-1.92123 0.0533,-0.14322 0.0399,-0.29633 -0.0363,-0.42051 -0.0804,-0.13052 -0.2226,-0.21096 -0.37994,-0.21554 -0.30445,-0.01 -0.51647,-0.0875 -0.63077,-0.23178 -0.17674,-0.22401 -0.14111,-0.62794 -0.0801,-0.92745 0.2159,-1.05481 1.22061,-2.25884 3.39055,-2.47368 0.46143,-0.0402 1.05833,0.005 1.74378,0.12912 l -3.10445,4.54448 c -0.91545,1.26259 -2.03693,2.55341 -3.41312,2.55341 -0.4445,0 -0.80186,0.248 -1.00648,0.69814 l -0.33055,0.72814 c -0.15698,0.30021 -0.0882,0.52458 -0.0325,0.63217 0.10583,0.20497 0.33231,0.32703 0.58772,0.3101 1.16699,-0.10125 2.26554,-0.15452 3.17677,-0.15452 0.90417,0 1.94063,0.0519 3.09633,0.15522 l 0.0286,10e-4 c 0.0275,0 0.0561,-0.002 0.0801,-0.007 0.38383,-0.0617 0.70873,-0.3108 0.89535,-0.6918 l 0.34008,-0.7486 c 0.0166,-0.0356 0.0289,-0.073 0.037,-0.11288 0.0476,-0.23354 0.005,-0.44556 -0.11888,-0.59796 -0.11183,-0.13688 -0.27905,-0.21237 -0.47096,-0.21237 -0.64558,0 -0.85443,-0.13759 -0.92146,-0.21943 -0.0677,-0.0833 -0.0776,-0.21872 -0.0324,-0.43921 0.0571,-0.28081 0.23777,-0.66075 0.47413,-0.9966 l 0.14781,-0.21837 c 0.33303,-0.49247 0.74719,-1.1056 1.02659,-1.55927 l 1.99213,-2.80917 c 2.00308,1.26788 3.20817,3.15736 3.16513,4.99004 -0.0691,0.56762 -0.18662,0.9084 -0.36936,1.07103 -0.13688,0.12171 -0.3556,0.18098 -0.66922,0.18098 -0.4445,0 -0.80222,0.248 -1.00683,0.69814 l -0.3302,0.72814 c -0.15769,0.30056 -0.0878,0.52493 -0.0328,0.63112 0.10972,0.21307 0.34361,0.33619 0.59726,0.30973 0.77364,-0.0808 1.7533,-0.12206 2.91112,-0.12206 1.06186,0 2.2606,0.0406 3.67277,0.12453 0.0328,10e-4 0.0667,-7e-4 0.10124,-0.006 0.38383,-0.0617 0.70838,-0.3108 0.89535,-0.6918 l 0.34079,-0.75036 c 0.0159,-0.0349 0.0282,-0.0723 0.0363,-0.11112 0.0476,-0.23354 0.005,-0.44556 -0.11888,-0.59796 -0.11183,-0.13688 -0.27905,-0.21237 -0.47096,-0.21237 m 34.67788,-12.84933 c 0.01,-0.0455 0.012,-0.0924 0.008,-0.14147 -0.0522,-0.59196 -0.0967,-1.22837 -0.13935,-1.84397 -0.0508,-0.72672 -0.10336,-1.47814 -0.16792,-2.15335 -0.0441,-0.54152 -0.34114,-0.74966 -0.51435,-0.8255 -0.18733,-0.0815 -0.5013,-0.13159 -0.94791,0.10124 l -0.97543,0.56515 c -1.29611,-0.73483 -2.81235,-0.79375 -3.26038,-0.79375 -3.35033,0 -7.24147,2.07963 -7.95302,5.56049 -0.52705,2.57845 1.26365,4.3688 3.14149,5.98029 1.4605,1.26682 2.7439,2.53753 2.41547,4.1469 -0.33338,1.62807 -1.81187,2.72203 -3.68018,2.72203 -1.11513,0 -1.94169,-0.29033 -2.39007,-0.83961 -0.32032,-0.39229 -0.43356,-0.91616 -0.31926,-1.47567 0.13088,-0.63994 0.57538,-1.18251 1.15922,-1.4157 0.1263,-0.0501 0.23319,-0.14887 0.29316,-0.27058 0.0688,-0.1397 0.0716,-0.29598 0.008,-0.42862 -0.32103,-0.66922 -0.95709,-1.00824 -1.89019,-1.00824 -1.15852,0 -2.51283,0.69497 -3.24379,1.9999 0.0296,-0.11395 0.0564,-0.22931 0.0801,-0.34572 0.63747,-3.11891 -1.55786,-5.05002 -3.32175,-6.60224 l -0.10619,-0.0931 c -1.18957,-1.06186 -2.4197,-2.15971 -2.17241,-3.36938 0.28893,-1.41394 1.87149,-1.94063 2.80106,-1.94063 2.15477,0 2.9845,1.34655 3.556,2.79011 0.15593,0.44486 0.59231,0.7105 1.16664,0.7105 0.63253,0 1.38818,-0.35736 1.50636,-0.93451 l 0.0194,-0.0945 c 0.01,-0.0469 0.012,-0.0942 0.008,-0.14147 -0.0515,-0.58102 -0.0956,-1.21355 -0.13828,-1.82562 l -0.002,-0.0303 c -0.0505,-0.7239 -0.10266,-1.47214 -0.16687,-2.14172 -0.0441,-0.54151 -0.34148,-0.7493 -0.51435,-0.82479 -0.18697,-0.0822 -0.50165,-0.13264 -0.94826,0.10089 l -0.97508,0.56515 c -1.29611,-0.73483 -2.81234,-0.79375 -3.26037,-0.79375 -3.35069,0 -7.24147,2.07963 -7.95302,5.56049 -0.52705,2.57845 1.26365,4.3688 3.14148,5.98029 1.46015,1.26682 2.74391,2.53717 2.41512,4.1469 -0.33302,1.62807 -1.81152,2.72203 -3.67983,2.72203 -1.11548,0 -1.94204,-0.29033 -2.39042,-0.83961 -0.31997,-0.39229 -0.43321,-0.91652 -0.31891,-1.47567 0.13053,-0.63994 0.57503,-1.18251 1.15958,-1.4157 0.1263,-0.0504 0.23319,-0.14922 0.29245,-0.27022 0.0688,-0.1397 0.072,-0.29598 0.008,-0.42898 -0.32103,-0.66922 -0.95673,-1.00824 -1.89018,-1.00824 -1.47109,0 -3.26249,1.11619 -3.68512,3.18523 -0.21308,1.04246 -0.004,1.96003 0.62266,2.72733 1.03328,1.26541 3.19722,2.02106 5.78837,2.02106 3.88691,0 7.15716,-1.87254 8.51006,-4.71099 -0.20038,1.02658 0.01,1.93181 0.62865,2.68993 1.03329,1.26541 3.19722,2.02106 5.78838,2.02106 4.56529,0 8.28181,-2.58198 9.03746,-6.27944 0.63747,-3.11856 -1.46579,-4.96923 -3.32176,-6.60224 l -0.10689,-0.0938 c -1.18921,-1.06151 -2.419,-2.15935 -2.17205,-3.36867 0.28928,-1.41394 1.87184,-1.94063 2.80141,-1.94063 2.15441,0 2.9845,1.34655 3.556,2.79011 0.15628,0.44486 0.59266,0.7105 1.16698,0.7105 0.63218,0 1.38818,-0.35736 1.50566,-0.93416 z m -67.2492,8.3119 c 0.44203,0 0.76835,-0.248 0.92004,-0.69921 l 0.31151,-0.78563 c 0.14217,-0.30727 0.0282,-0.6604 -0.26953,-0.82656 -0.0885,-0.0494 -0.18979,-0.0688 -0.29174,-0.0554 -1.48978,0.18168 -3.02331,0.27764 -4.43477,0.27764 -0.80081,0 -1.61114,-0.0325 -2.29059,-0.0924 -0.0395,-0.002 -0.0769,-7e-4 -0.115,0.005 -0.36724,0.0589 -0.67169,0.29987 -0.85725,0.6784 -0.0106,0.0215 -0.0194,0.0434 -0.0272,0.067 -0.0321,0.097 -0.0808,0.20461 -0.1337,0.32138 -0.0586,0.12806 -0.12488,0.27341 -0.17604,0.42863 -0.0991,0.30092 -0.0272,0.50059 0.0505,0.61524 0.17357,0.25541 0.46532,0.25259 0.5655,0.25294 0.67557,-0.0127 0.78035,0.11254 0.78105,0.1136 0.0667,0.10054 -0.13934,0.69462 -0.22789,0.94862 -0.8576,2.48285 -2.60315,3.85022 -4.9149,3.85022 -1.06504,0 -1.87007,-0.32456 -2.39254,-0.96485 -1.1049,-1.35361 -0.7627,-3.75603 -0.56444,-4.72581 0.46743,-2.28777 1.77659,-4.94348 3.41665,-6.93067 1.36878,-1.65912 3.58493,-3.63679 6.36764,-3.63679 1.14829,0 1.9819,0.30833 2.47826,0.91616 0.45332,0.55528 0.6089,1.3843 0.42722,2.27401 -0.27693,1.35361 -1.35714,2.75343 -2.68605,2.75343 -0.33303,0 -0.58244,-0.0991 -0.7419,-0.29422 -0.1905,-0.23318 -0.25435,-0.61454 -0.17145,-1.02094 0.0681,-0.33302 0.21308,-0.60325 0.43145,-0.80292 0.18274,-0.16686 0.23072,-0.42298 0.11642,-0.6223 -0.24518,-0.42721 -0.62583,-0.635 -1.16346,-0.635 -1.04599,0 -2.29482,0.81739 -2.57458,2.18511 -0.14216,0.69462 0.008,1.33808 0.43498,1.8609 0.64523,0.79022 1.88172,1.26224 3.308,1.26224 1.78611,0 3.38666,-0.48119 4.62879,-1.39065 1.13948,-0.83467 1.90783,-1.98261 2.16324,-3.2325 0.24906,-1.21885 -0.0392,-2.419 -0.81245,-3.37961 -1.10384,-1.3716 -3.10832,-2.1463 -5.64868,-2.18158 l -0.0335,10e-4 c -3.23744,0.20073 -6.53521,1.61995 -9.28617,3.99661 -2.65677,2.29482 -4.52367,5.29132 -5.12269,8.22079 -0.52952,2.59044 -0.10442,4.89479 1.19663,6.48934 1.20685,1.47849 3.05152,2.2599 5.3347,2.2599 1.97908,0 3.63855,-0.61983 5.6381,-1.62666 l 1.20403,0.98989 c 0.0201,0.0162 0.0413,0.031 0.0688,0.0469 0.19791,0.10936 0.45684,0.10936 0.6925,7.1e-4 0.21237,-0.0981 0.37888,-0.27446 0.45403,-0.47731 l 2.05881,-5.19889 c 0.4071,-0.81703 0.79763,-1.21073 1.88771,-1.23613"
       style="fill:#013da6;fill-opacity:1;fill-rule:nonzero;stroke:none;stroke-width:0.352778"
       id="path1" />
  </g>
</svg>
