<?xml version="1.0" encoding="UTF-8" standalone="no"?>
<!-- Created with Inkscape (http://www.inkscape.org/) -->

<svg
   width="186.58936mm"
   height="105.83329mm"
   viewBox="0 0 186.58935 105.83329"
   version="1.1"
   id="svg1"
   xmlns="http://www.w3.org/2000/svg"
   xmlns:svg="http://www.w3.org/2000/svg">
  <defs
     id="defs1" />
  <g
     id="layer1"
     transform="translate(-274.35433,-95.378849)">
    <path
       id="path51"
       d="m 319.62121,181.80896 c 0.13335,-0.2473 0.0861,-0.43215 0.0229,-0.54469 -0.0469,-0.0825 -0.11042,-0.14605 -0.18909,-0.18873 l -4.01073,-2.16218 c -0.0931,-0.0505 -0.18556,-0.0794 -0.27481,-0.0868 -0.24906,-0.036 -0.45579,0.0635 -0.57009,0.27516 -0.14147,0.26176 -0.12771,0.53411 0.0381,0.76553 0.10795,0.15099 0.22966,0.30974 0.36124,0.47096 0.11148,0.13688 0.20144,0.29069 0.26706,0.45685 0.0448,0.11324 0.0159,0.26634 -0.0861,0.45579 l -0.67099,1.2446 c -0.20073,0.37253 -0.43638,0.59901 -0.72072,0.6925 -0.27446,0.0903 -0.65793,0.005 -1.13806,-0.25365 -0.40605,-0.21907 -0.73731,-0.51999 -0.9846,-0.89464 -0.24977,-0.37818 -0.40993,-0.82198 -0.47555,-1.31939 -0.067,-0.50659 -0.0321,-1.07174 0.10442,-1.67922 0.13794,-0.61419 0.38982,-1.2633 0.7486,-1.92935 0.35807,-0.66392 0.76447,-1.22484 1.20826,-1.66652 0.43886,-0.43674 0.90241,-0.76729 1.3776,-0.98248 0.46672,-0.21097 0.9465,-0.31115 1.42522,-0.2974 0.47766,0.0138 0.94262,0.14076 1.38218,0.37783 0.20391,0.10971 0.41522,0.248 0.6276,0.41063 0.20461,0.15699 0.39123,0.3429 0.55421,0.55281 0.16122,0.20743 0.29528,0.44696 0.39829,0.71084 0.10124,0.26 0.15839,0.55316 0.17004,0.86607 0.004,0.19227 0.006,0.3683 0.007,0.5267 10e-4,0.16898 0.01,0.32209 0.0261,0.45579 0.0187,0.15628 0.0596,0.29563 0.12135,0.41345 0.0723,0.13865 0.18204,0.24836 0.32668,0.32632 0.14252,0.0769 0.27869,0.10337 0.40393,0.0776 0.10407,-0.0208 0.19896,-0.0649 0.28257,-0.13158 0.0769,-0.0614 0.14076,-0.13935 0.1905,-0.23178 l 0.78282,-1.45203 c 0.14428,-0.26741 0.13193,-0.59373 -0.036,-0.97014 -0.14252,-0.3182 -0.36689,-0.65405 -0.66675,-0.99801 -0.29245,-0.33549 -0.6477,-0.67063 -1.05551,-0.99554 -0.40746,-0.32455 -0.84278,-0.61242 -1.29399,-0.85548 -0.97684,-0.5267 -1.94133,-0.84914 -2.86632,-0.95885 -0.92639,-0.10901 -1.80445,-0.048 -2.60949,0.18203 -0.8061,0.23036 -1.54058,0.61348 -2.18264,1.13912 -0.64064,0.52458 -1.16522,1.16099 -1.55892,1.89124 -0.39194,0.72672 -0.653,1.50037 -0.77612,2.29905 -0.12453,0.8061 -0.0797,1.61149 0.13371,2.39395 0.21307,0.78211 0.6103,1.53318 1.18074,2.23203 0.56939,0.69709 1.35361,1.31798 2.33187,1.84538 0.44979,0.24236 0.94191,0.45473 1.46261,0.63077 0.51929,0.17568 1.02165,0.30374 1.49331,0.381 0.31891,0.0522 0.6156,0.0783 0.88583,0.0783 0.13793,0 0.26916,-0.007 0.39334,-0.0205 0.43956,-0.0483 0.73696,-0.21096 0.88371,-0.48401 l 1.19027,-2.20804 c 0.0684,-0.127 0.14429,-0.21272 0.22543,-0.25541 0.11218,-0.0593 0.23071,-0.10583 0.35242,-0.13864 0.14535,-0.0392 0.27588,-0.0765 0.39194,-0.11218 0.18309,-0.0561 0.32632,-0.17216 0.41416,-0.33514"
       style="fill:#013da6;fill-opacity:1;fill-rule:nonzero;stroke:none;stroke-width:0.352778" />
    <path
       id="path52"
       d="m 329.44741,187.4679 c -0.24659,-0.091 -0.47837,-0.0917 -0.68862,-0.002 -0.16228,0.0695 -0.32703,0.16475 -0.4893,0.28328 -0.15029,0.10936 -0.31221,0.23601 -0.4819,0.37712 -0.14252,0.11854 -0.30445,0.21696 -0.48119,0.29246 -0.1718,0.073 -0.37818,0.11641 -0.61418,0.12841 -0.23248,0.0106 -0.51612,-0.0445 -0.84561,-0.16616 l -1.05199,-0.38876 c -0.39863,-0.14746 -0.64558,-0.33232 -0.73272,-0.54963 -0.0928,-0.23036 -0.0889,-0.47413 0.0117,-0.74577 l 2.65465,-7.18503 c 0.0501,-0.13546 0.11289,-0.23107 0.18732,-0.28469 0.10055,-0.0727 0.20814,-0.13158 0.31927,-0.17533 0.13546,-0.0533 0.26211,-0.1076 0.37712,-0.16122 0.17321,-0.0811 0.2988,-0.2159 0.36301,-0.38982 0.10195,-0.27658 0.0307,-0.45579 -0.048,-0.55845 -0.0586,-0.0758 -0.13018,-0.12982 -0.21343,-0.16051 l -3.75638,-1.38783 c -0.0836,-0.0307 -0.17321,-0.0363 -0.26776,-0.0169 -0.12523,0.0268 -0.29633,0.11677 -0.39828,0.39299 -0.0642,0.17392 -0.0564,0.35807 0.0222,0.53235 0.0505,0.11183 0.11148,0.2353 0.18168,0.36724 0.0557,0.10513 0.0991,0.22013 0.12841,0.34113 0.0215,0.0893 0.007,0.20285 -0.0427,0.33796 l -2.89984,7.84825 c -0.043,0.11571 -0.10054,0.19862 -0.17533,0.25259 -0.0991,0.0713 -0.2032,0.127 -0.30938,0.1651 -0.13794,0.0497 -0.26212,0.0981 -0.36936,0.14393 -0.17604,0.0751 -0.30163,0.2032 -0.36336,0.37007 -0.0977,0.26423 -0.005,0.44344 0.0586,0.52564 0.0578,0.0762 0.13017,0.13052 0.21449,0.16157 l 7.1956,2.65924 c 0.12065,0.0445 0.2152,0.0822 0.28999,0.11536 0.0882,0.0388 0.16192,0.0695 0.2219,0.0917 0.0469,0.0173 0.0935,0.0367 0.14005,0.0593 0.0621,0.0296 0.13088,0.0586 0.20461,0.0861 0.085,0.0314 0.16757,0.0469 0.24694,0.0469 0.0402,0 0.0794,-0.004 0.11783,-0.012 0.0949,-0.0201 0.17286,-0.0504 0.23707,-0.0931 0.0833,-0.0515 0.15275,-0.12065 0.21237,-0.2159 l 1.1617,-2.06022 c 0.0631,-0.12488 0.0988,-0.24906 0.10689,-0.38241 10e-4,-0.10442 -0.0162,-0.20814 -0.0529,-0.31044 -0.0547,-0.14958 -0.17956,-0.26141 -0.37112,-0.33232"
       style="fill:#013da6;fill-opacity:1;fill-rule:nonzero;stroke:none;stroke-width:0.352778" />
    <path
       id="path53"
       d="m 336.25564,187.14483 1.50812,-2.25143 0.27482,2.68711 z m 5.94854,6.02086 c -0.10195,-0.11571 -0.20179,-0.24589 -0.2981,-0.38841 -0.0762,-0.11218 -0.12312,-0.25259 -0.1397,-0.41945 -0.15381,-1.47003 -0.28469,-2.73227 -0.39335,-3.78743 -0.10865,-1.0548 -0.20143,-1.9498 -0.27798,-2.68499 -0.0762,-0.72813 -0.14253,-1.32856 -0.19721,-1.7854 -0.054,-0.44909 -0.0945,-0.80998 -0.12065,-1.0728 l -0.0875,-0.87983 c -0.012,-0.11747 -0.0427,-0.21272 -0.0938,-0.2921 l -0.0903,-0.14005 -0.0356,-0.0289 c -0.0741,-0.0596 -0.14675,-0.0981 -0.2226,-0.11642 l -1.7459,-0.42686 c -0.0758,-0.0183 -0.15804,-0.0183 -0.25188,3.5e-4 l -0.0335,0.009 c -0.13512,0.0455 -0.25788,0.14146 -0.36478,0.28539 l -0.01,0.0138 c -0.0586,0.0893 -0.18486,0.28081 -0.37818,0.57327 -0.19367,0.29351 -0.50271,0.75776 -0.92639,1.39276 -0.42439,0.63641 -0.98602,1.48414 -1.68522,2.54424 -0.69886,1.05974 -1.59103,2.40982 -2.67688,4.052 -0.0907,0.139 -0.19756,0.24236 -0.31715,0.30692 -0.15134,0.0818 -0.30056,0.15169 -0.44379,0.20673 -0.16369,0.0638 -0.30868,0.12664 -0.43145,0.18697 -0.24377,0.11924 -0.33373,0.30268 -0.36583,0.43533 -0.036,0.14605 -0.024,0.27552 0.0353,0.38452 0.0427,0.0794 0.0998,0.14817 0.16827,0.20356 0.073,0.0596 0.16581,0.10336 0.27588,0.13017 l 2.83527,0.69321 c 0.0984,0.024 0.19509,0.0268 0.28751,0.007 l 0.0318,-0.008 c 0.072,-0.024 0.14112,-0.0628 0.20638,-0.11571 0.0861,-0.0706 0.1464,-0.17533 0.17992,-0.3115 0.0593,-0.24342 -0.002,-0.47696 -0.17357,-0.65793 -0.10195,-0.1076 -0.20673,-0.22578 -0.3108,-0.35137 -0.0794,-0.0956 -0.13088,-0.20567 -0.15804,-0.33761 -0.01,-0.0459 -0.0116,-0.18415 0.17215,-0.47237 l 1.0795,-1.62489 2.99015,0.73095 0.25047,2.20804 c 0.0286,0.28716 -0.031,0.38347 -0.0501,0.4064 -0.0723,0.0871 -0.15381,0.1464 -0.2487,0.18168 -0.13723,0.0508 -0.27023,0.097 -0.39935,0.13829 -0.22436,0.0727 -0.37676,0.23036 -0.42898,0.4445 -0.0335,0.13688 -0.0282,0.25823 0.0155,0.35842 0.0324,0.0765 0.0762,0.14358 0.12982,0.19897 l 0.0233,0.0215 c 0.073,0.06 0.15452,0.10089 0.24201,0.12206 l 4.09786,1.00224 c 0.0653,0.0159 0.12595,0.0236 0.18415,0.0236 0.0413,0 0.0811,-0.004 0.1196,-0.012 0.0878,-0.018 0.17003,-0.0529 0.24341,-0.10266 0.10337,-0.0699 0.17392,-0.17885 0.20955,-0.3249 0.0325,-0.13265 0.037,-0.33655 -0.12382,-0.55563 -0.0818,-0.11042 -0.18168,-0.23283 -0.29704,-0.36477"
       style="fill:#013da6;fill-opacity:1;fill-rule:nonzero;stroke:none;stroke-width:0.352778" />
    <path
       id="path54"
       d="m 353.40691,184.11606 c -0.3616,-0.21061 -0.78528,-0.39934 -1.25906,-0.56127 -0.47273,-0.16122 -0.97543,-0.28046 -1.49437,-0.35454 -0.63288,-0.0903 -1.2379,-0.0988 -1.79881,-0.0254 -0.56798,0.0748 -1.08056,0.23072 -1.52259,0.46355 -0.4505,0.23742 -0.82727,0.55915 -1.11937,0.95638 -0.29421,0.4004 -0.48189,0.87348 -0.55809,1.40582 -0.0995,0.69815 -0.0162,1.32962 0.24765,1.87678 0.25329,0.52705 0.60466,1.00753 1.04352,1.4291 0.42686,0.40922 0.90346,0.79199 1.41675,1.137 0.4953,0.33302 0.95956,0.66569 1.38042,0.98813 0.40428,0.31045 0.73378,0.63359 0.97931,0.96062 0.21731,0.28998 0.2981,0.60607 0.24659,0.96555 -0.0268,0.18838 -0.0935,0.33761 -0.20355,0.45579 -0.12241,0.13194 -0.26705,0.23213 -0.44238,0.30621 -0.18168,0.0769 -0.38735,0.12488 -0.61101,0.14252 -0.23178,0.0187 -0.4699,0.0109 -0.70732,-0.0229 -0.2533,-0.0363 -0.50765,-0.11395 -0.7553,-0.23142 -0.24977,-0.11783 -0.49001,-0.27799 -0.71402,-0.47625 -0.22366,-0.1972 -0.42122,-0.43039 -0.58667,-0.69356 -0.16263,-0.25753 -0.28787,-0.55563 -0.37183,-0.88689 -0.0427,-0.22965 -0.10231,-0.4572 -0.1778,-0.67662 -0.10619,-0.30621 -0.34996,-0.5013 -0.68615,-0.54928 -0.16793,-0.024 -0.30339,-0.0148 -0.41346,0.0286 -0.10618,0.0416 -0.19755,0.10618 -0.27093,0.19226 -0.078,0.0917 -0.1263,0.19861 -0.14358,0.31821 l -0.23566,1.64994 c -0.0497,0.34748 0.0656,0.69215 0.3429,1.02446 0.24483,0.29422 0.5842,0.56903 1.00895,0.81704 0.41134,0.24059 0.88794,0.45684 1.41605,0.64311 0.52916,0.18627 1.07279,0.31997 1.61678,0.39758 0.34889,0.0501 0.68968,0.0748 1.01917,0.0748 0.26741,0 0.52811,-0.0162 0.77964,-0.049 0.56797,-0.0748 1.08373,-0.23318 1.53317,-0.47095 0.4565,-0.24201 0.83538,-0.56268 1.12642,-0.95356 0.29387,-0.39441 0.4826,-0.87101 0.56021,-1.4157 0.0998,-0.69779 0.0159,-1.3268 -0.24906,-1.87007 -0.254,-0.51929 -0.6036,-1.00119 -1.03893,-1.43263 -0.42545,-0.42052 -0.89817,-0.81175 -1.40476,-1.1617 -0.49001,-0.33867 -0.95215,-0.67381 -1.37336,-0.9973 -0.40429,-0.3101 -0.73378,-0.63324 -0.97896,-0.96062 -0.21731,-0.28963 -0.29951,-0.59443 -0.25118,-0.93204 0.0272,-0.19191 0.0896,-0.34113 0.1905,-0.45649 0.11042,-0.127 0.24377,-0.22507 0.40711,-0.29951 0.16862,-0.0769 0.36089,-0.12559 0.57114,-0.14464 0.22049,-0.0201 0.44556,-0.0141 0.66958,0.018 0.47589,0.0681 0.90593,0.25365 1.27846,0.55139 0.37007,0.29598 0.61172,0.6657 0.73872,1.13136 0.0967,0.34925 0.19438,0.64982 0.29034,0.89288 0.12982,0.32914 0.37606,0.52846 0.71261,0.57679 0.14922,0.0212 0.28257,0.004 0.39687,-0.0501 0.1143,-0.054 0.2032,-0.13229 0.26388,-0.23319 0.0437,-0.0727 0.0797,-0.15628 0.10971,-0.25576 l 0.22261,-1.66017 c 0.0416,-0.29387 -0.0635,-0.58949 -0.31362,-0.87948 -0.21555,-0.24941 -0.514,-0.48577 -0.88724,-0.70273"
       style="fill:#013da6;fill-opacity:1;fill-rule:nonzero;stroke:none;stroke-width:0.352778" />
    <path
       id="path55"
       d="m 363.4714,190.51999 c -0.45791,-0.38488 -0.96061,-0.73625 -1.49437,-1.04422 -0.51682,-0.2981 -1.00435,-0.59514 -1.44956,-0.883 -0.42792,-0.27588 -0.78246,-0.57115 -1.05375,-0.87807 -0.23989,-0.27093 -0.34678,-0.56832 -0.32596,-0.90875 0.012,-0.19333 0.0617,-0.34714 0.1531,-0.47026 0.0998,-0.13582 0.22472,-0.24412 0.38171,-0.33161 0.16157,-0.0903 0.34925,-0.15451 0.55739,-0.1905 0.21801,-0.0377 0.44273,-0.0501 0.66886,-0.036 0.47978,0.0289 0.92322,0.17921 1.31904,0.44591 0.39264,0.26494 0.66322,0.61383 0.82762,1.06786 0.12488,0.34043 0.24659,0.63182 0.36195,0.86642 0.15592,0.3175 0.41768,0.49636 0.7567,0.51682 0.15134,0.01 0.28223,-0.0183 0.39229,-0.0818 0.10936,-0.0635 0.19156,-0.14888 0.24342,-0.25365 0.0374,-0.0751 0.0674,-0.16404 0.0889,-0.26388 l 0.0868,-1.67322 c 0.0183,-0.29563 -0.11077,-0.58209 -0.38347,-0.8509 -0.23495,-0.23072 -0.55139,-0.44239 -0.94121,-0.62865 -0.37782,-0.18063 -0.81527,-0.33444 -1.30034,-0.4572 -0.48366,-0.12242 -0.99448,-0.20038 -1.51835,-0.23213 -0.63782,-0.0392 -1.24178,0.001 -1.79494,0.12029 -0.55985,0.1203 -1.05762,0.31715 -1.4799,0.58526 -0.42968,0.27305 -0.77893,0.62442 -1.03787,1.04387 -0.26106,0.42263 -0.40993,0.90911 -0.44238,1.44639 -0.043,0.70379 0.091,1.32645 0.39828,1.85067 0.29563,0.50483 0.68474,0.95568 1.15605,1.33985 0.45862,0.37324 0.96485,0.71614 1.50425,1.01847 0.5207,0.29175 1.01071,0.58561 1.45627,0.87313 0.42792,0.27658 0.78246,0.5722 1.05339,0.87806 0.24024,0.27129 0.34608,0.57997 0.3242,0.94262 -0.0116,0.1898 -0.066,0.34361 -0.1658,0.47061 -0.11148,0.14111 -0.24765,0.25259 -0.41628,0.34078 -0.17498,0.0914 -0.37571,0.15593 -0.59725,0.19191 -0.23001,0.0374 -0.46743,0.0494 -0.70697,0.0342 -0.25541,-0.0155 -0.51506,-0.0723 -0.77188,-0.16933 -0.25823,-0.097 -0.51047,-0.23742 -0.75,-0.41663 -0.23919,-0.17886 -0.45473,-0.39546 -0.64135,-0.64417 -0.18274,-0.24342 -0.33161,-0.53058 -0.44239,-0.85373 -0.0607,-0.22542 -0.13899,-0.44767 -0.23177,-0.66004 -0.13053,-0.29669 -0.38912,-0.47131 -0.72813,-0.49177 -0.16899,-0.0106 -0.30375,0.01 -0.40993,0.0617 -0.10231,0.0501 -0.18803,0.12171 -0.25506,0.21414 -0.0698,0.0977 -0.10936,0.20814 -0.11677,0.32843 l -0.10125,1.6637 c -0.0212,0.35031 0.12171,0.68439 0.42475,0.99343 0.26776,0.2734 0.62865,0.51964 1.07174,0.73236 0.42968,0.20638 0.92216,0.38347 1.46367,0.52599 0.54257,0.14323 1.09538,0.23248 1.64359,0.26565 0.15664,0.01 0.3108,0.0145 0.4632,0.0145 0.46778,0 0.91405,-0.0452 1.33174,-0.13476 0.55985,-0.1203 1.06115,-0.31997 1.48978,-0.59337 0.43603,-0.27835 0.78775,-0.62865 1.04563,-1.0414 0.26105,-0.41734 0.41028,-0.9077 0.44379,-1.45662 0.043,-0.70344 -0.0917,-1.32363 -0.40005,-1.84362 -0.29527,-0.49742 -0.68262,-0.94932 -1.15111,-1.34373"
       style="fill:#013da6;fill-opacity:1;fill-rule:nonzero;stroke:none;stroke-width:0.352778" />
    <path
       id="path56"
       d="m 378.73362,194.0217 c -0.0638,0.23566 -0.16827,0.44697 -0.3108,0.62759 -0.14005,0.17745 -0.32632,0.32491 -0.55386,0.4385 -0.23036,0.11466 -0.50694,0.18168 -0.82268,0.19897 l -1.26188,0.0688 c -0.0656,0.005 -0.13124,-0.0194 -0.20214,-0.0705 -0.0628,-0.0448 -0.0815,-0.15523 -0.0861,-0.23954 l -0.2032,-3.71581 c 0.002,-0.01 0.004,-0.0145 0.003,-0.0145 0.004,-0.002 0.0201,-0.008 0.0533,-0.0102 l 1.27953,-0.0699 c 0.38135,-0.0215 0.7119,0.0254 0.98178,0.13758 0.27093,0.11289 0.49636,0.26564 0.66992,0.45367 0.17498,0.1905 0.30727,0.41064 0.39265,0.6537 0.0878,0.25118 0.13405,0.50483 0.13758,0.76553 0.0148,0.27164 -0.0113,0.53269 -0.0773,0.77611 m -3.52213,-4.18712 -0.18839,-3.44629 c -0.008,-0.14605 0.0381,-0.1852 0.0557,-0.20037 0.0663,-0.0561 0.13159,-0.085 0.20003,-0.0889 l 0.72848,-0.0399 c 0.32879,-0.018 0.61807,0.0159 0.86113,0.10054 0.2406,0.084 0.44627,0.20426 0.61066,0.35702 0.16475,0.15345 0.29563,0.33831 0.38806,0.54857 0.0945,0.21519 0.14958,0.45402 0.16333,0.71014 0.0148,0.26529 -0.0187,0.5214 -0.0988,0.76164 -0.0794,0.23672 -0.20285,0.4498 -0.36654,0.63289 -0.1651,0.1845 -0.37218,0.3369 -0.61489,0.45296 -0.24342,0.11677 -0.5394,0.18521 -0.87948,0.20391 l -0.81527,0.0445 c -0.0229,-0.003 -0.0339,-0.008 -0.0441,-0.0367 m 6.7437,2.35373 c -0.13547,-0.32702 -0.33761,-0.63217 -0.60043,-0.90805 -0.25894,-0.27093 -0.57926,-0.51082 -0.95215,-0.71296 -0.17321,-0.0935 -0.35983,-0.17604 -0.55809,-0.24659 0.44873,-0.27446 0.79869,-0.60784 1.04457,-0.99589 0.35842,-0.56586 0.52317,-1.16593 0.4893,-1.78294 -0.0233,-0.43215 -0.14216,-0.84667 -0.35348,-1.2319 -0.21131,-0.38524 -0.51364,-0.71967 -0.89888,-0.99342 -0.37782,-0.26847 -0.8389,-0.4752 -1.37089,-0.61348 -0.5267,-0.13688 -1.143,-0.18698 -1.83162,-0.14923 l -5.66914,0.30974 c -0.0896,0.005 -0.17463,0.0353 -0.25224,0.091 -0.10477,0.0741 -0.22578,0.22436 -0.20955,0.51823 0.01,0.1852 0.09,0.35101 0.23178,0.48013 0.0917,0.0832 0.19685,0.17251 0.31221,0.26493 0.0931,0.0741 0.1785,0.16263 0.25364,0.26176 0.055,0.0734 0.0871,0.18345 0.0949,0.32703 l 0.45014,8.23665 c 0.008,0.14429 -0.012,0.25718 -0.0586,0.3355 -0.0642,0.10724 -0.13934,0.20425 -0.22366,0.28822 -0.10901,0.10865 -0.20108,0.20602 -0.28151,0.29703 -0.127,0.14358 -0.18874,0.31715 -0.17851,0.50236 0.007,0.13264 0.0381,0.23671 0.0931,0.31644 0.0406,0.0603 0.0825,0.1083 0.12771,0.14605 l 0.0441,0.0307 c 0.0755,0.042 0.15487,0.0635 0.2353,0.0635 0.008,0 0.0166,-3.5e-4 0.0251,-7e-4 l 6.20254,-0.33902 c 0.67909,-0.037 1.28093,-0.15699 1.78893,-0.35631 0.51329,-0.20108 0.9465,-0.46319 1.28764,-0.77823 0.34643,-0.32032 0.6036,-0.69144 0.76482,-1.10278 0.1591,-0.40746 0.2286,-0.8315 0.20602,-1.26047 -0.006,-0.33585 -0.078,-0.67169 -0.21307,-0.99731"
       style="fill:#013da6;fill-opacity:1;fill-rule:nonzero;stroke:none;stroke-width:0.352778" />
    <path
       id="path57"
       d="m 388.73955,194.5719 c -0.0977,-0.0713 -0.20743,-0.14676 -0.32738,-0.22401 -0.0949,-0.0614 -0.18344,-0.13865 -0.26352,-0.23072 -0.0607,-0.0695 -0.0977,-0.16298 -0.11324,-0.28575 l -1.04564,-8.30121 c -0.0176,-0.14323 -0.006,-0.25718 0.0349,-0.33867 0.0557,-0.11113 0.12418,-0.21308 0.20249,-0.30304 0.096,-0.11006 0.18345,-0.2166 0.26035,-0.31679 0.11607,-0.15205 0.16545,-0.3295 0.14217,-0.51365 -0.0367,-0.29245 -0.18274,-0.41839 -0.29951,-0.47272 -0.0864,-0.0406 -0.17497,-0.0554 -0.26352,-0.0445 l -3.97404,0.50059 c -0.0882,0.0113 -0.1704,0.0476 -0.24448,0.10866 -0.0988,0.0811 -0.2092,0.23954 -0.17251,0.53199 0.0233,0.18415 0.11501,0.34396 0.26529,0.46214 0.0963,0.0758 0.20779,0.15769 0.3302,0.242 0.0984,0.0681 0.1898,0.15029 0.27164,0.24342 0.06,0.0695 0.0998,0.17709 0.11783,0.31997 l 1.04563,8.30121 c 0.0155,0.12242 0.002,0.22225 -0.0388,0.3048 -0.0554,0.10936 -0.12171,0.20638 -0.19862,0.28928 -0.10124,0.10971 -0.18662,0.20743 -0.26141,0.2981 -0.12135,0.14746 -0.17392,0.31891 -0.15169,0.49636 0.0356,0.27975 0.20073,0.39546 0.29351,0.4385 0.0681,0.0324 0.13794,0.0487 0.20849,0.0487 0.019,0 0.0381,-0.001 0.0571,-0.004 l 3.97404,-0.50059 c 0.0893,-0.0113 0.17181,-0.0483 0.24377,-0.10795 0.0811,-0.0663 0.21238,-0.21978 0.1771,-0.49953 -0.0222,-0.17604 -0.11536,-0.32914 -0.27023,-0.44309"
       style="fill:#013da6;fill-opacity:1;fill-rule:nonzero;stroke:none;stroke-width:0.352778" />
    <path
       id="path58"
       d="m 398.65124,188.62498 c -0.41028,-0.40746 -0.89888,-0.74754 -1.45168,-1.01177 -0.54046,-0.25788 -1.11513,-0.47166 -1.7085,-0.63605 -0.57327,-0.1584 -1.11972,-0.3235 -1.6249,-0.49072 -0.48401,-0.15981 -0.90099,-0.35666 -1.24036,-0.58526 -0.30022,-0.20214 -0.47802,-0.46319 -0.54363,-0.79798 -0.0371,-0.18979 -0.0272,-0.35137 0.03,-0.49354 0.0621,-0.15451 0.1584,-0.29457 0.28646,-0.41663 0.13335,-0.12806 0.29915,-0.23706 0.49177,-0.32455 0.20214,-0.0914 0.41663,-0.15946 0.63817,-0.20285 0.47132,-0.0921 0.93875,-0.0582 1.38889,0.10089 0.44662,0.15805 0.79622,0.42757 1.06927,0.8255 0.20637,0.29881 0.39758,0.55034 0.56762,0.74825 0.23107,0.26811 0.52846,0.37535 0.86219,0.31044 0.14781,-0.0289 0.26846,-0.0889 0.35913,-0.1778 0.0899,-0.0889 0.14781,-0.19156 0.1725,-0.30692 0.0173,-0.0829 0.0236,-0.17356 0.0194,-0.27728 l -0.33549,-1.64183 c -0.0568,-0.29104 -0.25365,-0.53551 -0.58526,-0.72707 -0.28505,-0.16475 -0.64488,-0.28999 -1.06857,-0.37218 -0.41098,-0.0801 -0.87065,-0.1203 -1.37371,-0.11677 -0.49883,0.003 -1.01283,0.0561 -1.52788,0.15663 -0.62724,0.12242 -1.20157,0.31327 -1.7071,0.56692 -0.51223,0.25717 -0.94473,0.57291 -1.28587,0.93803 -0.34749,0.37218 -0.59725,0.79975 -0.74295,1.27071 -0.1464,0.47484 -0.16828,0.98319 -0.0649,1.51165 0.13511,0.6918 0.42121,1.26118 0.85019,1.69122 0.41275,0.41451 0.90241,0.75318 1.45521,1.00647 0.53763,0.24659 1.11337,0.4512 1.71203,0.60854 0.57644,0.1517 1.1243,0.31327 1.62842,0.47978 0.48366,0.16016 0.90065,0.35701 1.24002,0.58526 0.30056,0.20285 0.48083,0.47448 0.55033,0.83114 0.0367,0.18698 0.0226,0.34925 -0.0423,0.49742 -0.0723,0.16475 -0.17604,0.30692 -0.31715,0.43427 -0.14676,0.13264 -0.32491,0.24553 -0.53022,0.33549 -0.21273,0.0938 -0.43992,0.16475 -0.67557,0.21096 -0.25153,0.0487 -0.51718,0.0589 -0.78952,0.0296 -0.27481,-0.0293 -0.55457,-0.1016 -0.83079,-0.2152 -0.27623,-0.11289 -0.5394,-0.26846 -0.78211,-0.46249 -0.23848,-0.1898 -0.45438,-0.43039 -0.64276,-0.71508 -0.11536,-0.2032 -0.24659,-0.39829 -0.39017,-0.58067 -0.20073,-0.25471 -0.4946,-0.35948 -0.82833,-0.29387 -0.16651,0.0325 -0.29139,0.0861 -0.381,0.16299 -0.0868,0.0744 -0.15169,0.16545 -0.19297,0.27058 -0.0437,0.11218 -0.054,0.22895 -0.031,0.34819 l 0.31962,1.63548 c 0.0674,0.34466 0.28963,0.63217 0.6604,0.85513 0.32808,0.1972 0.73907,0.34537 1.22167,0.43991 0.46778,0.0921 0.98848,0.1397 1.54869,0.14182 0.0113,0 0.0229,3.5e-4 0.0346,3.5e-4 0.54892,-3.5e-4 1.09502,-0.0526 1.62313,-0.15557 0.62689,-0.12277 1.20121,-0.31362 1.70709,-0.56727 0.51189,-0.25682 0.94686,-0.57573 1.29329,-0.94827 0.35207,-0.37888 0.60466,-0.80609 0.75071,-1.2707 0.14781,-0.46955 0.16933,-0.98143 0.0639,-1.52118 -0.13511,-0.69215 -0.42086,-1.25836 -0.84984,-1.68416"
       style="fill:#013da6;fill-opacity:1;fill-rule:nonzero;stroke:none;stroke-width:0.352778" />
    <path
       id="path59"
       d="m 409.83947,188.02741 c -0.0977,0.4632 -0.28504,0.86395 -0.55633,1.19204 -0.26564,0.32067 -0.63641,0.55738 -1.10243,0.70343 -0.46708,0.14641 -0.91017,0.16369 -1.31727,0.0529 -0.41593,-0.11324 -0.80398,-0.33408 -1.15394,-0.65758 -0.36124,-0.33372 -0.69462,-0.77293 -0.99095,-1.30527 -0.30163,-0.54081 -0.56304,-1.16276 -0.77823,-1.84891 -0.21131,-0.67522 -0.34784,-1.32433 -0.40534,-1.92899 -0.0568,-0.5962 -0.0318,-1.14194 0.0748,-1.62243 0.10266,-0.4646 0.29563,-0.86783 0.57291,-1.19838 0.27128,-0.32315 0.64558,-0.56127 1.11231,-0.70767 0.46531,-0.1457 0.90452,-0.16299 1.30633,-0.0508 0.41028,0.115 0.79269,0.3376 1.13701,0.66145 0.35595,0.33585 0.68262,0.77153 0.97049,1.29505 0.29316,0.53305 0.54892,1.14582 0.76023,1.82069 0.21485,0.6865 0.35772,1.34655 0.42404,1.96215 0.0653,0.60431 0.0473,1.15358 -0.0536,1.6323 m 2.05599,-6.64139 c -0.45262,-0.63747 -1.02306,-1.17758 -1.69545,-1.6055 -0.67592,-0.42933 -1.47179,-0.71049 -2.36538,-0.83467 -0.89535,-0.12523 -1.90147,-0.0152 -2.98943,0.32562 -1.08797,0.34078 -1.97627,0.82444 -2.64125,1.43757 -0.66287,0.61171 -1.15888,1.29681 -1.47461,2.03588 -0.31433,0.73695 -0.47766,1.50706 -0.48613,2.28988 -0.008,0.7754 0.096,1.51271 0.30833,2.19075 0.21554,0.68897 0.55315,1.36137 1.0033,1.99848 0.45508,0.64382 1.03011,1.18851 1.70956,1.6196 0.68298,0.43286 1.48237,0.71579 2.37631,0.83997 0.23848,0.0335 0.48507,0.0497 0.73872,0.0497 0.6985,0 1.45273,-0.12559 2.25072,-0.37536 1.08796,-0.34078 1.97661,-0.82444 2.64124,-1.43756 0.66358,-0.61207 1.15641,-1.29999 1.46474,-2.04435 0.30621,-0.73978 0.46496,-1.51377 0.47131,-2.30082 0.006,-0.77999 -0.0995,-1.52506 -0.31538,-2.21403 -0.21238,-0.67804 -0.54752,-1.34267 -0.9966,-1.9752"
       style="fill:#013da6;fill-opacity:1;fill-rule:nonzero;stroke:none;stroke-width:0.352778" />
    <path
       id="path60"
       d="m 422.78913,174.06298 c -0.0557,-0.11571 -0.0765,-0.21308 -0.0621,-0.28963 0.0215,-0.11359 0.0568,-0.22613 0.10513,-0.33373 0.0586,-0.13017 0.11007,-0.25329 0.1531,-0.36618 0.0681,-0.17886 0.0632,-0.35807 -0.0141,-0.51858 -0.10301,-0.21344 -0.29774,-0.32703 -0.53657,-0.30833 -0.091,0.002 -0.18592,0.0275 -0.28293,0.0744 l -2.22885,1.07456 c -0.0875,0.042 -0.16087,0.0984 -0.21872,0.16722 -0.16157,0.17568 -0.19544,0.39829 -0.0924,0.61207 0.0575,0.11889 0.18168,0.27234 0.44626,0.32879 0.12418,0.0272 0.25612,0.0564 0.39547,0.0878 0.12453,0.0286 0.25118,0.0688 0.37606,0.11995 0.0741,0.0303 0.13547,0.0977 0.18768,0.20602 l 2.10926,4.37515 -7.12188,-3.5239 c -0.12136,-0.0713 -0.22049,-0.11148 -0.31186,-0.127 -0.0628,-0.0106 -0.11677,-0.0183 -0.16263,-0.024 l -0.018,-0.002 h -0.0176 c -0.0942,0.001 -0.18238,0.0208 -0.26176,0.0593 l -2.48497,1.19804 c -0.0945,0.0455 -0.17639,0.10442 -0.24377,0.17498 l -0.0148,0.0173 c -0.0515,0.0639 -0.0931,0.13688 -0.12418,0.21767 -0.0332,0.0878 -0.055,0.23001 0.0303,0.40781 0.0804,0.16721 0.21837,0.28927 0.39828,0.35348 0.11642,0.042 0.24801,0.0836 0.39053,0.12453 0.1143,0.0328 0.22719,0.0818 0.33443,0.14429 0.0794,0.0466 0.15134,0.13582 0.21379,0.26564 l 3.63361,7.53639 c 0.0533,0.11148 0.073,0.21025 0.06,0.30233 -0.0173,0.1203 -0.0494,0.23354 -0.096,0.33655 -0.0614,0.13723 -0.11147,0.25717 -0.15275,0.36583 -0.0684,0.17851 -0.0635,0.35807 0.0138,0.51894 0.12241,0.25329 0.31574,0.31079 0.41875,0.32244 0.0212,0.002 0.0416,0.004 0.0621,0.004 0.072,0 0.1397,-0.0152 0.2032,-0.0455 l 2.45357,-1.18287 c 0.0804,-0.0392 0.1471,-0.10019 0.1972,-0.18027 0.0557,-0.0892 0.13088,-0.27622 0.009,-0.52952 -0.0561,-0.11641 -0.17604,-0.26811 -0.43145,-0.33161 -0.12277,-0.0303 -0.25929,-0.0603 -0.40957,-0.091 -0.12065,-0.024 -0.2406,-0.066 -0.35702,-0.12453 -0.0829,-0.0416 -0.14781,-0.11325 -0.19861,-0.21873 l -2.76578,-5.73651 8.83285,4.40055 c 0.11854,0.061 0.22402,0.0963 0.32244,0.10759 0.0762,0.008 0.14358,0.0116 0.20743,0.012 l 0.0208,-0.001 c 0.0967,-0.008 0.18344,-0.0303 0.25682,-0.066 l 0.65758,-0.31715 c 0.0945,-0.0455 0.17639,-0.10442 0.23706,-0.16863 0.18415,-0.18203 0.2286,-0.4131 0.12242,-0.63358 z"
       style="fill:#013da6;fill-opacity:1;fill-rule:nonzero;stroke:none;stroke-width:0.352778" />
    <path
       id="path61"
       d="m 309.34722,120.91645 c 0.39335,0.72602 0.89747,1.36807 1.49789,1.90853 0.60608,0.5461 1.30458,0.94968 2.07575,1.20015 0.56127,0.18203 1.1617,0.2734 1.79282,0.2734 0.23636,0 0.47695,-0.0127 0.72143,-0.0384 0.89499,-0.0942 1.84432,-0.41028 2.82151,-0.9398 0.44944,-0.24342 0.89676,-0.53869 1.32892,-0.87771 0.43144,-0.33796 0.81385,-0.68792 1.13665,-1.04035 0.32984,-0.35983 0.58208,-0.70908 0.7493,-1.03822 0.20073,-0.39405 0.22754,-0.73201 0.0797,-1.00471 l -1.19485,-2.20557 c -0.0688,-0.127 -0.0991,-0.23742 -0.0907,-0.32843 0.012,-0.1263 0.0381,-0.25118 0.0773,-0.37077 0.0469,-0.14288 0.0871,-0.2727 0.12136,-0.38947 0.0529,-0.1838 0.0346,-0.36689 -0.0536,-0.52987 -0.13405,-0.24695 -0.31432,-0.30904 -0.44273,-0.3175 -0.0956,-0.007 -0.18345,0.012 -0.26176,0.0547 l -4.00685,2.17064 c -0.0931,0.0504 -0.16793,0.11183 -0.22296,0.18203 -0.16651,0.18839 -0.1965,0.41663 -0.0822,0.62795 0.14182,0.26176 0.37783,0.3997 0.66181,0.38735 0.18521,-0.007 0.38453,-0.0222 0.59161,-0.0441 0.17533,-0.0183 0.35313,-0.009 0.52882,0.0268 0.11888,0.0243 0.23142,0.13265 0.33372,0.32174 l 0.67346,1.24318 c 0.20179,0.37218 0.26211,0.69357 0.1845,0.98249 -0.0748,0.2794 -0.35631,0.55316 -0.83608,0.8128 -0.40534,0.21978 -0.83856,0.33196 -1.28764,0.33373 -0.44979,10e-4 -0.91229,-0.1076 -1.36419,-0.32491 -0.46073,-0.2219 -0.91405,-0.56056 -1.34726,-1.00753 -0.43886,-0.45226 -0.84385,-1.01847 -1.20403,-1.68346 -0.35948,-0.66357 -0.60572,-1.31092 -0.73202,-1.9237 -0.12488,-0.60642 -0.14746,-1.1751 -0.067,-1.69086 0.0794,-0.50624 0.25823,-0.96203 0.53198,-1.35502 0.27341,-0.39229 0.6343,-0.71191 1.07315,-0.94968 0.20391,-0.11042 0.43533,-0.21131 0.68757,-0.29986 0.24306,-0.085 0.50094,-0.13899 0.76623,-0.16051 0.26141,-0.0215 0.53552,-0.002 0.8128,0.0561 0.2727,0.0579 0.54928,0.17074 0.81739,0.33232 0.16298,0.10265 0.31115,0.19685 0.44485,0.28257 0.14182,0.0914 0.27481,0.16792 0.39546,0.22754 0.14076,0.0702 0.28011,0.11219 0.4124,0.12489 0.15558,0.0152 0.30798,-0.0159 0.45191,-0.0938 0.14252,-0.0773 0.23883,-0.17674 0.28681,-0.29598 0.0395,-0.0988 0.0547,-0.2025 0.0444,-0.30833 -0.01,-0.0981 -0.0399,-0.19438 -0.0896,-0.2861 l -0.78563,-1.45063 c -0.14499,-0.26705 -0.42439,-0.43568 -0.83185,-0.50129 -0.34467,-0.055 -0.74824,-0.0519 -1.1998,0.0106 -0.44097,0.061 -0.91581,0.17462 -1.41111,0.33796 -0.49495,0.16298 -0.97437,0.36936 -1.42452,0.61348 -0.97578,0.52846 -1.77412,1.15852 -2.37243,1.87255 -0.59937,0.71543 -1.02905,1.48307 -1.27776,2.28247 -0.24871,0.80045 -0.33055,1.62489 -0.24271,2.45004 0.0875,0.82338 0.33232,1.61114 0.72778,2.34068"
       style="fill:#013da6;fill-opacity:1;fill-rule:nonzero;stroke:none;stroke-width:0.352778" />
    <path
       id="path62"
       d="m 319.9676,109.86699 c 0.11148,0.0526 0.23848,0.10654 0.37712,0.16087 0.11077,0.0437 0.21837,0.10301 0.31926,0.17568 0.0744,0.054 0.13723,0.14958 0.18733,0.28469 l 2.90018,7.8479 c 0.043,0.11606 0.0533,0.21625 0.0314,0.30621 -0.0289,0.11853 -0.0716,0.22824 -0.1277,0.32632 -0.072,0.12664 -0.13512,0.24447 -0.18698,0.3496 -0.085,0.17145 -0.097,0.35031 -0.0353,0.51752 0.0977,0.26423 0.28469,0.34008 0.38593,0.36125 0.0367,0.008 0.073,0.012 0.10866,0.012 0.0547,0 0.1083,-0.01 0.15946,-0.0286 l 7.19596,-2.65924 c 0.12029,-0.0444 0.2166,-0.0773 0.29527,-0.1009 0.0921,-0.0275 0.16792,-0.0522 0.22825,-0.0744 0.0469,-0.0176 0.0945,-0.0328 0.14499,-0.0462 0.0667,-0.0176 0.13794,-0.0406 0.21131,-0.0677 0.12771,-0.0473 0.2286,-0.11818 0.29987,-0.21061 0.0593,-0.0773 0.0984,-0.15099 0.11959,-0.22472 0.0296,-0.0931 0.0374,-0.1905 0.0208,-0.30197 l -0.4572,-2.32093 c -0.0332,-0.13617 -0.0868,-0.25365 -0.16722,-0.35983 -0.067,-0.0801 -0.14816,-0.14782 -0.242,-0.20109 -0.139,-0.0787 -0.30657,-0.0822 -0.49812,-0.0116 -0.24659,0.091 -0.42334,0.2413 -0.52458,0.44627 -0.0783,0.15839 -0.14147,0.33796 -0.18768,0.53375 -0.0434,0.18133 -0.084,0.38312 -0.12065,0.59937 -0.0314,0.18274 -0.0903,0.36301 -0.17568,0.53516 -0.0826,0.16722 -0.21167,0.33444 -0.38347,0.49707 -0.16757,0.1591 -0.42016,0.30162 -0.75036,0.42368 l -1.05163,0.38841 c -0.39899,0.14746 -0.70662,0.16757 -0.91405,0.0593 -0.22013,-0.11466 -0.37606,-0.30269 -0.47625,-0.57432 l -2.65536,-7.18468 c -0.0497,-0.13546 -0.0642,-0.24906 -0.0427,-0.33796 0.0293,-0.12065 0.0723,-0.2353 0.12841,-0.34078 0.0677,-0.12806 0.12911,-0.25153 0.18168,-0.36795 0.0787,-0.17462 0.0864,-0.35842 0.0222,-0.53199 -0.1023,-0.27657 -0.27305,-0.36618 -0.39934,-0.39299 -0.0931,-0.0194 -0.18309,-0.0141 -0.26635,0.0169 l -3.75708,1.38818 c -0.0833,0.031 -0.15522,0.085 -0.21379,0.16122 -0.078,0.10195 -0.14922,0.28117 -0.0469,0.55739 0.0642,0.17427 0.1898,0.30903 0.36266,0.38982"
       style="fill:#013da6;fill-opacity:1;fill-rule:nonzero;stroke:none;stroke-width:0.352778" />
    <path
       id="path63"
       d="m 336.64849,107.32794 1.48131,2.25919 -1.78329,0.43392 z m -3.25508,9.16975 c 0.0744,0.0508 0.15699,0.0854 0.24271,0.10301 0.0385,0.008 0.079,0.0123 0.121,0.0123 0.0586,0 0.11995,-0.008 0.18415,-0.0236 l 2.83669,-0.69003 c 0.0984,-0.024 0.18521,-0.0663 0.25823,-0.12559 l 0.024,-0.0222 c 0.0533,-0.0547 0.097,-0.12101 0.12982,-0.19791 0.0441,-0.10195 0.0494,-0.22296 0.0166,-0.35913 -0.0593,-0.24377 -0.22154,-0.42263 -0.45684,-0.50447 -0.14006,-0.0483 -0.28752,-0.10513 -0.4378,-0.16863 -0.1143,-0.0483 -0.21096,-0.12241 -0.29598,-0.22719 -0.0296,-0.0363 -0.0949,-0.15804 -0.0646,-0.49847 l 0.21026,-1.93957 2.99085,-0.72779 1.23895,1.84468 c 0.15734,0.24201 0.14923,0.35489 0.14252,0.38382 -0.024,0.11077 -0.0688,0.20109 -0.13687,0.27587 -0.0984,0.10831 -0.19544,0.21061 -0.29069,0.30657 -0.16616,0.16792 -0.2286,0.37818 -0.17674,0.59231 0.0335,0.13688 0.0942,0.24201 0.17885,0.31115 0.0642,0.0529 0.13371,0.0921 0.20673,0.11677 l 0.0317,0.008 c 0.0917,0.019 0.18274,0.018 0.27023,-0.003 l 4.09857,-0.9973 c 0.11007,-0.0265 0.20285,-0.0702 0.27552,-0.12947 0.0698,-0.0568 0.127,-0.12524 0.16898,-0.2032 0.0596,-0.10936 0.0716,-0.23883 0.0363,-0.38488 -0.0325,-0.13264 -0.12206,-0.31609 -0.36583,-0.43603 -0.12277,-0.0603 -0.26776,-0.12312 -0.4318,-0.18733 -0.14358,-0.0557 -0.29281,-0.12523 -0.44309,-0.20743 -0.11959,-0.0646 -0.22613,-0.16757 -0.3175,-0.30798 -0.81315,-1.23437 -1.5106,-2.29446 -2.09268,-3.18099 -0.58208,-0.88618 -1.07668,-1.6383 -1.48343,-2.25566 -0.40428,-0.61348 -0.73977,-1.11619 -0.99695,-1.49402 -0.254,-0.37253 -0.45614,-0.67416 -0.60078,-0.89641 l -0.4826,-0.74083 c -0.0646,-0.0984 -0.13582,-0.16898 -0.21802,-0.2159 l -0.14464,-0.0833 -0.0451,-0.009 c -0.0935,-0.0191 -0.17568,-0.0191 -0.25118,-7e-4 l -1.74695,0.42509 c -0.0759,0.0183 -0.14888,0.0564 -0.22296,0.11642 l -0.0254,0.0233 c -0.0991,0.10231 -0.16369,0.24413 -0.19226,0.42122 l -0.002,0.0169 c -0.0106,0.10619 -0.0346,0.33408 -0.0713,0.68263 -0.037,0.3496 -0.0977,0.90417 -0.18098,1.66299 -0.0843,0.76024 -0.19226,1.77165 -0.32491,3.0346 -0.13229,1.26224 -0.30268,2.87161 -0.51047,4.82917 -0.0166,0.1651 -0.0639,0.30621 -0.14005,0.41875 -0.0963,0.14146 -0.19685,0.27199 -0.2988,0.3877 -0.11536,0.13124 -0.21555,0.254 -0.29704,0.36442 -0.16157,0.21837 -0.15699,0.42263 -0.12453,0.55527 0.0353,0.1457 0.10583,0.25506 0.20849,0.32491"
       style="fill:#013da6;fill-opacity:1;fill-rule:nonzero;stroke:none;stroke-width:0.352778" />
    <path
       id="path64"
       d="m 345.40199,106.60453 c 0.39017,0.43568 0.86113,0.79975 1.40017,1.08197 0.52353,0.27481 1.08797,0.50976 1.67711,0.69815 0.56833,0.18238 1.10702,0.37253 1.60091,0.5655 0.47448,0.18556 0.88088,0.40428 1.20755,0.65017 0.28928,0.21802 0.45473,0.49918 0.50553,0.85901 v 0 c 0.0265,0.18839 0.004,0.34996 -0.0688,0.49424 -0.0808,0.16087 -0.19191,0.29704 -0.33972,0.41699 -0.15311,0.12453 -0.33726,0.22789 -0.54716,0.30691 -0.21766,0.0825 -0.44838,0.14147 -0.6858,0.17498 -0.25329,0.0356 -0.51929,0.0318 -0.78987,-0.0123 -0.2727,-0.0437 -0.54822,-0.13052 -0.81844,-0.25858 -0.26953,-0.12735 -0.52423,-0.29669 -0.75671,-0.50342 -0.22754,-0.20178 -0.43074,-0.45367 -0.60361,-0.74824 -0.10477,-0.20849 -0.22542,-0.41063 -0.35912,-0.60042 -0.18698,-0.26459 -0.47555,-0.38453 -0.81174,-0.33691 -0.16828,0.0236 -0.29563,0.0706 -0.38877,0.14252 -0.091,0.0699 -0.16051,0.15734 -0.20708,0.26035 -0.0497,0.10972 -0.0663,0.22578 -0.0494,0.34537 l 0.23283,1.6503 c 0.0487,0.34784 0.25541,0.64664 0.61383,0.889 0.31715,0.21449 0.71967,0.38382 1.19662,0.50412 0.46214,0.11641 0.98002,0.19156 1.53917,0.22331 0.16369,0.01 0.32738,0.0141 0.49107,0.0141 0.39511,0 0.78775,-0.0272 1.17263,-0.0815 0.63289,-0.0893 1.21638,-0.24942 1.73461,-0.4759 0.52493,-0.22966 0.97649,-0.52529 1.34162,-0.87912 0.37147,-0.35913 0.64628,-0.77259 0.81703,-1.22873 0.17251,-0.46108 0.22119,-0.9712 0.14428,-1.51588 -0.0984,-0.69815 -0.35383,-1.27918 -0.75953,-1.72685 -0.38876,-0.42827 -0.8583,-0.7941 -1.39629,-1.08691 -0.52599,-0.2861 -1.08867,-0.53022 -1.67252,-0.72566 -0.56656,-0.18909 -1.10349,-0.38277 -1.59667,-0.57574 -0.47449,-0.18521 -0.88089,-0.40393 -1.20756,-0.65017 -0.28928,-0.21766 -0.45297,-0.48789 -0.50059,-0.82585 -0.0272,-0.19156 -0.009,-0.35207 0.0557,-0.49107 0.0713,-0.15275 0.1718,-0.28398 0.30797,-0.4011 0.14041,-0.12065 0.3115,-0.22084 0.50835,-0.29775 0.20638,-0.0804 0.4244,-0.13723 0.64806,-0.16898 0.47589,-0.067 0.94086,-0.008 1.38148,0.17427 0.43779,0.18133 0.77258,0.4692 1.02446,0.88089 0.19015,0.30903 0.3676,0.57044 0.52705,0.77682 0.21625,0.2801 0.50871,0.40322 0.84455,0.35595 0.14923,-0.0212 0.27305,-0.0744 0.36795,-0.1584 0.0949,-0.084 0.15804,-0.1838 0.18874,-0.29739 0.0215,-0.0822 0.0328,-0.17251 0.0339,-0.27623 l 3.5e-4,-0.0229 -0.2487,-1.63406 c -0.0413,-0.29351 -0.22472,-0.54822 -0.5454,-0.75706 -0.27622,-0.17957 -0.62865,-0.3235 -1.04775,-0.42828 -0.40605,-0.1016 -0.86571,-0.1651 -1.3656,-0.18908 -0.49777,-0.0229 -1.01424,0.002 -1.53388,0.0755 -0.63288,0.0889 -1.21638,0.24906 -1.73496,0.4759 -0.52493,0.22966 -0.97367,0.52211 -1.3335,0.86889 -0.36689,0.35348 -0.63923,0.76694 -0.80892,1.22978 -0.17145,0.46602 -0.22013,0.97296 -0.14499,1.50566 0.0981,0.69814 0.35384,1.28129 0.75953,1.7339"
       style="fill:#013da6;fill-opacity:1;fill-rule:nonzero;stroke:none;stroke-width:0.352778" />
    <path
       id="path65"
       d="m 356.04153,105.21745 c 0.35348,0.46602 0.79304,0.86748 1.30704,1.19274 0.49953,0.31644 1.04281,0.59655 1.61467,0.83256 0.55103,0.22789 1.07244,0.46143 1.5494,0.69391 0.4579,0.22366 0.8449,0.47484 1.1504,0.74648 0.27094,0.2413 0.41275,0.53481 0.43392,0.89747 0.0113,0.19014 -0.0243,0.34925 -0.10866,0.48718 -0.0938,0.15346 -0.21554,0.28046 -0.37253,0.38806 -0.16333,0.11147 -0.35525,0.19932 -0.57044,0.26105 -0.22366,0.0646 -0.45861,0.10442 -0.69779,0.11854 -0.25577,0.0145 -0.52,-0.0109 -0.78635,-0.0766 -0.26846,-0.066 -0.53587,-0.17533 -0.79445,-0.32491 -0.25824,-0.14887 -0.49812,-0.33831 -0.71332,-0.56303 -0.21025,-0.21978 -0.39229,-0.48718 -0.54081,-0.79516 -0.0871,-0.21661 -0.19085,-0.42792 -0.30868,-0.62794 -0.16474,-0.2787 -0.44238,-0.42193 -0.7814,-0.40182 -0.16969,0.01 -0.30057,0.0462 -0.3997,0.11042 -0.096,0.0621 -0.17215,0.14358 -0.22754,0.24271 -0.0582,0.10513 -0.084,0.21978 -0.0769,0.34008 l 0.097,1.6637 c 0.0205,0.35031 0.20214,0.66534 0.53975,0.93592 0.29845,0.23954 0.6858,0.44132 1.15147,0.60007 0.4512,0.15382 0.96132,0.27094 1.51553,0.3482 0.3937,0.055 0.78952,0.0825 1.1818,0.0825 0.16122,0 0.32209,-0.005 0.4819,-0.0141 0.63782,-0.037 1.2326,-0.14923 1.76777,-0.33267 0.54187,-0.18592 1.016,-0.4438 1.40899,-0.76659 0.39935,-0.32773 0.70697,-0.71755 0.9144,-1.15817 0.20955,-0.44556 0.29951,-0.95003 0.26741,-1.49895 -0.0409,-0.70379 -0.24836,-1.30387 -0.6163,-1.78294 -0.35208,-0.45861 -0.79058,-0.86148 -1.30281,-1.19768 -0.50059,-0.32773 -1.0414,-0.61666 -1.60761,-0.85902 -0.54892,-0.23495 -1.06821,-0.47166 -1.54446,-0.70449 -0.45791,-0.22331 -0.8449,-0.47449 -1.15041,-0.74648 -0.27058,-0.24059 -0.41204,-0.52317 -0.4318,-0.8636 -0.0113,-0.19332 0.0201,-0.35207 0.096,-0.48507 0.0833,-0.14676 0.19438,-0.26917 0.33972,-0.37465 0.14958,-0.10901 0.32844,-0.19473 0.53093,-0.25541 0.21167,-0.0635 0.43392,-0.10231 0.6597,-0.11536 0.47942,-0.0279 0.93803,0.0681 1.36278,0.2861 0.42121,0.21661 0.73166,0.53058 0.94862,0.96168 0.16439,0.32349 0.31996,0.59866 0.46213,0.81738 0.19297,0.29669 0.47414,0.44344 0.8128,0.42334 0.15064,-0.009 0.27835,-0.0519 0.37924,-0.12771 0.10125,-0.0759 0.17286,-0.17004 0.21237,-0.28081 0.0286,-0.0804 0.0469,-0.16969 0.0564,-0.27305 l 0.002,-0.0226 -0.1143,-1.64853 c -0.0173,-0.29633 -0.17921,-0.56515 -0.48189,-0.79939 -0.2607,-0.20144 -0.60008,-0.3736 -1.0093,-0.51224 -0.39652,-0.134406 -0.84913,-0.2353 -1.34585,-0.299859 -0.49459,-0.06385 -1.01106,-0.08079 -1.53493,-0.05009 -0.63782,0.03739 -1.23261,0.149225 -1.76777,0.333019 -0.54187,0.18591 -1.01283,0.44062 -1.40018,0.75706 -0.3944,0.32244 -0.6992,0.71261 -0.90663,1.15958 -0.2085,0.45085 -0.29845,0.9518 -0.26706,1.48908 0.0409,0.70379 0.24801,1.30598 0.6156,1.78999"
       style="fill:#013da6;fill-opacity:1;fill-rule:nonzero;stroke:none;stroke-width:0.352778" />
    <path
       id="path66"
       d="m 374.51481,110.31777 0.21555,-3.7151 c 0.004,-0.009 0.006,-0.0141 0.005,-0.0141 h -3.6e-4 c 0.004,-0.002 0.0212,-0.006 0.054,-0.004 l 1.27952,0.0741 c 0.38171,0.0222 0.70485,0.10548 0.95991,0.24694 0.25647,0.14253 0.4632,0.31997 0.61489,0.52635 0.15276,0.20884 0.25929,0.44238 0.31644,0.69356 0.0593,0.25964 0.0766,0.51682 0.0508,0.77611 -0.0155,0.27129 -0.0705,0.52776 -0.16368,0.76235 -0.0896,0.22719 -0.21732,0.4251 -0.37924,0.58879 -0.1591,0.16051 -0.36089,0.28645 -0.59972,0.37359 -0.24201,0.0878 -0.52458,0.12347 -0.83961,0.10513 l -1.26189,-0.073 c -0.0649,-0.004 -0.12806,-0.0342 -0.19297,-0.0928 -0.0572,-0.0519 -0.0635,-0.16333 -0.0586,-0.248 m 0.502,-8.65505 c 0.008,-0.1464 0.0593,-0.18027 0.078,-0.19297 0.0723,-0.0483 0.13864,-0.0695 0.20884,-0.066 l 0.72849,0.0423 c 0.32843,0.019 0.61242,0.085 0.84455,0.1965 0.2293,0.11042 0.4198,0.25294 0.56621,0.42298 0.14675,0.17145 0.25576,0.36936 0.3242,0.58879 0.0699,0.22472 0.0974,0.46813 0.0826,0.7239 -0.0152,0.26564 -0.0773,0.51647 -0.1838,0.74577 -0.10548,0.22648 -0.25188,0.42439 -0.43497,0.58773 -0.18486,0.16475 -0.40782,0.29316 -0.66182,0.38135 -0.25505,0.0885 -0.55738,0.12347 -0.89711,0.10372 l -0.81492,-0.0473 c -0.0226,-0.005 -0.0328,-0.0123 -0.0399,-0.0416 z m -4.57059,10.09156 0.0395,0.0342 c 0.0776,0.0557 0.16227,0.0868 0.25188,0.0921 l 6.20148,0.35983 c 0.14711,0.008 0.29139,0.0127 0.43215,0.0127 0.508,0 0.97261,-0.0557 1.38536,-0.16616 0.53269,-0.14217 0.99272,-0.35384 1.36666,-0.62865 0.38065,-0.2794 0.67769,-0.61912 0.88406,-1.01 0.20391,-0.38665 0.32032,-0.80045 0.34608,-1.22908 0.0317,-0.33443 -0.002,-0.67592 -0.0995,-1.01529 -0.0981,-0.34008 -0.26458,-0.66605 -0.49459,-0.96944 -0.22684,-0.29845 -0.51823,-0.57291 -0.86607,-0.81527 -0.16193,-0.11253 -0.33796,-0.21554 -0.52705,-0.30797 0.4766,-0.2219 0.86184,-0.514 1.1497,-0.87207 0.41981,-0.52211 0.65088,-1.09961 0.68686,-1.71697 0.0251,-0.43215 -0.0466,-0.8569 -0.21308,-1.26365 -0.16616,-0.4064 -0.42933,-0.77223 -0.78175,-1.08796 -0.34572,-0.30974 -0.7807,-0.56657 -1.29329,-0.76377 -0.50764,-0.19508 -1.11442,-0.31397 -1.8034,-0.35383 l -5.66843,-0.329146 c -0.0885,-0.0056 -0.17639,0.01587 -0.2607,0.06209 -0.11218,0.06209 -0.24942,0.197908 -0.26635,0.492126 -0.0106,0.18556 0.0505,0.35913 0.17639,0.50235 0.0815,0.0931 0.17639,0.19368 0.28081,0.29845 0.0843,0.0843 0.1591,0.18168 0.2226,0.28858 0.0466,0.0794 0.066,0.19226 0.0575,0.33619 l -0.47766,8.23489 c -0.008,0.14394 -0.0406,0.25365 -0.096,0.32668 -0.0759,0.0995 -0.16122,0.18732 -0.25471,0.2614 -0.11994,0.0956 -0.2226,0.18204 -0.31291,0.26353 -0.14217,0.12806 -0.22295,0.29386 -0.23354,0.47872 -0.008,0.13229 0.0109,0.23918 0.0568,0.32561 0.0339,0.0646 0.0702,0.11677 0.11112,0.15981"
       style="fill:#013da6;fill-opacity:1;fill-rule:nonzero;stroke:none;stroke-width:0.352778" />
    <path
       id="path67"
       d="m 382.21575,112.62395 c 0.0737,0.0614 0.15593,0.0984 0.24518,0.11007 l 3.97122,0.51717 c 0.0198,0.002 0.0395,0.004 0.0593,0.004 0.0691,0 0.13793,-0.0159 0.20425,-0.0469 0.0956,-0.0441 0.26141,-0.15946 0.2974,-0.4385 0.0233,-0.17604 -0.0286,-0.34784 -0.14993,-0.49707 -0.0759,-0.0928 -0.16334,-0.19332 -0.26,-0.29915 -0.0765,-0.0836 -0.14288,-0.18098 -0.19685,-0.28963 -0.0413,-0.0829 -0.0536,-0.18274 -0.0377,-0.30516 l 1.08021,-8.29698 c 0.0187,-0.14322 0.0589,-0.25047 0.11924,-0.31926 0.0818,-0.0931 0.17356,-0.17462 0.27199,-0.24201 0.11924,-0.0811 0.23071,-0.16227 0.33196,-0.24094 0.15064,-0.11783 0.24307,-0.27729 0.26705,-0.46108 0.0381,-0.2921 -0.0716,-0.45121 -0.17074,-0.5334 -0.0737,-0.061 -0.15593,-0.0974 -0.24412,-0.10901 l -3.97052,-0.51682 c -0.0882,-0.012 -0.17744,0.002 -0.26493,0.043 -0.11642,0.054 -0.26317,0.17956 -0.30127,0.47166 -0.024,0.18415 0.0247,0.36195 0.1404,0.51365 0.0741,0.0984 0.16157,0.20531 0.25859,0.31785 0.0776,0.09 0.14569,0.19262 0.20143,0.30374 0.0406,0.0826 0.0522,0.1965 0.0335,0.33937 l -1.08021,8.29663 c -0.0162,0.12277 -0.0536,0.21625 -0.11465,0.2854 -0.0808,0.0917 -0.16969,0.16898 -0.26458,0.23001 -0.12348,0.079 -0.2339,0.15381 -0.32844,0.2226 -0.15487,0.11219 -0.24871,0.26494 -0.27164,0.44168 -0.0363,0.2794 0.0942,0.43356 0.17392,0.49918"
       style="fill:#013da6;fill-opacity:1;fill-rule:nonzero;stroke:none;stroke-width:0.352778" />
    <path
       id="path68"
       d="m 388.5917,112.45271 c 0.22825,0.30727 0.55174,0.60078 0.96167,0.87207 0.39688,0.26317 0.86043,0.50588 1.37795,0.72143 0.51753,0.2159 1.05304,0.37994 1.59174,0.48824 0.4706,0.0942 0.92851,0.14182 1.3663,0.14182 0.145,0 0.28787,-0.005 0.42828,-0.0155 0.57114,-0.0427 1.09502,-0.17181 1.55716,-0.38453 0.46954,-0.2159 0.86607,-0.5147 1.17792,-0.8883 0.31574,-0.37782 0.53093,-0.84278 0.63924,-1.38218 0.13864,-0.69144 0.0899,-1.32433 -0.14429,-1.88101 -0.22437,-0.53305 -0.54645,-1.03399 -0.95638,-1.48872 -0.40146,-0.44415 -0.85161,-0.86078 -1.33738,-1.23861 -0.47131,-0.36618 -0.9137,-0.72707 -1.31551,-1.07315 -0.38664,-0.33231 -0.69709,-0.6731 -0.92357,-1.01388 -0.20073,-0.30127 -0.26564,-0.6103 -0.19862,-0.94474 0.0381,-0.18979 0.10866,-0.33549 0.2159,-0.4452 0.11607,-0.11889 0.25859,-0.21167 0.42334,-0.27588 0.17251,-0.0674 0.36724,-0.10512 0.57855,-0.11253 0.21978,-0.008 0.44556,0.0113 0.66746,0.0557 0.47096,0.0945 0.89006,0.30374 1.24566,0.6223 0.35277,0.31644 0.57291,0.69885 0.6738,1.17087 0.0773,0.35454 0.15769,0.65969 0.23989,0.90769 0.11113,0.33585 0.34572,0.54893 0.67875,0.6156 0.14746,0.0296 0.28186,0.0205 0.39969,-0.0275 0.11712,-0.0476 0.20991,-0.12065 0.27658,-0.21801 0.0476,-0.0702 0.0878,-0.1517 0.12347,-0.24906 l 0.31503,-1.64536 c 0.0586,-0.29069 -0.03,-0.59196 -0.26352,-0.89535 -0.20073,-0.2607 -0.48542,-0.51364 -0.84632,-0.75142 -0.3496,-0.23071 -0.762,-0.44308 -1.22555,-0.63111 -0.46213,-0.18733 -0.95779,-0.33444 -1.47214,-0.4378 -0.62688,-0.12594 -1.23084,-0.16828 -1.79458,-0.1263 -0.57115,0.0427 -1.09149,0.16969 -1.54622,0.37748 -0.4632,0.21166 -0.85725,0.51188 -1.17087,0.89182 -0.31644,0.38311 -0.53058,0.8449 -0.63606,1.37266 -0.13864,0.69109 -0.091,1.32609 0.14146,1.88771 0.22402,0.54046 0.54751,1.04034 0.96203,1.48519 0.40287,0.43251 0.85725,0.84138 1.35078,1.21462 0.4759,0.36054 0.92111,0.71861 1.32292,1.06433 0.38594,0.33232 0.69709,0.67345 0.92357,1.01388 0.20073,0.30163 0.26353,0.6216 0.19191,0.9779 v 0 c -0.0374,0.18662 -0.11218,0.33161 -0.2286,0.44344 -0.12947,0.12489 -0.27975,0.21661 -0.45896,0.28081 -0.18591,0.0667 -0.3937,0.10302 -0.61771,0.10831 -0.23284,0.006 -0.47026,-0.0155 -0.70521,-0.0624 -0.25117,-0.0504 -0.50059,-0.14253 -0.74118,-0.27341 -0.24271,-0.13194 -0.47343,-0.30515 -0.68616,-0.51576 -0.21201,-0.20919 -0.39616,-0.45332 -0.54715,-0.72531 -0.14782,-0.26635 -0.25612,-0.5715 -0.32138,-0.90628 -0.0293,-0.23178 -0.0762,-0.46214 -0.13935,-0.6858 -0.0889,-0.31151 -0.32103,-0.52 -0.6544,-0.58703 -0.16616,-0.0332 -0.30198,-0.0314 -0.41417,0.006 -0.10865,0.0356 -0.2032,0.0949 -0.28151,0.17674 -0.0833,0.0875 -0.13723,0.19156 -0.16087,0.30974 l -0.32808,1.63406 c -0.0688,0.34396 0.0268,0.69462 0.28469,1.04211"
       style="fill:#013da6;fill-opacity:1;fill-rule:nonzero;stroke:none;stroke-width:0.352778" />
    <path
       id="path69"
       d="m 402.64616,112.51952 c 0.0649,-0.61524 0.20955,-1.27423 0.42933,-1.95933 0.2159,-0.67345 0.47837,-1.28234 0.77999,-1.8101 0.29704,-0.51999 0.63218,-0.95179 0.99589,-1.28341 0.35137,-0.32032 0.74119,-0.53869 1.15853,-0.64911 0.17074,-0.0455 0.34783,-0.0681 0.53057,-0.0681 0.25259,0 0.51541,0.0434 0.78599,0.13017 0.46461,0.14923 0.83397,0.38841 1.09749,0.7112 0.26882,0.3302 0.45332,0.73237 0.54787,1.19592 0.0977,0.47942 0.11359,1.02376 0.0473,1.61748 -0.0677,0.60431 -0.21131,1.25237 -0.42757,1.92617 -0.21978,0.68474 -0.4833,1.30634 -0.78387,1.8482 -0.29457,0.53164 -0.62583,0.97014 -0.98425,1.30316 -0.34678,0.32209 -0.7306,0.54222 -1.14123,0.6537 -0.40252,0.10936 -0.84173,0.0889 -1.30634,-0.06 -0.46602,-0.14958 -0.83855,-0.39017 -1.10702,-0.71543 -0.27516,-0.33232 -0.46496,-0.73696 -0.56444,-1.20262 -0.10301,-0.48119 -0.12277,-1.03258 -0.0582,-1.63795 m -1.36066,3.53201 c 0.66004,0.61771 1.54516,1.10737 2.63066,1.45591 0.81209,0.26035 1.57868,0.39124 2.28847,0.39124 0.23954,0 0.47272,-0.0148 0.6985,-0.0444 0.89535,-0.11819 1.69439,-0.39653 2.3749,-0.82727 0.67698,-0.42827 1.25271,-0.96978 1.71132,-1.60902 0.45473,-0.63394 0.79693,-1.30422 1.01777,-1.99178 0.21696,-0.67663 0.32561,-1.41288 0.32314,-2.18828 -0.003,-0.78176 -0.15769,-1.55187 -0.46073,-2.28918 -0.30515,-0.74048 -0.79375,-1.42839 -1.45273,-2.04505 -0.66005,-0.61771 -1.54517,-1.10737 -2.63067,-1.45591 -1.08585,-0.34819 -2.09091,-0.46496 -2.98697,-0.34678 -0.89429,0.11818 -1.69439,0.39229 -2.37842,0.81491 -0.68122,0.42087 -1.25872,0.95638 -1.71662,1.59138 -0.45332,0.62901 -0.79305,1.29117 -1.01036,1.96815 -0.22084,0.68756 -0.33196,1.43157 -0.3309,2.21156 7e-4,0.78811 0.15698,1.56493 0.46425,2.30858 0.30868,0.74754 0.79904,1.43898 1.45839,2.05599"
       style="fill:#013da6;fill-opacity:1;fill-rule:nonzero;stroke:none;stroke-width:0.352778" />
    <path
       id="path70"
       d="m 411.98341,118.69511 c -0.14182,0.0346 -0.27058,0.0699 -0.38276,0.10407 -0.1831,0.0561 -0.32174,0.17004 -0.40076,0.32985 -0.12488,0.25223 -0.0515,0.44026 0.002,0.5281 0.0494,0.0822 0.11536,0.14394 0.1965,0.18415 l 2.43981,1.20897 c 0.0808,0.0399 0.17004,0.055 0.26352,0.0448 0.10443,-0.0102 0.29845,-0.0656 0.42369,-0.31821 0.0575,-0.11606 0.10336,-0.30409 -0.004,-0.54398 -0.0519,-0.11536 -0.11183,-0.24165 -0.17992,-0.37924 -0.055,-0.11006 -0.0959,-0.23036 -0.121,-0.35807 -0.018,-0.091 -10e-4,-0.18626 0.0505,-0.29139 l 2.82751,-5.70618 1.95404,9.67281 c 0.0247,0.13123 0.0614,0.23601 0.11289,0.32068 0.0402,0.0653 0.0787,0.12135 0.11818,0.17109 l 0.0138,0.0159 c 0.0656,0.0709 0.13652,0.12559 0.2099,0.16192 l 0.6537,0.32385 c 0.0942,0.0469 0.1912,0.0755 0.27869,0.084 0.0314,0.004 0.0614,0.006 0.091,0.006 0.21519,0 0.38876,-0.10618 0.48436,-0.29915 l 4.33493,-8.74889 c 0.0571,-0.11536 0.12101,-0.19156 0.19015,-0.22684 0.10337,-0.0533 0.21414,-0.0942 0.32809,-0.12241 0.13934,-0.0339 0.26846,-0.0688 0.38311,-0.10407 0.18274,-0.0557 0.32103,-0.17004 0.4004,-0.3295 0.10549,-0.21272 0.0741,-0.43568 -0.0861,-0.61348 -0.0582,-0.0698 -0.13618,-0.12947 -0.23248,-0.17709 l -2.21686,-1.09855 c -0.0868,-0.043 -0.17639,-0.0663 -0.2667,-0.0699 -0.23848,-0.019 -0.43392,0.0903 -0.5394,0.30268 -0.0589,0.11854 -0.10371,0.3108 0.0141,0.55492 0.0554,0.11465 0.11325,0.23672 0.17392,0.36583 0.0543,0.11607 0.10019,0.24095 0.13653,0.37007 0.0215,0.0772 0.006,0.16721 -0.0473,0.27481 l -2.15653,4.35187 -1.59491,-7.7844 c -0.0183,-0.13899 -0.0473,-0.242 -0.0914,-0.3242 -0.0303,-0.0561 -0.0572,-0.10336 -0.0811,-0.14288 l -0.0201,-0.0286 c -0.0582,-0.0737 -0.12806,-0.13088 -0.20778,-0.17039 l -2.47192,-1.22485 c -0.0938,-0.0466 -0.1905,-0.0751 -0.28716,-0.0847 l -0.0236,-0.001 c -0.0822,0 -0.1651,0.0109 -0.24729,0.036 -0.09,0.0275 -0.2159,0.0977 -0.30339,0.27446 -0.0826,0.16616 -0.0942,0.35031 -0.0342,0.53128 0.0381,0.11642 0.0857,0.24554 0.14146,0.38488 0.0441,0.11007 0.0751,0.22896 0.0917,0.35278 0.012,0.091 -0.0145,0.2025 -0.0783,0.33126 l -3.71475,7.49723 c -0.0547,0.11078 -0.12065,0.18662 -0.20108,0.23284 -0.10584,0.0603 -0.21485,0.10442 -0.32456,0.13123"
       style="fill:#013da6;fill-opacity:1;fill-rule:nonzero;stroke:none;stroke-width:0.352778" />
    <path
       id="path71"
       d="m 442.90159,177.65613 -6.85729,-5.75451 c 7.05096,-5.20065 11.69846,-13.47893 11.94117,-22.83495 h 11.40566 c -0.28081,10.61437 -6.33977,20.45829 -16.48954,28.58946 m -75.25208,22.01263 c -30.46765,0 -57.51371,-8.35837 -74.21104,-21.19489 l 6.91339,-5.80073 1.23331,-1.0354 8.20138,-6.88199 c 3.01977,2.77213 6.79097,5.30613 11.26349,7.5625 2.46979,1.24566 5.10222,2.37878 7.86906,3.39796 0.0332,0.3496 0.0829,0.71225 0.15028,1.08267 0.0977,0.53693 0.22789,1.07244 0.35419,1.58891 0.0512,0.21555 0.10442,0.4311 0.15663,0.64946 -0.005,0.001 -0.008,0.004 -0.0138,0.007 -1.16028,0.54116 -0.56832,2.66523 0.13618,4.35257 0.35277,0.84702 0.80292,1.7466 1.23825,2.46592 0.57538,0.95708 0.84984,1.1945 1.09996,1.18074 0.0342,-10e-4 0.0684,-0.01 0.10548,-0.0191 0.37923,-0.11535 0.2667,-0.5849 0.21837,-0.78422 -0.46144,-1.89054 0.89252,-3.18805 1.61748,-3.88408 0.14147,-0.13724 0.26353,-0.254 0.35031,-0.35419 0.69744,-0.81033 0.60537,-1.25236 0.40499,-1.47744 -0.0194,-0.0233 -0.0399,-0.0427 -0.0632,-0.0631 0.61842,-0.7038 1.19768,-1.51801 1.48379,-2.42782 9.55604,2.63313 20.31294,4.03366 31.49141,4.03366 17.5895,0 34.13936,-3.46251 46.59947,-9.74866 4.38221,-2.21086 8.09166,-4.68771 11.08004,-7.39387 l 8.16751,6.85377 1.23755,1.03787 6.92609,5.81095 c -16.7125,12.74939 -43.66472,21.04179 -74.01066,21.04179 m -91.74127,-50.60209 h 11.40531 c 0.23988,9.26465 4.80201,17.4759 11.73797,22.68325 l -6.85024,5.74922 c -10.03194,-8.10048 -16.01399,-17.88689 -16.29304,-28.43247 m 16.40664,-30.06513 6.85306,5.75063 c -7.00158,5.20453 -11.61309,13.45494 -11.85439,22.77145 h -11.40531 c 0.28046,-10.58475 6.3059,-20.40502 16.40664,-28.52208 m 75.33463,-22.079659 c 30.51986,0 57.60508,8.386229 74.29535,21.260509 l -6.90633,5.79543 -1.23331,1.03364 -8.21514,6.89433 c -3.03283,-2.79964 -6.83013,-5.35799 -11.3411,-7.6334 -12.46011,-6.2865 -29.00997,-9.74866 -46.59947,-9.74866 -17.58915,0 -34.13901,3.46216 -46.59947,9.74866 -4.41996,2.22991 -8.15552,4.73075 -11.15731,7.46478 l -8.18268,-6.86577 -1.23472,-1.03681 -6.92009,-5.80637 c 16.70544,-12.78749 43.69682,-21.106339 74.09427,-21.106339 m 66.16311,50.601739 c -0.0137,-0.32456 -0.0356,-0.64806 -0.0677,-0.97085 -0.39123,-4.02202 -2.14771,-7.91633 -5.23416,-11.59757 -0.56127,-0.66957 -1.16346,-1.32715 -1.80411,-1.97273 l 8.41305,-7.05908 c 6.6749,4.91843 11.07863,12.74798 11.32275,21.60023 z m -5.30189,14.11146 c 3.33375,-3.97616 5.11492,-8.20138 5.30225,-12.56841 h 12.62944 c -0.24694,8.98137 -4.77661,16.9104 -11.61591,21.81366 l -8.36895,-7.02275 c 0.73484,-0.72531 1.41958,-1.4665 2.05317,-2.2225 m -127.0246,-12.56869 c 0.18768,4.36703 1.96885,8.59225 5.30225,12.56841 0.58279,0.69533 1.21003,1.3776 1.87819,2.04717 l -8.39999,7.04921 c -6.72395,-4.9142 -11.16542,-12.77444 -11.40954,-21.66479 z m 0.0684,-2.5139 c -0.0321,0.32279 -0.054,0.64629 -0.0677,0.97085 h -12.62979 c 0.24553,-8.94327 4.73886,-16.84302 11.52877,-21.75016 l 8.382,7.03333 c -0.70661,0.70203 -1.36701,1.41816 -1.97943,2.14841 -3.0861,3.68124 -4.84258,7.57555 -5.23381,11.59757 m 105.6146,-1.27987 c -0.1785,0.31855 -0.65475,-0.31362 -0.7874,-0.44133 -0.47484,-0.45649 -1.00294,-1.05516 -1.05233,-1.13171 -0.32456,-0.502 -0.22754,-1.11866 -0.41522,-1.66299 -0.0395,-0.11466 -0.0751,-0.23742 -0.0473,-0.3556 0.17885,-0.75742 1.32715,0.25505 1.47955,0.55068 0.29598,0.57538 0.11853,1.27 0.34678,1.86584 0.0892,0.23284 0.60254,0.94862 0.47589,1.17511 m 0.40887,-3.14678 c -0.49812,0.47872 -0.69497,-0.69603 -0.60924,-0.99025 0.17074,-0.5842 1.11266,0.50694 0.60924,0.99025 m 0.56833,6.54579 c 0.14746,0.24553 0.56268,0.95426 0.93627,0.71543 0.10089,-0.0646 0.1651,-0.17215 0.24165,-0.26458 0.28716,-0.34643 0.70944,0.0268 0.83997,0.3309 0.38805,0.90241 -1.38113,1.1871 -1.91029,1.2058 -0.38947,0.0138 -0.98108,0.004 -1.27635,-0.30304 -0.54575,-0.56691 0.48683,-0.43144 0.45367,-0.84349 -0.006,-0.0755 -0.0413,-0.14534 -0.0723,-0.21484 -0.28893,-0.64558 -0.25788,-1.44145 0.43003,-1.80552 0.73731,-0.38982 1.62384,-0.30691 2.27507,0.21379 0.12735,0.1016 0.27128,0.34466 0.24447,0.50306 -0.0635,0.36406 -1.63406,-0.0811 -1.9117,-0.06 -0.15205,0.0102 -0.34325,0.10089 -0.34008,0.27869 0.002,0.0875 0.0444,0.16863 0.0896,0.24377 m -6.69996,-4.47851 c 0.33373,0.36935 0.78811,0.55209 1.27988,0.57679 0.15346,0.008 0.36089,0.0109 0.48578,0.12629 0.084,0.0769 0.10018,0.15381 0.0769,0.2226 -0.0328,0.0974 -0.14534,0.17851 -0.26494,0.21696 -0.24835,0.0808 -0.37606,0.20179 -0.47236,0.45579 -0.2085,0.54928 -0.64947,0.36513 -1.04211,0.096 -0.21837,-0.14958 -0.43109,-0.30057 -0.65617,-0.44062 -0.19649,-0.12206 -0.40499,-0.27729 -0.3817,-0.53693 0.008,-0.0878 0.0413,-0.17039 0.0589,-0.25541 0.0536,-0.2787 -0.6096,-0.85125 -0.34607,-1.04775 0.5274,-0.3937 0.9599,0.25294 1.26188,0.58632 m 2.22074,7.26651 c -0.11995,0.073 -0.30057,0.11395 -0.41593,0.1337 -0.78599,0.13441 -1.63583,-0.35806 -1.9117,-1.1056 -0.11924,-0.3242 -0.0953,-0.69921 0.14958,-0.96273 0.42086,-0.45191 0.56585,0.20426 0.69638,0.49847 0.17604,0.39758 0.54716,0.68298 0.94086,0.84738 0.17674,0.0741 0.47907,0.11959 0.60537,0.27904 0.11006,0.13935 0.0508,0.23919 -0.0646,0.30974 m -1.55575,-10.60979 c -0.0681,-0.84102 0.98778,0.0684 1.19874,0.26282 0.33902,0.31327 0.76482,0.65264 0.94685,1.10525 0.0649,0.16228 0.0773,0.46214 0.0141,0.68898 -0.073,0.26105 -0.24588,0.42474 -0.5535,0.16898 -0.20179,-0.16792 -0.32174,-0.42792 -0.5648,-0.54716 -0.70697,-0.34678 -1.41958,0.0448 -2.06975,-0.54786 -0.37782,-0.34431 -0.43039,-0.73202 0.18062,-0.76024 0.34678,-0.0159 0.89324,0.19085 0.84773,-0.37077 m -22.07754,6.16903 c -0.30621,-0.21979 -0.49424,-0.8308 -0.39511,-1.19522 0.11183,-0.41239 0.57997,-0.27834 0.80574,-0.0459 0.27552,0.28364 0.29881,0.8121 0.0977,1.14406 -0.10971,0.18133 -0.28645,0.25647 -0.50835,0.097 m -2.94287,1.43898 c -0.32738,-0.57715 -1.01424,-0.74966 -1.39206,-1.26401 -0.19191,-0.26141 0.0441,-0.52881 0.32773,-0.53798 0.29739,-0.01 0.55386,0.18626 0.8382,0.24306 0.55315,0.11077 1.25765,0.0829 1.50177,0.70944 0.14429,0.37041 0.15417,0.77399 0.53411,0.9906 0.32032,0.18238 1.40053,0.24941 1.18957,0.84419 -0.06,0.16863 -0.21238,0.29175 -0.37642,0.35172 -0.002,7.1e-4 -0.003,0.001 -0.005,0.002 -0.48718,0.17427 -1.03223,0.0208 -1.4866,-0.17886 -0.24166,-0.10583 -0.49248,-0.22296 -0.68369,-0.40958 -0.21307,-0.20743 -0.30303,-0.4953 -0.44767,-0.75035 m -2.12831,-9.64001 c -0.14358,0.18768 -0.32209,0.35313 -0.46073,0.45826 -0.20355,0.15487 -0.4445,0.27905 -0.63112,0.45438 -0.26811,0.25223 -0.40357,0.61524 -0.68897,0.85372 -0.25682,0.21449 -0.86219,0.37394 -0.92322,-0.0924 -0.0543,-0.41522 0.31856,-0.94862 0.5334,-1.27847 0.32808,-0.50411 0.78775,-1.02235 1.30845,-1.32997 0.23072,-0.13652 0.52247,-0.25576 0.78105,-0.12065 0.49812,0.26071 0.35313,0.6985 0.0811,1.05516 m -0.47484,-2.5534 c -0.63606,0.2032 -1.26047,0.35348 -1.87854,0.61383 -0.23107,0.0974 -0.52917,0.21449 -0.78564,0.16545 -0.12382,-0.0236 -0.25893,-0.10372 -0.23495,-0.25012 0.0547,-0.33478 0.59867,-0.52564 0.85478,-0.65934 0.3228,-0.16863 0.64947,-0.33055 0.96274,-0.51682 0.4519,-0.26917 0.89923,-0.61701 1.41111,-0.74577 0.15663,-0.0392 0.31926,-0.0582 0.49036,-0.048 0.0727,0.004 0.1464,0.0138 0.21237,0.0455 0.1464,0.0702 0.19438,0.24589 0.16334,0.39546 -0.11854,0.57327 -0.69039,0.83856 -1.19557,0.99978 m -2.51566,10.05945 c -0.37182,-0.25647 -0.58561,-0.69709 -0.6357,-1.13841 -0.0409,-0.35807 0.0409,-0.87313 0.51258,-0.81739 0.34149,0.0402 0.5454,0.19015 0.79234,-0.1277 0.18063,-0.23248 0.23284,-0.50236 0.2092,-0.78917 -0.0201,-0.24518 -0.0519,-0.47131 0.0691,-0.69885 0.16052,-0.30198 0.49354,-0.44062 0.80928,-0.51964 0.27446,-0.0691 0.5969,-0.0138 0.82656,-0.21131 0.32843,-0.28258 0.41874,-0.94792 0.94791,-0.94439 0.33126,0.002 0.5334,0.27587 0.44168,0.59126 -0.0448,0.15345 -0.0272,0.3369 0.0804,0.46143 0.19509,0.22683 0.59584,0.10301 0.85513,0.17745 0.17886,0.0515 0.39723,0.18203 0.42651,0.37923 0.0395,0.26247 -0.23565,0.47237 -0.15346,0.7306 0.0921,0.28858 0.45297,0.29704 0.69533,0.36725 0.76835,0.22225 0.47554,1.1557 0.27552,1.68768 -0.11077,0.29352 -0.33796,0.51365 -0.65687,0.38418 -0.48507,-0.1972 -0.95991,-0.43109 -1.38254,-0.7426 -0.27164,-0.20002 -0.5909,-0.0526 -0.89218,-0.10336 -0.4572,-0.0766 -0.54856,-1.15641 -1.00788,-1.00612 -0.27587,0.0907 -0.22472,0.48366 -0.24236,0.70696 -0.0317,0.40041 -0.31186,0.75848 -0.26317,1.16981 0.0378,0.32103 0.33796,0.51541 0.49741,0.77329 0.1898,0.30727 0.0819,0.74542 -0.22295,0.95003 -0.0448,0.03 -0.0963,0.0522 -0.14993,0.0526 -0.0406,0 -0.0765,-0.01 -0.10936,-0.0268 -0.16546,-0.085 -0.24906,-0.31433 -0.36548,-0.45226 -0.35983,-0.42792 -0.91264,-0.54681 -1.35714,-0.85373 m -0.9853,2.23626 c 0.41133,-0.0614 0.41839,0.29704 0.43673,0.58455 0.0275,0.42087 0.55351,0.62266 0.86431,0.7994 0.19473,0.11077 0.66746,0.53269 0.60537,0.80257 -0.0187,0.0801 -0.0843,0.14675 -0.21802,0.18803 -0.3496,0.10724 -0.76729,-0.27093 -1.07421,-0.38418 -0.44309,-0.16333 -0.99624,-0.38064 -1.12607,-0.8897 -0.10301,-0.40323 0.0236,-1.02729 0.51189,-1.10067 m -1.55046,-1.04704 c 0.0646,-0.24271 0.21237,-0.66922 0.47766,-0.76483 0.26035,-0.0938 0.47801,0.1704 0.52987,0.40076 0.0561,0.248 -0.11042,0.62301 -0.35348,0.81245 -0.34184,0.26634 -0.76941,-0.0176 -0.65405,-0.44838 m -1.13877,-3.74474 c 0.28046,-0.31891 0.90346,-0.63817 1.34479,-0.55457 0.28504,0.054 0.0363,0.41275 -0.0526,0.53446 -0.19721,0.26953 -0.44062,0.47731 -0.73061,0.60608 -0.13441,0.0596 -0.27869,0.10195 -0.43286,0.12594 -0.51152,0.079 -0.32843,-0.48507 -0.12876,-0.71191 m 2.72838,-2.04964 c 0.0314,0.0681 0.0402,0.14006 0.0314,0.21237 -0.042,0.34855 -0.496,0.69956 -0.81209,0.63924 -0.0557,-0.0106 -0.11113,-0.0325 -0.15029,-0.0737 -0.0508,-0.0533 -0.0674,-0.13194 -0.0607,-0.20497 0.0233,-0.25294 0.17039,-0.53869 0.39264,-0.68015 0.18697,-0.11889 0.49389,-0.12206 0.59901,0.10724 m -1.29963,-3.28224 c 0.0243,0.009 0.0519,0.004 0.0776,-10e-4 0.20391,-0.0427 0.36901,-0.072 0.56903,0.0138 0.22578,0.0963 0.35454,0.2988 0.25189,0.53939 -0.14994,0.35102 -0.61631,0.5267 -0.91123,0.72884 -0.43392,0.29739 -0.54681,0.65687 -0.65193,1.14653 -0.0589,0.27305 -0.27164,0.41592 -0.52635,0.50377 -0.19544,0.067 -0.42898,0.0755 -0.62547,0.0173 -0.27164,-0.0808 -0.47202,-0.28928 -0.40111,-0.64558 0.12559,-0.63183 0.4251,-1.20721 0.71684,-1.77518 0.17992,-0.34995 0.39794,-0.6985 0.68298,-0.97296 0.19262,-0.18591 0.5267,-0.3997 0.80786,-0.36019 0.53199,0.0744 0.0152,0.45368 -0.0392,0.69321 -0.0102,0.0437 0.007,0.097 0.049,0.11254 m 4.91596,12.42624 c -0.18874,-0.17639 -0.49707,-0.28575 -0.6283,-0.51047 -0.17321,-0.29809 0.11077,-0.47166 0.3743,-0.48013 0.3429,-0.0116 0.65193,0.20708 0.94932,0.34749 0.58456,0.27622 1.58821,0.37676 1.78153,1.1176 0.0769,0.29527 -0.008,0.60995 -0.0258,0.91793 -0.0123,0.21448 0.26776,0.74189 0.10689,0.96237 -0.0222,0.0303 -0.0529,0.055 -0.0942,0.0723 -0.0748,0.031 -0.15981,0.0233 -0.23954,0.007 -0.53022,-0.10618 -1.33808,-0.48824 -1.73355,-0.86713 -0.28081,-0.26917 -0.19579,-0.55527 -0.19579,-0.89711 0,-0.27023 -0.0991,-0.48754 -0.29492,-0.67028 m 11.52631,-1.61113 c 0.23636,0.0589 0.25541,0.34325 0.25823,0.54222 0.003,0.2487 0.0427,0.49424 0.10019,0.73448 0.048,0.19932 0.14146,0.39546 0.14958,0.60854 0.0152,0.46531 -0.46955,0.23601 -0.69321,0.0864 -0.34184,-0.23072 -0.56162,-0.61524 -0.55069,-1.03258 0.01,-0.33091 0.2854,-1.05445 0.7359,-0.93909 m -1.83163,-8.51712 c -0.21837,-0.31573 -0.1852,-0.65758 -0.0645,-1.00224 0.13052,-0.36795 0.23495,-0.67416 0.27481,-1.06398 0.0589,-0.59584 1.26294,-1.13982 1.28905,-0.28575 0.003,0.0864 0,0.16757 -0.005,0.24589 -0.0247,0.30339 -0.11818,0.55315 -0.29245,0.84173 -0.16899,0.27869 -0.20744,0.60254 -0.23213,0.91969 -0.0152,0.19791 0.005,0.44626 -0.18133,0.5715 -0.27869,0.1838 -0.61771,0.0176 -0.78811,-0.22684 m -0.49,4.70959 c 0.0931,-0.21132 0.23883,-0.47908 0.43638,-0.60678 0.25682,-0.16475 0.62477,0.0892 0.60713,0.38311 -10e-4,0.0162 -0.004,0.0328 -0.007,0.0494 -0.0603,0.28681 -0.47378,0.78388 -0.79234,0.76624 -0.35948,-0.0194 -0.3623,-0.32421 -0.24412,-0.59196 m -1.66829,-3.8534 c -0.0476,-0.25329 -0.29422,-0.5214 -0.005,-0.73695 0.42792,-0.31926 0.82091,0.15946 1.00436,0.51047 0.1845,0.35348 0.36512,0.71226 0.59937,1.03646 0.19226,0.266 0.47907,0.45226 0.68121,0.71191 0.11536,0.14781 0.23989,0.42862 0.14887,0.61454 -0.15169,0.30974 -0.58561,0.0938 -0.79163,-0.0289 -0.2861,-0.17039 -0.56868,-0.34643 -0.8569,-0.51329 -0.127,-0.0737 -0.26881,-0.1397 -0.40498,-0.21379 -0.13829,-0.0748 -0.27059,-0.15804 -0.37607,-0.26599 -0.19438,-0.19861 -0.11535,-0.41169 -0.0399,-0.64065 0.0497,-0.15169 0.0706,-0.31573 0.0406,-0.47378 m 7.01534,-6.48617 c -0.52282,0.10936 -1.2065,0.0967 -1.391,0.0935 -0.0727,-0.001 -0.14923,-0.007 -0.21026,-0.0473 -0.38135,-0.24871 0.43533,-0.48366 0.58314,-0.51753 0.34255,-0.0787 0.69497,-0.1023 1.04317,-0.14499 0.16086,-0.0198 0.56056,-0.0505 0.6223,0.16334 0.0801,0.27834 -0.48049,0.41839 -0.64735,0.45296 m 0.28786,2.99932 c 0.0423,0.21025 0.12065,0.42016 0.0423,0.63429 -0.0892,0.24871 -0.3295,0.40923 -0.56409,0.53164 -0.2473,0.1277 -0.57821,0.25259 -0.71826,0.51188 -0.14005,0.26247 0.0755,0.53975 -0.0385,0.8061 -0.13723,0.32385 -0.65899,0.17145 -0.85408,0.001 -0.23742,-0.20885 -0.41733,-0.57962 -0.3048,-0.89112 0.2473,-0.68509 0.93098,-1.07103 1.12889,-1.7974 0.0808,-0.29916 0.30868,-0.53834 0.5902,-0.6604 0.24165,-0.10442 0.98742,-0.23354 0.78669,0.24306 -0.001,0.001 -0.001,0.004 -0.003,0.005 -0.0864,0.20462 -0.10971,0.39829 -0.0656,0.61525 m 2.09515,3.31576 c 0.28575,0.1524 0.59302,0.32843 0.78811,0.59196 0.085,0.11536 0.14958,0.31432 0.14711,0.49988 -0.003,0.16475 -0.084,0.38171 -0.272,0.41311 -0.29527,0.0494 -0.60148,-0.36795 -0.83361,-0.50941 -0.33337,-0.20462 -0.69744,-0.3609 -0.99519,-0.61772 -0.20214,-0.17427 -0.36547,-0.47378 -0.33513,-0.74718 0.0233,-0.21414 0.38452,-0.59161 0.60818,-0.40217 0.0385,0.0332 0.066,0.0769 0.0949,0.11959 0.19615,0.28011 0.49953,0.49425 0.79763,0.65194 m -21.88668,-8.16363 c 0.18838,-0.0272 0.37288,0.0427 0.55986,0.049 0.0857,0.003 0.52916,-0.0561 0.36406,-0.2286 -0.16475,-0.17251 -0.53269,-0.14322 -0.74683,-0.20496 -0.054,-0.0155 -0.11112,-0.0353 -0.14534,-0.0801 -0.16122,-0.21026 0.4258,-0.35772 0.53763,-0.37959 0.18274,-0.036 0.36936,-0.0529 0.54822,-0.10442 0.24729,-0.0713 0.37112,-0.30692 0.084,-0.42792 -0.52105,-0.21872 -1.0414,-0.45297 -1.5681,-0.65687 -0.38241,-0.14817 -0.79692,-0.14711 -1.19874,-0.10337 -0.16333,0.0176 -0.72707,0.1584 -0.64488,-0.17603 0.14358,-0.58597 1.06363,-0.70873 1.54341,-0.67698 0.47166,0.0314 0.90664,0.23777 1.34549,0.39123 0.57715,0.20214 1.1804,0.14887 1.71838,0.46496 0.43709,0.25717 0.93874,0.40428 1.44569,0.42439 0.25893,0.0102 0.75706,0.0621 0.91651,-0.20426 0.20744,-0.34643 -0.37888,-0.45014 -0.5976,-0.48366 -0.18204,-0.0275 -0.36478,-0.0356 -0.54787,-0.0473 -0.36512,-0.0236 -0.76129,-0.14887 -1.05445,-0.37112 -0.28857,-0.21872 -0.23848,-0.57397 0.16545,-0.53728 0.29775,0.0272 0.55527,0.15028 0.86078,0.14252 0.28787,-0.007 0.55739,-0.0815 0.83679,-0.14041 0.34643,-0.0727 0.72425,-0.0332 1.07774,-0.0515 0.54998,-0.0286 1.09043,-0.14923 1.64323,-0.13441 0.3228,0.008 0.65723,0.0579 0.95145,0.19791 0.29104,0.13829 0.54186,0.33302 0.86642,0.39511 0.33231,0.0632 0.4258,-0.22049 0.28575,-0.48225 -0.37959,-0.70873 -1.28059,-0.91651 -1.97521,-1.17122 -0.13017,-0.0476 -0.23565,-0.19015 -0.0727,-0.28152 0.0533,-0.0296 0.11571,-0.0363 0.17639,-0.0406 0.4632,-0.0324 0.94721,0.0325 1.36913,0.23354 0.40958,0.19509 0.6343,0.56939 0.98178,0.84102 0.3048,0.23813 0.67522,0.35913 1.03576,0.48331 0.43286,0.14923 0.87065,0.28258 1.3081,0.41769 0.1023,0.0314 0.20814,0.0635 0.31432,0.0526 0.12171,-0.0127 0.28434,-0.12312 0.24201,-0.26493 -0.0176,-0.0589 -0.0617,-0.10548 -0.10689,-0.14711 -0.254,-0.2353 -0.66675,-0.3168 -0.80363,-0.66852 -0.0162,-0.0423 -0.0265,-0.0892 -0.0127,-0.13264 0.1584,-0.49107 1.28305,0.41945 1.46897,0.0494 0.0367,-0.0737 0.03,-0.16051 0.0272,-0.24271 -0.008,-0.23213 0.10266,-0.41275 0.34008,-0.44485 0.49671,-0.067 0.95109,0.17356 1.3783,0.39087 0.3115,0.15875 0.61983,0.32385 0.92428,0.49566 0.27905,0.15733 0.59302,0.28363 0.71755,0.60183 0.0466,0.11889 0.078,0.24448 0.14146,0.35525 0.13053,0.22754 0.35384,0.29422 0.58914,0.36336 0.62548,0.18345 1.11831,0.47237 1.66793,0.80575 0.33867,0.20531 0.68157,0.0988 1.04775,0.14287 0.64488,0.0773 0.99978,0.71614 1.28976,1.22414 0.17604,0.30868 -0.15381,0.3429 -0.37289,0.31609 -0.23354,-0.0289 -0.4699,-0.0709 -0.70379,-0.0903 -0.0466,-0.004 -0.0801,0.002 -0.10442,0.0138 -0.13653,0.0688 0.002,0.32949 -0.0811,0.44062 -0.0282,0.0374 -0.0723,0.06 -0.11677,0.0748 -0.29386,0.0981 -0.63535,-0.008 -0.92851,-0.0631 -0.35701,-0.0677 -0.71579,-0.12947 -1.07774,-0.16263 -0.242,-0.0222 -0.35242,0.0483 -0.38735,0.28822 -0.0628,0.42862 -0.6103,0.4131 -0.93203,0.37359 -0.69568,-0.0847 -1.3896,-0.26811 -2.09092,-0.11571 -0.12488,0.0272 -0.44838,0.18521 -0.41275,0.3556 0.01,0.0459 0.0501,0.0808 0.0942,0.0967 0.42792,0.15416 0.92322,-0.0173 1.36984,0.11994 0.35772,0.11007 0.37959,0.38806 0.055,0.55774 -0.81597,0.42722 -1.92758,0.47802 -2.62678,1.10455 -0.13476,0.12065 -0.35595,0.39511 -0.0896,0.49036 0.21661,0.0776 0.5013,-0.0688 0.69674,-0.14993 0.25788,-0.10654 0.508,-0.23318 0.77823,-0.30691 0.23424,-0.0642 0.75741,-0.0699 0.67169,0.31644 -0.0219,0.0984 -0.0861,0.18203 -0.15628,0.254 -0.51435,0.52705 -1.17264,0.79869 -1.53071,1.47919 -0.066,0.12489 -0.12171,0.25683 -0.20919,0.36795 -0.25753,0.32809 -1.61502,0.57891 -1.15006,-0.13582 0.0762,-0.11677 0.18203,-0.21202 0.25823,-0.32843 0.27411,-0.41875 -0.63041,-0.13088 -0.76694,-0.0427 -0.25329,0.16334 -0.369,0.42863 -0.52987,0.67028 -0.16863,0.25329 -0.37324,0.44908 -0.65616,0.57115 -0.3048,0.13193 -0.67169,0.12382 -0.95039,0.30621 -0.19932,0.13017 -0.33055,0.34395 -0.38523,0.57291 -0.0476,0.19861 0.003,0.44908 -0.0942,0.62759 -0.1584,0.29139 -0.52247,0.054 -0.68016,-0.1083 -0.29598,-0.30516 -0.44026,-0.74683 -0.34219,-1.16558 0.11924,-0.50977 0.55456,-0.73202 0.93027,-1.0407 0.42263,-0.34713 -0.85866,-0.51823 -0.31397,-0.8389 0.3175,-0.18662 0.65334,-0.27658 0.99342,-0.40534 0.20109,-0.0762 0.39229,-0.18909 0.50694,-0.37606 0.18839,-0.30727 0.24095,-0.60572 0.56198,-0.81774 0.21731,-0.14323 0.46814,-0.22437 0.72214,-0.27341 0.21554,-0.042 0.50341,-0.0197 0.69532,-0.1344 0.29034,-0.17392 0.085,-0.49283 -0.16545,-0.5641 -0.51224,-0.14534 -1.05163,0.12947 -1.54058,0.25118 -0.44591,0.11113 -0.90064,0.0152 -1.35008,-0.0106 -0.28081,-0.0166 -0.56057,0.0173 -0.81986,0.13088 -0.26035,0.1143 -0.49107,0.28504 -0.76235,0.37959 -0.29069,0.10125 -0.69815,0.0519 -0.55598,-0.37254 0.14887,-0.4445 0.72214,-0.68474 1.04458,-0.9853 0.19508,-0.18204 0.35136,-0.42087 0.58878,-0.55281 0.26035,-0.14428 0.5655,-0.13582 0.85337,-0.15804 0.24271,-0.019 0.98954,-0.18133 0.64805,-0.57009 -0.0501,-0.0572 -0.11571,-0.0977 -0.18238,-0.13441 -0.38312,-0.21025 -0.78881,-0.26811 -1.21956,-0.25611 -0.44414,0.0127 -0.8763,0.24165 -1.32291,0.30092 -0.54751,0.0727 -1.07915,-0.12136 -1.60126,-0.25506 -0.28152,-0.0723 -0.57044,-0.13829 -0.86254,-0.14147 -0.17639,-0.002 -0.79798,0.0621 -0.72637,0.37042 0.0148,0.0632 0.0776,0.10231 0.13829,0.12559 0.33161,0.12735 0.71931,0.0152 1.04881,0.16686 0.11924,0.055 0.29774,0.20602 0.20743,0.35419 -0.0328,0.0543 -0.0907,0.0889 -0.14993,0.11183 -0.26035,0.10125 -0.60643,0.11712 -0.88441,0.15805 -0.36725,0.054 -0.73766,0.0861 -1.10843,0.0959 -0.83856,0.0226 -1.74096,-0.1143 -2.49414,0.37042 -0.38947,0.25082 -0.73378,0.54963 -1.19909,0.64523 -0.36336,0.0748 -0.73907,0.0889 -1.09538,0.19614 -0.29104,0.0878 -0.52352,0.28611 -0.78281,0.43568 -0.19368,0.11148 -0.4893,0.0787 -0.53728,-0.17815 -0.0967,-0.52035 0.59513,-0.9278 0.98178,-1.10102 0.34325,-0.15381 0.70908,-0.23036 1.06186,-0.35348 0.21378,-0.0744 0.66393,-0.16863 0.70132,-0.4438 0.0321,-0.23495 -0.25506,-0.43779 0.14676,-0.49494 m -33.36431,43.22339 c -0.0109,-0.10407 -0.0261,-0.20885 -0.0466,-0.31503 0.0356,-0.0219 0.0741,-0.0423 0.11254,-0.0646 0.32808,-0.18239 0.66569,-0.37183 0.96802,-0.61066 0.48189,-0.38065 0.77964,-0.9271 0.81421,-1.49543 0.0124,-0.19508 -0.006,-0.38593 -0.055,-0.56832 0.53834,-0.18803 1.10525,-0.33232 1.68733,-0.4819 0.70979,-0.18273 1.44604,-0.37076 2.14348,-0.64699 1.12466,-0.44591 1.91946,-1.03646 2.37666,-1.76142 0.19509,0.005 0.39265,0.005 0.59302,-0.006 0.84173,-0.0466 1.71098,-0.2593 2.44017,-0.70556 0.58349,-0.35842 1.00647,-0.83079 1.24813,-1.39241 0.30338,-0.0797 0.61489,-0.17992 0.93486,-0.30621 0.8636,-0.33761 1.85349,-1.05975 2.37137,-1.98791 0.22084,-0.0441 0.42686,-0.10724 0.61101,-0.17991 0.4131,-0.16616 0.76447,-0.4064 1.10666,-0.63712 0.4378,-0.2981 0.85126,-0.57961 1.35502,-0.67839 0.56586,-0.10972 1.10949,-0.14535 1.63654,-0.18133 0.94474,-0.0617 1.84538,-0.12347 2.62396,-0.61771 0.81139,0.30621 1.70392,0.4572 2.53894,0.41063 0.0988,-0.006 0.19615,-0.0123 0.29245,-0.0247 0.88689,-0.1016 1.63936,-0.4244 2.20628,-0.94474 0.51646,0.0822 1.04492,0.11112 1.58185,0.0822 0.1016,-0.007 0.2032,-0.0123 0.30339,-0.0233 2.36432,-0.22507 3.51649,-1.23296 4.04777,-1.95509 0.0699,-0.001 0.13864,-0.004 0.20744,-0.007 1.50177,-0.0836 3.04517,-0.50941 4.22874,-1.24672 1.21814,-0.75776 1.95263,-1.78223 2.12408,-2.94075 1.82492,-0.44238 3.31858,-1.25095 4.00932,-2.00343 0.29951,0.0565 0.60677,0.0769 0.91581,0.0589 0.41592,-0.0219 0.83749,-0.11113 1.25483,-0.26635 0.9779,-0.36371 1.83444,-1.06257 2.36996,-1.90147 0.2473,0.0522 0.54786,0.0921 0.88724,0.0878 0.0589,-0.001 0.11782,-0.003 0.17568,-0.007 0.44203,-0.0247 0.83608,-0.11782 1.17651,-0.2413 0.21026,0.87031 0.74436,1.6817 1.5173,2.31493 -0.26211,0.58738 -0.35137,1.25765 -0.22931,1.89054 0.11254,0.58773 0.45862,1.04775 0.85126,1.3977 -0.1263,0.44627 -0.11536,0.92146 0.0427,1.3455 0.22225,0.58914 0.69886,1.02023 1.33597,1.23578 0.17004,0.77047 0.76624,1.45274 1.5046,2.00342 0.73731,0.54928 1.61607,0.9652 2.35338,1.20121 0.53164,0.1718 0.95709,0.24871 1.27282,0.23072 0.28293,-0.0166 0.47943,-0.10689 0.58491,-0.27305 0.26776,-0.41487 -0.25647,-0.89535 -0.42969,-1.05481 -1.05163,-0.9652 -2.11031,-3.64807 -0.47519,-6.74158 0.0208,-0.0356 0.0318,-0.0755 0.0346,-0.11395 0.12488,-0.10689 0.25117,-0.20708 0.37323,-0.3048 0.25436,-0.20179 0.47378,-0.37606 0.62618,-0.5588 0.28011,-0.33372 0.37889,-0.73166 0.2787,-1.12042 -0.0328,-0.1277 -0.0864,-0.24835 -0.15769,-0.35807 0.0988,-0.10301 0.19085,-0.21449 0.27728,-0.33232 0.40922,-0.56444 0.62477,-1.23436 0.61771,-1.88947 0.10443,-0.0741 0.20215,-0.15769 0.29246,-0.24836 0.22119,0.29775 0.48613,0.56974 0.78281,0.80187 0.27587,0.21695 0.508,0.2801 0.69321,0.26881 0.12382,-0.005 0.22507,-0.0452 0.30621,-0.0931 0.12629,-0.0755 0.22648,-0.1718 0.30233,-0.28575 0.096,0.0854 0.19332,0.17039 0.29775,0.24871 0.24835,0.18521 0.51893,0.34713 0.80609,0.48048 -0.15522,0.4886 -0.23777,0.99272 -0.14287,1.51024 0.0921,0.50941 0.35701,0.62477 0.56162,0.63289 0.0162,0 0.0328,0.001 0.048,0 0.0109,0 0.0247,-10e-4 0.037,-0.002 -0.27199,1.05727 -0.34184,1.83691 0.0646,2.27365 0.10971,0.12206 0.24976,0.20884 0.41874,0.2607 0.0275,0.7747 0.21132,1.25236 0.55069,1.44886 0.0822,0.048 0.21837,0.1016 0.39546,0.0917 0.1263,-0.007 0.27305,-0.048 0.4378,-0.14534 0.51506,-0.31327 1.02447,-1.10526 1.35396,-2.09127 0.25541,-0.0741 0.49001,-0.19756 0.70591,-0.36936 0.23742,-0.19085 0.43215,-0.42404 0.58738,-0.67804 0.0455,0.004 0.0878,0.004 0.13194,0.001 0.23741,-0.0123 0.46531,-0.11642 0.64664,-0.30198 0.36794,-0.37359 0.54116,-0.89782 0.70837,-1.4044 0.1965,-0.59761 0.38171,-1.16029 0.84455,-1.48449 0.17992,-0.12489 0.39406,-0.20849 0.62195,-0.30057 0.28293,-0.11007 0.57397,-0.22507 0.83608,-0.43109 0.48472,-0.37889 1.52965,-1.87431 1.67923,-2.10891 0.26105,-0.41204 0.33372,-0.84737 0.20073,-1.22343 -0.12524,-0.3556 -0.41205,-0.63324 -0.83362,-0.8061 0.0303,-0.22119 0.0494,-0.49565 -0.006,-0.81139 -0.0409,-0.2226 -0.12347,-0.68792 -0.51753,-1.10949 -0.14816,-0.15804 -0.30868,-0.27728 -0.46813,-0.36935 0.19791,-0.44203 0.35031,-1.016 0.28293,-1.68205 -0.0674,-0.68791 -0.34185,-1.18216 -0.4572,-1.36207 -0.14852,-0.2346 -0.31574,-0.42969 -0.48754,-0.5902 v -0.001 c 0.0275,-0.21696 0.1785,-0.52317 0.27728,-0.72214 0.0332,-0.066 0.0632,-0.12911 0.0878,-0.18556 0.0303,-0.0617 0.0607,-0.12629 0.0892,-0.19085 0.16228,-0.34466 0.32809,-0.70026 0.42863,-1.08726 0.19226,-0.74154 0.22648,-1.37725 0.1083,-2.0006 -0.20179,-1.06822 -0.89535,-2.09939 -2.04858,-2.35197 -0.11959,-0.3556 -0.30903,-0.63853 -0.56021,-0.84738 -0.31573,-0.2607 -0.6671,-0.37041 -0.70555,-0.3817 -0.1263,-0.0385 -0.25012,-0.0603 -0.36795,-0.0727 -0.0868,-0.15099 -0.1965,-0.29669 -0.33373,-0.4311 -0.79763,-0.77576 -2.23661,-1.02411 -3.37361,-0.62618 0.0247,-0.17992 0.0522,-0.37359 0.0822,-0.58349 0.272,-1.88807 0.64277,-4.47181 -0.59019,-5.87799 -0.23601,-0.26634 -1.20686,-1.18886 -1.68064,-0.83326 -0.24976,0.18662 -0.12065,0.46391 -0.0275,0.66569 0.055,0.12383 0.1277,0.27623 0.18662,0.46814 0.50976,1.63548 -0.58209,3.42724 -1.54588,5.00909 -0.11818,0.19368 -0.236,0.38453 -0.34466,0.57115 -0.30057,-0.25259 -0.64135,-0.43815 -1.01459,-0.56021 -0.1277,-0.0413 -0.254,-0.0727 -0.37747,-0.0963 0.1591,-0.30586 0.26635,-0.69462 0.078,-1.04599 -0.16862,-0.30903 -0.53128,-0.4766 -1.29469,-0.59478 -0.79234,-0.12206 -1.61043,-0.12488 -2.43452,-0.0109 0.0152,-0.1852 -0.0494,-0.44203 -0.38559,-0.70837 -0.53975,-0.42969 -1.58714,-0.73061 -2.79823,-0.80046 -0.34607,-0.0208 -0.762,-0.0261 -1.23437,0.003 -10e-4,-0.25965 -0.11395,-0.50412 -0.33232,-0.70873 -0.51082,-0.47767 -1.37583,-0.62865 -2.3054,-0.5588 -0.0561,-0.19227 -0.16757,-0.36513 -0.3362,-0.5133 -1.4104,-1.25095 -6.79943,-0.49847 -9.36272,-0.0494 -0.0508,-0.22683 -0.18838,-0.38064 -0.34078,-0.48224 -1.09291,-0.73166 -4.70923,0.5782 -7.50888,2.23555 -0.0194,-0.0123 -0.0413,-0.0194 -0.0631,-0.0261 -1.69863,-0.46813 -5.86987,0.92393 -8.29451,3.52708 -0.01,-0.002 -0.0208,-0.004 -0.0303,-0.007 -1.19874,-0.2099 -2.76543,0.27588 -4.29613,1.32927 -0.83502,0.57644 -1.5681,1.26153 -2.15865,2.00025 -0.16757,-0.15628 -0.34995,-0.21131 -0.49706,-0.22225 -0.99801,-0.0935 -2.20345,1.48273 -4.06823,4.08728 -0.28575,0.399 -0.56551,0.78917 -0.83432,1.15288 l -0.70521,-4.78296 9.80088,-7.58402 7e-4,-7e-4 c 0.12171,-0.0949 0.16263,-0.254 0.1016,-0.39582 -0.061,-0.14146 -0.20426,-0.22154 -0.35701,-0.19826 l -10.51666,1.5935 -1.40264,-9.52112 c -0.0212,-0.14605 -0.13335,-0.25965 -0.2794,-0.28222 -0.1457,-0.0222 -0.28716,0.0519 -0.35137,0.1845 l -5.20735,10.71562 -10.7823,1.63372 c -0.13794,0.0205 -0.24694,0.12171 -0.27728,0.25788 -0.0303,0.13652 0.0254,0.27411 0.14146,0.35066 l 7.43056,4.9343 -5.11422,10.52407 c -0.0684,0.1404 -0.0314,0.30691 0.0896,0.40534 0.0625,0.0508 0.13618,0.0762 0.20991,0.0762 0.0716,0 0.14358,-0.024 0.20531,-0.0716 l 9.73208,-7.53216 3.49003,2.3174 c -0.20637,0.20813 -0.42262,0.42298 -0.65228,0.64276 -0.93769,0.90346 -2.06763,1.8796 -3.34751,2.66382 0.0589,-0.24871 0.10583,-0.49847 0.14146,-0.74436 0.0219,-0.14288 -0.0645,-0.29104 -0.20602,-0.34043 -0.25118,-0.0892 -0.38453,0.0988 -0.50235,0.26494 -2.2218,3.15665 -5.93725,5.19006 -10.45986,5.72417 -0.44486,0.0522 -0.81845,0.10724 -1.18216,0.15945 -0.62336,0.0907 -1.16452,0.16863 -1.90183,0.21555 -1.8863,0.11783 -3.71263,-0.048 -5.00874,-0.45332 -0.0303,-0.01 -0.0892,-0.0356 -0.16757,-0.0684 -0.69603,-0.29386 -1.02693,-0.40393 -1.25624,-0.23071 -0.0825,0.0603 -0.13194,0.15098 -0.14428,0.25117 -0.0205,0.20603 0.11677,0.42439 0.55739,0.90629 0.0247,0.0247 0.0427,0.0451 0.0508,0.055 0.57255,0.68227 1.32785,0.94298 1.78646,1.0982 -0.40499,0.10019 -1.14935,0.11677 -1.83303,0.0219 -0.17427,-0.0257 -0.45579,-0.0727 -0.78246,-0.12876 -2.8314,-0.48613 -3.7966,-0.5327 -4.13032,-0.19932 -0.10972,0.11148 -0.1524,0.25964 -0.11395,0.41204 0.0138,0.055 0.066,0.19227 0.25541,0.2473 0.47378,0.14534 1.51306,0.64523 1.65453,0.89923 -0.0399,0.0289 -0.13723,0.0808 -0.35701,0.13582 -0.95709,0.23213 -1.39771,-0.32667 -2.03765,-1.25906 -0.38982,-0.56445 -0.79093,-1.14794 -1.41287,-1.4404 -0.38982,-0.1852 -0.96238,-0.31291 -1.2506,-0.21131 -0.11007,0.0384 -0.19509,0.11254 -0.23777,0.20602 -0.12065,0.27023 0.13617,0.4378 0.27481,0.52705 0.29528,0.19368 0.9144,0.59584 1.38677,1.79741 0.096,0.24729 0.20602,0.52599 0.13864,0.73307 -0.066,0.20461 -0.16898,0.18133 -0.20179,0.17321 -0.22119,-0.0522 -0.45861,-0.52599 -0.68932,-0.98319 -0.6096,-1.20403 -1.52683,-3.02472 -4.32365,-2.27647 -2.05705,0.55209 -2.80246,1.8288 -2.98379,2.20909 -0.11254,0.23495 -0.12771,0.34749 -0.0698,0.46426 0.048,0.0931 0.13158,0.16333 0.23354,0.19614 0.22366,0.073 0.45861,-0.037 0.84278,-0.21802 0.75812,-0.35454 2.02389,-0.94756 3.3394,-0.21166 0.81421,0.4572 1.28517,1.25518 1.7847,2.10079 0.64417,1.08867 1.30845,2.21615 2.76542,2.6102 1.31692,0.35278 2.76543,-0.14429 3.71405,-0.50271 -0.22366,0.15664 -0.49707,0.28716 -0.83326,0.42298 -0.0138,0.006 -0.0317,0.0123 -0.0536,0.0194 -0.2212,0.0808 -0.73872,0.27446 -0.65088,0.69179 0.066,0.28293 0.32385,0.37783 1.68063,0.19227 3.0921,-0.42016 4.71206,-1.59385 5.53756,-2.36996 -0.036,0.0621 -0.0702,0.11676 -0.10302,0.1718 -0.14428,0.23071 -0.28857,0.46955 -0.16898,0.71825 0.0632,0.13582 0.17992,0.22366 0.32668,0.25259 0.27199,0.0522 0.56021,-0.14005 0.75388,-0.30621 0.38982,-0.34043 0.70168,-0.73483 1.00366,-1.1176 0.27199,-0.34607 0.53128,-0.67416 0.84031,-0.95991 2.96298,-2.74073 6.29391,-1.29751 6.51651,-1.08479 0.58209,0.56727 0.45579,1.10137 0.14006,2.16006 -0.30057,1.00365 -0.68651,2.29411 -0.23884,4.06259 -1.02587,0.62195 -1.03399,2.0514 -1.0354,2.54423 0,0.14958 0.003,0.30198 0.0152,0.4572 -0.048,0.0208 -0.0949,0.0469 -0.14005,0.0769 -0.55492,0.37218 -1.04775,1.48837 -0.8569,3.4738 -0.5849,0.1718 -1.37724,1.02023 -1.6189,4.23298 -0.0437,-0.03 -0.0917,-0.0533 -0.14005,-0.0727 -0.22648,-0.085 -0.47625,-0.0452 -0.67945,0.11253 -0.38664,0.2974 -0.62653,0.99907 -0.70167,1.92935 -2.50719,-0.94474 -4.89726,-1.98614 -7.14904,-3.12209 -5.91327,-2.98273 -10.54841,-6.44772 -13.77492,-10.29582 -3.15454,-3.76378 -4.81683,-7.73641 -4.94947,-11.81876 v -1.0608 c 0,-0.002 0,-0.005 0,-0.007 0.0169,-0.54716 0.0617,-1.09149 0.13617,-1.63442 0.4699,-3.50555 2.08316,-6.92044 4.8133,-10.17764 3.22651,-3.8481 7.86165,-7.31343 13.77492,-10.29581 12.24844,-6.17961 28.54995,-9.58321 45.90344,-9.58321 17.35384,0 33.65535,3.4036 45.90379,9.58321 5.91326,2.98238 10.54841,6.44771 13.77492,10.29581 2.73014,3.2572 4.3434,6.67209 4.8133,10.17764 0.0744,0.54293 0.11923,1.08726 0.13617,1.63442 v 1.07174 c -0.13371,4.08129 -1.79599,8.05251 -4.94947,11.81523 -3.22651,3.8481 -7.86166,7.31309 -13.77492,10.29582 -12.24844,6.17961 -28.54995,9.58286 -45.90379,9.58286 -11.14002,0 -21.84435,-1.40476 -31.32349,-4.04389 m 123.06511,-28.956 h -11.40566 c -0.23989,-9.22655 -4.76391,-17.40676 -11.65225,-22.6187 l 6.84742,-5.74605 c 9.98149,8.08743 15.9325,17.8488 16.21049,28.36475 m 1.54305,0 c -0.1711,-6.93738 -2.66418,-13.65709 -7.41574,-19.98804 -2.48991,-3.31787 -5.54144,-6.45477 -9.12989,-9.38953 -0.40252,-0.32985 -0.81351,-0.65652 -1.23014,-0.98213 -2.91112,-2.26836 -6.15174,-4.40796 -9.70668,-6.41244 -8.56015,-4.82459 -18.52224,-8.61096 -29.60899,-11.253968 -11.46598,-2.73297 -23.64281,-4.119033 -36.19323,-4.119033 -12.55007,0 -24.7269,1.386063 -36.19288,4.119033 -11.08675,2.643008 -21.04884,6.429378 -29.60899,11.253968 -3.47522,1.95826 -6.64845,4.04706 -9.50736,6.25686 -0.41805,0.32385 -0.83044,0.65088 -1.23473,0.97896 -3.67277,2.97991 -6.78991,6.17008 -9.32497,9.54828 -4.75156,6.33095 -7.24429,13.05066 -7.41539,19.98804 h -0.01 v 0.73413 c 0,0.0124 -3.6e-4,0.0251 -3.6e-4,0.0374 0,0.0127 3.6e-4,0.025 3.6e-4,0.0377 v 0.73378 h 0.01 c 0.1711,6.93737 2.66383,13.65708 7.41539,19.98839 2.5086,3.34292 5.58906,6.5024 9.21279,9.45691 0.40393,0.32949 0.81386,0.65652 1.2319,0.98072 2.88996,2.24296 6.10094,4.36139 9.62237,6.34647 8.56015,4.82459 18.52224,8.61096 29.60899,11.25397 11.46598,2.73261 23.64281,4.11868 36.19288,4.11868 12.55042,0 24.72725,-1.38607 36.19323,-4.11868 11.08675,-2.64301 21.04884,-6.42938 29.60899,-11.25397 3.43994,-1.93886 6.5853,-4.00649 9.42305,-6.19231 0.41945,-0.3242 0.83079,-0.64946 1.23613,-0.97648 3.70911,-2.99932 6.85447,-6.21207 9.40753,-9.61531 4.75156,-6.33131 7.24464,-13.05102 7.41574,-19.98839 h 0.01 v -1.54305 z"
       style="fill:#013da6;fill-opacity:1;fill-rule:nonzero;stroke:none;stroke-width:0.352778" />
  </g>
</svg>
