<svg xmlns="http://www.w3.org/2000/svg" viewBox="845 460 270 230">
<path transform="matrix(1,0,0,-1,1059.4992,532.241)" d="M0 0C0-.42-.14-.87-.43-1.32-.8-1.9-2.68-4.55-3.49-5.19-3.94-5.54-4.45-5.74-4.99-5.95-5.44-6.13-5.85-6.29-6.23-6.56-7.24-7.27-7.64-8.46-8.02-9.62-8.32-10.53-8.63-11.46-9.25-12.09-9.5-12.35-9.81-12.5-10.14-12.51-10.2-12.52-10.26-12.52-10.32-12.51-10.5-12.5-10.69-12.59-10.79-12.75-11.07-13.21-11.41-13.6-11.79-13.9-12.14-14.18-12.53-14.39-12.95-14.51-13.11-14.56-13.23-14.68-13.29-14.84-13.87-16.59-14.77-18-15.63-18.52-15.84-18.65-16.05-18.72-16.23-18.73-16.46-18.75-16.63-18.67-16.7-18.62-17.18-18.35-17.45-17.54-17.5-16.29-17.51-16.08-17.65-15.9-17.85-15.83-18.09-15.76-18.27-15.65-18.42-15.48-18.97-14.89-18.97-13.74-18.43-11.63-18.39-11.47-18.47-11.3-18.58-11.18-18.69-11.06-18.9-11-19.05-11.02-19.17-11.01-19.51-11-19.65-10.23-19.79-9.44-19.71-8.61-19.39-7.61-19.31-7.37-19.43-7.11-19.66-7-20.16-6.77-20.65-6.48-21.09-6.14-21.28-6.01-21.46-5.85-21.63-5.7-21.74-5.61-21.88-5.56-22.02-5.58-22.17-5.6-22.29-5.68-22.37-5.8-22.48-5.96-22.62-6.08-22.79-6.19-22.9-6.25-23.01-6.29-23.14-6.29-23.43-6.32-23.76-6.17-24.12-5.89-24.64-5.48-25.11-5-25.5-4.47-25.59-4.35-25.72-4.28-25.87-4.27-26.01-4.26-26.16-4.31-26.26-4.41-26.41-4.56-26.57-4.7-26.75-4.83-26.88-4.92-26.96-5.08-26.96-5.24-26.95-6.38-27.33-7.55-28.03-8.52-28.18-8.72-28.34-8.92-28.51-9.09-28.68-9.26-28.7-9.52-28.58-9.72-28.47-9.88-28.39-10.06-28.34-10.25-28.19-10.82-28.34-11.42-28.77-11.92-29.03-12.23-29.42-12.55-29.88-12.91L-29.97-12.98C-30.18-13.15-30.39-13.32-30.6-13.5-30.7-13.59-30.77-13.73-30.79-13.86-34.01-19.97-31.88-25.3-29.78-27.24-29.11-27.85-28.87-28.31-29.05-28.59-29.16-28.76-29.4-28.86-29.76-28.88-30.3-28.91-31.05-28.77-32-28.47-33.51-27.98-35.08-27.18-36.31-26.27-37.79-25.16-38.71-23.95-38.97-22.77-39.01-22.59-39.13-22.46-39.3-22.4-40.37-22.04-41.16-21.31-41.52-20.36-41.77-19.67-41.8-18.87-41.59-18.12-41.53-17.94-41.59-17.74-41.73-17.61-42.54-16.9-43.02-16.1-43.19-15.24-43.4-14.17-43.25-13-42.79-11.96-42.7-11.75-42.75-11.51-42.93-11.37-44.3-10.24-45.26-8.78-45.63-7.25-45.67-7.12-45.76-7-45.88-6.93-46.01-6.86-46.16-6.85-46.29-6.9-46.97-7.15-47.67-7.29-48.38-7.33-48.48-7.34-48.59-7.34-48.68-7.34-49.21-7.34-49.74-7.3-50.26-7.19-50.46-7.14-50.67-7.23-50.78-7.41-51.75-8.93-53.3-10.17-55.02-10.81-55.76-11.08-56.51-11.24-57.25-11.28-57.79-11.31-58.34-11.28-58.87-11.18-59.04-11.15-59.21-11.2-59.33-11.33-60.67-12.79-63.55-14.22-66.67-14.98-66.87-15.03-67.02-15.19-67.05-15.39-67.35-17.45-68.67-19.26-70.84-20.61-72.92-21.9-75.75-22.74-78.6-22.9L-78.99-22.91C-79.15-22.91-79.29-22.99-79.38-23.11-80.4-24.49-82.49-26.21-86.7-26.61-86.86-26.63-87.01-26.64-87.25-26.66-88.22-26.71-89.19-26.66-90.14-26.51-90.28-26.49-90.44-26.53-90.56-26.63-91.56-27.55-92.87-28.11-94.46-28.29-94.63-28.31-94.8-28.33-94.98-28.34-96.46-28.42-98.09-28.15-99.58-27.59-99.73-27.54-99.89-27.55-100.03-27.64-101.4-28.51-103.04-28.62-104.83-28.73-105.83-28.8-106.85-28.87-107.93-29.08-108.98-29.29-109.8-29.84-110.71-30.47-111.33-30.88-111.96-31.31-112.68-31.6-113.03-31.74-113.39-31.84-113.75-31.91-113.89-31.94-114.01-32.03-114.09-32.16-115.08-33.94-116.99-35.18-118.33-35.71-118.89-35.93-119.45-36.11-120.04-36.27-120.19-36.31-120.31-36.41-120.37-36.55-120.79-37.53-121.52-38.34-122.54-38.96-123.74-39.69-125.25-40.13-126.92-40.22-127.29-40.24-127.65-40.24-128.01-40.23-128.22-40.25-128.35-40.32-128.44-40.47-129.25-41.75-130.69-42.8-132.71-43.61-134-44.12-135.38-44.47-136.71-44.81L-136.82-44.84C-137.91-45.12-138.94-45.38-139.94-45.74-140.19-45.82-140.33-46.09-140.26-46.34-140.18-46.63-140.15-46.94-140.17-47.26-140.23-48.19-140.72-49.09-141.53-49.73-142.08-50.16-142.72-50.52-143.3-50.84L-143.52-50.97C-143.7-51.08-143.79-51.29-143.75-51.49-143.28-53.94-144.21-56.4-146.68-59.2-146.86-59.41-146.76-59.8-146.56-59.99-146.21-60.37-146.49-61.15-147.33-62.13-147.46-62.28-147.65-62.46-147.85-62.66L-147.96-62.77C-149.41-64.16-152.11-66.74-151.16-70.6-150.99-71.31-151.11-71.45-151.32-71.5-151.51-71.5-151.94-71.18-152.95-69.51-153.75-68.17-154.6-66.49-155.26-64.9-156.27-62.47-157.68-58.27-155.77-57.3-155.67-57.27-155.59-57.2-155.53-57.11-155.46-56.99-155.43-56.85-155.47-56.72L-155.76-55.49C-155.99-54.57-156.24-53.54-156.43-52.51-157.24-48.06-156.63-44.94-155.61-44.16-155.37-43.97-155.08-43.91-154.82-44.01-154.75-44.04-154.7-44.07-154.66-44.09-154.51-44.2-154.32-44.22-154.16-44.14-153.99-44.06-153.88-43.9-153.87-43.72-153.4-37.47-151.82-36.34-151.16-36.15-150.93-36.08-150.78-35.86-150.8-35.62-151.15-32.03-150.26-30.08-149.4-29.5-149.34-29.46-149.28-29.43-149.21-29.4-149.02-29.32-148.9-29.12-148.92-28.9-148.94-28.62-148.94-28.35-148.94-28.08-148.94-27.25-148.93-24.72-147.22-23.69-147.04-23.57-146.94-23.35-147-23.14-147.81-19.92-147.11-17.58-146.55-15.71-145.99-13.81-145.58-12.45-146.95-11.11-147.46-10.62-154.04-7.67-159.98-13.16-160.6-13.74-161.12-14.4-161.62-15.03-162.18-15.74-162.75-16.47-163.46-17.08-163.86-17.43-164.22-17.6-164.46-17.55-164.59-17.53-164.67-17.46-164.73-17.35-164.82-17.15-164.71-16.92-164.43-16.46L-164.23-16.13C-164.11-15.91-164.16-15.64-164.35-15.48-164.55-15.33-164.82-15.34-165-15.51-167.46-17.82-170.89-19.28-175.22-19.87-177.33-20.16-177.81-20.04-177.84-19.9-177.9-19.64-177.61-19.41-176.95-19.17-176.89-19.15-176.85-19.13-176.81-19.12-176.07-18.82-175.55-18.56-175.13-18.26-174.93-18.12-174.86-17.84-174.98-17.62-175.1-17.4-175.36-17.3-175.6-17.39-176.98-17.91-179.84-18.99-182.32-18.32-184.88-17.63-186.04-15.68-187.26-13.61-188.24-11.95-189.17-10.38-190.83-9.45-193.55-7.93-196.19-9.17-197.61-9.83-198.26-10.14-198.62-10.3-198.84-10.22-198.91-10.2-198.96-10.15-198.99-10.11-199-10.08-199.03-10.02-198.85-9.66-198.54-8.99-197.21-6.73-193.53-5.74-188.63-4.44-187.06-7.53-185.9-9.82-185.37-10.87-184.92-11.77-184.27-11.92-183.93-12-183.5-11.87-183.3-11.26-183.12-10.7-183.36-10.09-183.57-9.54-184.52-7.12-185.78-6.3-186.39-5.9-186.79-5.64-186.75-5.58-186.73-5.52-186.71-5.47-186.65-5.43-186.57-5.4-186.2-5.27-185.28-5.45-184.58-5.78-183.53-6.27-182.81-7.31-182.1-8.34-181-9.95-179.96-11.47-177.71-10.93-177.32-10.83-177.04-10.72-176.86-10.59-176.66-10.44-176.59-10.16-176.72-9.94-177.13-9.2-179.48-8.2-180.15-8-180.23-7.98-180.27-7.94-180.29-7.89-180.32-7.77-180.29-7.67-180.2-7.58-179.67-7.05-176.98-7.39-172.82-8.1-172.2-8.21-171.66-8.3-171.32-8.35-170-8.53-168.53-8.51-167.66-8.3-167.44-8.24-167.29-8.05-167.28-7.83-167.27-7.61-167.41-7.41-167.62-7.34-168.42-7.06-169.77-6.61-170.79-5.39-170.82-5.37-170.85-5.32-170.89-5.29-171.57-4.55-171.84-4.16-171.82-3.97-171.81-3.93-171.8-3.87-171.74-3.83-171.53-3.67-170.94-3.87-169.86-4.33L-169.76-4.37C-169.64-4.42-169.55-4.46-169.5-4.48-166.98-5.26-163.45-5.58-159.83-5.36-158.39-5.27-157.32-5.11-156.19-4.95L-155.95-4.91C-155.34-4.82-154.7-4.73-153.96-4.64-145.25-3.62-138.09 .31-133.8 6.4-133.54 6.77-133.5 6.75-133.42 6.72-133.38 6.71-133.35 6.66-133.36 6.62-133.42 6.17-133.51 5.71-133.62 5.26-133.67 5.06-133.59 4.85-133.43 4.74-133.26 4.62-133.04 4.61-132.87 4.71-130.79 5.99-128.69 7.66-126.45 9.83-126.01 10.24-125.59 10.66-125.2 11.05-125.09 11.16-125.04 11.31-125.06 11.45-125.07 11.6-125.15 11.74-125.28 11.82L-131.89 16.21C-132.07 16.33-132.3 16.32-132.47 16.19L-150.91 1.92H-151.07C-151.12 1.96-151.13 2.03-151.11 2.08L-141.42 22.02C-141.31 22.24-141.38 22.51-141.59 22.65L-155.67 32C-155.71 32.03-155.73 32.08-155.72 32.14-155.71 32.2-155.67 32.23-155.61 32.24L-135.19 35.34C-135.03 35.36-134.89 35.46-134.81 35.61L-124.95 55.91C-124.92 55.96-124.87 55.99-124.81 55.98-124.75 55.97-124.71 55.93-124.7 55.87L-122.04 37.83C-122.02 37.7-121.95 37.58-121.85 37.51-121.74 37.43-121.6 37.39-121.47 37.41L-101.55 40.43C-101.5 40.44-101.44 40.41-101.41 40.35-101.39 40.29-101.4 40.23-101.45 40.19L-120.02 25.83C-120.16 25.72-120.23 25.54-120.21 25.36L-118.87 16.3C-118.84 16.1-118.69 15.94-118.5 15.89-118.3 15.84-118.09 15.91-117.97 16.08-117.46 16.77-116.93 17.51-116.39 18.27-113.16 22.77-110.8 25.96-109.12 25.8-108.89 25.78-108.67 25.69-108.49 25.51-108.39 25.42-108.25 25.37-108.11 25.38-107.97 25.39-107.84 25.46-107.76 25.57-106.66 26.94-105.28 28.21-103.78 29.26-100.98 31.18-98.15 32.07-96.01 31.7-95.83 31.64-95.63 31.69-95.5 31.83-90.88 36.78-83.21 39.18-80.31 38.38-80.15 38.28-79.94 38.28-79.78 38.37-74.02 41.78-67.75 43.74-66.09 42.62-65.85 42.47-65.71 42.27-65.65 42.02-65.6 41.76-65.34 41.58-65.08 41.63-56.01 43.22-49.54 43.23-47.76 41.66-47.52 41.44-47.35 41.19-47.27 40.92-47.21 40.69-46.99 40.55-46.76 40.56-44.97 40.7-43.55 40.37-42.77 39.64-42.46 39.34-42.3 39.01-42.3 38.66-42.3 38.52-42.24 38.39-42.14 38.29-42.04 38.2-41.9 38.14-41.77 38.16-41 38.21-40.23 38.21-39.49 38.16-37.33 38.04-35.41 37.5-34.47 36.76-34.21 36.55-33.9 36.22-33.93 35.85-33.94 35.7-33.88 35.55-33.77 35.44-33.66 35.34-33.51 35.29-33.36 35.31-31.84 35.52-30.34 35.51-28.9 35.29-27.35 35.05-26.98 34.73-26.81 34.42-26.59 34.02-26.64 33.51-26.96 32.91-27.03 32.77-27.03 32.6-26.96 32.46-26.9 32.32-26.76 32.22-26.61 32.19-26.39 32.15-26.17 32.09-25.96 32.02-25.3 31.8-24.71 31.48-24.2 31.05-24.09 30.96-23.94 30.92-23.79 30.94-23.65 30.97-23.52 31.06-23.45 31.18-23.29 31.45-23.13 31.71-22.96 31.99L-22.8 32.26C-20.92 35.34-18.79 38.84-19.82 42.15-19.92 42.48-20.04 42.76-20.15 42.99L-20.2 43.1C-20.42 43.59-20.4 43.68-20.3 43.75-19.89 44.05-18.52 43.06-17.79 42.24-15.6 39.75-16.29 34.99-16.79 31.51-16.85 31.11-16.9 30.74-16.95 30.4-16.97 30.23-16.9 30.06-16.77 29.95-16.63 29.84-16.45 29.8-16.29 29.86-14.29 30.56-11.76 30.1-10.41 28.79-10.2 28.58-10.01 28.34-9.87 28.08-9.79 27.94-9.64 27.85-9.48 27.83-9.29 27.81-9.08 27.78-8.88 27.72-8.77 27.68-8.21 27.49-7.72 27.09-7.31 26.75-7 26.28-6.81 25.71-6.75 25.54-6.61 25.41-6.44 25.38-4.34 24.92-3.26 22.98-2.95 21.32-2.74 20.21-2.8 19.08-3.15 17.75-3.33 17.05-3.63 16.4-3.93 15.77L-4.1 15.4C-4.14 15.3-4.2 15.19-4.25 15.07-4.5 14.58-4.77 14.01-4.83 13.54-4.85 13.38-4.79 13.22-4.68 13.11-4.35 12.81-4.07 12.47-3.83 12.09-3.63 11.78-3.16 10.93-3.04 9.73-2.94 8.74-3.11 7.76-3.54 6.8-3.64 6.56-3.55 6.29-3.33 6.16-3.04 5.99-2.78 5.79-2.56 5.55-1.92 4.87-1.78 4.12-1.71 3.71-1.61 3.14-1.65 2.65-1.7 2.32-1.73 2.1-1.6 1.88-1.39 1.79-.73 1.52-.28 1.1-.09 .56-.03 .38 0 .2 0 0" fill="#013da6"/>
<path transform="matrix(1,0,0,-1,875.2579,656.7203)" d="M0 0C-.106-.512-.02-1.002 .229-1.305 .447-1.571 .776-1.706 1.208-1.706 2.805-1.706 4.099-.046 4.428 1.557 4.643 2.619 4.454 3.612 3.907 4.282 3.309 5.015 2.318 5.387 .962 5.387-2.261 5.387-4.814 3.108-6.391 1.202-8.266-1.07-9.763-4.11-10.298-6.729-10.527-7.851-10.922-10.639-9.623-12.23-8.996-13-8.037-13.39-6.772-13.39-4.073-13.39-2.035-11.798-1.036-8.907-.727-8.02-.713-7.803-.807-7.665-.867-7.585-1.085-7.453-1.838-7.468-1.941-7.468-2.184-7.465-2.324-7.259-2.39-7.161-2.45-6.99-2.361-6.718-2.304-6.552-2.233-6.394-2.167-6.251-2.109-6.122-2.049-5.991-2.009-5.868-2.004-5.85-1.995-5.833-1.986-5.816-1.803-5.441-1.506-5.204-1.148-5.143-1.119-5.141-1.09-5.138-1.062-5.141-.289-5.209 .638-5.247 1.549-5.247 3.154-5.247 4.9-5.138 6.595-4.929 6.672-4.92 6.749-4.935 6.815-4.972 7.07-5.115 7.167-5.41 7.041-5.684L6.686-6.583C6.537-7.024 6.237-7.256 5.813-7.256H5.808C4.485-7.284 3.999-7.783 3.506-8.767L1.174-14.661C1.105-14.847 .947-15.013 .753-15.101 .535-15.202 .303-15.204 .132-15.107 .112-15.096 .094-15.084 .077-15.073L-1.377-13.876-1.48-13.928C-3.715-15.056-5.55-15.751-7.785-15.751-10.316-15.751-12.359-14.89-13.69-13.258-15.13-11.495-15.599-8.936-15.01-6.057-14.34-2.776-12.245 .584-9.265 3.157-6.18 5.825-2.479 7.416 1.142 7.642H1.174C3.996 7.602 6.22 6.749 7.436 5.238 8.278 4.193 8.59 2.885 8.321 1.557 8.04 .186 7.193-1.076 5.939-1.995 4.563-3.005 2.785-3.538 .801-3.538-.761-3.538-2.109-3.028-2.808-2.172-3.257-1.623-3.415-.947-3.263-.215-2.965 1.245-1.637 2.118-.524 2.118 .023 2.118 .395 1.918 .641 1.488 .727 1.337 .687 1.136 .544 1.005 .266 .753 .083 .415 0 0" fill="#013da6"/>
<path transform="matrix(1,0,0,-1,935.9924,666.5723)" d="M0 0-.318-.667C-1.832-3.847-5.553-5.899-9.797-5.899-12.68-5.899-15.078-5.069-16.215-3.675-16.887-2.851-17.113-1.86-16.885-.736-16.424 1.514-14.48 2.731-12.883 2.731-11.901 2.731-11.234 2.379-10.905 1.689-10.857 1.589-10.859 1.468-10.914 1.36-10.962 1.259-11.048 1.182-11.151 1.139-11.867 .853-12.414 .189-12.574-.595-12.714-1.282-12.571-1.929-12.176-2.416-11.632-3.08-10.648-3.432-9.328-3.432-7.124-3.432-5.378-2.135-4.983-.206-4.594 1.714-6.082 3.191-7.78 4.665-9.866 6.454-11.856 8.441-11.28 11.266-10.49 15.121-6.168 17.423-2.444 17.423-1.961 17.423-.275 17.36 1.159 16.547L1.248 16.495 2.436 17.185C2.785 17.368 3.103 17.405 3.355 17.294 3.515 17.225 3.79 17.031 3.833 16.507 3.904 15.754 3.961 14.912 4.021 14.085V14.051C4.067 13.393 4.122 12.646 4.179 11.979 4.182 11.941 4.182 11.907 4.173 11.87L4.15 11.764C4.039 11.214 3.269 10.848 2.619 10.848 2.049 10.848 1.617 11.103 1.466 11.538 .793 13.241-.183 14.812-2.731 14.812-3.838 14.812-5.73 14.177-6.079 12.471-6.38 11-4.946 9.723-3.561 8.484L-3.44 8.378C-1.477 6.652 .967 4.502 .266 1.07 .24 .942 .209 .813 .177 .687Z" fill="#013da6"/>
<path transform="matrix(1,0,0,-1,957.0817,654.5908)" d="M0 0C.003-.04 0-.077-.006-.112L-.029-.22C-.14-.767-.91-1.133-1.56-1.133-2.13-1.133-2.562-.879-2.713-.444-3.389 1.259-4.362 2.831-6.91 2.831-8.02 2.831-9.909 2.195-10.258 .489-10.559-.982-9.125-2.258-7.74-3.498L-7.619-3.604C-5.553-5.421-3.211-7.482-3.913-10.911-4.751-15.015-8.89-17.881-13.977-17.881-16.859-17.881-19.257-17.051-20.394-15.657-21.058-14.844-21.287-13.868-21.069-12.757L-20.932-12.05-20.583-11.426C-19.741-9.923-18.21-9.251-17.065-9.251-16.08-9.251-15.416-9.603-15.084-10.293-15.036-10.393-15.038-10.513-15.093-10.622-15.141-10.722-15.227-10.799-15.33-10.842-16.049-11.129-16.593-11.793-16.753-12.577-16.893-13.264-16.753-13.911-16.355-14.397-15.811-15.061-14.827-15.413-13.507-15.413-11.303-15.413-9.56-14.117-9.165-12.188-8.773-10.27-10.261-8.79-11.959-7.316-14.045-5.527-16.037-3.541-15.459-.716-14.672 3.14-10.35 5.441-6.626 5.441-6.142 5.441-4.454 5.378-3.02 4.565L-2.931 4.514-1.743 5.204C-1.394 5.384-1.076 5.421-.824 5.312-.664 5.244-.389 5.046-.349 4.525-.275 3.767-.218 2.922-.157 2.089-.112 1.431-.06 .687 0 0" fill="#013da6"/>
<path transform="matrix(1,0,0,-1,979.602,654.9228)" d="M0 0C-.209-1.025-.753-2.009-1.531-2.774-1.591-2.831-1.652-2.891-1.714-2.945-3.48-4.525-5.871-4.611-7.98-4.686L-8.69-4.714-8.593-4.459C-7.797-2.401-7.113-.693-6.666 .352-5.971 2.015-5.249 3.068-3.804 3.157L-3.758 3.16C-2.19 3.22-1.042 2.874-.435 2.158 .02 1.62 .175 .853 0 0M-3.472-10.055C-4.076-13.012-7.136-14.558-9.846-14.558-10.742-14.558-11.297-14.409-11.546-14.102-11.721-13.891-11.761-13.581-11.672-13.106L-11.853-13.049-11.747-12.706-11.578-12.757-11.489-12.448C-11.423-12.222-11.355-11.984-11.315-11.841-10.985-10.848-10.344-9.079-9.551-6.981L-9.508-6.864H-5.971C-5.129-6.864-4.376-7.193-3.91-7.765-3.435-8.346-3.283-9.136-3.472-10.055M3.787 3.403C2.662 4.783 .489 5.484-2.67 5.484-3.449 5.484-4.196 5.453-4.989 5.418L-5.112 5.413C-5.816 5.378-6.772 5.378-7.471 5.378-8.77 5.378-9.58 5.43-10.173 5.467L-10.407 5.481C-10.748 5.518-11.011 5.518-11.266 5.518-15.047 5.518-18.774 2.911-19.403-.177-19.592-1.102-19.435-1.935-18.957-2.522-18.553-3.017-17.944-3.289-17.242-3.289-16.106-3.289-14.964-2.484-14.523-1.377-14.48-1.268-14.489-1.151-14.543-1.056-14.6-.956-14.706-.896-14.827-.89-15.093-.879-15.319-.764-15.482-.555-15.714-.258-15.791 .189-15.691 .673-15.445 1.878-14.017 3.226-12.477 3.226-11.987 3.226-11.647 3.1-11.435 2.837-11.123 2.456-11.068 1.795-11.269 .816-11.346 .444-11.452 .097-11.544-.2-12.462-2.991-14.847-9.174-15.957-11.752-16.756-13.693-17.603-14.558-18.699-14.558-19.172-14.558-19.501-14.795-19.649-15.25-19.69-15.373-19.75-15.508-19.813-15.648-19.878-15.803-19.953-15.969-20.002-16.115-20.102-16.392-20.027-16.573-19.973-16.656-19.873-16.81-19.695-16.896-19.495-16.882-18.001-16.767-16.495-16.741-15.496-16.741-13.521-16.741-11.707-16.842-9.786-16.948L-9.712-16.953C-9.334-16.99-9.002-16.99-8.678-16.99-5.819-16.99-3.309-16.212-1.414-14.744 .157-13.524 1.259-11.841 1.611-10.127 1.732-9.526 1.964-7.445-.226-5.805L-.446-5.642-.206-5.507C2.344-4.087 4.119-2.015 4.537 .037 4.657 .624 4.826 2.132 3.787 3.403" fill="#013da6"/>
<path transform="matrix(1,0,0,-1,996.6469,650.2459)" d="M0 0C-.049-.143-.12-.301-.192-.455-.249-.587-.306-.713-.344-.827-.495-1.282-.824-1.52-1.297-1.52-2.384-1.52-3.154-2.31-4.042-4.336-5.115-6.852-7.808-13.956-8.684-16.515-8.693-16.535-8.698-16.553-8.719-16.593-8.856-16.993-8.97-17.403-9.048-17.778-9.168-18.367-9.142-18.759-8.968-18.971-8.822-19.149-8.552-19.234-8.14-19.234-7.911-19.234-7.748-19.309-7.651-19.461-7.554-19.612-7.551-19.798-7.639-20.039-7.685-20.179-7.754-20.334-7.826-20.488-7.886-20.623-7.943-20.749-7.98-20.866-8.112-21.244-8.415-21.487-8.836-21.556-8.864-21.561-8.896-21.561-8.925-21.559-10.267-21.444-11.555-21.384-12.757-21.384-13.962-21.384-15.224-21.438-16.719-21.559L-16.759-21.561C-17.013-21.561-17.142-21.444-17.208-21.35-17.274-21.249-17.331-21.078-17.237-20.806-17.185-20.651-17.114-20.488-17.045-20.331-16.982-20.188-16.922-20.05-16.882-19.927-16.733-19.475-16.404-19.234-15.929-19.234-14.6-19.234-13.825-17.881-13.184-16.418-12.107-13.899-9.417-6.795-8.541-4.242-8.401-3.878-8.275-3.443-8.195-3.048-8.066-2.419-8.092-2.006-8.275-1.78-8.418-1.606-8.684-1.52-9.085-1.52-9.237-1.52-9.443-1.483-9.566-1.294-9.62-1.214-9.695-1.039-9.6-.761-9.549-.613-9.48-.452-9.405-.286-9.34-.135-9.282-.006-9.245 .112-9.114 .489-8.81 .733-8.389 .801-8.355 .807-8.318 .807-8.278 .804-7.325 .684-6.137 .63-4.54 .63-2.948 .63-1.666 .684-.51 .804-.309 .824-.126 .741-.026 .581 .031 .492 .112 .303 0 0" fill="#013da6"/>
<path transform="matrix(1,0,0,-1,1012.1947,654.6022)" d="M0 0C.003-.034 0-.072-.006-.109L-.029-.215C-.14-.761-.91-1.131-1.56-1.131-2.13-1.131-2.562-.873-2.713-.438-3.389 1.262-4.362 2.837-6.91 2.837-8.02 2.837-9.909 2.201-10.258 .495-10.559-.976-9.125-2.255-7.74-3.492L-7.619-3.598C-5.656-5.327-3.211-7.476-3.913-10.908-4.751-15.01-8.89-17.878-13.977-17.878-16.859-17.878-19.257-17.045-20.394-15.654-21.069-14.827-21.292-13.839-21.063-12.711-20.603-10.462-18.659-9.248-17.065-9.248-16.08-9.248-15.416-9.597-15.084-10.29-15.036-10.39-15.038-10.51-15.093-10.619-15.141-10.716-15.227-10.796-15.33-10.837-16.046-11.123-16.593-11.787-16.753-12.571-16.893-13.258-16.75-13.905-16.355-14.392-15.811-15.056-14.827-15.408-13.507-15.408-11.303-15.408-9.56-14.111-9.165-12.182-8.773-10.264-10.261-8.784-11.959-7.313-14.045-5.521-16.037-3.535-15.459-.71-14.672 3.143-10.347 5.447-6.623 5.447-6.142 5.447-4.454 5.384-3.02 4.571L-2.931 4.52-1.743 5.206C-1.394 5.39-1.076 5.427-.824 5.315-.664 5.247-.389 5.052-.349 4.528-.278 3.787-.218 2.962-.163 2.164L-.157 2.095C-.115 1.474-.063 .698 0 0" fill="#013da6"/>
<path transform="matrix(1,0,0,-1,1029.46,657.9683)" d="M0 0C-.535-2.625-1.938-5.65-3.658-7.894-5.106-9.786-7.459-12.042-10.43-12.042-11.143-12.042-12.468-11.884-13.333-10.828-14.234-9.723-14.437-7.914-13.934-5.453-13.404-2.857-11.996 .149-10.264 2.396-8.799 4.293-6.429 6.555-3.441 6.555-1.838 6.555-.779 5.951-.2 4.711 .329 3.572 .398 1.943 0 0M3.509 6.311C2.138 7.994-.066 8.884-2.859 8.884-6.512 8.884-10.178 7.416-13.181 4.748-15.994 2.25-18.004-1.133-18.699-4.531-19.323-7.579-18.88-10.118-17.423-11.87-16.026-13.553-13.776-14.44-10.917-14.44-7.305-14.44-3.672-12.963-.687-10.278 2.098-7.771 4.09-4.399 4.78-1.025 4.963-.135 5.052 .713 5.052 1.511 5.052 3.426 4.534 5.06 3.509 6.311" fill="#013da6"/>
<path transform="matrix(1,0,0,-1,1059.9431,650.2459)" d="M0 0C-.046-.14-.115-.295-.183-.447-.243-.581-.303-.707-.341-.827-.492-1.279-.822-1.52-1.294-1.52-2.954-1.52-4.13-2.436-4.883-4.316-6.878-8.842-9.443-15.986-11.031-20.729-11.037-20.749-11.046-20.766-11.054-20.783-11.343-21.355-11.684-21.378-13.687-21.418H-14.495C-14.852-21.418-15.239-21.35-15.393-20.82-15.399-20.8-15.405-20.771-15.408-20.743-15.433-20.291-16.704-10.424-17.992-4.288L-18.112-3.715-18.333-4.256C-20.01-8.358-22.18-14.36-22.921-16.524L-23.193-17.463C-23.213-17.531-23.23-17.592-23.256-17.669-23.359-18.204-23.322-18.559-23.133-18.791-22.89-19.088-22.363-19.234-21.521-19.234-21.295-19.234-21.129-19.309-21.032-19.461-20.935-19.612-20.932-19.798-21.021-20.039-21.066-20.182-21.135-20.336-21.209-20.494-21.27-20.626-21.324-20.751-21.361-20.866-21.493-21.244-21.796-21.487-22.217-21.556-22.237-21.559-22.257-21.561-22.277-21.561L-22.311-21.559C-23.668-21.444-25.013-21.384-26.21-21.384-27.395-21.384-28.829-21.447-30.243-21.559L-30.28-21.561C-30.469-21.561-30.635-21.476-30.729-21.332-30.781-21.249-30.858-21.069-30.755-20.792-30.706-20.648-30.635-20.482-30.563-20.319-30.5-20.179-30.443-20.044-30.403-19.927-30.254-19.475-29.925-19.234-29.453-19.234-27.85-19.234-26.642-18.29-25.861-16.427-24.773-13.899-22.117-6.781-21.244-4.228-21.144-3.898-21.041-3.558-20.975-3.226-20.849-2.616-20.892-2.192-21.101-1.935-21.338-1.646-21.799-1.52-22.643-1.52-22.795-1.52-23.001-1.483-23.124-1.294-23.176-1.214-23.253-1.039-23.156-.764-23.11-.618-23.041-.461-22.967-.289-22.904-.146-22.841-.009-22.804 .112-22.672 .489-22.369 .733-21.948 .801-21.914 .807-21.879 .81-21.845 .804-21.25 .736-19.67 .63-17.958 .63-16.547 .63-15.451 .687-14.612 .801-14.592 .804-14.575 .807-14.557 .807-13.759 .807-13.602 .424-13.553 .137L-11.338-13.627-11.1-13.009C-9.875-9.82-8.318-5.67-7.828-4.236-7.82-4.213-7.811-4.193-7.788-4.147-7.668-3.821-7.574-3.492-7.511-3.189-7.39-2.602-7.431-2.23-7.634-1.981-7.886-1.672-8.406-1.52-9.225-1.52-9.377-1.52-9.58-1.483-9.703-1.294-9.757-1.214-9.835-1.039-9.737-.764-9.689-.615-9.62-.455-9.546-.289-9.483-.146-9.423-.009-9.383 .112-9.254 .489-8.95 .733-8.53 .801-8.492 .807-8.458 .81-8.418 .804-7.433 .684-6.225 .63-4.608 .63-3 .63-1.694 .684-.504 .804-.484 .807-.464 .807-.447 .807-.269 .807-.115 .724-.023 .581 .034 .492 .112 .301 0 0" fill="#013da6"/>
<path transform="matrix(1,0,0,-1,913.4578,655.6813)" d="M0 0-.736-5.673-.85-6.243-1.085-6.028C-1.946-5.224-2.811-4.623-3.73-4.187L-3.919-4.099 .197 2.078ZM4.903-13.965C4.811-13.853 4.671-13.79 4.508-13.79 4.05-13.79 3.747-13.685 3.523-13.444 3.197-13.092 3.063-12.442 3.131-11.512L3.735-4.396C3.847-3.154 3.99-1.903 4.127-.696 4.193-.097 4.262 .492 4.325 1.085L4.797 5.453C4.834 5.679 4.791 5.876 4.671 6.019 4.551 6.165 4.359 6.248 4.145 6.248 4.125 6.248 4.104 6.248 4.087 6.245 3.678 6.185 2.596 6.142 1.397 6.142 .335 6.142-.756 6.183-1.448 6.248-1.48 6.251-1.514 6.248-1.549 6.243-1.975 6.177-2.207 5.865-2.396 5.536L-2.805 4.731C-2.822 4.697-2.837 4.663-2.842 4.625-2.882 4.434-2.842 4.256-2.731 4.119-2.63 3.993-2.476 3.921-2.313 3.921-2.058 3.921-1.943 3.881-1.889 3.847L-1.829 3.807-1.815 3.735C-1.795 3.655-1.789 3.409-2.104 2.871L-6.42-3.406-6.537-3.383C-7.173-3.263-7.682-3.206-8.092-3.206-10.233-3.206-12.577-3.876-14.523-5.046-16.521-6.248-17.852-7.834-18.173-9.397-18.244-9.749-18.261-10.078-18.227-10.379L-18.216-10.462-18.273-10.522C-20.205-12.568-22.36-13.79-24.037-13.79H-24.498C-25.563-13.79-26.233-13.596-26.493-13.206-26.779-12.774-26.616-12.042-26.284-11.077L-25.677-9.311C-24.805-6.852-22.575-.967-21.676 1.108-20.789 3.134-20.019 3.921-18.928 3.921-18.456 3.921-18.127 4.162-17.978 4.614-17.938 4.737-17.881 4.866-17.818 5-17.752 5.149-17.68 5.304-17.634 5.444-17.523 5.745-17.6 5.936-17.657 6.022-17.749 6.168-17.912 6.248-18.101 6.248L-18.15 6.245C-19.329 6.128-20.634 6.071-22.246 6.071-23.86 6.071-25.071 6.128-26.052 6.245-26.093 6.251-26.13 6.251-26.164 6.243-26.585 6.177-26.888 5.931-27.02 5.553-27.06 5.435-27.12 5.298-27.183 5.155-27.255 4.989-27.326 4.829-27.375 4.68-27.469 4.405-27.395 4.228-27.34 4.147-27.217 3.961-27.011 3.921-26.86 3.921-26.459 3.921-26.193 3.835-26.05 3.661-25.866 3.438-25.841 3.023-25.969 2.396-26.041 2.047-26.153 1.643-26.279 1.288-26.299 1.245-26.307 1.225-26.313 1.205-27.06-.959-29.144-6.701-30.174-9.211L-30.93-10.994C-31.863-13.324-32.67-13.79-33.669-13.79-34.124-13.79-34.462-14.042-34.619-14.497L-35.023-15.442C-35.034-15.468-35.043-15.496-35.049-15.522-35.086-15.711-35.049-15.891-34.937-16.026-34.834-16.152-34.676-16.223-34.496-16.223-33.274-16.169-32.026-16.123-30.812-16.095-29.599-16.066-28.419-16.049-27.332-16.049-24.991-16.049-22.486-16.106-19.675-16.226-19.223-16.226-18.814-16.006-18.533-15.605L-16.441-12.185-16.321-12.208C-16.132-12.242-15.937-12.259-15.748-12.259-14.475-12.259-13.313-11.432-12.854-10.198-12.814-10.089-12.823-9.972-12.88-9.878-12.94-9.783-13.046-9.723-13.164-9.72-13.564-9.706-13.851-9.597-14.014-9.388-14.208-9.142-14.251-8.738-14.14-8.192-13.882-6.935-12.697-5.501-10.141-5.247-9.597-5.201-8.919-5.249-8.115-5.395L-7.846-5.447-11.518-10.822C-12.583-12.291-13.891-13.79-15.531-13.79-15.966-13.79-16.304-14.028-16.51-14.477L-16.882-15.302C-17.028-15.579-16.97-15.771-16.925-15.863-16.836-16.034-16.644-16.129-16.43-16.117-15.104-16.003-13.856-15.943-12.817-15.943-11.79-15.943-10.602-16-9.294-16.117H-9.274C-9.257-16.117-9.237-16.117-9.219-16.115-8.839-16.052-8.518-15.803-8.335-15.428L-7.951-14.583C-7.937-14.555-7.929-14.526-7.92-14.495-7.877-14.283-7.914-14.097-8.02-13.965-8.112-13.853-8.252-13.79-8.415-13.79-9.028-13.79-9.426-13.685-9.597-13.476-9.743-13.298-9.712-13.038-9.672-12.832-9.6-12.485-9.388-12.039-9.105-11.635L-8.939-11.389C-8.564-10.834-8.095-10.141-7.78-9.629L-5.418-6.3-5.275-6.391C-2.962-7.854-1.557-10.081-1.606-12.199-1.692-12.915-1.841-13.324-2.084-13.541-2.273-13.71-2.562-13.79-2.962-13.79-3.398-13.79-3.735-14.028-3.939-14.477L-4.313-15.302C-4.459-15.579-4.402-15.771-4.354-15.86-4.265-16.037-4.07-16.137-3.856-16.117-2.971-16.023-1.858-15.977-.538-15.977 .667-15.977 2.032-16.023 3.632-16.117 3.652-16.12 3.681-16.117 3.709-16.115 4.084-16.052 4.405-15.803 4.588-15.428L4.975-14.583C4.986-14.555 4.995-14.526 5.003-14.495 5.046-14.283 5.009-14.097 4.903-13.965" fill="#013da6"/>

</svg>