<svg xmlns="http://www.w3.org/2000/svg" viewBox="845 460 230 165">
<path transform="matrix(1,0,0,-1,1059.4992,532.241)" d="M0 0C0-.42-.14-.87-.43-1.32-.8-1.9-2.68-4.55-3.49-5.19-3.94-5.54-4.45-5.74-4.99-5.95-5.44-6.13-5.85-6.29-6.23-6.56-7.24-7.27-7.64-8.46-8.02-9.62-8.32-10.53-8.63-11.46-9.25-12.09-9.5-12.35-9.81-12.5-10.14-12.51-10.2-12.52-10.26-12.52-10.32-12.51-10.5-12.5-10.69-12.59-10.79-12.75-11.07-13.21-11.41-13.6-11.79-13.9-12.14-14.18-12.53-14.39-12.95-14.51-13.11-14.56-13.23-14.68-13.29-14.84-13.87-16.59-14.77-18-15.63-18.52-15.84-18.65-16.05-18.72-16.23-18.73-16.46-18.75-16.63-18.67-16.7-18.62-17.18-18.35-17.45-17.54-17.5-16.29-17.51-16.08-17.65-15.9-17.85-15.83-18.09-15.76-18.27-15.65-18.42-15.48-18.97-14.89-18.97-13.74-18.43-11.63-18.39-11.47-18.47-11.3-18.58-11.18-18.69-11.06-18.9-11-19.05-11.02-19.17-11.01-19.51-11-19.65-10.23-19.79-9.44-19.71-8.61-19.39-7.61-19.31-7.37-19.43-7.11-19.66-7-20.16-6.77-20.65-6.48-21.09-6.14-21.28-6.01-21.46-5.85-21.63-5.7-21.74-5.61-21.88-5.56-22.02-5.58-22.17-5.6-22.29-5.68-22.37-5.8-22.48-5.96-22.62-6.08-22.79-6.19-22.9-6.25-23.01-6.29-23.14-6.29-23.43-6.32-23.76-6.17-24.12-5.89-24.64-5.48-25.11-5-25.5-4.47-25.59-4.35-25.72-4.28-25.87-4.27-26.01-4.26-26.16-4.31-26.26-4.41-26.41-4.56-26.57-4.7-26.75-4.83-26.88-4.92-26.96-5.08-26.96-5.24-26.95-6.38-27.33-7.55-28.03-8.52-28.18-8.72-28.34-8.92-28.51-9.09-28.68-9.26-28.7-9.52-28.58-9.72-28.47-9.88-28.39-10.06-28.34-10.25-28.19-10.82-28.34-11.42-28.77-11.92-29.03-12.23-29.42-12.55-29.88-12.91L-29.97-12.98C-30.18-13.15-30.39-13.32-30.6-13.5-30.7-13.59-30.77-13.73-30.79-13.86-34.01-19.97-31.88-25.3-29.78-27.24-29.11-27.85-28.87-28.31-29.05-28.59-29.16-28.76-29.4-28.86-29.76-28.88-30.3-28.91-31.05-28.77-32-28.47-33.51-27.98-35.08-27.18-36.31-26.27-37.79-25.16-38.71-23.95-38.97-22.77-39.01-22.59-39.13-22.46-39.3-22.4-40.37-22.04-41.16-21.31-41.52-20.36-41.77-19.67-41.8-18.87-41.59-18.12-41.53-17.94-41.59-17.74-41.73-17.61-42.54-16.9-43.02-16.1-43.19-15.24-43.4-14.17-43.25-13-42.79-11.96-42.7-11.75-42.75-11.51-42.93-11.37-44.3-10.24-45.26-8.78-45.63-7.25-45.67-7.12-45.76-7-45.88-6.93-46.01-6.86-46.16-6.85-46.29-6.9-46.97-7.15-47.67-7.29-48.38-7.33-48.48-7.34-48.59-7.34-48.68-7.34-49.21-7.34-49.74-7.3-50.26-7.19-50.46-7.14-50.67-7.23-50.78-7.41-51.75-8.93-53.3-10.17-55.02-10.81-55.76-11.08-56.51-11.24-57.25-11.28-57.79-11.31-58.34-11.28-58.87-11.18-59.04-11.15-59.21-11.2-59.33-11.33-60.67-12.79-63.55-14.22-66.67-14.98-66.87-15.03-67.02-15.19-67.05-15.39-67.35-17.45-68.67-19.26-70.84-20.61-72.92-21.9-75.75-22.74-78.6-22.9L-78.99-22.91C-79.15-22.91-79.29-22.99-79.38-23.11-80.4-24.49-82.49-26.21-86.7-26.61-86.86-26.63-87.01-26.64-87.25-26.66-88.22-26.71-89.19-26.66-90.14-26.51-90.28-26.49-90.44-26.53-90.56-26.63-91.56-27.55-92.87-28.11-94.46-28.29-94.63-28.31-94.8-28.33-94.98-28.34-96.46-28.42-98.09-28.15-99.58-27.59-99.73-27.54-99.89-27.55-100.03-27.64-101.4-28.51-103.04-28.62-104.83-28.73-105.83-28.8-106.85-28.87-107.93-29.08-108.98-29.29-109.8-29.84-110.71-30.47-111.33-30.88-111.96-31.31-112.68-31.6-113.03-31.74-113.39-31.84-113.75-31.91-113.89-31.94-114.01-32.03-114.09-32.16-115.08-33.94-116.99-35.18-118.33-35.71-118.89-35.93-119.45-36.11-120.04-36.27-120.19-36.31-120.31-36.41-120.37-36.55-120.79-37.53-121.52-38.34-122.54-38.96-123.74-39.69-125.25-40.13-126.92-40.22-127.29-40.24-127.65-40.24-128.01-40.23-128.22-40.25-128.35-40.32-128.44-40.47-129.25-41.75-130.69-42.8-132.71-43.61-134-44.12-135.38-44.47-136.71-44.81L-136.82-44.84C-137.91-45.12-138.94-45.38-139.94-45.74-140.19-45.82-140.33-46.09-140.26-46.34-140.18-46.63-140.15-46.94-140.17-47.26-140.23-48.19-140.72-49.09-141.53-49.73-142.08-50.16-142.72-50.52-143.3-50.84L-143.52-50.97C-143.7-51.08-143.79-51.29-143.75-51.49-143.28-53.94-144.21-56.4-146.68-59.2-146.86-59.41-146.76-59.8-146.56-59.99-146.21-60.37-146.49-61.15-147.33-62.13-147.46-62.28-147.65-62.46-147.85-62.66L-147.96-62.77C-149.41-64.16-152.11-66.74-151.16-70.6-150.99-71.31-151.11-71.45-151.32-71.5-151.51-71.5-151.94-71.18-152.95-69.51-153.75-68.17-154.6-66.49-155.26-64.9-156.27-62.47-157.68-58.27-155.77-57.3-155.67-57.27-155.59-57.2-155.53-57.11-155.46-56.99-155.43-56.85-155.47-56.72L-155.76-55.49C-155.99-54.57-156.24-53.54-156.43-52.51-157.24-48.06-156.63-44.94-155.61-44.16-155.37-43.97-155.08-43.91-154.82-44.01-154.75-44.04-154.7-44.07-154.66-44.09-154.51-44.2-154.32-44.22-154.16-44.14-153.99-44.06-153.88-43.9-153.87-43.72-153.4-37.47-151.82-36.34-151.16-36.15-150.93-36.08-150.78-35.86-150.8-35.62-151.15-32.03-150.26-30.08-149.4-29.5-149.34-29.46-149.28-29.43-149.21-29.4-149.02-29.32-148.9-29.12-148.92-28.9-148.94-28.62-148.94-28.35-148.94-28.08-148.94-27.25-148.93-24.72-147.22-23.69-147.04-23.57-146.94-23.35-147-23.14-147.81-19.92-147.11-17.58-146.55-15.71-145.99-13.81-145.58-12.45-146.95-11.11-147.46-10.62-154.04-7.67-159.98-13.16-160.6-13.74-161.12-14.4-161.62-15.03-162.18-15.74-162.75-16.47-163.46-17.08-163.86-17.43-164.22-17.6-164.46-17.55-164.59-17.53-164.67-17.46-164.73-17.35-164.82-17.15-164.71-16.92-164.43-16.46L-164.23-16.13C-164.11-15.91-164.16-15.64-164.35-15.48-164.55-15.33-164.82-15.34-165-15.51-167.46-17.82-170.89-19.28-175.22-19.87-177.33-20.16-177.81-20.04-177.84-19.9-177.9-19.64-177.61-19.41-176.95-19.17-176.89-19.15-176.85-19.13-176.81-19.12-176.07-18.82-175.55-18.56-175.13-18.26-174.93-18.12-174.86-17.84-174.98-17.62-175.1-17.4-175.36-17.3-175.6-17.39-176.98-17.91-179.84-18.99-182.32-18.32-184.88-17.63-186.04-15.68-187.26-13.61-188.24-11.95-189.17-10.38-190.83-9.45-193.55-7.93-196.19-9.17-197.61-9.83-198.26-10.14-198.62-10.3-198.84-10.22-198.91-10.2-198.96-10.15-198.99-10.11-199-10.08-199.03-10.02-198.85-9.66-198.54-8.99-197.21-6.73-193.53-5.74-188.63-4.44-187.06-7.53-185.9-9.82-185.37-10.87-184.92-11.77-184.27-11.92-183.93-12-183.5-11.87-183.3-11.26-183.12-10.7-183.36-10.09-183.57-9.54-184.52-7.12-185.78-6.3-186.39-5.9-186.79-5.64-186.75-5.58-186.73-5.52-186.71-5.47-186.65-5.43-186.57-5.4-186.2-5.27-185.28-5.45-184.58-5.78-183.53-6.27-182.81-7.31-182.1-8.34-181-9.95-179.96-11.47-177.71-10.93-177.32-10.83-177.04-10.72-176.86-10.59-176.66-10.44-176.59-10.16-176.72-9.94-177.13-9.2-179.48-8.2-180.15-8-180.23-7.98-180.27-7.94-180.29-7.89-180.32-7.77-180.29-7.67-180.2-7.58-179.67-7.05-176.98-7.39-172.82-8.1-172.2-8.21-171.66-8.3-171.32-8.35-170-8.53-168.53-8.51-167.66-8.3-167.44-8.24-167.29-8.05-167.28-7.83-167.27-7.61-167.41-7.41-167.62-7.34-168.42-7.06-169.77-6.61-170.79-5.39-170.82-5.37-170.85-5.32-170.89-5.29-171.57-4.55-171.84-4.16-171.82-3.97-171.81-3.93-171.8-3.87-171.74-3.83-171.53-3.67-170.94-3.87-169.86-4.33L-169.76-4.37C-169.64-4.42-169.55-4.46-169.5-4.48-166.98-5.26-163.45-5.58-159.83-5.36-158.39-5.27-157.32-5.11-156.19-4.95L-155.95-4.91C-155.34-4.82-154.7-4.73-153.96-4.64-145.25-3.62-138.09 .31-133.8 6.4-133.54 6.77-133.5 6.75-133.42 6.72-133.38 6.71-133.35 6.66-133.36 6.62-133.42 6.17-133.51 5.71-133.62 5.26-133.67 5.06-133.59 4.85-133.43 4.74-133.26 4.62-133.04 4.61-132.87 4.71-130.79 5.99-128.69 7.66-126.45 9.83-126.01 10.24-125.59 10.66-125.2 11.05-125.09 11.16-125.04 11.31-125.06 11.45-125.07 11.6-125.15 11.74-125.28 11.82L-131.89 16.21C-132.07 16.33-132.3 16.32-132.47 16.19L-150.91 1.92H-151.07C-151.12 1.96-151.13 2.03-151.11 2.08L-141.42 22.02C-141.31 22.24-141.38 22.51-141.59 22.65L-155.67 32C-155.71 32.03-155.73 32.08-155.72 32.14-155.71 32.2-155.67 32.23-155.61 32.24L-135.19 35.34C-135.03 35.36-134.89 35.46-134.81 35.61L-124.95 55.91C-124.92 55.96-124.87 55.99-124.81 55.98-124.75 55.97-124.71 55.93-124.7 55.87L-122.04 37.83C-122.02 37.7-121.95 37.58-121.85 37.51-121.74 37.43-121.6 37.39-121.47 37.41L-101.55 40.43C-101.5 40.44-101.44 40.41-101.41 40.35-101.39 40.29-101.4 40.23-101.45 40.19L-120.02 25.83C-120.16 25.72-120.23 25.54-120.21 25.36L-118.87 16.3C-118.84 16.1-118.69 15.94-118.5 15.89-118.3 15.84-118.09 15.91-117.97 16.08-117.46 16.77-116.93 17.51-116.39 18.27-113.16 22.77-110.8 25.96-109.12 25.8-108.89 25.78-108.67 25.69-108.49 25.51-108.39 25.42-108.25 25.37-108.11 25.38-107.97 25.39-107.84 25.46-107.76 25.57-106.66 26.94-105.28 28.21-103.78 29.26-100.98 31.18-98.15 32.07-96.01 31.7-95.83 31.64-95.63 31.69-95.5 31.83-90.88 36.78-83.21 39.18-80.31 38.38-80.15 38.28-79.94 38.28-79.78 38.37-74.02 41.78-67.75 43.74-66.09 42.62-65.85 42.47-65.71 42.27-65.65 42.02-65.6 41.76-65.34 41.58-65.08 41.63-56.01 43.22-49.54 43.23-47.76 41.66-47.52 41.44-47.35 41.19-47.27 40.92-47.21 40.69-46.99 40.55-46.76 40.56-44.97 40.7-43.55 40.37-42.77 39.64-42.46 39.34-42.3 39.01-42.3 38.66-42.3 38.52-42.24 38.39-42.14 38.29-42.04 38.2-41.9 38.14-41.77 38.16-41 38.21-40.23 38.21-39.49 38.16-37.33 38.04-35.41 37.5-34.47 36.76-34.21 36.55-33.9 36.22-33.93 35.85-33.94 35.7-33.88 35.55-33.77 35.44-33.66 35.34-33.51 35.29-33.36 35.31-31.84 35.52-30.34 35.51-28.9 35.29-27.35 35.05-26.98 34.73-26.81 34.42-26.59 34.02-26.64 33.51-26.96 32.91-27.03 32.77-27.03 32.6-26.96 32.46-26.9 32.32-26.76 32.22-26.61 32.19-26.39 32.15-26.17 32.09-25.96 32.02-25.3 31.8-24.71 31.48-24.2 31.05-24.09 30.96-23.94 30.92-23.79 30.94-23.65 30.97-23.52 31.06-23.45 31.18-23.29 31.45-23.13 31.71-22.96 31.99L-22.8 32.26C-20.92 35.34-18.79 38.84-19.82 42.15-19.92 42.48-20.04 42.76-20.15 42.99L-20.2 43.1C-20.42 43.59-20.4 43.68-20.3 43.75-19.89 44.05-18.52 43.06-17.79 42.24-15.6 39.75-16.29 34.99-16.79 31.51-16.85 31.11-16.9 30.74-16.95 30.4-16.97 30.23-16.9 30.06-16.77 29.95-16.63 29.84-16.45 29.8-16.29 29.86-14.29 30.56-11.76 30.1-10.41 28.79-10.2 28.58-10.01 28.34-9.87 28.08-9.79 27.94-9.64 27.85-9.48 27.83-9.29 27.81-9.08 27.78-8.88 27.72-8.77 27.68-8.21 27.49-7.72 27.09-7.31 26.75-7 26.28-6.81 25.71-6.75 25.54-6.61 25.41-6.44 25.38-4.34 24.92-3.26 22.98-2.95 21.32-2.74 20.21-2.8 19.08-3.15 17.75-3.33 17.05-3.63 16.4-3.93 15.77L-4.1 15.4C-4.14 15.3-4.2 15.19-4.25 15.07-4.5 14.58-4.77 14.01-4.83 13.54-4.85 13.38-4.79 13.22-4.68 13.11-4.35 12.81-4.07 12.47-3.83 12.09-3.63 11.78-3.16 10.93-3.04 9.73-2.94 8.74-3.11 7.76-3.54 6.8-3.64 6.56-3.55 6.29-3.33 6.16-3.04 5.99-2.78 5.79-2.56 5.55-1.92 4.87-1.78 4.12-1.71 3.71-1.61 3.14-1.65 2.65-1.7 2.32-1.73 2.1-1.6 1.88-1.39 1.79-.73 1.52-.28 1.1-.09 .56-.03 .38 0 .2 0 0" fill="#013da6"/>
</svg>