<?xml version="1.0" encoding="UTF-8" standalone="no"?>
<svg xmlns:rdf="http://www.w3.org/1999/02/22-rdf-syntax-ns#" xmlns="http://www.w3.org/2000/svg" height="167.861" width="236.031" version="1.1" xmlns:cc="http://creativecommons.org/ns#" xmlns:dc="http://purl.org/dc/elements/1.1/">
 <g transform="translate(-696.27 -237.003)">
  <path d="m874.465 256.371c3.12363 0.9745 6.72501-1.58434 8.04449-5.6976 0.75195-2.36231 0.63858-4.786-0.32625-6.65063-0.667-1.2959-1.68865-2.18604-2.92529-2.56912-3.11398-0.9745-6.71896 1.58435-8.03513 5.6976-0.33107 1.03587-0.49192 2.07144-0.49192 3.07648 0 1.30527 0.27906 2.53858 0.82874 3.59532 0.65764 1.2841 1.66236 2.16487 2.90536 2.54795m-51.2769 59.1878c-1.3987 1.61639-4.24206 4.38295-7.41226 4.39384-1.63726 0.009-3.11337-0.56994-4.05641-1.57498-0.78734-0.86081-1.18585-1.97922-1.18585-3.34738 0-0.20682 0.005-0.40304 0.0254-0.61107 0.23826-3.06589 2.10864-4.61002 3.18593-5.26281 0.22798 1.26415 0.89135 3.42902 2.91562 4.71404 2.38348 1.5018 4.93264 1.7204 6.52757 1.68836m95.4113-3.45957c-0.96755 1.44043-2.42885 2.98335-4.08636 4.37117-2.71001 2.21688-6.30442 4.21757-10.7122 5.91651-6.38185 2.47599-13.4996 3.63583-25.5479 5.49049l-13.2608 1.95836c-7.5066 1.08788-15.2557 2.19541-25.657 3.9264-18.903 3.1179-34.7486 6.17411-48.4242 9.32376 1.81323-4.48576 8.47505-21.031 10.6145-25.5585l1.35667-2.94163c2.58515-5.63622 6.48555-14.1633 9.89915-17.8723 5.00491-5.4279 12.4014-10.3702 16.8612-9.31318 3.78127 0.89165 4.98828 4.10267 3.80697 10.122-0.93156 4.75546-3.83781 11.0442-6.90461 12.9502-1.61639 0.99445-3.41934 1.2841-5.09107 0.81817-1.33732-0.36313-2.44516-1.19189-2.97489-2.21687-1.06187-2.08233 0.50373-5.08654 0.5131-5.11829l0.56057-1.04646-1.18705 0.0934c-0.23886 0.0212-5.85876 0.51794-9.30864 4.89001-3.73985 4.74488-4.23692 10.9816-1.19129 15.1468 1.90575 2.62143 5.04028 4.0924 8.58329 4.02981 3.66154-0.0726 7.26774-1.62577 9.08611-2.54826 10.3336-5.19055 14.6845-14.7638 15.3739-16.4216 0.84538-0.4242 3.94786-2.0406 7.6617-4.79658 1.68957-1.24268 3.18624-2.65197 4.35091-3.86381-1.72041 4.44434-4.55318 11.9863-5.13824 14.8666-0.20712 0.97419-0.36313 2.12345-0.36313 3.2848 0 1.5535 0.27998 3.13906 1.13958 4.40291 0.81818 1.19068 2.03153 1.93659 3.6062 2.21688 5.12192 0.9116 9.61372-1.92722 13.779-4.9009 3.52245-2.50653 7.24658-6.8269 8.80614-8.72328 0.76617 1.94838 2.8116 5.74991 7.48421 7.37659 4.66325 1.62698 9.03533 1.72041 16.3753-2.71456 4.81199-2.91078 8.06474-6.06073 10.4422-8.36015 1.14017-1.09846 2.13432-2.0409 2.98425-2.69369 2.91109-2.17515 5.44363-2.29942 7.1486-0.34166 0.67276 0.77705 1.15379 1.90605 1.15379 3.29417 0 1.40928-0.48587 3.08706-1.74004 4.95259m-160.67 1.88489c-0.60592-0.44446-1.81323-1.1293-3.80243-1.25326-2.04061-0.13485-3.77583 0.60048-4.79658 1.15984v-0.13365c0-1.21305 0.26426-3.21253 1.73552-5.0557 1.97348-2.46632 5.01972-3.58473 8.14276-2.98425 2.72 0.50735 4.70406 2.12345 5.56336 2.94162-0.93761 0.72596-6.15386 4.78721-6.84263 5.3254m170.026-13.0851c-0.82422-2.46511-2.99966-3.9772-4.7757-4.38175-3.9524-0.89135-8.84271 1.10783-14.5261 5.93677-6.40693 5.44906-12.6854 8.36015-15.9853 7.39654-2.41402-0.70479-4.12838-1.99918-5.08624-3.83297-1.30558-2.51742-1.19644-6.05015 0.31566-10.5054 3.87439-11.4273 11.5267-18.4208 17.384-20.2851 3.08343-0.98386 4.91148-0.31112 5.90563 0.41484 1.09847 0.81817 1.48609 1.95806 1.48609 2.76565v0.0305c-0.0402 2.36231-1.40808 2.98425-3.34135 3.6062l-0.20529 0.072c-2.20751 0.69421-6.67784 2.09291-6.67784 6.133 0 0.18685 0.005 0.37341 0.0305 0.58052 0.13939 1.52297 0.95878 2.67313 2.34084 3.32592 2.37321 1.09846 5.76049 0.39367 7.66775-0.9116 3.17446-2.18634 6.65518-6.65184 6.01931-12.0598-0.61741-5.11738-3.85443-8.63953-8.70815-9.40691-3.50673-0.56994-9.33949-0.10401-17.2395 5.30424-7.5317 5.14913-11.5304 11.1376-14.1775 15.7794-4.14409 7.27258-4.51176 13.3853-4.51176 15.2911 0 0.13485 0.0106 0.22828 0.0106 0.31112-0.75197 0.77676-3.62617 3.68754-5.70365 5.40795-0.0472 0.0414-3.49705 3.00421-5.80766 1.84437-2.75023-1.3987-1.4755-4.87005-0.8076-6.29929 0.81938-1.75125 12.4737-30.5105 13.0176-31.8263 0.30025-0.54968 0.54968-1.27443 0.0934-1.72041-0.57448-0.54847-1.45102 0.0109-1.85981 0.28029-1.78209 1.11841-3.38728 1.59493-5.25314 1.54292-1.56923-0.0508-3.08585-0.60048-3.40755-0.71416-0.20802-0.14544-0.69995-0.41484-1.30526-0.27999-0.56057 0.13455-1.01563 0.56964-1.34791 1.30528l-0.65248 1.52266c-0.88441 2.08324-2.21114 5.23198-3.89466 8.29878-2.56458 4.6835-5.04632 7.35542-7.14377 9.36548-1.84921 1.76153-4.24206 3.51278-5.74386 4.56951 0.49647-1.91754 1.17042-5.12887 1.17042-8.30935 0-1.58556-0.16539-3.13907-0.60653-4.52718-0.99415-3.03506-2.97791-5.41853-5.59934-6.71322-3.32592-1.62698-7.45006-1.57497-12.3023 0.15481-5.082 1.8232-10.4494 6.67209-13.5519 9.80148 2.31484-5.24225 11.5942-25.3931 11.5942-25.3931s-51.7186 37.959-52.7028 38.6744c-1.29016-1.52296-5.63109-6.00842-12.5312-6.90007-6.7752-0.87018-13.3019 1.35728-17.4565 5.97789-4.85342 5.38799-6.04531 11.976-3.3619 18.565 2.76112 6.7758 8.57845 8.17481 10.9559 8.46446 5.0037 0.61137 9.12179-1.33611 10.9925-5.2105 0.66246-1.36816 0.89618-2.6426 0.89618-3.73985 0-1.82411-0.63223-3.19107-1.06248-3.90644 0.80276-0.60078 5.92135-4.38175 6.81209-5.03454 0.74077 1.19068 2.43457 4.3618 2.43457 8.58874 0 1.29469-0.16025 2.6828-0.55936 4.12263-1.68352 6.2367-6.2627 9.55204-9.81116 11.231-5.09228 2.42399-19.0315 3.94696-27.2834-7.25232-9.29323-12.6086-4.34093-26.5635-0.42451-32.1689 4.23148-6.06073 9.67087-10.3799 16.1773-12.825 2.95765-1.10905 7.02918-1.74037 10.6345-1.65752 3.42932 0.0922 6.38183 0.67274 9.88856 1.93659 5.37741 1.95806 9.18982 5.43879 9.2258 5.47084l0.39911 0.36161 10.0806-7.42738-1.24329-0.38308c-0.0934-0.0212-8.91014-2.7454-11.9558-9.44924-4.25809-9.37607 0.70933-15.6128 3.0411-17.8499 4.2989-4.15468 11.2144-5.07687 16.0893-2.12466 3.49071 2.11407 4.10177 5.30514 4.10177 7.28316 0 0.0629-0.005 0.11489-0.005 0.17627-0.97419-1.09816-2.64743-2.40373-5.22714-2.46511-3.80183-0.11459-8.2256 2.49716-8.92495 7.52081-0.29541 2.16608 0.2437 4.20669 1.56439 5.91651 1.62607 2.11287 4.34607 3.57416 7.27772 3.91582 5.80705 0.69421 11.3913-3.3365 13.2765-9.56263 1.83379-6.10215 0.11429-14.8454-6.74406-19.7569-6.58895-4.71404-17.3172-6.9415-27.672 0.9636-3.37732 2.57971-7.00348 7.81168-7.00348 14.5663 0 0.73533 0.036 1.49213 0.12941 2.2583 0.60078 5.06628 2.38287 8.8793 3.66244 11.0336-3.30475-1.4495-9.99741-3.88528-17.4674-3.70901-6.22098 0.14544-21.8755 2.11408-33.0693 17.2398-9.55748 12.9085-8.16392 28.5736-3.67303 38.913 5.05087 11.6649 17.1823 19.6009 30.8939 20.2013 11.5155 0.52852 21.5961-3.43931 27.672-10.8776 4.26383-5.21172 5.39283-10.9508 5.39283-15.5511 0-3.07647-0.50252-5.64559-0.91161-7.23115-0.84478-3.25275-2.11347-5.56305-2.72-6.5572 0.90163-0.66337 25.8022-18.9281 29.0912-21.3424-1.67808 4.01983-25.4442 60.8135-25.6719 61.3526-3.59501 1.10904-42.1763 13.2302-71.428 29.724 0 0-2.08263 5.75928-3.89042 13.1156-1.81323 7.35543-2.38771 11.4992-2.38771 11.4992 31.7435-23.2173 64.7399-37.1097 71.4955-39.6589-0.97994 2.26888-6.79153 15.5097-6.79153 15.5097s1.00504-1.00473 2.52256-2.08203c1.51813-1.0782 5.5168-4.00924 10.4951-6.09248 5.30938-2.2583 9.73346-3.05652 9.78486-3.05652l1.51813-0.26819-1.25387-0.90223c-0.026-0.02-2.10803-1.54292-2.68855-4.1961-0.14483-0.67274-0.20168-1.27352-0.20168-1.80204 0-1.24359 0.2951-2.12436 0.43993-2.50775 1.42984-0.61106 10.7799-4.47487 34.4889-10.4008 16.2145-4.05067 35.2454-7.40743 49.1438-9.83263 8.8781-1.56379 15.9082-2.80677 19.7768-3.77008l0.75195-0.17627c9.88342-2.45574 23.4127-5.80192 33.1162-17.2089 4.24206-4.98253 5.43274-8.66069 5.43274-11.2407 0-0.89013-0.1394-1.64693-0.34621-2.27946"/>
 </g>
</svg>
