<?xml version="1.0" encoding="UTF-8" standalone="no"?>
<!-- Generator: Adobe Illustrator 24.3.0, SVG Export Plug-In . SVG Version: 6.00 Build 0)  -->

<svg
   version="1.1"
   id="Layer_1"
   x="0px"
   y="0px"
   viewBox="0 0 505.97487 327.57683"
   xml:space="preserve"
   sodipodi:docname="300_Entertainment_2012.svg"
   width="505.97488"
   height="327.57681"
   inkscape:version="1.3.2 (091e20e, 2023-11-25, custom)"
   xmlns:inkscape="http://www.inkscape.org/namespaces/inkscape"
   xmlns:sodipodi="http://sodipodi.sourceforge.net/DTD/sodipodi-0.dtd"
   xmlns="http://www.w3.org/2000/svg"
   xmlns:svg="http://www.w3.org/2000/svg"><defs
   id="defs1106" /><sodipodi:namedview
   id="namedview1104"
   pagecolor="#ffffff"
   bordercolor="#000000"
   borderopacity="0.25"
   inkscape:showpageshadow="2"
   inkscape:pageopacity="0.0"
   inkscape:pagecheckerboard="0"
   inkscape:deskcolor="#d1d1d1"
   showgrid="false"
   inkscape:zoom="1"
   inkscape:cx="253"
   inkscape:cy="164"
   inkscape:window-width="1920"
   inkscape:window-height="1009"
   inkscape:window-x="-8"
   inkscape:window-y="-8"
   inkscape:window-maximized="1"
   inkscape:current-layer="layer3" />
<style
   type="text/css"
   id="style1099">
	.st0{fill:#999;}
</style>

<g
   inkscape:groupmode="layer"
   id="layer3"
   inkscape:label="Layer 1"
   transform="translate(-238.65226,-428.4636)"><path
     id="path3"
     style="fill:#d92a33;fill-opacity:1;stroke:none;stroke-width:0.999998"
     d="m 612.17573,428.46369 c -24.01541,0 -43.68376,6.6214 -58.88956,14.79562 -25.76157,-12.37444 -49.46877,-14.79571 -62.75685,-14.79571 -80.14846,0 -123.45222,68.94709 -127.56458,120.94319 -3.71873,-2.35986 -19.98811,-6.03966 -42.24807,-8.23282 5.47876,-3.98456 88.48071,-111.36264 88.48071,-111.36264 H 247.64683 c 0.99613,0 -4.48264,60.14931 -4.48264,60.14931 h 16.40703 c 4.9807,-14.41468 16.40702,-13.91661 16.40702,-13.91661 h 62.63965 l -88.01194,118.30641 c 37.79475,-7.47105 86.9865,-6.47492 90.473,27.33527 5.50718,53.40577 -53.46376,106.92452 -102.42669,117.31019 v 16.90509 c 70.49734,3.50084 131.26049,-59.56192 151.55985,-117.36879 12.09544,16.74007 43.76808,49.93571 104.75283,49.93571 22.15586,0 46.7984,-9.36263 57.76456,-14.60202 24.76711,12.63182 48.93427,14.35183 62.65793,14.35183 71.2259,0 129.2397,-54.95436 129.2397,-127.53779 0,-97.70325 -79.0965,-132.21624 -132.4514,-132.21624 z M 554.69248,624.1175 c -10.28369,-18.01842 -16.40701,-40.72457 -16.40701,-65.39369 0,-24.66913 6.12332,-47.37528 16.40701,-65.3937 10.28369,18.01842 16.40703,40.72457 16.40703,65.3937 0,24.66912 -6.12334,47.37527 -16.40703,65.39369 z m -60.82316,40.69527 c -42.65825,0 -77.23018,-47.49246 -77.23018,-106.08896 0,-58.59651 34.57193,-106.08896 77.23018,-106.08896 11.60211,0 22.61824,3.51578 32.49176,9.81491 -5.8628,5.4308 -42.12976,42.54577 -42.12976,96.26164 0,52.27311 34.33582,89.16896 41.92467,96.40366 -9.81491,6.24052 -20.77246,9.69771 -32.28667,9.69771 z m 121.61701,0 c -11.92435,0 -23.23351,-3.72087 -33.31211,-10.34228 38.60166,-34.3868 40.83549,-82.26943 40.83549,-93.63395 0,-14.93237 -2.97991,-64.48099 -40.39602,-98.0938 9.99073,-6.47492 21.12407,-10.07859 32.90194,-10.07859 42.6583,0 77.2302,47.49246 77.2302,106.08896 0,58.59649 -34.6013,106.05966 -77.2595,106.05966 z"
     sodipodi:nodetypes="cccccccccccccccccccccccccccccccccccccccc" /></g></svg>
