<?xml version="1.0" encoding="UTF-8" standalone="no"?>
<!-- Created with Inkscape (http://www.inkscape.org/) -->

<svg
   width="145.47772mm"
   height="93.460022mm"
   viewBox="0 0 145.47772 93.460024"
   version="1.1"
   id="svg1"
   xmlns="http://www.w3.org/2000/svg"
   xmlns:svg="http://www.w3.org/2000/svg">
  <defs
     id="defs1" />
  <g
     id="layer1"
     transform="translate(-294.75761,-101.61864)">
    <path
       id="path14"
       d="m 437.65735,141.5731 c -0.0871,0.5013 -2.25107,-0.11148 -2.63419,-0.0825 -0.20955,0.0148 -0.47237,0.13864 -0.46743,0.38417 0.002,0.1203 0.061,0.23178 0.12312,0.3355 0.20284,0.33866 0.77505,1.31515 1.29011,0.98636 0.13864,-0.0893 0.22683,-0.23742 0.33267,-0.36477 0.39546,-0.47801 0.97754,0.037 1.15675,0.45614 0.53552,1.24319 -1.90253,1.63513 -2.63101,1.66123 -0.53728,0.0183 -1.35185,0.005 -1.75931,-0.41804 -0.75177,-0.7807 0.67099,-0.59443 0.62548,-1.16205 -0.009,-0.10372 -0.0571,-0.19967 -0.0998,-0.29563 -0.39758,-0.88935 -0.35489,-1.98613 0.59267,-2.48778 1.01529,-0.53729 2.23732,-0.42263 3.13443,0.29386 0.17568,0.14076 0.37359,0.47625 0.33655,0.69356 m -5.40985,-4.65349 c -0.65369,-0.6283 -1.38218,-1.4538 -1.44991,-1.55928 -0.44697,-0.69144 -0.31327,-1.54129 -0.57221,-2.292 -0.0543,-0.15698 -0.10372,-0.32667 -0.0649,-0.48859 0.24624,-1.04458 1.82809,0.35101 2.0387,0.75847 0.40711,0.79234 0.16299,1.74942 0.47802,2.56998 0.12206,0.32103 0.82938,1.3074 0.65475,1.61961 -0.24553,0.43956 -0.90205,-0.43251 -1.08444,-0.60819 m 0.80892,-5.09164 c 0.2346,-0.80504 1.53317,0.6985 0.83997,1.36454 -0.68686,0.65864 -0.9585,-0.9592 -0.83997,-1.36454 m -3.71757,2.44016 c -0.0998,0.35983 -0.33831,0.58491 -0.76235,0.23283 -0.27834,-0.23071 -0.44309,-0.58984 -0.77752,-0.75353 -0.97402,-0.47837 -1.95616,0.0621 -2.85151,-0.75459 -0.5207,-0.47519 -0.59372,-1.00859 0.24836,-1.0474 0.47801,-0.0222 1.23049,0.26282 1.16769,-0.51117 -0.0931,-1.15888 1.36172,0.0942 1.65171,0.36159 0.46743,0.4318 1.0541,0.89923 1.30422,1.52295 0.0903,0.22401 0.10689,0.63711 0.0194,0.94932 m -0.83114,11.78384 c -0.16581,0.0998 -0.41487,0.15698 -0.57327,0.18415 -1.08303,0.1852 -2.25389,-0.49354 -2.63384,-1.52365 -0.1651,-0.44626 -0.13088,-0.96308 0.20638,-1.32574 0.57926,-0.62371 0.77893,0.28116 0.9592,0.6858 0.24271,0.54786 0.75353,0.94156 1.29575,1.1684 0.24448,0.10195 0.6604,0.16404 0.83397,0.38418 0.1524,0.19191 0.0709,0.32984 -0.0882,0.42686 m -4.40302,-9.02371 c 0.0116,-0.121 0.0571,-0.23459 0.0815,-0.35207 0.0737,-0.38382 -0.83997,-1.17228 -0.47731,-1.44286 0.72637,-0.54328 1.32292,0.34819 1.73919,0.8068 0.45967,0.50906 1.08621,0.7613 1.76319,0.79516 0.21131,0.0106 0.49741,0.0145 0.66922,0.17357 0.11536,0.10583 0.13864,0.21237 0.10654,0.30657 -0.0455,0.13476 -0.20073,0.24623 -0.36583,0.2988 -0.3422,0.11148 -0.51788,0.27834 -0.65053,0.6283 -0.28716,0.7567 -0.89429,0.50341 -1.43545,0.13193 -0.30057,-0.20567 -0.59443,-0.41416 -0.90487,-0.60713 -0.27058,-0.16757 -0.55775,-0.38205 -0.52564,-0.73907 m -11.3404,-2.73579 c -0.4064,0.0677 -0.82832,-0.50729 -1.14829,-0.70132 -0.45967,-0.28222 -0.96132,-0.49742 -1.3716,-0.85161 -0.27834,-0.24024 -0.50306,-0.65263 -0.46143,-1.0287 0.0318,-0.29492 0.52952,-0.81562 0.83785,-0.55491 0.0533,0.0455 0.0914,0.10653 0.13088,0.16474 0.27058,0.38629 0.68862,0.68086 1.0989,0.89817 0.3937,0.21061 0.81668,0.45297 1.08514,0.81563 0.11748,0.1591 0.20673,0.43356 0.20285,0.68862 -0.004,0.22684 -0.11536,0.52564 -0.3743,0.56938 m -3.35491,-13.49057 c -0.18803,0.0949 0.003,0.45367 -0.11254,0.60713 -0.0388,0.0511 -0.0988,0.0822 -0.16087,0.10266 -0.40428,0.13582 -0.87489,-0.0106 -1.27917,-0.0864 -0.49177,-0.0928 -0.98531,-0.17816 -1.48484,-0.22402 -0.33267,-0.031 -0.48507,0.066 -0.5334,0.39688 -0.0864,0.59055 -0.84102,0.56938 -1.28411,0.51505 -0.95815,-0.11641 -1.91453,-0.36971 -2.88043,-0.1591 -0.17286,0.0367 -0.61772,0.25506 -0.56938,0.48966 0.0134,0.0631 0.0688,0.11077 0.12982,0.13299 0.58984,0.21238 1.27247,-0.0233 1.88736,0.16581 0.49283,0.15134 0.52282,0.5334 0.0769,0.768 -1.125,0.58878 -2.65641,0.65863 -3.6195,1.52188 -0.18626,0.1658 -0.49106,0.54398 -0.12347,0.67486 0.29775,0.10654 0.69074,-0.0942 0.96026,-0.20567 0.3549,-0.14746 0.69921,-0.32173 1.07174,-0.42368 0.32279,-0.0882 1.04352,-0.096 0.92534,0.43638 -0.0303,0.13582 -0.11854,0.25012 -0.21555,0.34996 -0.70802,0.72566 -1.61572,1.09996 -2.1082,2.03764 -0.0914,0.17286 -0.16792,0.35419 -0.28822,0.5073 -0.35595,0.45191 -2.22567,0.79728 -1.58468,-0.18697 0.10478,-0.16122 0.25012,-0.2921 0.35596,-0.45297 0.37712,-0.57715 -0.8689,-0.18062 -1.05728,-0.0582 -0.3489,0.22507 -0.508,0.59055 -0.73025,0.92322 -0.23177,0.34925 -0.514,0.61877 -0.90382,0.78669 -0.4198,0.18133 -0.92533,0.17075 -1.30951,0.42193 -0.2741,0.17921 -0.45473,0.47413 -0.53022,0.78916 -0.066,0.27376 0.004,0.61877 -0.13018,0.86431 -0.21801,0.40146 -0.71966,0.0748 -0.93662,-0.14852 -0.40852,-0.42087 -0.60713,-1.0287 -0.47131,-1.60585 0.16369,-0.70238 0.76306,-1.00859 1.28093,-1.43369 0.58279,-0.47801 -1.18321,-0.71472 -0.4325,-1.15605 0.43744,-0.25682 0.89993,-0.381 1.36842,-0.55845 0.27729,-0.10477 0.54116,-0.26105 0.69921,-0.51787 0.25894,-0.42404 0.33196,-0.83503 0.77399,-1.12713 0.29881,-0.19685 0.64488,-0.30939 0.99413,-0.37712 0.29775,-0.0572 0.69427,-0.0261 0.95815,-0.1845 0.40075,-0.23954 0.11747,-0.67875 -0.2279,-0.77682 -0.70485,-0.20073 -1.44886,0.1778 -2.12196,0.34537 -0.61489,0.15311 -1.24036,0.0215 -1.86019,-0.0145 -0.387,-0.0222 -0.77188,0.0243 -1.12889,0.18027 -0.35984,0.15734 -0.67698,0.39299 -1.05128,0.52281 -0.40076,0.1397 -0.96132,0.0716 -0.76623,-0.51294 0.20567,-0.61206 0.99518,-0.94368 1.43933,-1.35784 0.26846,-0.25012 0.48472,-0.57891 0.81174,-0.76129 0.35878,-0.19897 0.77858,-0.18733 1.17546,-0.21837 0.33443,-0.025 1.36348,-0.24906 0.89323,-0.78458 -0.0688,-0.0787 -0.16016,-0.13476 -0.25118,-0.18521 -0.52775,-0.28998 -1.08726,-0.36936 -1.68063,-0.35313 -0.61207,0.0176 -1.20756,0.33267 -1.82245,0.41522 -0.75459,0.0998 -1.48696,-0.16792 -2.20663,-0.35207 -0.38664,-0.0998 -0.78528,-0.19015 -1.1878,-0.19509 -0.24342,-0.002 -1.09996,0.0854 -1.00083,0.51012 0.0201,0.0875 0.1076,0.14182 0.19085,0.17392 0.45579,0.17533 0.99131,0.0201 1.44428,0.22966 0.16474,0.0758 0.41028,0.28434 0.2861,0.48789 -0.0459,0.0748 -0.12524,0.12206 -0.20673,0.15416 -0.35877,0.1397 -0.83502,0.16087 -1.21814,0.21731 -0.50624,0.0748 -1.01635,0.11924 -1.52753,0.133 -1.15499,0.0307 -2.39854,-0.1584 -3.43605,0.51012 -0.53658,0.34502 -1.01071,0.75741 -1.65171,0.88935 -0.50059,0.10266 -1.01847,0.12206 -1.51024,0.26952 -0.4004,0.12136 -0.72037,0.39476 -1.07738,0.60043 -0.26776,0.15417 -0.67487,0.10866 -0.74084,-0.24553 -0.133,-0.71685 0.82056,-1.27812 1.3529,-1.51695 0.47308,-0.21237 0.97649,-0.31714 1.46333,-0.48683 0.29386,-0.10266 0.91475,-0.23283 0.96626,-0.61172 0.0434,-0.32314 -0.35208,-0.60254 0.20143,-0.68192 0.26,-0.037 0.514,0.0593 0.77223,0.0677 0.11712,0.004 0.72813,-0.0776 0.5013,-0.31503 -0.22684,-0.23778 -0.73413,-0.19791 -1.02905,-0.28223 -0.0748,-0.0215 -0.15311,-0.0487 -0.20073,-0.11077 -0.2219,-0.28892 0.58667,-0.49248 0.74083,-0.52246 0.25223,-0.0497 0.50941,-0.073 0.75565,-0.14358 0.34043,-0.0991 0.51117,-0.42298 0.11536,-0.58985 -0.71755,-0.30162 -1.4344,-0.62441 -2.16077,-0.90487 -0.52669,-0.20461 -1.09678,-0.2025 -1.65064,-0.14252 -0.22508,0.0243 -1.00189,0.21837 -0.88936,-0.24236 0.19897,-0.80786 1.46544,-0.97684 2.1269,-0.9331 0.64982,0.0427 1.24919,0.32773 1.8542,0.5394 0.79446,0.27834 1.6256,0.20461 2.36643,0.641 0.60325,0.35383 1.29399,0.55668 1.99214,0.58384 0.35701,0.0145 1.04352,0.0864 1.26294,-0.28116 0.28611,-0.47731 -0.52175,-0.61983 -0.82338,-0.6664 -0.25047,-0.0378 -0.50271,-0.0494 -0.75459,-0.0649 -0.50341,-0.0332 -1.04846,-0.20567 -1.45309,-0.51223 -0.39758,-0.30057 -0.32879,-0.79022 0.22789,-0.73978 0.41028,0.0378 0.76553,0.20744 1.18639,0.19685 0.39653,-0.01 0.768,-0.11253 1.15288,-0.19403 0.47731,-0.0998 0.9973,-0.0459 1.4852,-0.0709 0.75741,-0.0388 1.50212,-0.20567 2.26342,-0.18521 0.4452,0.0116 0.90593,0.0804 1.31021,0.27234 0.40147,0.19121 0.74683,0.46002 1.1938,0.54434 0.45791,0.0871 0.58703,-0.30374 0.39406,-0.66358 -0.52282,-0.97649 -1.76424,-1.26259 -2.72168,-1.6136 -0.17921,-0.066 -0.32385,-0.26212 -0.0998,-0.38806 0.0737,-0.0406 0.16016,-0.0504 0.24342,-0.0561 0.63817,-0.0448 1.30457,0.0455 1.8863,0.32173 0.56444,0.26882 0.87418,0.78458 1.35326,1.15923 0.41874,0.32773 0.92886,0.4946 1.42663,0.66605 0.59619,0.20461 1.19874,0.38911 1.80199,0.57502 0.1404,0.0427 0.2861,0.0875 0.43356,0.072 0.16651,-0.0176 0.39053,-0.16863 0.33267,-0.36477 -0.0243,-0.0804 -0.0854,-0.14535 -0.14675,-0.2025 -0.35102,-0.3242 -0.91934,-0.43638 -1.10737,-0.92145 -0.0222,-0.0582 -0.0371,-0.12312 -0.0176,-0.18239 0.21837,-0.67698 1.76812,0.57821 2.02318,0.0681 0.0515,-0.10195 0.0416,-0.22119 0.0377,-0.33479 -0.0116,-0.31997 0.14182,-0.56832 0.46849,-0.61277 0.68475,-0.0924 1.31128,0.23953 1.89901,0.53904 0.42968,0.21837 0.85442,0.44627 1.27352,0.68298 0.38488,0.21625 0.81668,0.39052 0.98919,0.82903 0.0639,0.16298 0.10654,0.33655 0.19403,0.48895 0.18027,0.31397 0.48789,0.40534 0.81174,0.50024 0.86219,0.25329 1.54094,0.65193 2.29835,1.11054 0.46672,0.28328 0.93909,0.13582 1.44321,0.19685 0.8883,0.10689 1.37725,0.98637 1.77694,1.68663 0.24236,0.42475 -0.21166,0.47237 -0.51329,0.43533 -0.32173,-0.0395 -0.6477,-0.0977 -0.96978,-0.12383 -0.0639,-0.005 -0.11042,0.002 -0.14358,0.0183 m -0.84173,2.71639 c -0.72073,0.15028 -1.66335,0.13405 -1.91629,0.12911 -0.10089,-0.002 -0.20567,-0.0106 -0.28998,-0.0649 -0.52564,-0.3436 0.59937,-0.66639 0.80292,-0.71296 0.47237,-0.10866 0.95814,-0.14147 1.43722,-0.19967 0.22225,-0.0272 0.77293,-0.0699 0.8576,0.22507 0.11042,0.38276 -0.66252,0.57608 -0.89147,0.62336 m 0.49071,3.2773 c -0.002,0.002 -0.002,0.006 -0.004,0.008 -0.11924,0.28223 -0.15134,0.54893 -0.091,0.84738 0.0589,0.28927 0.16686,0.57926 0.0589,0.87418 -0.12312,0.34219 -0.45367,0.56339 -0.77752,0.73201 -0.34043,0.17569 -0.79658,0.34819 -0.98954,0.70626 -0.19297,0.36054 0.10406,0.7426 -0.0533,1.10949 -0.18909,0.44697 -0.9077,0.23636 -1.17652,0.002 -0.32667,-0.28716 -0.57503,-0.79833 -0.4198,-1.22696 0.34043,-0.94438 1.28305,-1.47602 1.55575,-2.47685 0.11147,-0.41204 0.42474,-0.74083 0.8128,-0.90981 0.33337,-0.14358 1.36066,-0.32103 1.08408,0.33478 m -4.91525,18.93041 c -0.47025,-0.31821 -0.77294,-0.84773 -0.75847,-1.42275 0.0138,-0.45579 0.39405,-1.45274 1.01459,-1.29364 0.3249,0.0811 0.35207,0.47308 0.35489,0.74754 0.004,0.34254 0.0593,0.68086 0.13864,1.01176 0.066,0.27446 0.19509,0.54505 0.20673,0.83785 0.0205,0.641 -0.64805,0.32597 -0.95638,0.11924 m -0.93204,-14.92497 c -0.0212,0.27164 0.008,0.61489 -0.25012,0.78634 -0.38417,0.2533 -0.85055,0.0243 -1.08514,-0.31221 -0.30092,-0.43427 -0.25506,-0.90593 -0.0893,-1.38112 0.17922,-0.50624 0.32385,-0.92816 0.37818,-1.46544 0.0815,-0.82127 1.74096,-1.57021 1.77659,-0.3937 0.004,0.11924 0,0.23072 -0.008,0.33867 -0.0339,0.41769 -0.16263,0.762 -0.40217,1.15993 -0.23283,0.38382 -0.28645,0.83009 -0.32032,1.26753 m -0.58279,6.72289 c -0.0833,0.39476 -0.65264,1.0795 -1.09114,1.05516 -0.49565,-0.0261 -0.49953,-0.44592 -0.33655,-0.81563 0.12806,-0.29104 0.32879,-0.65934 0.60149,-0.83608 0.35383,-0.22684 0.86007,0.12347 0.83608,0.52776 -0.002,0.0233 -0.006,0.0455 -0.01,0.0688 m -3.20922,-3.16654 c -0.19014,-0.10371 -0.37253,-0.21801 -0.51787,-0.36759 -0.26776,-0.2734 -0.15911,-0.56727 -0.0554,-0.88265 0.0688,-0.20849 0.097,-0.43427 0.0564,-0.65264 -0.066,-0.34819 -0.40569,-0.71755 -0.007,-1.01529 0.58984,-0.43957 1.131,0.22013 1.3843,0.70414 0.254,0.48683 0.50235,0.98037 0.82515,1.42769 0.26493,0.36654 0.6604,0.62336 0.93874,0.98037 0.1591,0.20355 0.32984,0.59055 0.20461,0.84667 -0.20849,0.42686 -0.80575,0.12982 -1.09009,-0.0399 -0.39475,-0.23459 -0.78351,-0.47695 -1.1811,-0.70696 -0.17462,-0.10196 -0.37041,-0.19191 -0.55774,-0.29387 m -2.77177,5.44266 c -0.15134,0.24941 -0.39476,0.35313 -0.70027,0.133 -0.42192,-0.30269 -0.68086,-1.14441 -0.54504,-1.64677 0.15522,-0.56727 0.79904,-0.38312 1.11055,-0.0621 0.37923,0.38982 0.41098,1.11831 0.13476,1.57586 m -0.62265,3.4731 c -0.0825,0.23283 -0.29281,0.40252 -0.51894,0.48507 -0.002,0.001 -0.004,0.002 -0.007,0.002 -0.67134,0.24059 -1.42205,0.0293 -2.04858,-0.24518 -0.33232,-0.1464 -0.67769,-0.30762 -0.94157,-0.56445 -0.2928,-0.2861 -0.41698,-0.68297 -0.61665,-1.03399 -0.45121,-0.79622 -1.39771,-1.03293 -1.9177,-1.74166 -0.26459,-0.35983 0.0603,-0.72849 0.4512,-0.74119 0.41028,-0.0134 0.76306,0.25718 1.15499,0.33479 0.76236,0.15205 1.73214,0.1143 2.06869,0.97755 0.19897,0.51011 0.21237,1.06574 0.73625,1.36454 0.44132,0.25118 1.93005,0.34325 1.63901,1.16276 m -3.98145,5.20029 c -0.031,0.042 -0.0734,0.0759 -0.12983,0.10019 -0.10265,0.0427 -0.22013,0.0317 -0.32984,0.01 -0.73131,-0.14641 -1.84362,-0.67204 -2.38866,-1.19486 -0.387,-0.37042 -0.26952,-0.76412 -0.26952,-1.23543 0,-0.37253 -0.13688,-0.67134 -0.4064,-0.92357 -0.26,-0.24236 -0.6858,-0.3937 -0.86607,-0.70309 -0.23848,-0.41028 0.15204,-0.64981 0.51576,-0.66146 0.47237,-0.0162 0.89817,0.2854 1.30845,0.47908 0.80504,0.38029 2.18793,0.51823 2.45357,1.53917 0.10689,0.40745 -0.0106,0.84102 -0.0346,1.2647 -0.0176,0.29598 0.3683,1.02235 0.14711,1.32574 m -3.08293,-19.83916 c -0.19791,0.25894 -0.44415,0.48683 -0.63535,0.63147 -0.28011,0.21343 -0.61207,0.38488 -0.86889,0.62654 -0.36971,0.34713 -0.55669,0.84772 -0.94968,1.17651 -0.35384,0.29457 -1.1878,0.5147 -1.27247,-0.12806 -0.0744,-0.5722 0.43956,-1.30633 0.73519,-1.76142 0.45191,-0.69426 1.0862,-1.40829 1.80305,-1.83197 0.3182,-0.18803 0.71966,-0.35313 1.07561,-0.16581 0.68651,0.35878 0.48684,0.96203 0.11254,1.45274 m -0.65475,-3.51755 c -0.8756,0.28011 -1.73602,0.48684 -2.58763,0.84561 -0.31785,0.13406 -0.72919,0.29598 -1.08232,0.2279 -0.17075,-0.0328 -0.35701,-0.14253 -0.32385,-0.34432 0.0748,-0.46143 0.82444,-0.72425 1.17722,-0.90875 0.4452,-0.23178 0.89535,-0.45473 1.32679,-0.71191 0.62266,-0.37147 1.23861,-0.85054 1.94381,-1.02693 0.21625,-0.0543 0.44027,-0.0804 0.67592,-0.067 0.0998,0.006 0.20179,0.0194 0.29175,0.0631 0.20179,0.097 0.26882,0.33831 0.22613,0.54504 -0.16404,0.78952 -0.95144,1.15499 -1.64782,1.37724 m -0.94157,15.69509 c -0.0554,0 -0.10583,-0.0138 -0.15063,-0.0371 -0.2286,-0.11712 -0.34326,-0.4325 -0.50307,-0.62265 -0.49565,-0.58949 -1.258,-0.75353 -1.87113,-1.17616 -0.51188,-0.35313 -0.80574,-0.96026 -0.87559,-1.56845 -0.0561,-0.49354 0.0571,-1.20262 0.70696,-1.12607 0.47026,0.0554 0.75071,0.26212 1.09114,-0.17639 0.24907,-0.31996 0.32103,-0.69144 0.28893,-1.08726 -0.0282,-0.33725 -0.0716,-0.64875 0.0953,-0.96308 0.22084,-0.41487 0.6798,-0.60607 1.11407,-0.71579 0.37853,-0.0949 0.82268,-0.0183 1.13983,-0.29068 0.45191,-0.38912 0.57608,-1.30564 1.30527,-1.3007 0.45685,0.003 0.73519,0.3803 0.60819,0.81386 -0.061,0.21132 -0.037,0.46426 0.11148,0.63606 0.26882,0.31221 0.82056,0.14146 1.17828,0.24448 0.24659,0.0709 0.54716,0.25117 0.58773,0.52281 0.0543,0.3616 -0.32491,0.65052 -0.21132,1.00648 0.12594,0.39758 0.62371,0.40922 0.95709,0.50553 1.05904,0.30621 0.65581,1.59244 0.37924,2.32551 -0.15205,0.40463 -0.46461,0.70802 -0.90488,0.52952 -0.66816,-0.27235 -1.32186,-0.59443 -1.90359,-1.02306 -0.3743,-0.27658 -0.81492,-0.0727 -1.22978,-0.14252 -0.62936,-0.10583 -0.75565,-1.5935 -1.38889,-1.38606 -0.37923,0.12417 -0.30938,0.66639 -0.33373,0.97366 -0.0437,0.5521 -0.42968,1.04458 -0.36265,1.61184 0.0522,0.44239 0.46567,0.71015 0.6858,1.06504 0.2607,0.42369 0.11253,1.02694 -0.30762,1.30916 -0.061,0.0409 -0.13265,0.072 -0.20638,0.072 m -1.25518,4.25767 c -0.0251,0.11042 -0.11642,0.20249 -0.30057,0.25894 -0.48119,0.14817 -1.05727,-0.37253 -1.4799,-0.52846 -0.61031,-0.22613 -1.37231,-0.52494 -1.55081,-1.2259 -0.14182,-0.55598 0.0328,-1.41605 0.70485,-1.51695 0.56762,-0.0843 0.57608,0.40922 0.60254,0.80504 0.0367,0.57997 0.762,0.85831 1.18992,1.10172 0.26847,0.15205 0.91934,0.73414 0.83397,1.10561 m -3.8608,-3.83787 c -0.47131,0.3676 -1.0601,-0.0233 -0.90205,-0.61665 0.0892,-0.33479 0.2928,-0.92252 0.65863,-1.05446 0.35878,-0.12876 0.65828,0.23495 0.73025,0.5521 0.0765,0.34219 -0.1524,0.85831 -0.48683,1.11901 M 380.55,136.26316 c -0.1845,0.0825 -0.38311,0.14076 -0.59654,0.17392 -0.70415,0.10936 -0.45191,-0.66851 -0.17674,-0.98072 0.38629,-0.43921 1.2446,-0.87948 1.85243,-0.76412 0.393,0.0744 0.0505,0.56938 -0.0727,0.7359 -0.27164,0.37147 -0.60607,0.65757 -1.00648,0.83502 m 2.98521,-3.63079 c 0.0434,0.0938 0.0561,0.19297 0.0434,0.29281 -0.0582,0.48013 -0.68368,0.96379 -1.1183,0.88053 -0.0773,-0.0145 -0.15311,-0.0444 -0.20744,-0.10195 -0.0699,-0.0727 -0.0931,-0.18133 -0.0833,-0.28222 0.0317,-0.3482 0.23459,-0.7419 0.54116,-0.93663 0.25682,-0.16404 0.6798,-0.16792 0.82444,0.14746 m -4.8454,-1.35008 c 0.17251,-0.86995 0.58561,-1.66229 0.98707,-2.4451 0.24836,-0.48295 0.54892,-0.96203 0.94192,-1.34126 0.26458,-0.25506 0.72531,-0.54998 1.1123,-0.49565 0.73308,0.10265 0.0215,0.62547 -0.0543,0.95532 -0.0134,0.06 0.0106,0.13299 0.0681,0.15522 0.0339,0.0127 0.0716,0.005 0.1076,-0.002 0.28011,-0.0589 0.508,-0.0998 0.78352,0.0187 0.3115,0.13264 0.48895,0.41204 0.34713,0.7426 -0.20637,0.48401 -0.84949,0.72672 -1.25589,1.00506 -0.59725,0.40922 -0.75247,0.90488 -0.89817,1.57868 -0.0804,0.37642 -0.3743,0.57327 -0.72531,0.69462 -0.26882,0.0931 -0.59055,0.10372 -0.86113,0.0233 -0.37465,-0.11077 -0.65087,-0.39793 -0.5528,-0.88935 m 61.45529,10.89025 c -0.17145,-0.48965 -0.56726,-0.87171 -1.14829,-1.11054 0.042,-0.30445 0.0692,-0.68263 -0.007,-1.11796 -0.0572,-0.30656 -0.17074,-0.94756 -0.71367,-1.52858 -0.20391,-0.21731 -0.4258,-0.38206 -0.64488,-0.50835 0.27235,-0.6089 0.48296,-1.40053 0.38982,-2.31775 -0.0931,-0.94757 -0.47131,-1.62843 -0.63041,-1.87678 -0.20391,-0.32279 -0.43462,-0.59161 -0.67134,-0.8128 v -0.002 c 0.0381,-0.2988 0.24659,-0.72072 0.38206,-0.99518 0.0459,-0.091 0.0875,-0.17851 0.12136,-0.25612 0.0416,-0.0843 0.0836,-0.17357 0.12312,-0.26282 0.2233,-0.47413 0.4519,-0.96379 0.58984,-1.49719 0.26458,-1.02235 0.31221,-1.89829 0.14922,-2.7566 -0.27728,-1.47214 -1.2326,-2.89278 -2.82222,-3.24097 -0.16474,-0.49001 -0.4258,-0.87877 -0.77187,-1.16699 -0.43463,-0.35983 -0.9197,-0.51082 -0.97191,-0.52564 -0.17462,-0.0533 -0.34431,-0.0833 -0.50729,-0.10089 -0.11924,-0.20744 -0.27058,-0.40817 -0.45967,-0.59338 -1.0989,-1.06891 -3.08116,-1.41111 -4.6475,-0.86219 0.0339,-0.24835 0.0716,-0.51505 0.1136,-0.80398 0.3743,-2.60138 0.88547,-6.16161 -0.81386,-8.09942 -0.32491,-0.36654 -1.66229,-1.63795 -2.31493,-1.14723 -0.34431,0.25717 -0.16686,0.63923 -0.0377,0.91757 0.0755,0.16969 0.17533,0.3803 0.25682,0.64488 0.70238,2.25284 -0.80187,4.72122 -2.12972,6.90033 -0.16298,0.2667 -0.32597,0.52987 -0.47519,0.7867 -0.41416,-0.34714 -0.88371,-0.60325 -1.39771,-0.77118 -0.17639,-0.0572 -0.34995,-0.10054 -0.5207,-0.13264 0.21908,-0.42192 0.3676,-0.95744 0.1076,-1.4411 -0.23283,-0.4258 -0.73131,-0.65687 -1.78365,-0.81985 -1.09078,-0.16757 -2.21897,-0.17145 -3.3535,-0.0145 0.0201,-0.25611 -0.0681,-0.60889 -0.53164,-0.97649 -0.74401,-0.5916 -2.18687,-1.00576 -3.85515,-1.10278 -0.47731,-0.0282 -1.05022,-0.036 -1.7011,0.004 -0.002,-0.35771 -0.15698,-0.69426 -0.4579,-0.97578 -0.70309,-0.65828 -1.89512,-0.86678 -3.17606,-0.77012 -0.0776,-0.26458 -0.23107,-0.50306 -0.46355,-0.70767 -1.94275,-1.72367 -9.36801,-0.68686 -12.89897,-0.0681 -0.0698,-0.31221 -0.25894,-0.52353 -0.46954,-0.66428 -1.50531,-1.00754 -6.48829,0.79727 -10.34556,3.0801 -0.0261,-0.0173 -0.0571,-0.0272 -0.0871,-0.0356 -2.34033,-0.64523 -8.08673,1.27247 -11.42788,4.85986 -0.0124,-0.004 -0.0279,-0.006 -0.0416,-0.01 -1.65065,-0.28999 -3.80965,0.38029 -5.91891,1.83127 -1.1504,0.7941 -2.16005,1.73778 -2.97356,2.75625 -0.23072,-0.21625 -0.48225,-0.2921 -0.68474,-0.30657 -1.37513,-0.12911 -3.03671,2.04259 -5.60493,5.63104 -0.3937,0.54998 -0.77859,1.08621 -1.149,1.5875 l -0.9719,-6.58918 13.50327,-10.44822 10e-4,-7e-4 c 0.16651,-0.13124 0.22295,-0.35031 0.13935,-0.5461 -0.0843,-0.19509 -0.28223,-0.30445 -0.49142,-0.2727 l -14.48965,2.19498 -1.93286,-13.11733 c -0.0293,-0.20179 -0.18345,-0.35772 -0.38524,-0.38876 -0.20073,-0.0311 -0.39546,0.0716 -0.48401,0.254 l -7.17373,14.7641 -14.85548,2.25001 c -0.18979,0.0282 -0.34043,0.16757 -0.38205,0.35596 -0.0416,0.18697 0.0349,0.37712 0.19508,0.48295 l 10.23655,6.79767 -7.04567,14.49917 c -0.0942,0.19403 -0.0427,0.42404 0.12417,0.5588 0.0854,0.0699 0.18698,0.10477 0.28893,0.10477 0.0988,0 0.19791,-0.0321 0.28222,-0.0981 l 13.40908,-10.37731 4.80872,3.19264 c -0.28328,0.2861 -0.58385,0.58279 -0.89923,0.88547 -1.29187,1.24425 -2.84939,2.58939 -4.61151,3.66995 0.0804,-0.34255 0.14534,-0.68651 0.19473,-1.02517 0.03,-0.19685 -0.0892,-0.40146 -0.28399,-0.46955 -0.34642,-0.12312 -0.52952,0.13688 -0.6925,0.36583 -3.06105,4.34869 -8.17986,7.14975 -14.41097,7.88564 -0.61313,0.072 -1.12713,0.14746 -1.62842,0.21943 -0.85937,0.12524 -1.60408,0.23283 -2.62044,0.29774 -2.59926,0.16193 -5.11527,-0.067 -6.90068,-0.62476 -0.0416,-0.0134 -0.12312,-0.0494 -0.23072,-0.0949 -0.9592,-0.40464 -1.41499,-0.55563 -1.73143,-0.31715 -0.11324,0.0833 -0.18133,0.20743 -0.19862,0.34608 -0.0282,0.28328 0.16087,0.58384 0.768,1.24848 0.0339,0.0339 0.0593,0.0621 0.0709,0.0755 0.78846,0.9398 1.82915,1.29963 2.46062,1.51306 -0.55774,0.13865 -1.58291,0.16087 -2.52553,0.0311 -0.2406,-0.036 -0.62759,-0.1009 -1.07844,-0.17851 -3.90102,-0.66922 -5.23064,-0.73307 -5.69031,-0.2734 -0.15134,0.15311 -0.20955,0.35666 -0.15698,0.56727 0.0194,0.0755 0.091,0.26458 0.35207,0.34043 0.65264,0.20073 2.08491,0.88935 2.28,1.2386 -0.0554,0.0395 -0.18909,0.11148 -0.49283,0.18697 -1.31798,0.31997 -1.92511,-0.44979 -2.8067,-1.7339 -0.53728,-0.77787 -1.09008,-1.58186 -1.94627,-1.98437 -0.53728,-0.25612 -1.32574,-0.4318 -1.72368,-0.2921 -0.15099,0.0536 -0.26846,0.15522 -0.32773,0.28433 -0.1658,0.37218 0.18839,0.60325 0.37924,0.72637 0.4064,0.2667 1.25977,0.82056 1.91064,2.47615 0.13194,0.34043 0.28328,0.72425 0.19121,1.01036 -0.0914,0.28151 -0.23283,0.24941 -0.27834,0.23777 -0.3048,-0.072 -0.63253,-0.72461 -0.94968,-1.35396 -0.83996,-1.65947 -2.10361,-4.16737 -5.95665,-3.13655 -2.83387,0.76024 -3.86116,2.51954 -4.11128,3.04341 -0.15522,0.32385 -0.17568,0.47908 -0.0959,0.63994 0.066,0.12806 0.18133,0.22508 0.32103,0.27094 0.30832,0.0998 0.63217,-0.0515 1.16169,-0.30198 1.04458,-0.48754 2.78836,-1.30422 4.60023,-0.29069 1.12183,0.63041 1.77094,1.72932 2.45956,2.89384 0.88724,1.50036 1.8027,3.05329 3.8093,3.59621 1.81469,0.48613 3.8107,-0.19861 5.1181,-0.6925 -0.30833,0.21625 -0.6858,0.39582 -1.14829,0.58314 -0.0194,0.008 -0.0437,0.0173 -0.0737,0.0261 -0.30444,0.11147 -1.01846,0.37817 -0.89711,0.9532 0.091,0.38982 0.44591,0.52105 2.31493,0.26494 4.2605,-0.5782 6.49323,-2.19569 7.62988,-3.26461 -0.0494,0.0854 -0.097,0.16087 -0.14253,0.23672 -0.1979,0.31714 -0.39687,0.64699 -0.23177,0.98919 0.0861,0.18732 0.2473,0.30832 0.44979,0.34819 0.37465,0.0716 0.77223,-0.19297 1.03893,-0.42193 0.53728,-0.46954 0.96591,-1.01247 1.38183,-1.54022 0.37536,-0.4759 0.73237,-0.92887 1.15817,-1.32186 4.08199,-3.77649 8.67128,-1.78823 8.97784,-1.49437 0.80222,0.7807 0.62865,1.51659 0.19297,2.97533 -0.41416,1.38324 -0.94544,3.16089 -0.32879,5.59717 -1.41287,0.85725 -1.42451,2.8261 -1.42663,3.50591 0,0.20567 0.004,0.41628 0.0215,0.62935 -0.067,0.0282 -0.13123,0.0653 -0.19297,0.10584 -0.76447,0.51293 -1.44427,2.0514 -1.18145,4.78613 -0.80504,0.23672 -1.89689,1.40547 -2.22956,5.83283 -0.0614,-0.0416 -0.12735,-0.0737 -0.19297,-0.10089 -0.31256,-0.11748 -0.65687,-0.0621 -0.93698,0.15522 -0.98142,0.75459 -1.27846,3.39936 -0.72637,6.42796 0.13477,0.74013 0.31398,1.47708 0.4886,2.18899 0.0698,0.29704 0.14358,0.59372 0.21555,0.89429 -0.008,0.002 -0.0116,0.006 -0.0194,0.01 -1.59844,0.74577 -0.78282,3.67171 0.18803,5.99651 0.48577,1.1677 1.10666,2.40595 1.70603,3.39725 0.79234,1.31904 1.17052,1.64571 1.51483,1.62737 0.0476,-0.002 0.0949,-0.0134 0.14534,-0.0272 0.52282,-0.1591 0.3676,-0.80574 0.30163,-1.0795 -0.63606,-2.60491 1.22907,-4.39243 2.22779,-5.35164 0.19508,-0.18909 0.36371,-0.34995 0.48295,-0.48859 0.96026,-1.11549 0.83432,-1.72438 0.55774,-2.03483 -0.0261,-0.0321 -0.0554,-0.0593 -0.0871,-0.0871 1.40017,-1.59279 2.66029,-3.59445 2.21121,-5.91926 0.0494,-0.03 0.10266,-0.0589 0.15522,-0.0893 0.45297,-0.25118 0.91722,-0.51188 1.3335,-0.84173 0.66428,-0.52352 1.07456,-1.27635 1.12219,-2.05987 0.0173,-0.26882 -0.008,-0.53164 -0.0759,-0.78281 0.74189,-0.25965 1.52259,-0.45756 2.3248,-0.66428 0.97861,-0.25118 1.99214,-0.51118 2.95311,-0.89112 1.54904,-0.61489 2.64477,-1.42769 3.27448,-2.42676 0.26846,0.008 0.54116,0.008 0.81739,-0.008 1.15993,-0.0639 2.3569,-0.35772 3.36162,-0.97261 0.80398,-0.49389 1.38676,-1.14441 1.71943,-1.91735 0.41805,-0.10971 0.84773,-0.24835 1.288,-0.42192 1.18992,-0.46566 2.55375,-1.46085 3.26742,-2.74002 0.30445,-0.06 0.58773,-0.14746 0.84173,-0.2473 0.56938,-0.22895 1.0534,-0.56056 1.52471,-0.87771 0.60325,-0.41028 1.17263,-0.79798 1.8669,-0.93486 0.77999,-0.15134 1.52858,-0.20073 2.25495,-0.24942 1.3014,-0.085 2.54212,-0.17039 3.61456,-0.85125 1.11831,0.42192 2.34809,0.63042 3.4985,0.56515 0.13547,-0.008 0.27058,-0.0162 0.40217,-0.0339 1.22202,-0.13969 2.25883,-0.5849 3.04059,-1.30139 0.71085,0.11324 1.43933,0.1531 2.17946,0.11324 0.13935,-0.01 0.27905,-0.0162 0.41769,-0.0318 3.2579,-0.31044 4.8447,-1.69827 5.57671,-2.69346 0.096,-0.002 0.1912,-0.006 0.2854,-0.01 2.06939,-0.11536 4.19629,-0.70238 5.82683,-1.71768 1.67781,-1.04457 2.69028,-2.45568 2.92594,-4.052 2.51495,-0.60925 4.5727,-1.72332 5.52414,-2.76014 0.4124,0.0776 0.83609,0.10548 1.26189,0.0815 0.57326,-0.0303 1.15393,-0.15345 1.72931,-0.36688 1.3462,-0.5013 2.52625,-1.46438 3.26461,-2.62044 0.34008,0.072 0.75424,0.127 1.22167,0.12136 0.0815,-0.002 0.16298,-0.004 0.24271,-0.01 0.60889,-0.0339 1.15217,-0.16298 1.62066,-0.33267 0.28998,1.19874 1.02588,2.31705 2.09092,3.18911 -0.36195,0.80963 -0.48507,1.73285 -0.31609,2.60491 0.15522,0.80998 0.63112,1.44322 1.17228,1.92617 -0.17357,0.61489 -0.15875,1.26965 0.0593,1.85349 0.30657,0.81175 0.96309,1.40618 1.8408,1.70286 0.23389,1.06116 1.05516,2.00096 2.07257,2.76014 1.01635,0.7567 2.22673,1.32961 3.24238,1.65452 0.73201,0.23672 1.31868,0.34255 1.75436,0.31821 0.38876,-0.0222 0.65934,-0.14746 0.80504,-0.37642 0.36936,-0.57114 -0.35313,-1.23366 -0.59161,-1.45273 -1.44921,-1.32962 -2.90759,-5.02673 -0.65475,-9.28829 0.0282,-0.0494 0.0437,-0.10372 0.0476,-0.15699 0.17145,-0.14746 0.34608,-0.2861 0.514,-0.42015 0.34995,-0.27835 0.65264,-0.51788 0.86325,-0.76977 0.38593,-0.46002 0.52175,-1.00894 0.38382,-1.5441 -0.0455,-0.17569 -0.11924,-0.34255 -0.21802,-0.49354 0.13653,-0.14182 0.26353,-0.29492 0.38206,-0.45791 0.56444,-0.77681 0.86113,-1.70003 0.85161,-2.60314 0.14358,-0.10196 0.27834,-0.21731 0.40322,-0.3422 0.3048,0.41099 0.66922,0.78564 1.07774,1.10561 0.37994,0.29845 0.70026,0.38488 0.95532,0.37042 0.17039,-0.008 0.31009,-0.0632 0.42157,-0.12912 0.17462,-0.10372 0.31256,-0.23672 0.41628,-0.39264 0.13299,0.11641 0.26775,0.23354 0.41133,0.34219 0.3422,0.25506 0.71473,0.47837 1.1102,0.66146 -0.21414,0.67416 -0.32773,1.36772 -0.19685,2.08139 0.127,0.70132 0.49177,0.86042 0.77399,0.87207 0.0222,0 0.0448,0.002 0.066,0 0.0145,0 0.0339,-0.002 0.0515,-0.004 -0.37536,1.45662 -0.47132,2.53118 0.0882,3.13232 0.15134,0.16898 0.34431,0.28822 0.57714,0.35983 0.0377,1.0668 0.29069,1.72544 0.75848,1.99496 0.11324,0.067 0.30056,0.14076 0.54504,0.12735 0.17356,-0.01 0.37606,-0.066 0.60325,-0.20108 0.70979,-0.43039 1.41111,-1.52259 1.86478,-2.88043 0.35207,-0.10266 0.67592,-0.27235 0.97296,-0.50906 0.32667,-0.26282 0.59549,-0.5849 0.80963,-0.9338 0.0621,0.005 0.12135,0.005 0.18133,7e-4 0.32702,-0.0162 0.64135,-0.1598 0.89146,-0.41592 0.50624,-0.514 0.74472,-1.23649 0.97544,-1.93499 0.27093,-0.82232 0.52599,-1.59808 1.16416,-2.04434 0.2473,-0.17251 0.54187,-0.28787 0.85619,-0.41522 0.38982,-0.15099 0.79128,-0.3101 1.15218,-0.59338 0.66816,-0.52175 2.10749,-2.58268 2.31422,-2.90583 0.35877,-0.56726 0.45967,-1.16769 0.27516,-1.68557"
       style="fill:#013da6;fill-opacity:1;fill-rule:nonzero;stroke:none;stroke-width:0.352778" />
  </g>
</svg>
