<?xml version="1.0" encoding="UTF-8" standalone="no"?>
<!-- Created with Inkscape (http://www.inkscape.org/) -->

<svg
   width="155.61613mm"
   height="96.662064mm"
   viewBox="0 0 155.61613 96.662066"
   version="1.1"
   id="svg1"
   xmlns="http://www.w3.org/2000/svg"
   xmlns:svg="http://www.w3.org/2000/svg">
  <defs
     id="defs1" />
  <g
     id="layer1"
     transform="translate(-289.72953,-100.03013)">
    <path
       id="path20"
       d="m 437.52538,141.35438 c -0.0903,0.51894 -2.32833,-0.11536 -2.72415,-0.0854 -0.21661,0.0148 -0.48895,0.14393 -0.48436,0.39723 0.002,0.12453 0.0631,0.24024 0.1277,0.34748 0.21026,0.34996 0.80151,1.35961 1.33385,1.01918 0.14394,-0.0921 0.23531,-0.24483 0.34432,-0.37677 0.40922,-0.49389 1.01106,0.0381 1.19732,0.47131 0.55281,1.28623 -1.96814,1.69157 -2.72238,1.71838 -0.55492,0.0198 -1.39806,0.005 -1.81857,-0.43215 -0.77788,-0.80751 0.69356,-0.61489 0.64664,-1.20156 -0.009,-0.10795 -0.0593,-0.20708 -0.10336,-0.30621 -0.4117,-0.92005 -0.3676,-2.05388 0.61277,-2.57246 1.05057,-0.55598 2.31422,-0.4378 3.24203,0.3041 0.18133,0.14499 0.38664,0.49177 0.34819,0.71684 m -5.59506,-4.81295 c -0.67662,-0.65052 -1.42945,-1.50354 -1.50001,-1.61254 -0.46214,-0.71579 -0.32385,-1.59385 -0.59125,-2.36997 -0.0565,-0.16333 -0.10725,-0.33831 -0.0677,-0.50658 0.25506,-1.0795 1.89089,0.36336 2.1082,0.78493 0.42193,0.8195 0.16899,1.80904 0.4946,2.65818 0.127,0.33196 0.85831,1.35184 0.67769,1.67463 -0.25436,0.45438 -0.93275,-0.44697 -1.12149,-0.62865 m 0.83609,-5.26662 c 0.24341,-0.8322 1.58573,0.72285 0.86854,1.41147 -0.7105,0.68192 -0.99096,-0.99201 -0.86854,-1.41147 m -3.84422,2.52413 c -0.10372,0.37218 -0.34996,0.60537 -0.78881,0.24095 -0.28752,-0.23919 -0.45826,-0.6096 -0.80469,-0.78 -1.00718,-0.49388 -2.02247,0.0642 -2.94887,-0.77999 -0.53834,-0.49106 -0.61383,-1.04316 0.25682,-1.08338 0.49425,-0.0229 1.27283,0.27164 1.20827,-0.52881 -0.097,-1.19803 1.40758,0.0977 1.70815,0.375 0.4833,0.44626 1.08973,0.92957 1.34902,1.5748 0.0928,0.23107 0.11042,0.65864 0.0201,0.98143 m -0.86043,12.18741 c -0.17074,0.10407 -0.42862,0.16228 -0.59266,0.1905 -1.12007,0.19156 -2.33116,-0.51047 -2.7238,-1.5755 -0.17039,-0.46179 -0.13582,-0.99625 0.21308,-1.3716 0.59937,-0.64418 0.8061,0.29069 0.99201,0.70979 0.25082,0.56691 0.77999,0.97366 1.34055,1.20791 0.25224,0.10548 0.68333,0.17039 0.8629,0.39758 0.15663,0.19861 0.0727,0.34113 -0.0921,0.44132 m -4.5533,-9.33273 c 0.0116,-0.12524 0.0586,-0.24271 0.084,-0.36407 0.0762,-0.39723 -0.86854,-1.21285 -0.49283,-1.49296 0.75107,-0.56127 1.36737,0.36019 1.79776,0.83573 0.47554,0.526 1.12324,0.78635 1.82351,0.82162 0.21907,0.0117 0.5147,0.0155 0.6925,0.17992 0.11959,0.10971 0.14287,0.21908 0.10971,0.31715 -0.0469,0.13864 -0.20743,0.25435 -0.37747,0.30903 -0.35419,0.11536 -0.53622,0.28752 -0.6731,0.64947 -0.29739,0.78281 -0.92534,0.52034 -1.48519,0.13687 -0.3108,-0.21307 -0.61419,-0.42827 -0.93522,-0.62794 -0.27975,-0.17427 -0.57714,-0.39511 -0.54363,-0.76482 M 411.779,133.82431 c -0.42051,0.0705 -0.85689,-0.52423 -1.18745,-0.72567 -0.47554,-0.29174 -0.99412,-0.5147 -1.41852,-0.88053 -0.28751,-0.24835 -0.52034,-0.67522 -0.4773,-1.06433 0.0332,-0.30515 0.54786,-0.84349 0.86677,-0.57326 0.0547,0.0469 0.0938,0.10936 0.13476,0.17004 0.27975,0.39934 0.71226,0.70449 1.137,0.92957 0.40676,0.21695 0.84491,0.46743 1.1229,0.84313 0.12135,0.1644 0.21343,0.44803 0.20919,0.71226 -0.004,0.2346 -0.11924,0.54399 -0.38735,0.58879 m -3.46992,-13.95271 c -0.19438,0.0977 0.004,0.46954 -0.11536,0.62759 -0.0406,0.0536 -0.10301,0.0857 -0.16651,0.10689 -0.41875,0.1397 -0.90558,-0.0113 -1.32327,-0.0903 -0.5087,-0.0963 -1.01988,-0.18415 -1.53599,-0.23142 -0.34431,-0.0318 -0.50165,0.0688 -0.55175,0.41028 -0.0892,0.61101 -0.86959,0.58878 -1.32785,0.53304 -0.99131,-0.121 -1.98014,-0.38241 -2.97956,-0.1651 -0.1778,0.0388 -0.63888,0.26388 -0.58844,0.50659 0.0138,0.0656 0.0716,0.11501 0.13441,0.13759 0.60996,0.21978 1.31586,-0.0243 1.95192,0.17109 0.51012,0.15699 0.54116,0.55281 0.0787,0.79481 -1.16275,0.6089 -2.74673,0.68121 -3.74332,1.57374 -0.19191,0.17181 -0.50695,0.56304 -0.12736,0.69886 0.30833,0.11041 0.71438,-0.0981 0.99272,-0.21344 0.36724,-0.15204 0.72425,-0.33266 1.10878,-0.43779 0.33373,-0.091 1.0795,-0.0995 0.95709,0.4512 -0.031,0.14005 -0.12242,0.25929 -0.22261,0.36195 -0.73272,0.75071 -1.67075,1.13806 -2.18122,2.10749 -0.0935,0.17816 -0.17357,0.36584 -0.29775,0.52423 -0.36759,0.46779 -2.30152,0.82515 -1.63865,-0.19332 0.1083,-0.16616 0.25894,-0.30198 0.3676,-0.46814 0.39087,-0.59654 -0.89818,-0.18626 -1.09291,-0.0607 -0.36089,0.23283 -0.52599,0.61101 -0.75494,0.95532 -0.24025,0.36089 -0.53199,0.63994 -0.93486,0.81386 -0.43463,0.18767 -0.95744,0.17639 -1.35467,0.43603 -0.28399,0.18556 -0.47061,0.49036 -0.54892,0.81668 -0.0677,0.28293 0.005,0.63959 -0.13371,0.89394 -0.22613,0.41522 -0.74471,0.0773 -0.96908,-0.15416 -0.42227,-0.43498 -0.62759,-1.06433 -0.48824,-1.66088 0.17004,-0.72637 0.79057,-1.04317 1.32609,-1.48273 0.60219,-0.49459 -1.22379,-0.73871 -0.44767,-1.19556 0.45226,-0.266 0.93098,-0.39405 1.41534,-0.5775 0.28681,-0.10865 0.55915,-0.26952 0.72249,-0.53587 0.26882,-0.43779 0.34325,-0.86324 0.80116,-1.16522 0.30903,-0.20426 0.6671,-0.31962 1.02834,-0.38982 0.30763,-0.06 0.71791,-0.0282 0.99096,-0.19156 0.41381,-0.24765 0.12135,-0.70203 -0.23566,-0.80363 -0.72954,-0.20743 -1.4986,0.1845 -2.19498,0.35772 -0.63571,0.1584 -1.28341,0.0219 -1.92405,-0.0152 -0.40005,-0.0233 -0.79869,0.0247 -1.16805,0.18662 -0.37112,0.16263 -0.69991,0.40605 -1.0862,0.54081 -0.41452,0.14464 -0.99519,0.0741 -0.79269,-0.53058 0.21202,-0.63324 1.0294,-0.97578 1.48872,-1.40406 0.27799,-0.25929 0.50059,-0.59972 0.8389,-0.7874 0.37113,-0.20602 0.80575,-0.19402 1.21603,-0.22577 0.34572,-0.0268 1.4104,-0.25824 0.92357,-0.8121 -0.0713,-0.0811 -0.1651,-0.13935 -0.26,-0.19156 -0.54574,-0.29951 -1.12395,-0.38206 -1.73743,-0.36477 -0.63323,0.0176 -1.24883,0.34431 -1.88559,0.42863 -0.77999,0.10371 -1.53741,-0.17287 -2.28142,-0.36372 -0.40111,-0.10301 -0.81315,-0.19685 -1.22907,-0.20108 -0.25154,-0.002 -1.13736,0.0882 -1.03505,0.5274 0.0208,0.09 0.11077,0.1457 0.1972,0.17886 0.47201,0.18203 1.02482,0.0219 1.49401,0.23812 0.17039,0.0783 0.42439,0.29352 0.29598,0.50448 -0.0469,0.0773 -0.12911,0.127 -0.21343,0.15945 -0.37147,0.14429 -0.86466,0.16687 -1.26083,0.22507 -0.52317,0.0769 -1.05092,0.12277 -1.57938,0.13688 -1.19486,0.0325 -2.48073,-0.16298 -3.55388,0.52811 -0.55492,0.35701 -1.04529,0.78281 -1.70851,0.91934 -0.51788,0.10654 -1.05304,0.12665 -1.56104,0.2794 -0.41451,0.12524 -0.74612,0.40781 -1.11548,0.62089 -0.27587,0.1591 -0.69709,0.11183 -0.76518,-0.25365 -0.13829,-0.74154 0.84773,-1.32221 1.39877,-1.56951 0.48895,-0.21907 1.01035,-0.32773 1.51306,-0.50341 0.30445,-0.10583 0.94615,-0.24024 0.99942,-0.63218 0.0455,-0.33514 -0.36371,-0.62406 0.20884,-0.70555 0.26847,-0.0385 0.53129,0.0607 0.79799,0.0699 0.12206,0.004 0.75388,-0.0797 0.51893,-0.32562 -0.23495,-0.24553 -0.75917,-0.20426 -1.06433,-0.2921 -0.0773,-0.0222 -0.15839,-0.0504 -0.20708,-0.11395 -0.23001,-0.29986 0.60678,-0.50976 0.76624,-0.54116 0.25999,-0.0512 0.52599,-0.0751 0.78069,-0.14852 0.35243,-0.1016 0.52917,-0.43779 0.11995,-0.6096 -0.7426,-0.3122 -1.48414,-0.64593 -2.23485,-0.93627 -0.54469,-0.21096 -1.13524,-0.20955 -1.7078,-0.14746 -0.23283,0.0254 -1.03611,0.22613 -0.91934,-0.25082 0.20497,-0.83468 1.51589,-1.01001 2.19957,-0.9645 0.6724,0.0444 1.29188,0.33867 1.9177,0.55774 0.82198,0.28752 1.68205,0.21202 2.44793,0.66252 0.62336,0.36618 1.33773,0.57573 2.06022,0.60466 0.36936,0.0145 1.07915,0.0886 1.30634,-0.29104 0.29527,-0.49389 -0.54011,-0.64135 -0.85161,-0.68933 -0.25929,-0.0395 -0.51964,-0.0508 -0.78105,-0.0677 -0.51999,-0.0332 -1.08444,-0.21202 -1.50248,-0.52882 -0.41099,-0.31115 -0.33937,-0.81773 0.23566,-0.76517 0.42474,0.0385 0.79128,0.21378 1.22696,0.2032 0.40992,-0.0102 0.7941,-0.11642 1.19203,-0.20038 0.49389,-0.10371 1.03223,-0.0473 1.536,-0.0734 0.78352,-0.0406 1.55363,-0.21237 2.34174,-0.19155 0.45967,0.012 0.93627,0.0825 1.35537,0.28187 0.41451,0.1972 0.77223,0.47483 1.23472,0.56303 0.47343,0.0903 0.60678,-0.31397 0.40711,-0.68686 -0.54081,-1.01 -1.82492,-1.30634 -2.81446,-1.66899 -0.18557,-0.0677 -0.33585,-0.27093 -0.10337,-0.40111 0.0755,-0.0423 0.16475,-0.0522 0.25118,-0.0582 0.66005,-0.0459 1.34973,0.0466 1.95086,0.33302 0.58385,0.27799 0.90382,0.81139 1.39912,1.19874 0.43391,0.33902 0.96167,0.51153 1.47602,0.68863 0.61665,0.21237 1.24037,0.40251 1.86408,0.59478 0.14534,0.0452 0.29598,0.0907 0.44767,0.0748 0.17357,-0.018 0.40499,-0.17498 0.34431,-0.37747 -0.025,-0.0836 -0.0875,-0.14994 -0.15169,-0.2092 -0.3623,-0.33549 -0.95003,-0.4512 -1.14512,-0.95285 -0.0233,-0.06 -0.0381,-0.12736 -0.018,-0.18909 0.22542,-0.69956 1.82809,0.59795 2.09268,0.0705 0.0526,-0.10513 0.043,-0.2286 0.0388,-0.34607 -0.0123,-0.33056 0.14641,-0.58808 0.48437,-0.63394 0.70802,-0.0953 1.35572,0.24765 1.96426,0.55738 0.44415,0.22613 0.88336,0.46144 1.31728,0.70627 0.39758,0.22401 0.84455,0.40393 1.02235,0.85725 0.0667,0.16933 0.11077,0.34854 0.20143,0.50623 0.18592,0.32456 0.50447,0.41945 0.83961,0.51788 0.89112,0.26141 1.59385,0.6731 2.37667,1.14794 0.4826,0.29316 0.97119,0.14111 1.49295,0.20355 0.91899,0.11077 1.42452,1.02059 1.83797,1.74484 0.25083,0.43956 -0.21942,0.4886 -0.53128,0.45014 -0.33302,-0.0409 -0.66957,-0.10089 -1.0033,-0.12841 -0.066,-0.005 -0.11395,0.002 -0.14852,0.0194 m -0.87065,2.80987 c -0.74472,0.15522 -1.71944,0.13758 -1.98191,0.13264 -0.10372,-0.002 -0.21272,-0.0106 -0.29986,-0.067 -0.54328,-0.35454 0.62018,-0.68933 0.83079,-0.73766 0.48825,-0.11218 0.9906,-0.1457 1.48661,-0.20673 0.2293,-0.0282 0.79904,-0.0716 0.88688,0.23319 0.11395,0.39617 -0.68509,0.59584 -0.92251,0.64558 m 0.508,3.38914 c -0.002,0.002 -0.002,0.006 -0.004,0.008 -0.12348,0.29174 -0.15664,0.56762 -0.0942,0.87665 0.0607,0.29951 0.17251,0.59866 0.0607,0.90382 -0.127,0.35419 -0.46955,0.58314 -0.80398,0.75741 -0.35207,0.18168 -0.82374,0.35983 -1.02341,0.72955 -0.19932,0.37394 0.1076,0.76905 -0.0547,1.14864 -0.19579,0.46179 -0.93909,0.24447 -1.21708,0.002 -0.33832,-0.29739 -0.59478,-0.8255 -0.43427,-1.26964 0.35242,-0.97649 1.32644,-1.52612 1.60831,-2.56117 0.11536,-0.42651 0.44027,-0.76694 0.84138,-0.94086 0.34431,-0.14887 1.40652,-0.33267 1.12113,0.34608 m -5.08318,19.57881 c -0.48718,-0.32879 -0.8001,-0.8763 -0.78458,-1.47108 0.0138,-0.47167 0.40711,-1.50284 1.04881,-1.33844 0.33655,0.0843 0.36372,0.4893 0.3676,0.77293 0.004,0.35419 0.0607,0.70415 0.14287,1.04669 0.0684,0.28364 0.20179,0.56339 0.21343,0.86678 0.0215,0.66322 -0.66922,0.33655 -0.98813,0.12312 m -0.96449,-15.43685 c -0.0215,0.28187 0.008,0.63606 -0.25824,0.81386 -0.39722,0.26211 -0.88053,0.0254 -1.12289,-0.32279 -0.31115,-0.44979 -0.26423,-0.93698 -0.0921,-1.42805 0.18591,-0.52458 0.33443,-0.96061 0.39123,-1.51659 0.084,-0.84878 1.79987,-1.62384 1.83726,-0.40675 0.004,0.12312 0,0.23883 -0.008,0.35031 -0.0353,0.43215 -0.16827,0.78845 -0.41698,1.19909 -0.24059,0.39723 -0.29528,0.85901 -0.33055,1.31092 m -0.60255,6.9536 c -0.0861,0.40887 -0.67486,1.1169 -1.12889,1.0915 -0.51258,-0.0272 -0.51646,-0.46144 -0.34819,-0.84314 0.133,-0.30127 0.34043,-0.68298 0.62195,-0.86466 0.36583,-0.23495 0.89041,0.127 0.86501,0.54575 -0.002,0.0236 -0.006,0.0469 -0.01,0.0705 m -3.31964,-3.27519 c -0.19685,-0.10689 -0.38523,-0.22577 -0.53587,-0.37923 -0.27657,-0.28293 -0.16404,-0.58702 -0.0568,-0.91299 0.0713,-0.2159 0.10054,-0.45015 0.0582,-0.67487 -0.0684,-0.36124 -0.41946,-0.74295 -0.007,-1.05057 0.60995,-0.45508 1.17016,0.22719 1.43122,0.72778 0.26317,0.50377 0.52034,1.01459 0.85407,1.47638 0.27411,0.37959 0.68298,0.64488 0.9712,1.01459 0.16404,0.21061 0.34149,0.61101 0.21167,0.87594 -0.2159,0.44133 -0.83397,0.13371 -1.12784,-0.0413 -0.40745,-0.24271 -0.81033,-0.49389 -1.22131,-0.73166 -0.18098,-0.10513 -0.38312,-0.19897 -0.57715,-0.3041 m -2.86667,5.62928 c -0.15628,0.25823 -0.40816,0.36512 -0.7246,0.13829 -0.43639,-0.31362 -0.70415,-1.18392 -0.56304,-1.70357 0.15981,-0.58737 0.82656,-0.39652 1.14865,-0.0649 0.39229,0.40393 0.42545,1.15747 0.13899,1.63019 m -0.64417,3.59269 c -0.085,0.24024 -0.30233,0.41592 -0.53622,0.50129 -0.002,7.1e-4 -0.005,0.001 -0.007,0.002 -0.69426,0.24836 -1.47108,0.0296 -2.11878,-0.2547 -0.34396,-0.15134 -0.70167,-0.31821 -0.97402,-0.58385 -0.30339,-0.29563 -0.4318,-0.70591 -0.63782,-1.06927 -0.46673,-0.82268 -1.44533,-1.06821 -1.98332,-1.80128 -0.27375,-0.37253 0.0621,-0.75353 0.46673,-0.76659 0.42404,-0.0134 0.78951,0.26564 1.19415,0.34678 0.78846,0.15734 1.79211,0.11783 2.13995,1.01071 0.20602,0.52776 0.21978,1.10243 0.76094,1.41111 0.45685,0.26035 1.99602,0.3556 1.6951,1.20333 m -4.11762,5.37809 c -0.0317,0.0434 -0.0755,0.0787 -0.13406,0.10302 -0.10689,0.0445 -0.22825,0.0335 -0.34149,0.0106 -0.75565,-0.15134 -1.90676,-0.69568 -2.47015,-1.23543 -0.4004,-0.38347 -0.27904,-0.79128 -0.27904,-1.27811 0,-0.38524 -0.14112,-0.69498 -0.42016,-0.95533 -0.26917,-0.25117 -0.70873,-0.4071 -0.89535,-0.72742 -0.2473,-0.42439 0.15734,-0.67204 0.53304,-0.68439 0.48895,-0.0162 0.92922,0.29563 1.35291,0.49565 0.83291,0.3937 2.26342,0.53658 2.53859,1.59209 0.10971,0.42121 -0.0109,0.86959 -0.0367,1.30845 -0.0176,0.30551 0.3817,1.05692 0.1524,1.37089 m -3.18911,-20.51861 c -0.20426,0.26776 -0.45861,0.50306 -0.65582,0.65299 -0.29069,0.22084 -0.63394,0.39758 -0.89923,0.64735 -0.38206,0.35948 -0.57538,0.87665 -0.98213,1.21673 -0.36583,0.30586 -1.22837,0.53305 -1.31551,-0.13194 -0.0776,-0.59161 0.45403,-1.35149 0.76024,-1.82174 0.46743,-0.71791 1.12254,-1.45662 1.86407,-1.89512 0.32915,-0.19439 0.74472,-0.36442 1.11302,-0.17181 0.71014,0.37183 0.50341,0.99519 0.11536,1.50354 m -0.67628,-3.63855 c -0.90628,0.28963 -1.79564,0.50377 -2.67652,0.87454 -0.3295,0.13864 -0.75389,0.30621 -1.11937,0.23601 -0.17674,-0.0339 -0.36936,-0.14782 -0.33514,-0.35666 0.0776,-0.47661 0.85302,-0.7486 1.21779,-0.9391 0.46038,-0.24059 0.92569,-0.47096 1.37231,-0.73695 0.64382,-0.38347 1.28129,-0.87877 2.01048,-1.06221 0.22331,-0.0561 0.45508,-0.0833 0.6985,-0.0684 0.10372,0.006 0.20884,0.0198 0.30268,0.0646 0.20849,0.10018 0.27693,0.35066 0.23284,0.56373 -0.16899,0.81669 -0.9839,1.19486 -1.70357,1.42452 m -0.97402,16.23307 c -0.0578,3.5e-4 -0.10936,-0.0138 -0.15628,-0.0377 -0.23565,-0.12135 -0.35454,-0.44802 -0.52035,-0.64452 -0.51258,-0.6096 -1.30069,-0.77929 -1.93428,-1.21638 -0.52952,-0.36548 -0.83396,-0.99342 -0.90558,-1.62207 -0.0582,-0.51047 0.0586,-1.2446 0.73061,-1.16523 0.48648,0.0575 0.77681,0.27129 1.12888,-0.18203 0.25718,-0.33126 0.33162,-0.71543 0.2981,-1.1243 -0.0286,-0.3489 -0.0737,-0.67134 0.0988,-0.99589 0.2286,-0.43004 0.70309,-0.6276 1.15288,-0.74049 0.39088,-0.0984 0.85054,-0.0198 1.17792,-0.30127 0.46814,-0.40216 0.5962,-1.35008 1.35044,-1.34514 0.47237,0.003 0.76023,0.393 0.62935,0.84208 -0.0635,0.21872 -0.0385,0.48048 0.11465,0.65793 0.27835,0.32279 0.84949,0.1464 1.2185,0.25259 0.25506,0.0737 0.56585,0.25965 0.60819,0.54046 0.0564,0.37394 -0.33585,0.6731 -0.21872,1.04104 0.13123,0.41134 0.64558,0.42334 0.9906,0.52317 1.09502,0.3168 0.67803,1.64677 0.39228,2.40489 -0.15733,0.41839 -0.48118,0.73201 -0.93556,0.54751 -0.69145,-0.28081 -1.36772,-0.61454 -1.96991,-1.05798 -0.38735,-0.2854 -0.84208,-0.0751 -1.27177,-0.14711 -0.65087,-0.10936 -0.7814,-1.64818 -1.4358,-1.43404 -0.393,0.12912 -0.32033,0.68933 -0.34537,1.00753 -0.0452,0.5708 -0.44415,1.08056 -0.37536,1.66688 0.054,0.45755 0.4819,0.73448 0.70873,1.10172 0.27094,0.4378 0.11677,1.06222 -0.3175,1.35361 -0.0635,0.0427 -0.13688,0.0748 -0.21343,0.0748 m -1.29822,4.40337 c -0.0265,0.1143 -0.11994,0.2092 -0.3108,0.26776 -0.49777,0.15311 -1.09326,-0.38559 -1.5307,-0.54716 -0.63077,-0.23283 -1.41958,-0.54257 -1.60443,-1.26788 -0.14641,-0.57468 0.0339,-1.46403 0.72954,-1.5681 0.58632,-0.0878 0.5962,0.42298 0.62265,0.83291 0.0388,0.59972 0.78846,0.88724 1.23155,1.13912 0.27728,0.15769 0.95109,0.75882 0.86219,1.14335 m -3.99344,-3.96875 c -0.48719,0.37959 -1.09644,-0.025 -0.9324,-0.63888 0.0924,-0.34572 0.30269,-0.95356 0.68051,-1.08973 0.37148,-0.13405 0.68122,0.24271 0.7553,0.5708 0.0797,0.35348 -0.15734,0.88794 -0.50341,1.15781 m -1.75472,-5.13997 c -0.19121,0.0847 -0.39688,0.14534 -0.61701,0.17956 -0.72884,0.11289 -0.46778,-0.69144 -0.18344,-1.01458 0.40005,-0.45403 1.28764,-0.90911 1.91664,-0.78987 0.40605,0.0769 0.0515,0.58808 -0.0751,0.76094 -0.28117,0.38453 -0.6276,0.68051 -1.04105,0.86395 m 3.08751,-3.75567 c 0.0448,0.097 0.0575,0.19967 0.0448,0.30233 -0.06,0.49706 -0.70696,0.9973 -1.15711,0.91158 -0.0794,-0.0152 -0.1584,-0.0466 -0.21449,-0.10513 -0.072,-0.0759 -0.0956,-0.18803 -0.0861,-0.29245 0.0328,-0.36019 0.24271,-0.7673 0.5595,-0.96908 0.26635,-0.16934 0.70344,-0.17357 0.85337,0.15275 m -5.01191,-1.39594 c 0.17885,-0.90029 0.60607,-1.71979 1.02164,-2.52942 0.25647,-0.49883 0.56691,-0.99519 0.97296,-1.38642 0.27482,-0.26493 0.75036,-0.56938 1.15147,-0.51329 0.75812,0.10584 0.0215,0.64664 -0.0561,0.98778 -0.0141,0.0621 0.0102,0.13829 0.0698,0.16051 0.0353,0.0131 0.0741,0.006 0.11077,-0.002 0.29034,-0.061 0.52599,-0.10231 0.81104,0.0194 0.32173,0.13723 0.50517,0.42616 0.35877,0.7687 -0.21378,0.50024 -0.87842,0.75071 -1.29857,1.03858 -0.61807,0.42369 -0.77894,0.93627 -0.92887,1.63371 -0.084,0.38912 -0.38735,0.59302 -0.75,0.71791 -0.27835,0.096 -0.61137,0.10759 -0.89147,0.0243 -0.387,-0.11501 -0.6724,-0.41169 -0.5715,-0.91969 m 63.56173,11.26313 c -0.17815,-0.50659 -0.58702,-0.9017 -1.1878,-1.14829 0.043,-0.31503 0.0705,-0.70626 -0.008,-1.1564 -0.0586,-0.3168 -0.17604,-0.98037 -0.73766,-1.5808 -0.21132,-0.22507 -0.44027,-0.39511 -0.66711,-0.52635 0.28187,-0.63006 0.49883,-1.4478 0.40323,-2.39677 -0.096,-0.98002 -0.48719,-1.68451 -0.65158,-1.94063 -0.21131,-0.33479 -0.45015,-0.61242 -0.69462,-0.84137 v -0.002 c 0.0392,-0.30903 0.25435,-0.74542 0.39511,-1.02905 0.0469,-0.0938 0.09,-0.1838 0.12524,-0.26423 0.043,-0.0879 0.0861,-0.17992 0.12735,-0.272 0.23072,-0.49106 0.46743,-0.99765 0.6103,-1.5494 0.27411,-1.05656 0.3228,-1.9625 0.15452,-2.85079 -0.28751,-1.52189 -1.27564,-2.99121 -2.91888,-3.35139 -0.17039,-0.50659 -0.44027,-0.90982 -0.79834,-1.20721 -0.45014,-0.37182 -0.95109,-0.52811 -1.00577,-0.54398 -0.17991,-0.0547 -0.35595,-0.0861 -0.52422,-0.10372 -0.12348,-0.21519 -0.27976,-0.42262 -0.47555,-0.61418 -1.13665,-1.10561 -3.18699,-1.45944 -4.80695,-0.89218 0.0349,-0.25611 0.0741,-0.53234 0.11712,-0.83149 0.38735,-2.69029 0.91581,-6.37223 -0.84102,-8.37601 -0.33655,-0.37923 -1.71979,-1.69404 -2.39501,-1.18745 -0.35595,0.266 -0.17215,0.66146 -0.0392,0.94897 0.0783,0.17604 0.18204,0.39335 0.26635,0.66711 0.72567,2.33009 -0.82973,4.8835 -2.2031,7.1374 -0.16827,0.27587 -0.33655,0.54786 -0.49106,0.81386 -0.42863,-0.35984 -0.9137,-0.62407 -1.44604,-0.79834 -0.18203,-0.0586 -0.36195,-0.10372 -0.53798,-0.13688 0.22683,-0.43638 0.37958,-0.98989 0.11147,-1.49084 -0.24059,-0.44026 -0.75706,-0.67874 -1.84502,-0.84702 -1.12889,-0.17427 -2.29482,-0.17815 -3.46887,-0.0159 0.0215,-0.26423 -0.0702,-0.63006 -0.54963,-1.00965 -0.76905,-0.61207 -2.26165,-1.0407 -3.98744,-1.14053 -0.49319,-0.0293 -1.08585,-0.037 -1.75895,0.004 -0.002,-0.36971 -0.16228,-0.7179 -0.47343,-1.00965 -0.72778,-0.68086 -1.96039,-0.89606 -3.28507,-0.79622 -0.0801,-0.27376 -0.23847,-0.52035 -0.47942,-0.73166 -2.00907,-1.78224 -9.68834,-0.71014 -13.34135,-0.0706 -0.0723,-0.32279 -0.26811,-0.54186 -0.48507,-0.6865 -1.55751,-1.04281 -6.71089,0.82373 -10.7001,3.18523 -0.0275,-0.0176 -0.0589,-0.0275 -0.09,-0.0374 -2.42041,-0.6671 -8.36436,1.31692 -11.81947,5.02638 -0.0138,-0.004 -0.0293,-0.006 -0.043,-0.01 -1.70779,-0.29915 -3.94017,0.39335 -6.12175,1.89407 -1.18956,0.82162 -2.23449,1.7981 -3.07587,2.85044 -0.23848,-0.22295 -0.49883,-0.30127 -0.70802,-0.31679 -1.4224,-0.133 -3.14043,2.11314 -5.7972,5.82436 -0.40711,0.56868 -0.8061,1.1243 -1.18886,1.64288 l -1.00506,-6.81566 13.96611,-10.807 10e-4,-7e-4 c 0.17322,-0.13547 0.23107,-0.36231 0.14429,-0.56409 -0.0868,-0.20179 -0.29104,-0.31609 -0.50835,-0.28293 l -14.986,2.27083 -1.99849,-13.56678 c -0.0303,-0.20849 -0.1905,-0.37006 -0.39829,-0.40216 -0.20743,-0.0321 -0.40922,0.0737 -0.50059,0.26282 l -7.42032,15.26928 -15.36418,2.32798 c -0.19685,0.0289 -0.35172,0.17286 -0.39476,0.36724 -0.0434,0.19438 0.036,0.39052 0.20144,0.49989 l 10.58792,7.03086 -7.28769,14.99623 c -0.097,0.20002 -0.0448,0.43779 0.12771,0.57785 0.0892,0.072 0.19403,0.1083 0.29951,0.1083 0.10195,0 0.20425,-0.0339 0.2921,-0.10195 l 13.86804,-10.73327 4.97346,3.30271 c -0.29351,0.29633 -0.60325,0.60289 -0.92992,0.91581 -1.33632,1.28728 -2.9464,2.67829 -4.76991,3.79553 0.084,-0.35418 0.15064,-0.71014 0.20144,-1.06045 0.0314,-0.20355 -0.0921,-0.41451 -0.29351,-0.48506 -0.35807,-0.12736 -0.54787,0.14075 -0.71614,0.37747 -3.16548,4.49791 -8.45996,7.39563 -14.90451,8.15692 -0.63394,0.0741 -1.16628,0.1524 -1.68451,0.22684 -0.8883,0.12912 -1.65912,0.2406 -2.70969,0.30727 -2.68852,0.16828 -5.29061,-0.0688 -7.1374,-0.64594 -0.043,-0.0134 -0.12735,-0.0508 -0.23883,-0.0977 -0.99201,-0.41874 -1.46332,-0.57502 -1.78999,-0.32878 -0.11748,0.0861 -0.18803,0.21519 -0.20567,0.35807 -0.0293,0.29351 0.16651,0.60466 0.79445,1.29151 0.0353,0.0353 0.0607,0.0646 0.0723,0.0783 0.81598,0.97226 1.89195,1.34408 2.54529,1.56492 -0.57714,0.14288 -1.63759,0.16651 -2.61196,0.0314 -0.24836,-0.037 -0.64947,-0.10372 -1.11513,-0.1838 -4.03437,-0.69285 -5.4095,-0.75917 -5.88504,-0.28363 -0.15663,0.1584 -0.21731,0.36971 -0.16228,0.58667 0.0194,0.0783 0.0938,0.27411 0.36372,0.35242 0.67486,0.20744 2.15617,0.91934 2.35761,1.28129 -0.0568,0.0413 -0.19579,0.11536 -0.50871,0.19368 -1.36384,0.3309 -1.99178,-0.46567 -2.90336,-1.79388 -0.55562,-0.80433 -1.12712,-1.63583 -2.0133,-2.05246 -0.55563,-0.26423 -1.3716,-0.44626 -1.78223,-0.30127 -0.15664,0.0547 -0.27799,0.16051 -0.33867,0.29351 -0.17216,0.38523 0.19367,0.62407 0.39123,0.75107 0.42086,0.27587 1.30316,0.84913 1.97626,2.56116 0.13688,0.35207 0.29351,0.7493 0.19756,1.04493 -0.0938,0.29139 -0.2406,0.25823 -0.28752,0.24624 -0.31503,-0.0741 -0.65369,-0.7493 -0.98213,-1.40053 -0.86889,-1.71591 -2.17593,-4.31024 -6.16126,-3.24414 -2.93088,0.78669 -3.9931,2.60597 -4.25133,3.14819 -0.16051,0.33443 -0.18203,0.49494 -0.0998,0.6611 0.0684,0.133 0.18767,0.23283 0.33266,0.27975 0.31892,0.10372 0.65335,-0.0526 1.20121,-0.31079 1.07986,-0.50483 2.88396,-1.35008 4.75827,-0.30163 1.16029,0.65158 1.83127,1.78858 2.54353,2.99367 0.91757,1.55152 1.86443,3.15772 3.94017,3.71934 1.87643,0.50271 3.94053,-0.20567 5.29237,-0.71614 -0.31891,0.22296 -0.70802,0.40887 -1.18745,0.60254 -0.0197,0.008 -0.0451,0.0176 -0.0762,0.0275 -0.31503,0.11536 -1.05269,0.39123 -0.92745,0.98602 0.0938,0.40287 0.46179,0.53798 2.39466,0.27375 4.40619,-0.59866 6.71477,-2.27118 7.89058,-3.37679 -0.0508,0.0882 -0.0998,0.16616 -0.14676,0.24448 -0.20532,0.32879 -0.41098,0.66922 -0.24059,1.02341 0.09,0.19367 0.25647,0.31891 0.46566,0.35983 0.38735,0.0744 0.79834,-0.19932 1.07421,-0.43603 0.55563,-0.48543 0.99977,-1.04705 1.43016,-1.5928 0.38735,-0.49283 0.75706,-0.96061 1.19733,-1.36772 4.22204,-3.90489 8.96867,-1.84855 9.28546,-1.54551 0.82974,0.80821 0.64982,1.56915 0.19968,3.07763 -0.42863,1.43016 -0.97826,3.26919 -0.34043,5.78943 -1.46156,0.88618 -1.4732,2.92277 -1.47532,3.62515 0,0.21343 0.004,0.43039 0.0215,0.65158 -0.0684,0.0293 -0.13476,0.0667 -0.19932,0.10971 -0.79058,0.53023 -1.49296,2.1209 -1.22096,4.94983 -0.83362,0.24447 -1.96251,1.45379 -2.30682,6.03214 -0.0624,-0.043 -0.13088,-0.0765 -0.19932,-0.10371 -0.32314,-0.12136 -0.6791,-0.0646 -0.96873,0.16016 -1.01529,0.7807 -1.32256,3.51613 -0.75106,6.64845 0.13864,0.76482 0.32456,1.52788 0.50447,2.26342 0.0727,0.30727 0.14887,0.61454 0.22331,0.92569 -0.008,0.002 -0.012,0.006 -0.0197,0.01 -1.65312,0.77118 -0.80998,3.79766 0.19367,6.20219 0.50306,1.20721 1.14476,2.48885 1.76495,3.51402 0.8195,1.36349 1.21108,1.70215 1.56704,1.6824 0.049,-0.002 0.0977,-0.0134 0.15063,-0.0272 0.54011,-0.16439 0.37959,-0.83361 0.31115,-1.11724 -0.65758,-2.69417 1.27177,-4.54308 2.3047,-5.53509 0.20144,-0.19544 0.37571,-0.36195 0.49883,-0.50482 0.99412,-1.15429 0.86289,-1.784 0.57714,-2.10503 -0.0272,-0.0332 -0.0564,-0.0607 -0.09,-0.09 1.4478,-1.64747 2.75096,-3.71757 2.28741,-6.1221 0.0508,-0.031 0.10548,-0.0607 0.16017,-0.0917 0.46778,-0.26035 0.94897,-0.53023 1.37936,-0.87066 0.68685,-0.54187 1.1116,-1.3208 1.16028,-2.13078 0.0176,-0.27763 -0.008,-0.54962 -0.0783,-0.80997 0.76693,-0.26812 1.57515,-0.47343 2.40453,-0.68651 1.01177,-0.26035 2.06022,-0.52846 3.05435,-0.92181 1.60232,-0.6357 2.73508,-1.47708 3.38667,-2.51001 0.27763,0.008 0.5595,0.008 0.84525,-0.008 1.19909,-0.0667 2.4377,-0.37007 3.47663,-1.00577 0.83149,-0.51082 1.43404,-1.18357 1.77835,-1.98402 0.4325,-0.11325 0.87665,-0.25612 1.33244,-0.43604 1.23049,-0.48154 2.64125,-1.51059 3.37891,-2.83316 0.31503,-0.0628 0.60854,-0.15275 0.87065,-0.25647 0.58879,-0.23671 1.08973,-0.5789 1.57692,-0.90769 0.62406,-0.42439 1.2132,-0.8255 1.9311,-0.96661 0.8061,-0.15628 1.5808,-0.20744 2.33222,-0.25824 1.3462,-0.0878 2.6296,-0.17603 3.73874,-0.88018 1.1564,0.43604 2.42816,0.65123 3.61773,0.58491 0.14076,-0.008 0.27975,-0.0176 0.41663,-0.0353 1.264,-0.14464 2.3361,-0.60466 3.14431,-1.3462 0.73554,0.11748 1.48872,0.15875 2.2539,0.11748 0.14464,-0.01 0.28927,-0.0176 0.43215,-0.0332 3.36903,-0.32102 5.01086,-1.75718 5.76792,-2.78623 0.0998,-0.002 0.19755,-0.006 0.29527,-0.01 2.14066,-0.11959 4.33952,-0.72602 6.02615,-1.77659 1.73531,-1.0802 2.78201,-2.53965 3.02683,-4.191 2.59998,-0.63006 4.72864,-1.78223 5.71289,-2.85432 0.42651,0.0801 0.86466,0.10936 1.30492,0.084 0.59302,-0.0314 1.19345,-0.1584 1.78823,-0.37959 1.39312,-0.51858 2.61409,-1.51412 3.37714,-2.70969 0.35208,0.0744 0.7807,0.13124 1.26365,0.12524 0.0843,-0.002 0.16828,-0.004 0.25048,-0.01 0.63006,-0.0353 1.19168,-0.16827 1.67675,-0.34431 0.29951,1.24037 1.06045,2.39677 2.16217,3.29883 -0.37394,0.83714 -0.50094,1.79211 -0.32702,2.69381 0.16051,0.83749 0.6537,1.49295 1.2132,1.99178 -0.17992,0.63606 -0.16439,1.31304 0.0607,1.91735 0.31679,0.83961 0.99589,1.45379 1.90359,1.76106 0.24271,1.0975 1.09185,2.06975 2.14418,2.85433 1.05093,0.78281 2.30293,1.37548 3.35351,1.71203 0.75741,0.24447 1.36384,0.35419 1.81398,0.32879 0.40287,-0.0236 0.68262,-0.15276 0.83326,-0.38947 0.38171,-0.5909 -0.36583,-1.27564 -0.61242,-1.50248 -1.4986,-1.37548 -3.00708,-5.19853 -0.67698,-9.60649 0.0293,-0.0508 0.0452,-0.1076 0.049,-0.16228 0.17816,-0.15275 0.35807,-0.29563 0.53199,-0.43462 0.36231,-0.28751 0.67522,-0.53587 0.89253,-0.79622 0.39899,-0.47519 0.53975,-1.04281 0.39688,-1.59632 -0.0469,-0.18203 -0.12312,-0.35419 -0.22472,-0.51082 0.14075,-0.14676 0.27164,-0.30515 0.39511,-0.47343 0.58279,-0.80398 0.89006,-1.75895 0.88053,-2.69205 0.14852,-0.10583 0.28751,-0.22507 0.41663,-0.35419 0.31503,0.4244 0.6925,0.8121 1.11513,1.14265 0.39335,0.30904 0.7239,0.39899 0.98813,0.38347 0.17604,-0.008 0.32068,-0.0646 0.43639,-0.133 0.17992,-0.10759 0.32279,-0.24482 0.43039,-0.4071 0.13688,0.12135 0.27587,0.24271 0.42439,0.35419 0.35419,0.26423 0.73977,0.49494 1.14864,0.68474 -0.22119,0.69638 -0.33866,1.41464 -0.20355,2.1523 0.13123,0.72566 0.50871,0.89005 0.8001,0.9017 0.0236,0 0.0469,0.002 0.0684,0 0.0159,0 0.0353,-0.002 0.0529,-0.004 -0.38735,1.50671 -0.48719,2.61796 0.0921,3.23991 0.15628,0.17427 0.35595,0.29739 0.59655,0.37182 0.0392,1.10349 0.30127,1.78435 0.78458,2.06411 0.11747,0.0684 0.31115,0.14499 0.56338,0.13123 0.18027,-0.01 0.38947,-0.0684 0.62442,-0.20743 0.73342,-0.44627 1.45944,-1.57516 1.92899,-2.97992 0.36406,-0.10548 0.6985,-0.28151 1.00577,-0.52634 0.33831,-0.27164 0.6163,-0.60431 0.83714,-0.96626 0.0646,0.006 0.12523,0.006 0.18803,0.002 0.33831,-0.0176 0.66322,-0.16615 0.92145,-0.43038 0.52423,-0.53199 0.77082,-1.27953 1.00965,-2.00131 0.27976,-0.85126 0.54364,-1.65347 1.20298,-2.11526 0.25647,-0.1778 0.56162,-0.29739 0.88653,-0.42827 0.40287,-0.15663 0.81774,-0.32103 1.19133,-0.61454 0.69074,-0.53975 2.17981,-2.67053 2.39289,-3.00496 0.37183,-0.58702 0.47554,-1.20721 0.28575,-1.74343"
       style="fill:#013da6;fill-opacity:1;fill-rule:nonzero;stroke:none;stroke-width:0.352778" />
    <path
       id="path21"
       d="m 363.41832,176.13302 c 0.22895,0 0.39829,-0.12841 0.4766,-0.3623 l 0.16157,-0.40711 c 0.0737,-0.1591 0.0145,-0.34219 -0.1397,-0.42827 -0.0459,-0.0254 -0.0984,-0.0356 -0.15098,-0.0286 -0.77188,0.0942 -1.56669,0.14394 -2.298,0.14394 -0.41486,0 -0.83502,-0.0169 -1.1871,-0.048 -0.0205,-0.001 -0.0399,-3.5e-4 -0.0593,0.002 -0.1905,0.0307 -0.34819,0.15557 -0.44415,0.35172 -0.006,0.0113 -0.0102,0.0226 -0.0145,0.0346 -0.0166,0.0505 -0.0416,0.10619 -0.0691,0.16651 -0.0303,0.0667 -0.0646,0.14182 -0.091,0.22225 -0.0515,0.15593 -0.0145,0.25929 0.0257,0.31891 0.09,0.13229 0.2413,0.13088 0.29316,0.13088 0.35031,-0.007 0.40428,0.0582 0.40499,0.0589 0.0342,0.0522 -0.0723,0.35983 -0.11818,0.49142 -0.4445,1.28658 -1.34903,1.99531 -2.54671,1.99531 -0.55209,0 -0.96908,-0.16828 -1.24001,-0.50024 -0.57221,-0.70132 -0.39511,-1.94592 -0.29245,-2.44863 0.24235,-1.18533 0.92075,-2.56152 1.77059,-3.59128 0.70908,-0.85937 1.85737,-1.88418 3.29918,-1.88418 0.59513,0 1.02728,0.1598 1.28446,0.47448 0.23495,0.28787 0.31538,0.71755 0.22119,1.17828 -0.14323,0.70167 -0.70309,1.42699 -1.39171,1.42699 -0.17251,0 -0.30198,-0.0515 -0.38453,-0.15276 -0.0988,-0.12065 -0.13193,-0.3182 -0.0889,-0.52881 0.0353,-0.17251 0.11078,-0.31256 0.22367,-0.41593 0.0949,-0.0864 0.11959,-0.21942 0.0603,-0.32279 -0.127,-0.22119 -0.3242,-0.32879 -0.6029,-0.32879 -0.54186,0 -1.18921,0.42334 -1.33385,1.13207 -0.0737,0.36018 0.004,0.69356 0.22543,0.96414 0.33408,0.40957 0.97507,0.65405 1.71379,0.65405 0.92569,0 1.75507,-0.24906 2.39854,-0.72037 0.59055,-0.43251 0.98848,-1.02729 1.12077,-1.67499 0.12912,-0.63147 -0.0201,-1.25342 -0.42086,-1.75119 -0.57186,-0.7105 -1.61079,-1.11231 -2.927,-1.1303 l -0.0173,3.5e-4 c -1.67745,0.10407 -3.38631,0.83961 -4.81153,2.07081 -1.37689,1.18921 -2.34421,2.74179 -2.6543,4.25979 -0.27446,1.34232 -0.0543,2.53647 0.61983,3.36268 0.62547,0.76588 1.58115,1.17087 2.76437,1.17087 1.02552,0 1.88524,-0.32103 2.92135,-0.84279 l 0.62371,0.51294 c 0.0106,0.008 0.0215,0.0162 0.036,0.0243 0.10231,0.0564 0.23636,0.0568 0.35878,3.5e-4 0.11006,-0.0508 0.19614,-0.14217 0.23495,-0.24729 l 1.0668,-2.69382 c 0.21131,-0.42333 0.41345,-0.62759 0.97825,-0.64064"
       style="fill:#013da6;fill-opacity:1;fill-rule:nonzero;stroke:none;stroke-width:0.352778" />
    <path
       id="path22"
       d="m 398.26399,171.82609 c 0.005,-0.0236 0.006,-0.048 0.004,-0.0734 -0.0272,-0.30656 -0.0501,-0.63641 -0.0723,-0.95532 -0.0261,-0.37677 -0.0533,-0.76588 -0.0868,-1.11584 -0.0229,-0.28045 -0.17709,-0.3884 -0.2667,-0.42756 -0.097,-0.0423 -0.25964,-0.0684 -0.49107,0.0522 l -0.50553,0.2928 c -0.67169,-0.38064 -1.45732,-0.41133 -1.68945,-0.41133 -1.73602,0 -3.75214,1.07773 -4.1208,2.88148 -0.27305,1.33597 0.65476,2.26343 1.62772,3.09845 0.75671,0.65652 1.42205,1.3148 1.25166,2.14877 -0.17251,0.84384 -0.9391,1.41041 -1.90677,1.41041 -0.57785,0 -1.00612,-0.15029 -1.2386,-0.43498 -0.16581,-0.2032 -0.22472,-0.47449 -0.16545,-0.76447 0.0677,-0.33161 0.29809,-0.61277 0.60078,-0.73342 0.0656,-0.0261 0.121,-0.0773 0.15204,-0.14041 0.0353,-0.0723 0.0371,-0.1531 0.004,-0.22225 -0.16615,-0.34643 -0.49565,-0.52246 -0.97931,-0.52246 -0.60042,0 -1.3021,0.36054 -1.68098,1.03646 0.0155,-0.0593 0.0293,-0.11889 0.0416,-0.17921 0.33055,-1.61608 -0.80716,-2.61656 -1.72121,-3.42089 l -0.055,-0.0483 c -0.6163,-0.55033 -1.25377,-1.11901 -1.12571,-1.7459 0.14993,-0.73236 0.96978,-1.00541 1.45132,-1.00541 1.11654,0 1.54658,0.69779 1.84256,1.44568 0.0811,0.23036 0.30727,0.3683 0.60466,0.3683 0.32773,0 0.71932,-0.18521 0.7807,-0.48436 l 0.01,-0.049 c 0.005,-0.0243 0.006,-0.0487 0.004,-0.0734 -0.0265,-0.30092 -0.0494,-0.62865 -0.0716,-0.94579 l -10e-4,-0.0159 c -0.0261,-0.375 -0.0533,-0.76271 -0.0864,-1.10949 -0.0229,-0.28081 -0.1771,-0.3884 -0.2667,-0.42756 -0.0967,-0.0427 -0.25965,-0.0688 -0.49107,0.0522 l -0.50553,0.2928 c -0.67169,-0.38064 -1.45697,-0.41133 -1.68945,-0.41133 -1.73602,0 -3.75215,1.07773 -4.1208,2.88148 -0.27305,1.33597 0.65476,2.26343 1.62772,3.09845 0.75671,0.65652 1.42205,1.3148 1.25165,2.14877 -0.1725,0.84384 -0.93874,1.41041 -1.90676,1.41041 -0.5782,0 -1.00648,-0.15029 -1.2386,-0.43498 -0.16581,-0.2032 -0.22472,-0.47484 -0.16546,-0.76447 0.0677,-0.33161 0.2981,-0.61277 0.60078,-0.73342 0.0656,-0.0261 0.12101,-0.0776 0.1517,-0.14041 0.0356,-0.0723 0.0374,-0.1531 0.004,-0.22225 -0.16616,-0.34643 -0.49565,-0.52246 -0.97931,-0.52246 -0.762,0 -1.69051,0.57855 -1.90958,1.65064 -0.11042,0.54011 -0.002,1.01565 0.32279,1.41323 0.53551,0.65582 1.65664,1.0474 2.99931,1.0474 2.01401,0 3.7084,-0.97049 4.40937,-2.44122 -0.10371,0.53199 0.005,1.00083 0.32597,1.39382 0.53552,0.65582 1.65664,1.0474 2.99932,1.0474 2.36537,0 4.29118,-1.33809 4.68277,-3.25402 0.3302,-1.61573 -0.75953,-2.57458 -1.7212,-3.42089 l -0.0554,-0.0487 c -0.6163,-0.54998 -1.25342,-1.11866 -1.12536,-1.74555 0.14993,-0.73236 0.96978,-1.00541 1.45133,-1.00541 1.11654,0 1.54657,0.69779 1.84255,1.44568 0.0811,0.23036 0.30727,0.3683 0.60502,0.3683 0.32738,0 0.71896,-0.18521 0.77999,-0.48401 z"
       style="fill:#013da6;fill-opacity:1;fill-rule:nonzero;stroke:none;stroke-width:0.352778" />
    <path
       id="path23"
       d="m 403.09216,177.8012 v 0 l 0.15593,0.0459 0.0631,-0.22013 c 0.03,-0.10337 0.0614,-0.21202 0.0801,-0.27623 0.14993,-0.45332 0.44167,-1.25765 0.80362,-2.21862 h 1.56175 c 0.36054,0 0.68121,0.139 0.87912,0.38171 0.20109,0.24624 0.26459,0.5849 0.1838,0.98002 -0.26741,1.3088 -1.62878,1.99354 -2.83563,1.99354 -0.37747,0 -0.61771,-0.0596 -0.71367,-0.17709 -0.0667,-0.0819 -0.078,-0.21061 -0.0363,-0.41734 0.005,-0.0134 0.008,-0.0272 0.0123,-0.0406 z m 1.69616,-3.82693 c -0.0515,0.002 -0.10302,0.004 -0.15382,0.006 0.35948,-0.93098 0.67628,-1.72296 0.87983,-2.19815 0.30586,-0.73308 0.62054,-1.19557 1.23896,-1.23367 l 0.0215,-0.002 c 0.68827,-0.0265 1.19027,0.121 1.45097,0.42898 0.19191,0.22718 0.25647,0.55315 0.18204,0.91863 -0.0928,0.45297 -0.33338,0.88829 -0.67734,1.22625 -0.0268,0.0261 -0.054,0.0519 -0.0815,0.0766 -0.78599,0.70238 -1.86372,0.74118 -2.81411,0.7754 z m 3.64454,0.52669 c 1.1931,-0.66392 2.01189,-1.61819 2.21051,-2.59044 0.0575,-0.28081 0.13723,-0.99978 -0.35948,-1.60832 -0.53164,-0.65158 -1.54693,-0.98178 -3.01696,-0.98178 -0.36195,0 -0.70591,0.0152 -1.07421,0.0307 l -0.0466,0.002 c -0.32103,0.0159 -0.75706,0.0159 -1.07562,0.0159 -0.59126,0 -0.95956,-0.0233 -1.2312,-0.0406 l -0.10689,-0.006 c -0.15663,-0.0176 -0.2794,-0.0176 -0.39793,-0.0176 -1.76495,0 -3.50626,1.22308 -3.80224,2.67053 -0.0917,0.44838 -0.0131,0.85336 0.22154,1.14053 0.20038,0.24553 0.5013,0.38064 0.84702,0.38064 0.55175,0 1.10667,-0.38876 1.31975,-0.92533 0.0293,-0.0737 0.024,-0.15346 -0.0141,-0.21873 -0.0406,-0.0691 -0.1143,-0.11288 -0.19685,-0.11641 -0.0988,-0.004 -0.17921,-0.0448 -0.23918,-0.12171 -0.0914,-0.11677 -0.1203,-0.29704 -0.0801,-0.49495 0.10654,-0.5207 0.7239,-1.10278 1.3903,-1.10278 0.1972,0 0.33267,0.0483 0.41381,0.14781 0.12382,0.1517 0.14358,0.44027 0.0582,0.85761 -0.0339,0.16651 -0.0818,0.32349 -0.12347,0.45578 -0.41945,1.27318 -1.50812,4.09681 -2.01506,5.27721 -0.35172,0.85231 -0.71544,1.2326 -1.17899,1.2326 -0.25153,0 -0.43356,0.13229 -0.51294,0.37324 -0.0173,0.0526 -0.0441,0.11324 -0.0723,0.17745 -0.0307,0.0695 -0.0653,0.14852 -0.0882,0.21802 -0.0582,0.15733 -0.0116,0.26634 0.0212,0.3175 0.0624,0.097 0.17215,0.14887 0.29351,0.14111 0.68156,-0.0529 1.36772,-0.0642 1.82315,-0.0642 0.9017,0 1.73108,0.0459 2.6102,0.0945 l 0.0325,0.001 c 0.17145,0.0176 0.32632,0.0176 0.47625,0.0176 1.32539,0 2.49167,-0.3616 3.37291,-1.04529 0.73378,-0.56938 1.24918,-1.35678 1.41323,-2.16005 0.12453,-0.6089 -0.0505,-1.44357 -0.87172,-2.05776"
       style="fill:#013da6;fill-opacity:1;fill-rule:nonzero;stroke:none;stroke-width:0.352778" />
    <path
       id="path24"
       d="m 412.56096,178.48721 c -0.16016,0 -0.26599,-0.03 -0.31432,-0.0896 -0.0628,-0.0765 -0.0695,-0.23741 -0.0201,-0.47836 0.0342,-0.16828 0.0854,-0.35172 0.14711,-0.53129 0.006,-0.0106 0.0106,-0.0222 0.0148,-0.0346 0.40182,-1.17087 1.6316,-4.41783 2.12196,-5.56648 0.39052,-0.89111 0.72178,-1.23825 1.1811,-1.23825 0.25153,0 0.43356,-0.13264 0.51294,-0.37324 0.0166,-0.0512 0.0423,-0.10724 0.0705,-0.16933 0.0314,-0.0695 0.0642,-0.14146 0.0864,-0.2099 0.0625,-0.16828 0.0145,-0.28187 -0.0194,-0.33514 -0.0639,-0.0991 -0.17603,-0.15099 -0.29845,-0.139 -0.5274,0.0543 -1.1109,0.0794 -1.83585,0.0794 -0.72708,0 -1.26789,-0.025 -1.70004,-0.0787 -0.0243,-0.003 -0.0494,-0.003 -0.0744,0.001 -0.21978,0.0356 -0.38523,0.16968 -0.45508,0.37006 -0.0169,0.0519 -0.0434,0.11218 -0.0734,0.18027 -0.0321,0.073 -0.0653,0.14817 -0.0889,0.22049 -0.055,0.15804 -0.008,0.26493 0.025,0.31432 0.0596,0.0903 0.16157,0.1397 0.28751,0.1397 0.15593,0 0.25965,0.0303 0.30798,0.0896 0.066,0.0808 0.0727,0.25259 0.0201,0.51082 -0.0356,0.17321 -0.0928,0.37077 -0.15558,0.53375 -0.40181,1.17087 -1.63195,4.41784 -2.1216,5.56648 -0.28222,0.64276 -0.62054,1.2379 -1.18146,1.2379 -0.25153,0 -0.43356,0.13264 -0.51293,0.37359 -0.0169,0.0511 -0.043,0.11113 -0.0723,0.17745 -0.0321,0.0734 -0.0656,0.14887 -0.0903,0.22401 -0.0533,0.15487 -0.0169,0.25894 0.0229,0.31927 0.0332,0.0497 0.11253,0.1337 0.27375,0.1337 l 0.0208,-7.1e-4 c 0.68615,-0.0547 1.26153,-0.0801 1.80975,-0.0801 0.5468,0 1.13347,0.0268 1.74483,0.0801 0.0219,0.002 0.0423,7.1e-4 0.0617,-0.002 0.21978,-0.0356 0.38523,-0.16933 0.45508,-0.36971 0.0166,-0.0512 0.0423,-0.10724 0.0695,-0.16686 0.0318,-0.0706 0.0649,-0.14323 0.0875,-0.21237 0.0487,-0.13088 0.0434,-0.24342 -0.0152,-0.33444 -0.0413,-0.0645 -0.12559,-0.14146 -0.2921,-0.14146"
       style="fill:#013da6;fill-opacity:1;fill-rule:nonzero;stroke:none;stroke-width:0.352778" />
    <path
       id="path25"
       d="m 423.46339,171.87827 0.01,-0.049 c 0.005,-0.0247 0.007,-0.0497 0.004,-0.073 -0.0272,-0.30692 -0.0501,-0.63712 -0.0723,-0.95673 -0.0261,-0.37607 -0.0533,-0.76483 -0.0868,-1.11478 -0.0226,-0.28046 -0.17674,-0.38841 -0.2667,-0.42757 -0.0967,-0.0423 -0.25965,-0.0684 -0.49107,0.0522 l -0.50553,0.29281 c -0.67169,-0.3803 -1.45697,-0.41099 -1.6891,-0.41099 -1.73637,0 -3.7525,1.07774 -4.1208,2.88114 -0.27305,1.33597 0.65441,2.26377 1.62737,3.0988 0.75671,0.65616 1.42205,1.31445 1.25165,2.14877 -0.1725,0.84349 -0.93874,1.4104 -1.90676,1.4104 -0.57785,0 -1.00612,-0.15063 -1.2386,-0.43533 -0.16581,-0.20284 -0.22472,-0.47448 -0.16546,-0.76446 0.0677,-0.33162 0.2981,-0.61243 0.60078,-0.73343 0.0656,-0.0261 0.12101,-0.0773 0.1517,-0.14005 0.036,-0.0727 0.0374,-0.15381 0.005,-0.22225 -0.16616,-0.34678 -0.49566,-0.52247 -0.97967,-0.52247 -0.762,0 -1.69051,0.57856 -1.90958,1.6503 -0.11042,0.5401 -0.002,1.01565 0.32279,1.41323 0.53551,0.65581 1.65664,1.04739 2.99931,1.04739 2.36573,0 4.29119,-1.33808 4.68278,-3.25402 0.33055,-1.61607 -0.80716,-2.6169 -1.72121,-3.42053 l -0.0547,-0.0483 c -0.61665,-0.55034 -1.25412,-1.11937 -1.12606,-1.7459 0.14993,-0.73272 0.96978,-1.00577 1.45132,-1.00577 1.1169,0 1.54658,0.6978 1.84291,1.44604 0.0808,0.23036 0.30692,0.36794 0.60467,0.36794 0.32737,0 0.71896,-0.1852 0.78034,-0.48436"
       style="fill:#013da6;fill-opacity:1;fill-rule:nonzero;stroke:none;stroke-width:0.352778" />
    <path
       id="path26"
       d="m 429.71996,170.38672 c 0.69709,0 1.15746,0.2607 1.40758,0.79728 0.2346,0.50376 0.26423,1.23084 0.0861,2.10291 v 0 c -0.24306,1.18921 -0.87842,2.5601 -1.65805,3.57752 -0.65194,0.85125 -1.70745,1.86584 -3.03248,1.86584 -0.31221,0 -0.89112,-0.0684 -1.26436,-0.52529 -0.39652,-0.48577 -0.4833,-1.29046 -0.25858,-2.39113 0.24024,-1.1751 0.87771,-2.53823 1.66334,-3.5567 0.65829,-0.85337 1.72297,-1.87043 3.05647,-1.87043 m 3.84034,3.40254 c 0.28787,-1.40829 0.0811,-2.59256 -0.59796,-3.42441 -0.64417,-0.78917 -1.67358,-1.20615 -2.97674,-1.20615 -1.69121,0 -3.38702,0.67875 -4.7752,1.9117 -1.29963,1.15429 -2.22955,2.7178 -2.55058,4.28978 -0.29034,1.41887 -0.0822,2.6035 0.60148,3.42547 0.65511,0.78846 1.70569,1.20509 3.03813,1.20509 1.67252,0 3.35386,-0.68368 4.73463,-1.92546 1.28658,-1.15711 2.20733,-2.71568 2.52624,-4.27602"
       style="fill:#013da6;fill-opacity:1;fill-rule:nonzero;stroke:none;stroke-width:0.352778" />
    <path
       id="path27"
       d="m 445.29564,169.46132 v 0 c -0.0642,-0.0995 -0.17498,-0.15134 -0.29774,-0.13935 -0.54117,0.0543 -1.13524,0.0797 -1.86902,0.0797 -0.7359,0 -1.28693,-0.0254 -1.73285,-0.079 -0.0247,-0.003 -0.0494,-0.003 -0.0741,0.001 -0.21978,0.0356 -0.38523,0.16968 -0.45473,0.37006 -0.0176,0.0529 -0.0455,0.11642 -0.0744,0.18168 -0.0317,0.0723 -0.0645,0.14711 -0.0882,0.21908 -0.0547,0.15839 -0.007,0.26528 0.0251,0.31432 0.0596,0.0903 0.16192,0.1397 0.28751,0.1397 0.34361,0 0.56692,0.0607 0.66463,0.18027 0.0762,0.0935 0.0882,0.24306 0.0388,0.48507 -0.0275,0.13441 -0.0702,0.28116 -0.12347,0.42616 -0.008,0.0141 -0.0141,0.0286 -0.0187,0.043 -0.23707,0.69357 -0.97649,2.65889 -1.49472,4.00897 l -0.9652,-5.99652 c -0.0423,-0.2487 -0.22437,-0.375 -0.54045,-0.375 -0.0109,0 -0.0222,7.1e-4 -0.036,0.002 -0.38029,0.0529 -0.87736,0.0787 -1.51906,0.0787 -0.78034,0 -1.49895,-0.0487 -1.76918,-0.0794 -0.0236,-0.003 -0.0476,-0.002 -0.0699,10e-4 -0.22013,0.0356 -0.38559,0.16968 -0.45508,0.37006 -0.0173,0.0529 -0.0452,0.11642 -0.0741,0.18168 -0.0318,0.0723 -0.0645,0.14711 -0.0882,0.21908 -0.0547,0.15804 -0.008,0.26493 0.025,0.31432 0.0593,0.0903 0.16157,0.1397 0.28751,0.1397 0.35384,0 0.55175,0.0494 0.64206,0.15981 0.0787,0.0963 0.0928,0.27199 0.0416,0.52176 -0.0303,0.14922 -0.0776,0.30444 -0.12276,0.45296 -0.39652,1.16205 -1.61043,4.41431 -2.10714,5.57001 -0.34396,0.8188 -0.87172,1.23402 -1.5681,1.23402 -0.25153,0 -0.43392,0.13264 -0.51294,0.37359 -0.0169,0.0515 -0.0437,0.11183 -0.073,0.17886 -0.0321,0.073 -0.0653,0.14922 -0.0875,0.2166 -0.0582,0.15734 -0.0117,0.26635 0.0212,0.3175 0.0572,0.0885 0.15911,0.14182 0.27305,0.14182 l 0.0208,-0.001 c 0.64876,-0.0515 1.30316,-0.0801 1.8422,-0.0801 0.54399,0 1.15782,0.0279 1.77518,0.0801 0.008,7.1e-4 0.0155,0.001 0.0233,0.001 0.0141,0 0.0279,-0.001 0.0406,-0.004 0.22014,-0.0353 0.38559,-0.16933 0.45509,-0.36971 0.0166,-0.0508 0.0423,-0.10689 0.0698,-0.16757 0.0317,-0.0702 0.0649,-0.14287 0.0871,-0.21166 0.0487,-0.13088 0.0434,-0.24307 -0.0152,-0.33479 -0.0413,-0.0642 -0.12559,-0.14111 -0.2921,-0.14111 -0.35348,0 -0.58032,-0.0582 -0.67416,-0.17286 -0.0691,-0.0847 -0.0815,-0.22649 -0.0388,-0.44485 0.009,-0.0258 0.018,-0.0547 0.0272,-0.0868 l 0.12489,-0.42968 c 0.31679,-0.92781 1.3148,-3.69535 2.0955,-5.60388 0.58208,2.77319 1.16734,7.28557 1.18074,7.51488 10e-4,0.0201 0.005,0.0395 0.01,0.0554 0.0977,0.33126 0.3817,0.33126 0.4886,0.33126 h 0.32878 l 0.0427,-7.1e-4 c 0.90311,-0.0173 1.11795,-0.0215 1.276,-0.33513 0.006,-0.0117 0.0106,-0.0233 0.0148,-0.036 0.72708,-2.16852 1.89865,-5.43242 2.81023,-7.50005 0.33161,-0.82762 0.8442,-1.23014 1.56669,-1.23014 0.25118,0 0.43356,-0.13229 0.51294,-0.37324 0.0166,-0.0501 0.0416,-0.10583 0.0691,-0.16651 0.0321,-0.0702 0.0649,-0.14287 0.0878,-0.21272 0.0624,-0.16793 0.0145,-0.28187 -0.0194,-0.33479"
       style="fill:#013da6;fill-opacity:1;fill-rule:nonzero;stroke:none;stroke-width:0.352778" />
    <path
       id="path28"
       d="m 378.21098,171.62236 -0.0593,0.62759 -0.33619,2.59221 -0.0229,0.11219 c -0.39864,-0.37148 -0.80469,-0.65335 -1.2312,-0.85514 z m 2.08421,6.86188 c -0.18485,0 -0.30515,-0.0409 -0.39017,-0.13264 -0.13441,-0.14394 -0.18768,-0.42157 -0.15875,-0.82198 l 0.27658,-3.25437 c 0.0508,-0.56868 0.11606,-1.14053 0.17885,-1.69404 0.031,-0.26952 0.0617,-0.53975 0.091,-0.81139 l 0.2152,-1.99813 c 0.0212,-0.12171 -0.005,-0.23495 -0.0748,-0.31927 -0.0713,-0.0857 -0.18239,-0.13511 -0.3048,-0.13511 -0.0134,0 -0.0272,0.001 -0.0385,0.003 -0.18309,0.0275 -0.67274,0.0459 -1.21849,0.0459 -0.48189,0 -0.9779,-0.0183 -1.29328,-0.0473 -0.0219,-0.002 -0.0448,-10e-4 -0.0667,0.002 -0.22895,0.0367 -0.35136,0.20038 -0.4452,0.36336 l -0.18945,0.37218 c -0.0113,0.0222 -0.0194,0.0455 -0.0243,0.0691 -0.0229,0.11183 0.001,0.21802 0.0674,0.29951 0.0625,0.0766 0.15523,0.1203 0.25436,0.1203 0.11183,0 0.14534,0.0183 0.14922,0.0208 0.002,0.009 0.0159,0.0991 -0.12312,0.33655 l -1.94204,2.82258 c -0.29669,-0.0564 -0.53516,-0.0836 -0.72672,-0.0836 -0.99378,0 -2.08104,0.31115 -2.9838,0.85372 -0.93415,0.56162 -1.55645,1.30669 -1.70709,2.04364 -0.0346,0.17004 -0.0434,0.3295 -0.0261,0.47555 -0.8689,0.92145 -1.8281,1.46967 -2.57705,1.46967 h -0.2106 c -0.45156,0 -0.74331,-0.0797 -0.84349,-0.23072 -0.11995,-0.18027 -0.0208,-0.54045 0.10371,-0.90311 l 0.27834,-0.80751 c 0.39864,-1.12253 1.41782,-3.81176 1.82739,-4.75932 0.39088,-0.89112 0.72214,-1.23825 1.18145,-1.23825 0.25154,0 0.43357,-0.13229 0.51294,-0.37324 0.0169,-0.0508 0.0423,-0.10724 0.0698,-0.16757 0.0317,-0.0702 0.0646,-0.14252 0.0871,-0.21167 0.0624,-0.16792 0.0145,-0.28186 -0.0194,-0.33443 -0.0572,-0.0896 -0.15628,-0.14111 -0.27164,-0.14111 l -0.0261,0.001 c -0.54151,0.0543 -1.13524,0.0797 -1.86901,0.0797 -0.73555,0 -1.28694,-0.0254 -1.73285,-0.079 -0.024,-0.003 -0.049,-0.003 -0.0737,0.001 -0.22013,0.0353 -0.38558,0.16933 -0.45508,0.36971 -0.0173,0.0522 -0.0441,0.11324 -0.0727,0.17815 -0.0321,0.0734 -0.0656,0.14958 -0.0896,0.2226 -0.055,0.15805 -0.008,0.26494 0.0251,0.31468 0.0596,0.09 0.16157,0.13935 0.28716,0.13935 0.15593,0 0.25964,0.0303 0.30833,0.0896 0.0656,0.0808 0.0723,0.25258 0.0197,0.51117 -0.0321,0.15558 -0.0825,0.33549 -0.13935,0.49565 -0.006,0.012 -0.0116,0.0243 -0.0159,0.0374 -0.34114,0.98919 -1.29364,3.61385 -1.76354,4.76003 l -0.34572,0.81491 c -0.41028,1.02412 -0.75494,1.23014 -1.17792,1.23014 -0.24201,0 -0.42828,0.13723 -0.51188,0.37712 l -0.18274,0.42792 c -0.007,0.0169 -0.0123,0.0339 -0.0159,0.0515 -0.0229,0.11148 0.001,0.21732 0.067,0.29845 0.0628,0.0769 0.15699,0.12136 0.26599,0.12136 h 7.1e-4 c 1.12042,-0.0522 2.28388,-0.0808 3.27589,-0.0808 1.06998,0 2.21192,0.0265 3.49815,0.0811 0.23848,0 0.44873,-0.11253 0.59372,-0.31785 l 0.92957,-1.52118 c 0.0917,0.0166 0.18592,0.025 0.27693,0.025 0.61631,0 1.17899,-0.40005 1.39983,-0.99554 0.0275,-0.0741 0.0208,-0.15346 -0.0187,-0.21802 -0.0416,-0.0674 -0.11536,-0.10936 -0.19685,-0.11183 -0.15769,-0.005 -0.26776,-0.0451 -0.32703,-0.11994 -0.0917,-0.11606 -0.073,-0.32526 -0.0413,-0.48048 0.11183,-0.54646 0.63253,-1.17052 1.75683,-1.282 0.23918,-0.0205 0.54822,0.002 0.90347,0.067 l -1.60867,2.35479 c -0.47449,0.6544 -1.05551,1.32327 -1.76848,1.32327 -0.23036,0 -0.41557,0.12841 -0.52175,0.3616 l -0.1711,0.37747 c -0.0815,0.15522 -0.0455,0.27164 -0.0169,0.32738 0.055,0.10618 0.17251,0.16933 0.3048,0.16051 0.60467,-0.0522 1.17405,-0.0801 1.64607,-0.0801 0.46848,0 1.00541,0.0272 1.60443,0.0808 l 0.0145,3.5e-4 c 0.0145,0 0.0293,-0.001 0.0416,-0.004 0.19897,-0.0318 0.36724,-0.16086 0.4639,-0.35842 l 0.17639,-0.3877 c 0.008,-0.0187 0.0148,-0.0381 0.019,-0.0586 0.0247,-0.12101 0.003,-0.23107 -0.0614,-0.30974 -0.0582,-0.0713 -0.14464,-0.11007 -0.24412,-0.11007 -0.33479,0 -0.44274,-0.0716 -0.47766,-0.11395 -0.0349,-0.043 -0.0402,-0.11324 -0.0166,-0.22754 0.0296,-0.14534 0.12311,-0.34219 0.24553,-0.51647 l 0.0765,-0.11324 c 0.17251,-0.25506 0.38735,-0.57256 0.53199,-0.80751 l 1.03223,-1.45556 c 1.03787,0.65652 1.66229,1.63583 1.64006,2.58551 -0.036,0.29422 -0.0967,0.47061 -0.1912,0.55492 -0.0709,0.0632 -0.18451,0.0938 -0.34714,0.0938 -0.23001,0 -0.41557,0.12841 -0.5214,0.3616 l -0.1711,0.37712 c -0.0818,0.15592 -0.0455,0.27234 -0.0173,0.32737 0.0571,0.11042 0.17816,0.17392 0.30974,0.16052 0.40076,-0.042 0.90841,-0.0635 1.50848,-0.0635 0.54998,0 1.17122,0.0212 1.90288,0.0646 0.0169,7e-4 0.0346,-3.6e-4 0.0526,-0.003 0.19896,-0.0318 0.36724,-0.16086 0.4639,-0.35842 l 0.17674,-0.38876 c 0.008,-0.018 0.0145,-0.0374 0.0187,-0.0575 0.0247,-0.12101 0.003,-0.23107 -0.0617,-0.30974 -0.0578,-0.0713 -0.14464,-0.11007 -0.24412,-0.11007"
       style="fill:#013da6;fill-opacity:1;fill-rule:nonzero;stroke:none;stroke-width:0.352778" />
  </g>
</svg>
