<?xml version="1.0" encoding="UTF-8" standalone="no"?>
<!-- Created with Inkscape (http://www.inkscape.org/) -->

<svg
   width="145.47766mm"
   height="96.74762mm"
   viewBox="0 0 145.47766 96.747622"
   version="1.1"
   id="svg1"
   xmlns="http://www.w3.org/2000/svg"
   xmlns:svg="http://www.w3.org/2000/svg">
  <defs
     id="defs1" />
  <g
     id="layer1"
     transform="translate(-286.55526,-107.1737)">
    <path
       id="path15"
       d="m 429.45438,147.13036 c -0.0875,0.50165 -2.25107,-0.11148 -2.63384,-0.0825 -0.20955,0.0141 -0.47307,0.13899 -0.46813,0.38382 0.002,0.12065 0.061,0.23248 0.12347,0.3362 0.20284,0.33831 0.7747,1.3148 1.2894,0.98566 0.13935,-0.0892 0.22754,-0.23707 0.33302,-0.36442 0.39547,-0.47766 0.97755,0.037 1.15747,0.45544 0.53445,1.24354 -1.90253,1.63583 -2.63208,1.66158 -0.53657,0.019 -1.35149,0.005 -1.7586,-0.41769 -0.75177,-0.7807 0.67099,-0.59443 0.62548,-1.1617 -0.008,-0.10442 -0.0571,-0.20037 -0.0998,-0.29598 -0.39828,-0.8897 -0.35524,-1.98613 0.59267,-2.48743 1.01565,-0.53764 2.23732,-0.42334 3.13443,0.29386 0.17533,0.14041 0.37359,0.47555 0.33655,0.69321 m -5.40985,-4.65349 c -0.65405,-0.62865 -1.38183,-1.4538 -1.44991,-1.55928 -0.44733,-0.6918 -0.31327,-1.54093 -0.57221,-2.29129 -0.0543,-0.15805 -0.10336,-0.32738 -0.0649,-0.49001 0.24659,-1.04352 1.82809,0.35137 2.038,0.75918 0.40816,0.79234 0.16333,1.74907 0.47801,2.57034 0.12312,0.32067 0.83009,1.30669 0.65546,1.61889 -0.24588,0.43921 -0.9017,-0.43215 -1.08444,-0.60783 m 0.80857,-5.092 c 0.2353,-0.80503 1.53317,0.6985 0.83961,1.36455 -0.6865,0.65934 -0.95779,-0.9592 -0.83961,-1.36455 m -3.71687,2.44052 c -0.10019,0.35948 -0.33866,0.58526 -0.7627,0.23283 -0.27764,-0.23107 -0.44309,-0.58949 -0.77788,-0.75388 -0.97366,-0.47802 -1.95544,0.0617 -2.85115,-0.75459 -0.5207,-0.47449 -0.59337,-1.0086 0.24836,-1.0474 0.47766,-0.0222 1.23049,0.26282 1.16805,-0.51118 -0.0938,-1.15816 1.36101,0.0945 1.65135,0.36266 0.46743,0.43145 1.05375,0.89852 1.30457,1.52259 0.0896,0.22331 0.10654,0.63641 0.0194,0.94897 m -0.83185,11.78348 c -0.1651,0.10055 -0.41451,0.15699 -0.57326,0.18415 -1.08268,0.18521 -2.2539,-0.49318 -2.63349,-1.52329 -0.16474,-0.44626 -0.13123,-0.96308 0.20603,-1.32609 0.57961,-0.62301 0.77963,0.28116 0.9592,0.6865 0.24271,0.54787 0.75424,0.94121 1.2961,1.1677 0.24377,0.10195 0.66076,0.16474 0.83432,0.38417 0.1517,0.19227 0.0702,0.32985 -0.0889,0.42686 m -4.40266,-9.0237 c 0.0113,-0.121 0.0568,-0.2346 0.0811,-0.35172 0.0741,-0.38417 -0.83962,-1.17298 -0.47661,-1.44356 0.72637,-0.54293 1.32221,0.34819 1.73849,0.80786 0.45967,0.5087 1.08585,0.76059 1.76318,0.79445 0.21167,0.0113 0.49742,0.0152 0.66958,0.17427 0.11536,0.10584 0.13793,0.21167 0.10618,0.30622 -0.0455,0.1344 -0.20073,0.24588 -0.36512,0.2988 -0.34255,0.11183 -0.51859,0.27834 -0.65088,0.6283 -0.28751,0.7567 -0.89464,0.50306 -1.4358,0.13229 -0.30092,-0.20603 -0.59408,-0.41416 -0.90417,-0.60713 -0.27058,-0.16828 -0.5581,-0.38206 -0.52599,-0.73978 m -11.34075,-2.73544 c -0.40675,0.0681 -0.82867,-0.50694 -1.14829,-0.70167 -0.45967,-0.28187 -0.96097,-0.49742 -1.37125,-0.85126 -0.27834,-0.24024 -0.50341,-0.65263 -0.46178,-1.02905 0.0321,-0.29527 0.52987,-0.81527 0.8382,-0.55421 0.0529,0.0452 0.0907,0.10583 0.13052,0.16439 0.27058,0.38594 0.68863,0.68122 1.09891,0.89853 0.39334,0.2099 0.81738,0.45226 1.08585,0.81527 0.11747,0.1591 0.20637,0.43321 0.20249,0.68862 -0.004,0.22719 -0.11536,0.52599 -0.37465,0.56938 m -3.35492,-13.49022 c -0.18803,0.0942 0.004,0.45367 -0.11183,0.60678 -0.0388,0.0515 -0.0995,0.0825 -0.16086,0.10301 -0.40499,0.13511 -0.8756,-0.0106 -1.27918,-0.0871 -0.49212,-0.0931 -0.98636,-0.1778 -1.48519,-0.22366 -0.33302,-0.0307 -0.48542,0.0663 -0.53375,0.39688 -0.0864,0.59019 -0.84032,0.56903 -1.28376,0.51505 -0.9585,-0.11712 -1.91453,-0.36971 -2.88078,-0.15945 -0.17216,0.0374 -0.61772,0.25506 -0.56868,0.48965 0.0131,0.0635 0.0688,0.11113 0.12982,0.133 0.58949,0.21237 1.27212,-0.0233 1.88736,0.16545 0.49283,0.1517 0.52282,0.53446 0.0759,0.76835 -1.1243,0.58879 -2.65571,0.65864 -3.6195,1.52153 -0.18556,0.16651 -0.49001,0.54434 -0.12312,0.67593 0.29845,0.10689 0.69074,-0.0949 0.95991,-0.20638 0.35524,-0.14711 0.70026,-0.32173 1.07209,-0.42333 0.32279,-0.0878 1.04387,-0.096 0.92534,0.43638 -0.03,0.13547 -0.11819,0.25048 -0.2152,0.34996 -0.70838,0.72566 -1.61537,1.10031 -2.1089,2.03764 -0.0907,0.17251 -0.16757,0.35384 -0.28787,0.50695 -0.35525,0.4519 -2.22532,0.79763 -1.58468,-0.18698 0.10478,-0.16086 0.25047,-0.29174 0.3556,-0.45261 0.37783,-0.57679 -0.86819,-0.17992 -1.05657,-0.0586 -0.3489,0.22507 -0.50835,0.59055 -0.7299,0.92322 -0.23212,0.34925 -0.51435,0.61877 -0.90417,0.7874 -0.4198,0.18133 -0.92533,0.17039 -1.30951,0.42157 -0.27446,0.17921 -0.45508,0.47413 -0.53093,0.78951 -0.0653,0.27341 0.005,0.61842 -0.12911,0.86431 -0.21873,0.40146 -0.72002,0.0748 -0.93733,-0.14923 -0.40781,-0.42051 -0.60643,-1.02905 -0.47167,-1.60549 0.16404,-0.70238 0.76412,-1.00894 1.282,-1.43404 0.58208,-0.47801 -1.18322,-0.71402 -0.43251,-1.1557 0.43709,-0.25717 0.89994,-0.381 1.36807,-0.55845 0.27764,-0.10477 0.54081,-0.2607 0.69886,-0.51823 0.25964,-0.42333 0.33196,-0.83432 0.77434,-1.12642 0.29916,-0.19755 0.64488,-0.30938 0.99448,-0.37712 0.29704,-0.0579 0.69427,-0.0272 0.95815,-0.1852 0.40005,-0.23954 0.11712,-0.6784 -0.2279,-0.77682 -0.70555,-0.20038 -1.44885,0.17815 -2.12231,0.34607 -0.61454,0.15276 -1.24072,0.0212 -1.86055,-0.0148 -0.38664,-0.0226 -0.77187,0.0236 -1.12889,0.18027 -0.35912,0.15734 -0.67698,0.39264 -1.05057,0.52317 -0.40075,0.1397 -0.96202,0.0713 -0.76623,-0.5133 0.20496,-0.61242 0.99518,-0.94332 1.43898,-1.35748 0.26882,-0.25083 0.48436,-0.57997 0.81139,-0.7613 0.35877,-0.19932 0.77928,-0.18768 1.17581,-0.21837 0.33443,-0.0257 1.36348,-0.24941 0.89288,-0.78528 -0.0688,-0.0783 -0.15946,-0.13476 -0.25118,-0.18486 -0.52776,-0.28963 -1.08691,-0.36936 -1.67993,-0.35277 -0.61207,0.0169 -1.20756,0.33266 -1.82315,0.41451 -0.75424,0.10019 -1.48661,-0.16722 -2.20592,-0.35172 -0.38771,-0.0995 -0.78599,-0.1905 -1.18851,-0.19473 -0.24307,-0.002 -1.09961,0.0854 -1.00048,0.51011 0.0201,0.0871 0.10689,0.14076 0.1905,0.17322 0.45649,0.17568 0.99095,0.0208 1.44463,0.22966 0.16474,0.0758 0.41028,0.28398 0.2861,0.48824 -0.0455,0.0744 -0.12489,0.12241 -0.20673,0.15416 -0.35877,0.139 -0.83538,0.16087 -1.21849,0.21731 -0.50589,0.0744 -1.016,0.11889 -1.52718,0.13265 -1.15535,0.031 -2.39854,-0.15769 -3.43641,0.51047 -0.53622,0.34502 -1.01035,0.75706 -1.6517,0.889 -0.50059,0.10301 -1.01812,0.12206 -1.50954,0.27023 -0.40075,0.12065 -0.72108,0.39405 -1.07809,0.60007 -0.26705,0.15381 -0.67451,0.1083 -0.74013,-0.24553 -0.1337,-0.71685 0.81951,-1.27812 1.35255,-1.5173 0.47273,-0.21167 0.97685,-0.31679 1.46297,-0.48648 0.29422,-0.10266 0.91476,-0.23283 0.96626,-0.61172 0.0441,-0.32385 -0.35172,-0.60289 0.20179,-0.68192 0.25965,-0.037 0.514,0.0586 0.77153,0.0677 0.11818,0.004 0.72883,-0.0773 0.502,-0.31503 -0.22719,-0.23742 -0.73448,-0.19756 -1.02941,-0.28223 -0.0744,-0.0215 -0.15275,-0.049 -0.20002,-0.11041 -0.22225,-0.28964 0.58667,-0.49284 0.74083,-0.52317 0.25153,-0.0494 0.50835,-0.0727 0.75495,-0.14358 0.34078,-0.0984 0.51152,-0.42334 0.11571,-0.5895 -0.71791,-0.30197 -1.43475,-0.62441 -2.16041,-0.90522 -0.5267,-0.20391 -1.09785,-0.20285 -1.65136,-0.14253 -0.22507,0.0247 -1.00189,0.21873 -0.88864,-0.24235 0.1979,-0.80716 1.46508,-0.97685 2.12654,-0.93275 0.64982,0.043 1.24883,0.32773 1.85385,0.5394 0.79481,0.27799 1.6263,0.20496 2.36714,0.64029 0.60254,0.35419 1.29328,0.55704 1.99178,0.58455 0.35701,0.0145 1.04316,0.0857 1.26294,-0.28116 0.28575,-0.47731 -0.52211,-0.62018 -0.82338,-0.6664 -0.25047,-0.0384 -0.50235,-0.0494 -0.75494,-0.0656 -0.50306,-0.0321 -1.04846,-0.20497 -1.45274,-0.51118 -0.39758,-0.30092 -0.32844,-0.79057 0.22789,-0.74013 0.41064,0.0374 0.76518,0.20708 1.18639,0.1965 0.39617,-0.01 0.76765,-0.11254 1.15253,-0.19332 0.47731,-0.10054 0.99801,-0.0462 1.48484,-0.0713 0.75741,-0.0392 1.50248,-0.20532 2.26413,-0.18521 0.4445,0.0116 0.90558,0.0801 1.31057,0.2727 0.40111,0.1905 0.74647,0.45896 1.19415,0.54433 0.45755,0.0871 0.58667,-0.30374 0.39335,-0.66428 -0.52282,-0.97649 -1.76424,-1.26294 -2.72133,-1.61325 -0.17921,-0.066 -0.32456,-0.26212 -0.0998,-0.38806 0.073,-0.0409 0.15911,-0.0504 0.24271,-0.0561 0.63818,-0.0448 1.30528,0.0448 1.88631,0.32173 0.56444,0.26882 0.87418,0.78458 1.3529,1.15888 0.41945,0.32808 0.92992,0.49495 1.42699,0.66604 0.59654,0.20532 1.19909,0.38912 1.80234,0.57503 0.14076,0.0438 0.2861,0.0875 0.43286,0.0723 0.16792,-0.0176 0.39158,-0.16933 0.33302,-0.36477 -0.024,-0.0808 -0.085,-0.14535 -0.14676,-0.2025 -0.35031,-0.3242 -0.91863,-0.43638 -1.10737,-0.92145 -0.0226,-0.0579 -0.0367,-0.12277 -0.0173,-0.18239 0.21801,-0.67663 1.76777,0.57785 2.02353,0.0677 0.0508,-0.10125 0.0416,-0.22084 0.0374,-0.33444 -0.0116,-0.31961 0.14147,-0.56868 0.46849,-0.61277 0.68439,-0.0924 1.31057,0.23918 1.89901,0.53869 0.42933,0.21872 0.85407,0.44626 1.27352,0.68298 0.38453,0.2166 0.81668,0.39052 0.98884,0.82902 0.0642,0.16369 0.10689,0.33691 0.19438,0.48931 0.17992,0.31362 0.48789,0.40569 0.81174,0.50059 0.86184,0.25294 1.54129,0.65087 2.298,1.11019 0.46672,0.28328 0.93944,0.13617 1.44356,0.19685 0.88865,0.10689 1.3776,0.98637 1.77694,1.68663 0.24272,0.4251 -0.21201,0.47272 -0.51364,0.43533 -0.32209,-0.0395 -0.64699,-0.0974 -0.96979,-0.12418 -0.0639,-0.005 -0.11006,0.002 -0.14358,0.0191 m -0.84172,2.71639 c -0.72038,0.15028 -1.66265,0.13335 -1.91665,0.12841 -0.10018,-0.002 -0.20567,-0.01 -0.28963,-0.0649 -0.52528,-0.3429 0.59973,-0.6664 0.80328,-0.71296 0.47202,-0.10866 0.95779,-0.14112 1.43722,-0.20003 0.22154,-0.0272 0.77258,-0.0691 0.8576,0.22543 0.11006,0.38311 -0.66252,0.57608 -0.89182,0.62406 m 0.49106,3.27731 c -0.002,0.002 -0.002,0.006 -0.004,0.007 -0.11924,0.28187 -0.15134,0.54857 -0.091,0.84738 0.0589,0.28963 0.16651,0.5789 0.0589,0.87418 -0.12312,0.34219 -0.45438,0.56374 -0.77752,0.73201 -0.34043,0.17604 -0.79658,0.34819 -0.98954,0.70556 -0.19297,0.36124 0.10406,0.7433 -0.0529,1.11054 -0.18909,0.44627 -0.90805,0.23636 -1.17652,0.002 -0.32737,-0.28752 -0.57538,-0.79834 -0.42015,-1.22767 0.34043,-0.94403 1.2827,-1.47567 1.55504,-2.47615 0.11148,-0.41239 0.4258,-0.74154 0.81351,-0.91016 0.33267,-0.14358 1.35995,-0.32138 1.08408,0.33514 m -4.9149,18.93005 c -0.47096,-0.31785 -0.77364,-0.84737 -0.75847,-1.4224 0.013,-0.45614 0.39335,-1.45309 1.01388,-1.29399 0.32526,0.0811 0.35208,0.47272 0.3556,0.74718 0.004,0.3422 0.0589,0.68087 0.13829,1.01212 0.066,0.27411 0.19474,0.54469 0.20602,0.83785 0.0208,0.64135 -0.64699,0.32526 -0.95532,0.11924 m -0.93239,-14.92532 c -0.0208,0.27234 0.007,0.61454 -0.24977,0.78669 -0.38417,0.25365 -0.85125,0.0247 -1.08585,-0.31221 -0.30091,-0.43497 -0.25541,-0.90593 -0.0889,-1.38077 0.17957,-0.50694 0.3235,-0.92886 0.37818,-1.46614 0.0815,-0.82092 1.74061,-1.56986 1.77659,-0.39335 0.004,0.11924 0,0.23072 -0.008,0.33867 -0.0342,0.41804 -0.16263,0.76235 -0.40287,1.15958 -0.23284,0.38382 -0.28575,0.83044 -0.31962,1.26753 m -0.58279,6.72288 c -0.0833,0.39547 -0.65264,1.08021 -1.09149,1.05552 -0.49565,-0.0265 -0.49954,-0.44627 -0.33655,-0.81527 0.12841,-0.2914 0.32914,-0.66005 0.60148,-0.83609 0.35384,-0.22719 0.86078,0.12312 0.83609,0.52776 -0.002,0.0226 -0.006,0.0455 -0.01,0.0681 m -3.20957,-3.16653 c -0.19015,-0.10336 -0.37253,-0.21802 -0.51823,-0.36689 -0.26741,-0.2734 -0.15875,-0.56726 -0.0547,-0.88265 0.0688,-0.20884 0.097,-0.43497 0.0561,-0.65264 -0.066,-0.34889 -0.40569,-0.71825 -0.007,-1.01564 0.58984,-0.43992 1.13135,0.21978 1.38394,0.70379 0.25436,0.48683 0.50306,0.98072 0.82586,1.42734 0.26493,0.36724 0.66004,0.62371 0.93874,0.98107 0.15875,0.20391 0.3302,0.5909 0.20496,0.84667 -0.2092,0.42686 -0.8068,0.12947 -1.09079,-0.0395 -0.39405,-0.23495 -0.78352,-0.47766 -1.18075,-0.70768 -0.17497,-0.10124 -0.37041,-0.19226 -0.55809,-0.29386 m -2.77177,5.44301 c -0.15099,0.24941 -0.39441,0.35278 -0.70027,0.13335 -0.42227,-0.30304 -0.68121,-1.14441 -0.54469,-1.64677 0.15452,-0.56832 0.7994,-0.38347 1.11055,-0.0628 0.37959,0.39052 0.41134,1.11866 0.13441,1.57621 m -0.62266,3.47345 c -0.0825,0.23248 -0.29245,0.40217 -0.51823,0.48472 -0.002,7e-4 -0.005,0.001 -0.007,0.002 -0.67099,0.23989 -1.42205,0.0286 -2.04823,-0.24659 -0.33267,-0.14605 -0.67839,-0.30727 -0.94192,-0.56409 -0.29316,-0.28575 -0.41733,-0.68262 -0.61665,-1.03399 -0.45121,-0.79551 -1.39736,-1.03293 -1.9177,-1.74166 -0.26459,-0.36019 0.0603,-0.72849 0.4512,-0.74119 0.40993,-0.013 0.76341,0.25682 1.15499,0.33514 0.76236,0.1524 1.7325,0.11395 2.06905,0.97719 0.19896,0.51047 0.21237,1.0661 0.73554,1.36455 0.44167,0.25188 1.92969,0.34396 1.639,1.16346 m -3.98145,5.19994 c -0.0307,0.042 -0.073,0.0759 -0.12982,0.0995 -0.10301,0.043 -0.22013,0.0325 -0.32985,0.0102 -0.7306,-0.14605 -1.84361,-0.6724 -2.3883,-1.19451 -0.38735,-0.37077 -0.26952,-0.76482 -0.26988,-1.23578 0,-0.37218 -0.13652,-0.67169 -0.40604,-0.92357 -0.26071,-0.24271 -0.68545,-0.3937 -0.86572,-0.70344 -0.23918,-0.41028 0.15205,-0.64946 0.51505,-0.66146 0.47308,-0.0159 0.89888,0.2854 1.30846,0.47907 0.80504,0.38065 2.18828,0.51894 2.45427,1.53917 0.10619,0.40746 -0.0106,0.84067 -0.0353,1.26506 -0.0173,0.29563 0.36901,1.022 0.14711,1.32574 m -3.08327,-19.83881 c -0.19756,0.25859 -0.44345,0.48648 -0.6343,0.63148 -0.28081,0.21307 -0.61277,0.38452 -0.8696,0.62582 -0.36935,0.34749 -0.55597,0.84773 -0.94932,1.17616 -0.35348,0.29563 -1.1878,0.51541 -1.27212,-0.12735 -0.0748,-0.57185 0.43921,-1.30704 0.73519,-1.76142 0.45191,-0.69426 1.0855,-1.40864 1.80234,-1.83233 0.31821,-0.18803 0.72002,-0.35242 1.07633,-0.16615 0.6865,0.35912 0.48648,0.96237 0.11148,1.45379 m -0.65405,-3.5179 c -0.87595,0.27976 -1.73602,0.48684 -2.58763,0.84561 -0.31856,0.13406 -0.72919,0.29563 -1.08267,0.2279 -0.17075,-0.0325 -0.35666,-0.14288 -0.32385,-0.34467 0.0751,-0.46108 0.82479,-0.7239 1.17757,-0.9084 0.4452,-0.23213 0.89499,-0.45508 1.32679,-0.71226 0.62266,-0.37077 1.23896,-0.84984 1.94381,-1.02694 0.2159,-0.0543 0.44027,-0.0804 0.67557,-0.0663 0.10019,0.006 0.20179,0.0191 0.29245,0.0624 0.20179,0.097 0.26776,0.33902 0.22543,0.54505 -0.16369,0.78951 -0.95144,1.15534 -1.64747,1.37759 m -0.94157,15.69509 c -0.0557,3.5e-4 -0.10583,-0.0134 -0.15099,-0.0367 -0.22789,-0.11713 -0.34325,-0.43286 -0.50306,-0.62301 -0.496,-0.58914 -1.258,-0.75353 -1.87043,-1.17616 -0.51188,-0.35313 -0.80609,-0.96061 -0.87559,-1.5681 -0.0564,-0.49353 0.0568,-1.20332 0.70626,-1.12642 0.47061,0.0554 0.75142,0.26176 1.09149,-0.17639 0.24907,-0.32032 0.32103,-0.69179 0.28858,-1.08726 -0.0279,-0.33725 -0.0716,-0.64875 0.0952,-0.96273 0.22119,-0.41557 0.6798,-0.60642 1.11477,-0.71578 0.37818,-0.0953 0.82233,-0.0191 1.13912,-0.2914 0.45227,-0.38876 0.57644,-1.30528 1.30528,-1.30069 0.45685,0.003 0.73519,0.37994 0.6089,0.81456 -0.0617,0.21132 -0.0374,0.46426 0.11077,0.63571 0.26882,0.31221 0.82091,0.14182 1.17828,0.24448 0.24659,0.0713 0.5468,0.25082 0.58772,0.52246 0.0543,0.3616 -0.3249,0.65087 -0.21131,1.00683 0.12665,0.39758 0.62371,0.40887 0.95744,0.50553 1.05904,0.30656 0.65546,1.59244 0.37959,2.32516 -0.1524,0.40463 -0.46532,0.70802 -0.90488,0.52952 -0.66816,-0.27164 -1.32221,-0.59408 -1.90429,-1.02306 -0.37465,-0.27587 -0.81421,-0.0727 -1.22978,-0.14217 -0.62936,-0.10548 -0.7553,-1.59385 -1.38819,-1.38642 -0.37994,0.12453 -0.30973,0.6664 -0.33408,0.97402 -0.0437,0.55175 -0.42933,1.04458 -0.36265,1.61149 0.0522,0.44274 0.46567,0.7105 0.68509,1.06539 0.26176,0.42333 0.11289,1.02694 -0.30727,1.30881 -0.061,0.0413 -0.13194,0.0723 -0.20602,0.0723 m -1.25518,4.25767 c -0.0258,0.11042 -0.11607,0.20214 -0.30057,0.25894 -0.48154,0.14781 -1.05692,-0.37289 -1.4799,-0.52917 -0.60995,-0.22507 -1.37266,-0.52458 -1.55117,-1.2259 -0.14181,-0.55563 0.0325,-1.41534 0.70521,-1.51624 0.56691,-0.085 0.57608,0.40887 0.60184,0.80504 0.0377,0.57997 0.76235,0.85796 1.19097,1.10172 0.26776,0.1524 0.91934,0.73378 0.83362,1.10561 m -3.86151,-3.83752 c -0.47096,0.36725 -1.05974,-0.024 -0.90134,-0.61771 0.0892,-0.33443 0.29245,-0.92181 0.65828,-1.05375 0.35877,-0.12911 0.65863,0.23495 0.7299,0.5521 0.0772,0.34184 -0.15205,0.85866 -0.48684,1.11936 m -2.2927,-4.79601 c -0.70485,0.10901 -0.45261,-0.66851 -0.17745,-0.98072 0.38665,-0.43921 1.24496,-0.87912 1.85314,-0.76412 0.39265,0.0744 0.0497,0.56868 -0.0727,0.7359 -0.27164,0.37182 -0.60678,0.65793 -1.00683,0.83537 -0.18485,0.0819 -0.38346,0.14076 -0.59619,0.17357 m 3.58175,-3.80506 c 0.043,0.0942 0.0554,0.19332 0.0434,0.2928 -0.0582,0.48014 -0.68368,0.96415 -1.11901,0.88089 -0.0769,-0.0145 -0.1531,-0.0448 -0.20708,-0.1016 -0.0699,-0.0734 -0.0928,-0.18168 -0.0836,-0.28257 0.0321,-0.3482 0.2346,-0.7419 0.54117,-0.93698 0.25752,-0.16369 0.6798,-0.16792 0.82514,0.14746 m -4.84611,-1.34973 c 0.17322,-0.8703 0.58597,-1.66264 0.98814,-2.4451 0.24765,-0.4826 0.54786,-0.96273 0.9405,-1.34091 0.26564,-0.25612 0.72566,-0.55033 1.11301,-0.49636 0.73343,0.10266 0.0212,0.62548 -0.054,0.95532 -0.0138,0.06 0.01,0.13335 0.0677,0.15523 0.0339,0.0127 0.0716,0.005 0.10689,-0.002 0.28082,-0.0589 0.50871,-0.0991 0.78423,0.0187 0.31115,0.13264 0.4886,0.41204 0.34678,0.7433 -0.20638,0.48366 -0.84914,0.72566 -1.25518,1.00436 -0.59796,0.40957 -0.75354,0.90487 -0.89853,1.57938 -0.0808,0.37642 -0.3743,0.57327 -0.72496,0.69392 -0.26917,0.0928 -0.59125,0.10442 -0.86183,0.024 -0.3743,-0.11148 -0.65052,-0.39829 -0.55281,-0.88971 m 61.45601,10.89025 c -0.17216,-0.49001 -0.56762,-0.87207 -1.14829,-1.11019 0.0416,-0.3048 0.0681,-0.68298 -0.007,-1.11831 -0.0568,-0.30621 -0.17039,-0.94756 -0.71332,-1.52823 -0.20426,-0.21766 -0.42545,-0.38206 -0.64488,-0.50906 0.27235,-0.60889 0.48225,-1.39982 0.38947,-2.31739 -0.0924,-0.94757 -0.47096,-1.62843 -0.62971,-1.87643 -0.20461,-0.3235 -0.43533,-0.59196 -0.67169,-0.81351 v -0.002 c 0.0378,-0.2988 0.24589,-0.72072 0.38206,-0.99519 0.0455,-0.0907 0.0871,-0.1778 0.121,-0.25505 0.0416,-0.0854 0.0833,-0.17428 0.12312,-0.26318 0.22331,-0.47483 0.45191,-0.96484 0.5902,-1.49824 0.26494,-1.02129 0.31221,-1.89724 0.14958,-2.75626 -0.27834,-1.47143 -1.23367,-2.89242 -2.82258,-3.24026 -0.16439,-0.49001 -0.42545,-0.87983 -0.77187,-1.16734 -0.43498,-0.35948 -0.91934,-0.51082 -0.97226,-0.52564 -0.17392,-0.0533 -0.34431,-0.0833 -0.50694,-0.10054 -0.11924,-0.20814 -0.27058,-0.40852 -0.45967,-0.59373 -1.09926,-1.06891 -3.08152,-1.41146 -4.64785,-0.86289 0.0339,-0.24765 0.072,-0.51435 0.11324,-0.80398 0.37465,-2.60103 0.88548,-6.16091 -0.81315,-8.09801 -0.32561,-0.36725 -1.66299,-1.6383 -2.31563,-1.1483 -0.34396,0.25718 -0.16651,0.63924 -0.0377,0.91723 0.0758,0.17039 0.17604,0.38029 0.25718,0.64523 0.70202,2.25284 -0.80187,4.72157 -2.13008,6.90068 -0.16263,0.26706 -0.32526,0.52987 -0.47448,0.78705 -0.41452,-0.34819 -0.88371,-0.60325 -1.39806,-0.77188 -0.17604,-0.0568 -0.34996,-0.10019 -0.52035,-0.13229 0.21943,-0.42192 0.36724,-0.95709 0.10795,-1.44145 -0.23283,-0.4258 -0.73237,-0.65652 -1.784,-0.81915 -1.09149,-0.16827 -2.21897,-0.17216 -3.35385,-0.0152 0.0208,-0.25541 -0.0681,-0.60889 -0.53164,-0.97614 -0.7433,-0.59196 -2.18687,-1.00647 -3.85516,-1.10278 -0.47695,-0.0282 -1.04986,-0.036 -1.70074,0.004 -0.002,-0.35771 -0.15698,-0.69426 -0.4579,-0.97613 -0.70379,-0.65829 -1.89548,-0.86643 -3.17606,-0.77012 -0.0776,-0.26458 -0.23072,-0.50306 -0.46355,-0.70732 -1.94275,-1.72332 -9.36766,-0.68686 -12.89932,-0.0681 -0.0699,-0.31221 -0.25929,-0.52423 -0.46919,-0.66393 -1.50566,-1.00824 -6.48865,0.79622 -10.34556,3.0794 -0.0265,-0.0169 -0.0568,-0.0265 -0.0871,-0.0356 -2.33998,-0.64524 -8.08708,1.27282 -11.42753,4.85951 -0.0134,-0.004 -0.0286,-0.006 -0.0416,-0.01 -1.6517,-0.28927 -3.81,0.3803 -5.91926,1.83127 -1.15005,0.79446 -2.16041,1.73849 -2.97356,2.75626 -0.23107,-0.21555 -0.4826,-0.2914 -0.68474,-0.30657 -1.37548,-0.12841 -3.03636,2.04329 -5.60529,5.63175 -0.3937,0.54962 -0.77928,1.0869 -1.14935,1.5882 l -0.97155,-6.58989 13.50292,-10.44892 10e-4,-7.1e-4 c 0.16757,-0.13088 0.22366,-0.35031 0.1397,-0.54539 -0.084,-0.19509 -0.28151,-0.30551 -0.49177,-0.2734 l -14.48929,2.19533 -1.93216,-13.11733 c -0.0293,-0.20144 -0.18415,-0.35772 -0.38523,-0.38876 -0.20074,-0.0311 -0.39582,0.0713 -0.48402,0.25435 l -7.17444,14.76339 -14.85512,2.25073 c -0.19014,0.0279 -0.34007,0.16721 -0.38205,0.35524 -0.0416,0.18768 0.0349,0.37748 0.19508,0.48296 l 10.23691,6.79802 -7.04603,14.49952 c -0.0938,0.19368 -0.043,0.42334 0.12347,0.55845 0.0861,0.0699 0.18768,0.10513 0.28963,0.10513 0.0984,0 0.19755,-0.0328 0.28257,-0.0988 l 13.40838,-10.37731 4.80836,3.19299 c -0.28434,0.28646 -0.58243,0.58244 -0.89888,0.88547 -1.29187,1.2446 -2.84868,2.58974 -4.61186,3.66995 0.0815,-0.34255 0.1457,-0.68686 0.19509,-1.02552 0.03,-0.1965 -0.0889,-0.40076 -0.28399,-0.46885 -0.34607,-0.12312 -0.52952,0.13618 -0.69215,0.36478 -3.06105,4.34904 -8.17986,7.1508 -14.41097,7.8867 -0.61278,0.072 -1.12748,0.14746 -1.62878,0.21942 -0.85901,0.12489 -1.60408,0.23248 -2.62008,0.29704 -2.59926,0.16263 -5.11492,-0.0663 -6.90068,-0.62441 -0.0416,-0.0131 -0.12312,-0.049 -0.23107,-0.0945 -0.95885,-0.40464 -1.41499,-0.55598 -1.73073,-0.31785 -0.11359,0.0832 -0.18168,0.20814 -0.19861,0.34643 -0.0286,0.28363 0.16086,0.5842 0.76799,1.24848 0.0339,0.0339 0.0586,0.0624 0.0699,0.0755 0.78882,0.94015 1.82951,1.29963 2.46133,1.51342 -0.55809,0.13793 -1.58361,0.16086 -2.52553,0.0303 -0.24024,-0.036 -0.62795,-0.10055 -1.07844,-0.1778 -3.90031,-0.66993 -5.23029,-0.73413 -5.68996,-0.27446 -0.15134,0.1531 -0.2099,0.35771 -0.15698,0.56761 0.0187,0.0755 0.0907,0.26459 0.35172,0.34044 0.65264,0.20037 2.08456,0.889 2.27965,1.23895 -0.055,0.0399 -0.18944,0.11183 -0.49213,0.18733 -1.31833,0.31961 -1.92546,-0.45015 -2.80705,-1.73461 -0.53728,-0.77752 -1.08973,-1.58151 -1.94663,-1.98438 -0.53728,-0.25541 -1.32609,-0.43144 -1.72332,-0.29139 -0.15134,0.0529 -0.26846,0.15522 -0.32737,0.28398 -0.16652,0.37254 0.18732,0.60325 0.37853,0.72637 0.40675,0.2667 1.25977,0.82092 1.91064,2.47615 0.13229,0.34043 0.28363,0.72461 0.19085,1.01 -0.0907,0.28187 -0.23248,0.24977 -0.27799,0.23848 -0.30444,-0.072 -0.63182,-0.7246 -0.94967,-1.35431 -0.83997,-1.65912 -2.10362,-4.16772 -5.95701,-3.13655 -2.83351,0.76024 -3.8608,2.51954 -4.11057,3.04377 -0.15486,0.32349 -0.17603,0.47836 -0.0963,0.63923 0.066,0.12876 0.18132,0.22507 0.32138,0.27058 0.30832,0.10019 0.63182,-0.0512 1.16169,-0.30092 1.04423,-0.48789 2.78836,-1.30528 4.60058,-0.29104 1.12183,0.62971 1.77059,1.72896 2.45921,2.89419 0.88724,1.50001 1.8027,3.05329 3.80965,3.59621 1.81434,0.48613 3.81,-0.19861 5.11704,-0.6925 -0.30833,0.21555 -0.68474,0.39547 -1.14794,0.58279 -0.019,0.007 -0.0437,0.0169 -0.0741,0.0265 -0.30445,0.11148 -1.01776,0.37818 -0.89676,0.9532 0.091,0.38982 0.44661,0.52035 2.31563,0.26494 4.26015,-0.57891 6.49217,-2.19639 7.62917,-3.26496 -0.0494,0.085 -0.0967,0.16052 -0.14181,0.23636 -0.19862,0.31786 -0.39723,0.647 -0.23284,0.98919 0.0871,0.18733 0.24801,0.30868 0.45015,0.34819 0.37465,0.072 0.77188,-0.19297 1.03858,-0.42192 0.53728,-0.46919 0.96661,-1.01212 1.38288,-1.53987 0.37465,-0.47661 0.73202,-0.92851 1.15782,-1.32221 4.08234,-3.77578 8.67163,-1.78753 8.97784,-1.49437 0.80222,0.7814 0.62795,1.5173 0.19297,2.97568 -0.41416,1.38289 -0.9458,3.16089 -0.32914,5.59752 -1.41323,0.8569 -1.42452,2.82611 -1.42628,3.5052 0,0.20638 0.004,0.41628 0.0208,0.63007 -0.0663,0.0282 -0.13052,0.0642 -0.19297,0.10583 -0.76411,0.51258 -1.44321,2.0507 -1.18039,4.78613 -0.80575,0.23637 -1.89724,1.40547 -2.23026,5.83213 -0.0607,-0.0416 -0.12665,-0.0741 -0.19297,-0.10054 -0.31221,-0.11713 -0.65652,-0.0624 -0.93627,0.15522 -0.98178,0.75494 -1.27882,3.39936 -0.72637,6.42796 0.13405,0.73978 0.31397,1.47743 0.48789,2.18863 0.0698,0.29704 0.14358,0.59408 0.21555,0.895 -0.007,0.002 -0.0113,0.006 -0.0187,0.009 -1.59879,0.74542 -0.78317,3.67207 0.18732,5.99687 0.48613,1.16699 1.10631,2.4063 1.70604,3.39725 0.79269,1.31869 1.17087,1.64606 1.51518,1.62701 0.0473,-0.002 0.0949,-0.0134 0.14569,-0.0265 0.52212,-0.15911 0.36725,-0.80575 0.30092,-1.08021 -0.6357,-2.60491 1.22943,-4.39244 2.2285,-5.35164 0.19473,-0.18909 0.36301,-0.34995 0.48225,-0.48789 0.96097,-1.11619 0.83432,-1.72544 0.55809,-2.03553 -0.0265,-0.0321 -0.055,-0.0586 -0.0871,-0.0871 1.39982,-1.5928 2.65994,-3.5941 2.21156,-5.91891 0.049,-0.0303 0.10195,-0.0589 0.15522,-0.0889 0.45191,-0.25188 0.91723,-0.51294 1.3335,-0.84208 0.66393,-0.52388 1.07456,-1.2767 1.12184,-2.05987 0.0169,-0.26882 -0.008,-0.53164 -0.0759,-0.78317 0.74154,-0.25929 1.52294,-0.4579 2.3248,-0.66392 0.97826,-0.25153 1.99214,-0.51083 2.95311,-0.89112 1.5494,-0.61489 2.64477,-1.42804 3.27448,-2.42711 0.23813,0.007 0.47943,0.006 0.72319,-0.005 -1.40652,1.52118 -2.38548,3.25155 -2.7693,4.95406 -0.43745,1.94239 -0.12841,3.69993 0.87065,4.94877 1.02235,1.27846 2.72839,1.98261 4.80413,1.98261 1.74061,0 3.22721,-0.51612 4.92337,-1.29046 0.0367,-0.0169 0.0783,-0.0123 0.10971,0.0109 l 1.05657,0.78776 c 0.0155,0.0116 0.0317,0.0219 0.049,0.0307 0.14711,0.0741 0.34219,0.0734 0.52211,-0.002 0.16863,-0.0702 0.30092,-0.19861 0.36124,-0.34713 l 1.81928,-4.1649 c 0.36407,-0.66181 0.73378,-1.00153 1.74201,-1.02341 0.35455,-7e-4 0.60714,-0.18097 0.72567,-0.50976 l 0.27411,-0.62865 c 0.0568,-0.10548 0.0691,-0.22366 0.0349,-0.33337 -0.0363,-0.11536 -0.12241,-0.21449 -0.23671,-0.2727 -0.0596,-0.03 -0.12735,-0.0409 -0.1972,-0.0335 -1.31657,0.14535 -2.67265,0.22261 -3.92113,0.22261 -0.69356,0 -1.3977,-0.0254 -1.98332,-0.0709 l -0.0134,-0.001 -0.10372,0.006 -0.0684,0.006 c -0.18767,0.0409 -0.44873,0.15946 -0.629,0.49248 -0.008,0.0148 -0.0148,0.03 -0.0215,0.048 -0.0289,0.0801 -0.0727,0.16721 -0.12135,0.26458 -0.0536,0.10654 -0.10866,0.21696 -0.1517,0.33514 -0.0815,0.22542 -0.0247,0.37183 0.0374,0.45438 0.12805,0.17145 0.34148,0.17004 0.42262,0.17004 0.63783,-0.0117 0.74789,0.10054 0.76447,0.12276 0.0737,0.0984 -0.0875,0.51859 -0.19403,0.79728 -0.76729,2.01366 -2.33433,3.12279 -4.41289,3.12279 -1.02482,0 -1.78506,-0.30092 -2.26025,-0.895 -0.89182,-1.11513 -0.5969,-2.97356 -0.42862,-3.72075 0.4138,-1.8362 1.57233,-3.96769 3.02365,-5.5633 1.2185,-1.3395 3.19335,-2.93617 5.6829,-2.93617 1.0795,0 1.88172,0.28928 2.31916,0.83608 0.49213,0.6156 0.41452,1.37972 0.3242,1.78012 -0.24941,1.10666 -1.23401,2.25143 -2.44968,2.25143 -0.34185,0 -0.59408,-0.0988 -0.74966,-0.29316 -0.16051,-0.20038 -0.21061,-0.50059 -0.13793,-0.82338 0.0628,-0.27693 0.1972,-0.50271 0.39969,-0.67063 0.1397,-0.11607 0.1771,-0.30128 0.0893,-0.44027 -0.20356,-0.32173 -0.50518,-0.47167 -0.94933,-0.47167 -0.88688,0 -1.94733,0.63465 -2.18687,1.69757 -0.11394,0.50588 -0.009,0.97967 0.30304,1.36984 0.52387,0.65511 1.64042,1.06221 2.91394,1.06221 1.55328,0 2.94464,-0.37888 4.02379,-1.09573 0.9906,-0.65828 1.6584,-1.56421 1.88065,-2.55129 0.20144,-0.89358 -0.004,-1.78646 -0.57714,-2.51389 -0.92498,-1.17299 -2.70757,-1.83621 -5.01932,-1.86761 l -0.0526,0.001 c -0.42686,0.0243 -0.85478,0.0737 -1.28234,0.14147 0.46284,-0.41628 0.87312,-0.89853 1.17016,-1.43087 0.30445,-0.0607 0.58843,-0.14746 0.84173,-0.248 0.56938,-0.2286 1.05375,-0.55986 1.5247,-0.87771 0.60361,-0.41028 1.17299,-0.79799 1.86726,-0.93451 0.77928,-0.15134 1.52858,-0.20038 2.25495,-0.24942 1.3014,-0.0854 2.54247,-0.17039 3.61492,-0.85125 1.11795,0.42157 2.34773,0.62971 3.49779,0.5655 0.13617,-0.008 0.27058,-0.0169 0.40287,-0.0342 1.22202,-0.13969 2.25884,-0.58455 3.03989,-1.30139 0.7112,0.11359 1.43968,0.1531 2.17946,0.11359 0.1397,-0.01 0.27975,-0.0169 0.41804,-0.0321 3.2572,-0.31044 4.84434,-1.69898 5.57671,-2.69381 0.0963,-0.002 0.19085,-0.006 0.2854,-0.01 2.06974,-0.11535 4.19593,-0.70167 5.82647,-1.71767 1.67781,-1.04422 2.68993,-2.45533 2.92665,-4.05201 2.51389,-0.60924 4.572,-1.72332 5.52344,-2.75978 0.4124,0.0773 0.83644,0.10584 1.26189,0.0811 0.57326,-0.0303 1.15393,-0.1531 1.72896,-0.36689 1.3469,-0.50129 2.5273,-1.46438 3.26531,-2.62008 0.34043,0.072 0.75459,0.12665 1.22167,0.12101 0.0815,-0.002 0.16298,-0.004 0.24236,-0.01 0.60889,-0.0339 1.15217,-0.16263 1.62101,-0.33267 0.28963,1.19909 1.02553,2.31705 2.09056,3.18911 -0.36159,0.80963 -0.48436,1.73285 -0.31609,2.60491 0.15523,0.80963 0.63183,1.44357 1.17299,1.92582 -0.17427,0.61489 -0.1591,1.26929 0.0586,1.85384 0.30656,0.81175 0.96273,1.40547 1.84044,1.70251 0.2346,1.06115 1.05587,2.00131 2.07328,2.76013 1.016,0.75671 2.22673,1.32962 3.24273,1.65524 0.73201,0.23636 1.31833,0.34219 1.75331,0.31785 0.38982,-0.0229 0.6604,-0.14782 0.80609,-0.37642 0.36866,-0.5715 -0.35383,-1.23366 -0.59231,-1.45309 -1.44886,-1.32962 -2.90759,-5.02602 -0.6544,-9.28828 0.0286,-0.049 0.0434,-0.10372 0.0473,-0.15699 0.17215,-0.14746 0.34607,-0.2854 0.51435,-0.4198 0.34995,-0.27799 0.65264,-0.51823 0.86289,-0.76977 0.38594,-0.45966 0.52211,-1.00823 0.38383,-1.54375 -0.0452,-0.17604 -0.11924,-0.34255 -0.21732,-0.49389 0.13618,-0.14182 0.26282,-0.29492 0.38206,-0.45755 0.56374,-0.77752 0.86078,-1.70074 0.85126,-2.60315 0.14358,-0.10195 0.27798,-0.21731 0.40287,-0.34219 0.30444,0.41028 0.66957,0.78493 1.07844,1.10454 0.37994,0.29881 0.69956,0.38594 0.95497,0.37077 0.17039,-0.007 0.31044,-0.0624 0.42192,-0.12841 0.17427,-0.10407 0.31221,-0.23671 0.41628,-0.3937 0.13229,0.11748 0.2667,0.2346 0.41028,0.34255 0.34255,0.25541 0.71508,0.47837 1.11054,0.66216 -0.21378,0.67346 -0.32702,1.36772 -0.19649,2.08069 0.12664,0.70202 0.49177,0.86077 0.77364,0.87206 0.0226,0 0.0451,0.002 0.066,0 0.0152,0 0.0342,-0.002 0.0512,-0.004 -0.37465,1.45662 -0.47096,2.53118 0.0889,3.13267 0.15134,0.16863 0.34431,0.28751 0.57714,0.35948 0.0377,1.06715 0.29105,1.72543 0.75848,1.99566 0.11359,0.0663 0.30056,0.14006 0.54469,0.127 0.17427,-0.01 0.37641,-0.0663 0.6036,-0.20073 0.70943,-0.43109 1.41111,-1.52259 1.86513,-2.88078 0.35172,-0.10231 0.67522,-0.2727 0.97226,-0.50906 0.32738,-0.26282 0.59584,-0.58455 0.80962,-0.93451 0.0625,0.006 0.12101,0.006 0.18169,0.002 0.32737,-0.0169 0.64135,-0.16052 0.89111,-0.41593 0.50694,-0.5147 0.74507,-1.23719 0.97614,-1.93534 0.27058,-0.82303 0.52564,-1.59843 1.16346,-2.04505 0.24765,-0.1718 0.54257,-0.28751 0.8569,-0.41416 0.38946,-0.15134 0.79057,-0.31009 1.15182,-0.59408 0.6678,-0.52211 2.10749,-2.58198 2.31351,-2.90548 0.35948,-0.56762 0.45967,-1.16734 0.27623,-1.68557"
       style="fill:#013da6;fill-opacity:1;fill-rule:nonzero;stroke:none;stroke-width:0.352778" />
    <path
       id="path16"
       d="m 375.03581,180.76613 c -0.0427,-0.019 -0.0579,-0.0536 -0.0632,-0.0727 -0.005,-0.0183 -0.009,-0.0543 0.0169,-0.09 l 2.71145,-3.69358 c 0.0441,-0.0596 0.1023,-0.0455 0.12558,-0.0367 0.0229,0.009 0.0759,0.0377 0.0681,0.11148 l -0.0889,0.85725 -0.57503,4.01496 -0.0261,0.11571 c -0.012,0.0536 -0.054,0.0734 -0.0716,0.0794 -0.0212,0.007 -0.0614,0.0138 -0.0998,-0.0183 -0.65123,-0.54786 -1.30457,-0.96273 -1.99743,-1.26753 m -3.50026,1.11972 -2.68005,3.55882 c -0.8188,1.02411 -1.82528,2.07045 -3.07975,2.07045 -0.0593,0 -0.11854,0.006 -0.19509,0.0198 -0.29845,0.009 -0.59796,0.0205 -0.90593,0.0325 l -0.0836,0.003 c -0.0593,0.002 -0.0875,-0.037 -0.0974,-0.0543 -0.01,-0.0176 -0.0293,-0.0635 0.004,-0.11324 l 0.55386,-0.82268 c 0.0201,-0.0293 0.0536,-0.0466 0.0892,-0.0466 0.006,0 0.0116,3.6e-4 0.0173,0.001 0.14957,0.024 0.30056,0.0363 0.44908,0.0363 1.01106,0 1.93569,-0.60007 2.30117,-1.49331 0.0413,-0.10124 0.031,-0.21272 -0.0272,-0.2988 -0.0579,-0.0847 -0.15346,-0.13511 -0.26247,-0.13829 -0.31115,-0.009 -0.5267,-0.0875 -0.63994,-0.23319 -0.12171,-0.15698 -0.14428,-0.41239 -0.066,-0.75882 0.19474,-0.86431 1.10208,-1.85103 3.06176,-2.02741 0.40146,-0.0314 0.90311,-3.6e-4 1.49084,0.0928 0.0547,0.008 0.0765,0.0494 0.0836,0.0663 0.007,0.0173 0.019,0.0614 -0.0138,0.10513 m -3.01484,9.55604 c -0.15946,0.70838 -0.57467,1.38994 -1.16981,1.91982 -0.0455,0.0409 -0.0924,0.0808 -0.14076,0.11994 -1.36102,1.10314 -3.21239,1.16417 -4.84928,1.21744 -0.15311,0.005 -0.3041,0.0102 -0.45367,0.0159 0.62582,-1.47108 1.17827,-2.7245 1.52964,-3.46921 0.53164,-1.15535 1.08303,-1.88384 2.19075,-1.94593 l 0.0219,-0.002 c 1.20368,-0.0455 2.08704,0.19332 2.54917,0.68897 0.33761,0.36195 0.45191,0.87877 0.32209,1.45521 m -2.70157,7.09789 c -0.46214,2.05246 -2.81764,3.12632 -4.90573,3.12632 -0.69321,0 -1.13065,-0.1076 -1.30069,-0.32033 -0.11007,-0.13793 -0.12841,-0.34184 -0.0575,-0.66287 0.008,-0.0215 0.0155,-0.0448 0.0254,-0.0744 l 0.073,-0.23072 c 0.0593,-0.18662 0.13018,-0.41063 0.17075,-0.53587 0.25294,-0.69215 0.74788,-1.93216 1.35784,-3.40183 0.0169,-0.0402 0.0557,-0.0663 0.0995,-0.0663 h 2.64689 c 0.67345,0 1.28023,0.25541 1.62278,0.68369 0.30727,0.38417 0.3997,0.89711 0.26776,1.48237 m 9.68445,3.12632 c -0.3182,0 -0.51999,-0.0589 -0.617,-0.18027 -0.10795,-0.13512 -0.11889,-0.38418 -0.0342,-0.7613 0.0593,-0.26211 0.14675,-0.54821 0.25329,-0.82832 0.01,-0.0166 0.0176,-0.0335 0.024,-0.0504 0.68368,-1.80728 2.77671,-6.82025 3.61103,-8.59366 0.56586,-1.17123 1.13771,-1.95157 2.08845,-1.95157 0.38629,0 0.6671,-0.18874 0.79128,-0.53093 0.0296,-0.0811 0.0737,-0.16898 0.12135,-0.26388 0.0533,-0.10724 0.10901,-0.21766 0.14676,-0.32314 0.0995,-0.24236 0.0254,-0.40429 -0.0275,-0.47908 -0.09,-0.127 -0.24377,-0.19579 -0.41169,-0.18273 -0.0261,-0.004 -0.0529,-0.006 -0.0797,-0.006 -0.3556,0 -0.59619,-0.0811 -0.75706,-0.25541 -0.22084,-0.23918 -0.30797,-0.66992 -0.25964,-1.27811 l 0.47025,-5.02215 c 0.0875,-0.88618 0.20285,-1.80481 0.30445,-2.61549 l 0.004,-0.0328 c 0.0508,-0.40499 0.10195,-0.81068 0.15064,-1.2192 l 0.36406,-3.07552 c 0.0353,-0.16862 0.002,-0.32702 -0.0945,-0.44556 -0.10442,-0.12841 -0.27446,-0.20178 -0.46637,-0.20178 -0.0166,0 -0.0342,0.001 -0.0508,0.003 -0.32138,0.0434 -1.14089,0.0716 -2.08739,0.0716 -0.80045,0 -1.63442,-0.0272 -2.17664,-0.0709 l -0.0113,-7.1e-4 -0.15099,0.008 c -0.32526,0.0632 -0.50729,0.28716 -0.64417,0.49989 l -0.33302,0.59231 c -0.0169,0.0303 -0.0293,0.0624 -0.0363,0.0945 -0.0339,0.14957 -0.003,0.29315 0.0861,0.40463 0.0903,0.11324 0.2286,0.17816 0.37924,0.17816 0.2413,0 0.32138,0.0515 0.33196,0.0713 7.1e-4,0.001 0.0628,0.12911 -0.22225,0.57326 l -3.28718,4.33388 c -0.0243,0.0321 -0.0639,0.0476 -0.10301,0.0409 -0.49671,-0.0854 -0.8943,-0.12665 -1.21497,-0.12665 -1.67287,0 -3.50485,0.47554 -5.02567,1.30528 -1.57233,0.85725 -2.61902,1.99319 -2.87197,3.11644 -0.055,0.24341 -0.0713,0.47378 -0.0483,0.68439 0.004,0.0367 -0.007,0.0705 -0.0307,0.0931 -1.48766,1.42381 -3.14466,2.27365 -4.43195,2.27365 h -0.35806 c -0.8121,0 -1.31975,-0.13088 -1.50884,-0.38876 -0.2159,-0.29422 -0.0459,-0.86184 0.1704,-1.43122 l 0.47307,-1.24636 c 0.67839,-1.7332 2.413,-5.88504 3.11044,-7.34766 0.56621,-1.17157 1.13771,-1.95156 2.08845,-1.95156 0.38629,0 0.66745,-0.18874 0.79198,-0.53129 0.0289,-0.0797 0.0723,-0.16686 0.11995,-0.26211 0.0512,-0.10195 0.10936,-0.21767 0.14781,-0.32491 0.0991,-0.24236 0.0251,-0.40393 -0.0279,-0.47907 -0.0825,-0.11642 -0.22366,-0.18309 -0.38699,-0.18309 l -0.0342,0.001 c -0.92428,0.0843 -1.93781,0.12347 -3.18982,0.12347 -1.23543,0 -2.16465,-0.0377 -2.92347,-0.11853 l -0.0124,-0.001 -0.13511,0.003 -0.0307,0.003 c -0.32315,0.0596 -0.5588,0.24307 -0.66499,0.51929 -0.0307,0.085 -0.0787,0.18345 -0.12488,0.27905 -0.0519,0.10654 -0.11077,0.22754 -0.15134,0.34043 -0.0875,0.22754 -0.0148,0.37818 0.0363,0.44803 0.061,0.0832 0.18239,0.18239 0.41452,0.18239 0.31115,0 0.50941,0.0589 0.60642,0.18026 0.1136,0.14217 0.12453,0.40746 0.0335,0.81139 -0.0547,0.24236 -0.14181,0.52353 -0.23953,0.77329 -0.01,0.0169 -0.0187,0.0353 -0.0261,0.0547 -0.58032,1.52683 -2.20062,5.57777 -3.00108,7.34872 l -0.58773,1.25694 c -0.62441,1.41429 -1.18921,1.94028 -2.08315,1.94028 -0.375,0 -0.66428,0.19932 -0.7881,0.5327 l -0.31292,0.66533 c -0.0113,0.0233 -0.0201,0.0483 -0.0261,0.0744 -0.0335,0.14923 -0.003,0.29245 0.0857,0.40358 0.091,0.11359 0.23178,0.17886 0.39406,0.17886 h 10e-4 c 1.19415,-0.0501 2.44933,-0.0871 3.62973,-0.10689 0.0579,0.002 0.0928,0.0466 0.10124,0.067 0.008,0.0201 0.0222,0.0723 -0.0254,0.11713 -0.68262,0.64205 -1.13241,1.37512 -1.29998,2.11948 -0.14394,0.63959 -0.0353,1.22661 0.30621,1.65383 0.3242,0.40534 0.83185,0.62865 1.42945,0.62865 0.90347,0 1.81399,-0.58244 2.165,-1.38536 0.0441,-0.1009 0.0363,-0.21343 -0.0205,-0.30127 -0.0564,-0.0871 -0.15205,-0.13935 -0.26247,-0.14359 -0.20778,-0.008 -0.37959,-0.0928 -0.49671,-0.24482 -0.1464,-0.19086 -0.19191,-0.47202 -0.12418,-0.77223 0.16863,-0.7486 1.09573,-1.62596 2.22533,-1.73955 l 0.48048,0.008 c 0.006,0 0.0131,3.5e-4 0.0201,0.001 0.25717,0.0406 0.43603,0.1397 0.5468,0.30339 0.17463,0.25682 0.19438,0.69144 0.0593,1.29116 -0.0582,0.25859 -0.14005,0.50236 -0.21167,0.70803 -0.71402,1.96673 -2.5661,6.32601 -3.42864,8.1474 -0.61207,1.34444 -1.25483,1.94381 -2.08527,1.94381 -0.38629,0 -0.66711,0.18873 -0.79164,0.53128 -0.0293,0.0815 -0.0748,0.17533 -0.12558,0.27975 -0.0543,0.11254 -0.11078,0.2286 -0.14782,0.33197 -0.0924,0.22577 -0.0208,0.38029 0.0303,0.45226 0.0896,0.12664 0.24448,0.19508 0.41663,0.1845 1.16205,-0.0822 2.33221,-0.0991 3.10903,-0.0991 1.53247,0 2.94464,0.0705 4.445,0.1457 l 0.061,0.003 c 0.28681,0.0265 0.54751,0.0265 0.7994,0.0265 2.23308,0 4.19735,-0.55175 5.68007,-1.59562 1.23578,-0.8703 2.10326,-2.07327 2.37984,-3.30094 0.25541,-1.13312 -0.26141,-2.28247 -1.38218,-3.07552 -0.043,-0.0303 -0.0448,-0.0751 -0.0434,-0.0928 10e-4,-0.018 0.009,-0.0628 0.0564,-0.0871 1.95827,-1.01036 3.3214,-2.47509 3.64631,-3.9176 0.10866,-0.48154 0.24024,-1.67005 -0.76906,-2.61867 0.0109,-0.018 0.0219,-0.0367 0.0321,-0.0557 l 0.30056,-0.60007 c 0.0124,-0.025 0.0219,-0.0512 0.0286,-0.0797 0.037,-0.16404 0.009,-0.31432 -0.078,-0.42333 -0.0822,-0.10301 -0.20991,-0.15946 -0.35984,-0.15946 -0.59513,0 -0.81386,-0.11712 -0.89217,-0.21519 -0.0624,-0.0783 -0.072,-0.19438 -0.0307,-0.37677 0.0526,-0.23354 0.21096,-0.53693 0.42615,-0.81421 l 0.12876,-0.17251 c 0.2914,-0.39088 0.65405,-0.87771 0.91264,-1.25695 l 1.74131,-2.22708 c 0.0335,-0.0427 0.0928,-0.0536 0.14147,-0.0254 1.79669,1.03293 2.84832,2.53682 2.8141,4.02166 -3.5e-4,0.007 -7e-4,0.0141 -0.002,0.0212 -0.0628,0.46108 -0.17251,0.74083 -0.34502,0.87983 -0.13758,0.11148 -0.35066,0.16545 -0.65193,0.16545 -0.043,0 -0.0861,0.003 -0.13335,0.01 l -0.0229,-0.002 c -0.0321,-0.004 -0.0656,-0.004 -0.0977,0.001 -0.34643,0.0508 -0.59831,0.23671 -0.70944,0.52705 -0.0303,0.0847 -0.0783,0.18309 -0.12453,0.2787 -0.0519,0.10689 -0.11077,0.22789 -0.15169,0.34078 -0.0871,0.22719 -0.0145,0.37818 0.0363,0.44767 0.0861,0.11748 0.23353,0.18239 0.41486,0.18239 0.3108,0 0.50906,0.0589 0.60643,0.18027 0.11324,0.14217 0.12417,0.40746 0.0335,0.81139 -0.0607,0.26917 -0.15875,0.57644 -0.26599,0.82867 -0.68404,1.80799 -2.77707,6.82096 -3.61104,8.59367 -0.48965,1.01353 -1.08161,1.95157 -2.08809,1.95157 -0.38629,0 -0.66745,0.18873 -0.79198,0.53128 -0.0307,0.084 -0.0783,0.18274 -0.1263,0.28152 -0.054,0.11112 -0.10936,0.22577 -0.15064,0.33937 -0.0847,0.2226 -0.0293,0.37006 0.0325,0.45438 0.0476,0.0649 0.16122,0.17391 0.39158,0.17391 l 0.0272,-0.001 c 1.17016,-0.0843 2.15088,-0.12383 3.0868,-0.12383 0.92181,0 1.90994,0.0406 2.93688,0.121 l 0.0233,3.6e-4 0.10972,-0.004 0.0272,-0.003 c 0.32561,-0.0586 0.56303,-0.24236 0.66957,-0.5207 0.0289,-0.0794 0.0723,-0.16651 0.11995,-0.26176 0.0512,-0.10195 0.109,-0.21802 0.14781,-0.32455 0.0773,-0.18909 0.0706,-0.34996 -0.0201,-0.47837 -0.06,-0.084 -0.18168,-0.1845 -0.42263,-0.1845"
       style="fill:#013da6;fill-opacity:1;fill-rule:nonzero;stroke:none;stroke-width:0.352778" />
    <path
       id="path17"
       d="m 393.96733,191.40146 0.0152,-0.0691 c 0.009,-0.0342 0.012,-0.0699 0.009,-0.10831 -0.0473,-0.48648 -0.0889,-1.01741 -0.12524,-1.49542 -0.0441,-0.57503 -0.09,-1.16911 -0.14605,-1.7018 -0.004,-0.0378 -0.009,-0.073 -0.0152,-0.10689 -0.008,-0.0388 0.007,-0.0783 0.0395,-0.10548 0.99378,-0.83291 1.65488,-1.87572 1.91206,-3.01555 0.55598,-2.4698 -1.28411,-3.93841 -2.9083,-5.23451 l -0.097,-0.0773 c -1.0594,-0.85796 -2.15442,-1.74555 -1.93076,-2.73579 0.26318,-1.16699 1.70463,-1.60162 2.55129,-1.60162 1.95227,0 2.70016,1.09714 3.21451,2.27577 0.12912,0.33232 0.47484,0.52317 0.94792,0.52317 0.52387,0 1.14899,-0.2667 1.24566,-0.69885 l 0.0148,-0.0677 c 0.009,-0.0346 0.012,-0.0702 0.009,-0.10901 -0.0466,-0.4759 -0.0864,-0.99166 -0.12347,-1.47885 l -0.004,-0.0487 c -0.0438,-0.56409 -0.0889,-1.14723 -0.14393,-1.66899 -0.0363,-0.40534 -0.27235,-0.55774 -0.40958,-0.61278 -0.14464,-0.0575 -0.39052,-0.0921 -0.74789,0.0769 l -0.86007,0.45156 c -0.03,0.0159 -0.0677,0.0152 -0.10195,-0.002 -1.12395,-0.57644 -2.44299,-0.62124 -2.82046,-0.62124 -2.91853,0 -6.30732,1.64429 -6.92679,4.39631 -0.46003,2.03871 1.10525,3.45864 2.74743,4.73781 1.30104,1.02376 2.44475,2.05105 2.14948,3.36091 -0.16546,0.73519 -0.65617,1.35926 -1.38113,1.75754 -0.0187,0.0102 -0.0441,0.0138 -0.0706,0.009 -0.54645,-0.0956 -1.00541,-0.11006 -1.23013,-0.11006 -0.71649,0 -1.4478,0.096 -2.17417,0.28539 -0.024,0.006 -0.0483,0.005 -0.067,-0.004 -0.71402,-0.32773 -1.03223,-0.92146 -0.87312,-1.62878 0.11888,-0.53022 0.52846,-0.98072 1.06856,-1.17581 0.0896,-0.0325 0.16792,-0.0984 0.21661,-0.18415 0.0526,-0.0981 0.0554,-0.21202 0.006,-0.30586 -0.27235,-0.51576 -0.79164,-0.76658 -1.5875,-0.76658 -1.26224,0 -2.80141,0.87524 -3.16654,2.49731 -0.26493,1.17334 0.22296,2.15159 1.41076,2.82787 0.0476,0.0272 0.0561,0.0716 0.0575,0.0892 10e-4,0.0201 -0.001,0.0589 -0.0388,0.0882 -0.93804,0.74542 -1.55363,1.67005 -1.77977,2.67299 -0.46002,2.03765 1.10561,3.45758 2.74779,4.73675 1.30104,1.02376 2.4444,2.05105 2.14948,3.36091 -0.30057,1.33209 -1.63689,2.22709 -3.32529,2.22709 -1.33914,0 -1.95121,-0.41346 -2.22885,-0.76059 -0.3242,-0.40463 -0.31044,-0.85231 -0.242,-1.1564 0.11994,-0.52988 0.52916,-0.98037 1.0668,-1.17546 0.0945,-0.0335 0.17427,-0.1016 0.21801,-0.1845 0.0526,-0.0977 0.0554,-0.21132 0.007,-0.30516 -0.2727,-0.51646 -0.79199,-0.76764 -1.5875,-0.76764 -1.2626,0 -2.80141,0.87524 -3.16689,2.49731 -0.17251,0.76588 -0.0258,1.44745 0.43709,2.02601 0.85443,1.06856 2.77319,1.70674 5.13221,1.70674 3.98251,0 7.22419,-2.0447 7.88353,-4.97241 0.55633,-2.46944 -1.28447,-3.93841 -2.90866,-5.23451 l -0.0974,-0.0773 c -1.05869,-0.85831 -2.15336,-1.74555 -1.93005,-2.73544 0.13935,-0.6156 0.60572,-0.98672 0.97296,-1.18992 0.54504,-0.30374 1.17264,-0.41204 1.57833,-0.41204 0.50871,0 0.9652,0.078 1.35678,0.23177 1.02518,0.39935 1.51589,1.26083 1.85773,2.04399 0.12912,0.33267 0.47484,0.52317 0.94791,0.52317 0.52388,0 1.149,-0.2667 1.24531,-0.69779"
       style="fill:#013da6;fill-opacity:1;fill-rule:nonzero;stroke:none;stroke-width:0.352778" />
    <path
       id="path18"
       d="m 404.48473,199.13234 c -1.12077,1.32715 -2.93758,2.90936 -5.22958,2.90936 -0.58067,0 -1.65241,-0.12171 -2.30258,-0.93486 -0.6156,-0.76941 -0.74013,-1.99143 -0.37041,-3.63185 0.40992,-1.81963 1.49824,-3.93065 2.84021,-5.50898 0.86713,-1.01847 1.79423,-1.7847 2.7566,-2.27718 0.82409,-0.42333 1.6697,-0.63782 2.51355,-0.63782 h 0.007 c 0.0198,0 0.0395,0 0.0635,0.001 1.17017,0.0159 1.97908,0.44309 2.40312,1.26859 0.40252,0.78599 0.45438,1.91699 0.14958,3.27095 -0.41487,1.8415 -1.49966,3.96452 -2.83104,5.54073 z m 6.65939,-4.78155 c 0.77681,-3.44946 -0.6089,-5.9944 -3.70664,-6.8079 -0.0554,-0.0145 -0.0727,-0.0575 -0.0776,-0.0755 -0.005,-0.0176 -0.0124,-0.0632 0.0265,-0.10266 0.73342,-0.75318 1.21355,-1.61643 1.42734,-2.56575 0.55597,-2.47015 -1.28376,-3.93876 -2.9076,-5.23487 l -0.0945,-0.0751 c -1.06081,-0.85866 -2.15759,-1.7466 -1.93428,-2.73756 0.26317,-1.16699 1.70462,-1.60196 2.55129,-1.60196 1.96003,0 2.72626,1.15394 3.21451,2.27577 0.12947,0.33267 0.47484,0.52352 0.94791,0.52352 0.52388,0 1.14935,-0.26705 1.24495,-0.69568 l 0.0198,-0.0857 c 0.006,-0.0317 0.007,-0.0614 0.005,-0.0942 -0.0452,-0.46108 -0.0833,-0.96414 -0.12029,-1.45063 l -0.006,-0.0794 c -0.0434,-0.56339 -0.0885,-1.14618 -0.14464,-1.66582 -0.0346,-0.40569 -0.27164,-0.55844 -0.40958,-0.61348 -0.14499,-0.0579 -0.39052,-0.0921 -0.74647,0.0769 l -0.85972,0.45155 c -0.0303,0.0159 -0.0684,0.0152 -0.10231,-0.002 -1.12536,-0.57643 -2.44404,-0.62124 -2.82152,-0.62124 -2.91782,0 -6.30625,1.64465 -6.92714,4.39667 -0.46002,2.03835 1.10561,3.45863 2.74779,4.73781 1.30104,1.02341 2.44439,2.05105 2.14947,3.36126 -0.16475,0.73237 -0.65299,1.35502 -1.37477,1.75296 -0.01,0.005 -0.0215,0.009 -0.0346,0.0113 -0.62441,0.10195 -1.24812,0.25329 -1.85525,0.45014 l -0.0674,0.0109 c -1.33421,-0.001 -1.94452,-0.41346 -2.2218,-0.75989 -0.25647,-0.32032 -0.33972,-0.72002 -0.2413,-1.15605 0.11889,-0.53023 0.52811,-0.98072 1.06574,-1.17546 0.0931,-0.0328 0.17251,-0.10018 0.21626,-0.18132 0.055,-0.0977 0.0586,-0.21273 0.008,-0.30939 -0.2727,-0.51576 -0.79198,-0.76623 -1.5875,-0.76623 -1.26153,0 -2.8,0.87524 -3.16653,2.49731 -0.33796,1.50107 0.60113,2.7111 2.57598,3.31999 0.0561,0.0173 0.0691,0.0646 0.072,0.0843 0.003,0.0201 0.005,0.0705 -0.0455,0.10477 -0.29845,0.2032 -0.59408,0.42263 -0.87947,0.65193 -2.19993,1.77342 -3.77437,4.17583 -4.31906,6.5913 -0.48966,2.17629 -0.14006,3.99133 1.01106,5.24934 1.09925,1.19803 2.86244,1.83127 5.09834,1.83127 2.82152,0 5.65962,-1.04811 7.99183,-2.95064 2.17876,-1.778 3.73803,-4.17265 4.27814,-6.57013"
       style="fill:#013da6;fill-opacity:1;fill-rule:nonzero;stroke:none;stroke-width:0.352778" />
    <path
       id="path19"
       d="m 430.29944,187.52151 c -0.92322,0.0843 -1.9371,0.12347 -3.18982,0.12347 -1.23542,0 -2.16429,-0.0378 -2.92347,-0.11853 l -0.0123,-0.001 -0.13512,0.003 -0.0307,0.003 c -0.3235,0.0596 -0.55915,0.24306 -0.66463,0.51929 -0.031,0.0847 -0.0787,0.18344 -0.1263,0.28116 -0.054,0.11218 -0.11006,0.22789 -0.15028,0.33867 -0.0868,0.22719 -0.0141,0.37817 0.0363,0.44732 0.061,0.0832 0.18238,0.18274 0.41451,0.18274 0.635,0 1.04493,0.11006 1.21885,0.32702 0.12523,0.15664 0.14358,0.39264 0.06,0.76483 -0.0473,0.20955 -0.121,0.43991 -0.21343,0.66745 -0.0124,0.0201 -0.0226,0.0409 -0.03,0.0614 -0.39264,1.04211 -1.58891,3.93242 -2.5153,6.12246 -0.0282,0.0663 -0.0857,0.0674 -0.11077,0.0649 -0.024,-0.003 -0.0815,-0.0169 -0.0942,-0.0885 l -1.62701,-9.17223 c -0.0984,-0.52281 -0.63923,-0.52669 -0.82973,-0.5274 l -0.073,0.005 c -0.64946,0.0804 -1.4933,0.11959 -2.57986,0.11959 -1.32997,0 -2.55799,-0.0755 -3.02048,-0.12312 -0.031,-0.003 -0.0621,-0.002 -0.0917,0.002 -0.34679,0.0508 -0.59832,0.23671 -0.70944,0.52705 -0.0296,0.0818 -0.0748,0.17533 -0.12594,0.28081 -0.054,0.11183 -0.11007,0.22754 -0.15029,0.33831 -0.0871,0.22719 -0.0145,0.37818 0.0363,0.44768 0.0607,0.0832 0.18203,0.18274 0.41451,0.18274 0.653,0 1.01706,0.0907 1.18005,0.29457 0.13158,0.16474 0.1531,0.43356 0.0656,0.82197 -0.0529,0.23424 -0.13405,0.4766 -0.21025,0.7045 -0.67487,1.79281 -2.74073,6.8139 -3.58599,8.59825 -0.59831,1.29152 -1.52259,1.94627 -2.74708,1.94627 -0.38629,0 -0.66745,0.18874 -0.79199,0.53129 -0.0303,0.0843 -0.0783,0.18274 -0.12453,0.27834 -0.0519,0.10689 -0.11077,0.22825 -0.14887,0.33337 -0.0921,0.22543 -0.0205,0.37995 0.0307,0.45227 0.0836,0.11782 0.22578,0.1852 0.38982,0.1852 l 0.0275,-0.001 c 1.1056,-0.0797 2.22144,-0.12383 3.14184,-0.12383 0.9151,0 1.95015,0.042 2.99296,0.121 l 0.0109,7.1e-4 0.12136,-0.005 0.0268,-0.003 c 0.32596,-0.0589 0.56303,-0.24236 0.66957,-0.5207 0.0289,-0.0804 0.073,-0.16827 0.12171,-0.26564 0.0533,-0.10619 0.1083,-0.21625 0.14605,-0.32103 0.0773,-0.18944 0.0706,-0.35031 -0.0201,-0.47837 -0.06,-0.084 -0.18168,-0.18415 -0.42263,-0.18415 -0.65017,0 -1.06468,-0.10548 -1.2326,-0.31291 -0.11677,-0.14464 -0.13653,-0.36089 -0.0639,-0.69956 0.002,-0.007 0.004,-0.0141 0.007,-0.0205 0.0138,-0.0363 0.0272,-0.0776 0.042,-0.12277 l 0.21272,-0.66533 c 0.56268,-1.49472 2.23203,-5.68431 3.54048,-8.59402 0.0286,-0.0635 0.0857,-0.0649 0.10866,-0.0632 0.0233,0.002 0.0783,0.0148 0.0942,0.0829 0.99377,4.31518 1.97308,11.2201 1.9939,11.53372 0.001,0.0254 0.006,0.0504 0.0141,0.0776 0.13441,0.41169 0.47166,0.46425 0.75036,0.46425 l 0.6297,-0.001 c 1.52859,-0.0265 1.84644,-0.0321 2.0948,-0.47872 0.009,-0.0166 0.0166,-0.0335 0.0226,-0.0494 1.23719,-3.34822 3.23109,-8.38765 4.78119,-11.5764 0.56833,-1.28764 1.4919,-1.94028 2.74461,-1.94028 0.3863,0 0.66711,-0.18874 0.79164,-0.53129 0.0286,-0.0794 0.0723,-0.16615 0.121,-0.26352 0.0536,-0.10689 0.10901,-0.21766 0.14676,-0.32314 0.0995,-0.24307 0.0254,-0.40464 -0.0275,-0.47908 -0.0921,-0.12982 -0.25012,-0.1972 -0.42157,-0.18203"
       style="fill:#013da6;fill-opacity:1;fill-rule:nonzero;stroke:none;stroke-width:0.352778" />
  </g>
</svg>
