<?xml version="1.0" encoding="UTF-8" standalone="no"?>
<!-- Created with Inkscape (http://www.inkscape.org/) -->

<svg
   width="176.86922mm"
   height="54.681229mm"
   viewBox="0 0 176.86921 54.68123"
   version="1.1"
   id="svg1"
   xmlns="http://www.w3.org/2000/svg"
   xmlns:svg="http://www.w3.org/2000/svg">
  <defs
     id="defs1" />
  <g
     id="layer1"
     transform="translate(-279.11788,-120.77848)">
    <path
       id="path34"
       d="m 314.43058,141.49924 c 0.63571,-1.14441 1.28411,-1.73214 3.042,-1.76953 0.64559,0 1.10455,-0.32668 1.31974,-0.92287 l 0.49283,-1.12712 c 0.0974,-0.1905 0.11713,-0.40288 0.0554,-0.59937 -0.0667,-0.21273 -0.22437,-0.39547 -0.43497,-0.50271 -0.11113,-0.0554 -0.23848,-0.0773 -0.36689,-0.0624 -2.33398,0.25823 -4.73746,0.39475 -6.94972,0.39475 -1.18181,0 -2.39043,-0.0416 -3.40255,-0.11712 -0.0356,-0.002 -0.0713,-3.5e-4 -0.10654,0.007 l -0.72107,0.15487 c -0.0399,0.009 -0.0783,0.024 -0.1136,0.0452 -0.26458,0.15875 -0.48154,0.39228 -0.64558,0.69603 -0.0152,0.0286 -0.0282,0.0579 -0.0392,0.0871 -0.0515,0.14288 -0.12912,0.29739 -0.21167,0.46249 -0.096,0.19086 -0.19473,0.38841 -0.27163,0.60078 -0.14994,0.4117 -0.0448,0.68122 0.0702,0.83503 0.23671,0.31644 0.62794,0.31291 0.77435,0.31397 1.12783,-0.0233 1.31339,0.18274 1.33103,0.20567 0.11994,0.15981 -0.17322,0.92534 -0.34855,1.38359 -1.35572,3.55812 -4.12468,5.5178 -7.79639,5.5178 -1.80728,0 -3.14748,-0.52987 -3.98392,-1.57586 -1.57339,-1.96709 -1.05127,-5.25074 -0.75353,-6.57083 0.73237,-3.2512 2.78377,-7.02628 5.35411,-9.85168 3.90631,-4.29471 7.62353,-5.19641 10.05381,-5.19641 1.905,0 3.31858,0.50906 4.08834,1.47143 0.86501,1.08162 0.72778,2.42535 0.56903,3.13055 -0.43956,1.95051 -2.17381,3.96805 -4.31412,3.96805 -0.59619,0 -1.0354,-0.1711 -1.30527,-0.50871 -0.27799,-0.34784 -0.36478,-0.8703 -0.23778,-1.43404 0.10866,-0.48401 0.34396,-0.87842 0.69815,-1.17228 0.25965,-0.21555 0.32844,-0.56056 0.1644,-0.82056 -0.36725,-0.58032 -0.91017,-0.8509 -1.70921,-0.8509 -1.58503,0 -3.48015,1.13488 -3.90843,3.03424 -0.2039,0.90664 -0.0159,1.75577 0.54328,2.45533 0.93521,1.16911 2.92453,1.89513 5.19148,1.89513 2.76084,0 5.23416,-0.67381 7.15151,-1.94804 1.76354,-1.17158 2.9524,-2.78483 3.34892,-4.54272 0.35842,-1.59279 -0.006,-3.18417 -1.028,-4.48134 -1.64182,-2.08421 -4.80377,-3.26531 -8.92386,-3.32528 l -0.12171,0.003 c -5.01262,0.2921 -10.1219,2.29341 -14.38628,5.63528 -0.73095,0.57291 -1.43686,1.18921 -2.09797,1.83126 -0.16439,0.15981 -0.32702,0.32738 -0.49106,0.49636 -0.4057,0.41875 -0.8255,0.85161 -1.29188,1.17264 -0.65546,0.4512 -1.51623,0.68968 -2.4892,0.68968 h -0.0127 c -0.60254,-10e-4 -1.24706,-0.16158 -1.91523,-0.47555 -0.36406,-0.1718 -0.81033,-0.4071 -1.28305,-0.65581 l -0.24377,-0.12947 c -1.2707,-0.67345 -2.58515,-1.37019 -3.99309,-1.80728 -0.47166,-0.14605 -1.09961,-0.31045 -1.74307,-0.30198 -0.55104,0.007 -1.99602,0.19579 -1.91665,1.01071 0.0603,0.61736 1.12395,0.53657 1.56387,0.67169 0.93309,0.28645 1.70921,0.85795 2.45498,1.46932 1.03893,0.8516 1.99213,1.84644 2.91394,2.80881 l 0.44979,0.46885 c 0.39758,0.41486 0.77294,0.8068 1.13524,1.1631 0.25965,0.25612 0.60502,0.59055 0.97614,0.90347 0.0564,0.0476 0.11959,0.0952 0.18485,0.14393 0.15205,0.11324 0.32421,0.24165 0.33797,0.35031 0.0127,0.10407 -0.0713,0.31468 -0.13265,0.46849 -0.0395,0.0984 -0.0765,0.19297 -0.10266,0.27869 -0.11394,0.37112 -0.20672,0.71896 -0.28434,1.06398 -0.77822,3.45299 -0.22789,6.5786 1.5494,8.8011 1.81893,2.27401 4.85246,3.52672 8.54252,3.52672 3.03918,0 5.58941,-0.86854 8.48324,-2.17276 0.21485,-0.0977 0.46779,-0.0691 0.65793,0.073 l 1.63936,1.22202 c 0.0261,0.0198 0.0533,0.037 0.091,0.0572 0.26952,0.13511 0.62547,0.13441 0.95179,-0.003 0.30586,-0.12771 0.54646,-0.3609 0.65723,-0.63218 l 3.19758,-7.32543 z"
       style="fill:#013da6;fill-opacity:1;fill-rule:nonzero;stroke:none;stroke-width:0.352778" />
    <path
       id="path35"
       d="m 340.60337,165.87901 c -0.81739,3.62232 -4.98016,5.51815 -8.66987,5.51815 -1.21849,0 -1.98614,-0.18662 -2.28176,-0.55527 -0.18944,-0.23566 -0.21978,-0.58702 -0.0988,-1.13842 l 0.002,-0.01 c 0.0159,-0.0416 0.0293,-0.0843 0.0444,-0.13194 l 0.27411,-0.86466 c 0.061,-0.19297 0.11888,-0.37465 0.15698,-0.49212 0.44944,-1.23155 1.3268,-3.43041 2.4063,-6.03003 0.0257,-0.0607 0.0843,-0.0998 0.14958,-0.0998 h 4.69371 c 1.18533,0 2.25213,0.44873 2.85326,1.2005 0.53905,0.67346 0.70132,1.57374 0.46955,2.60315 m -0.0473,-19.57317 c -0.10054,0 -0.19826,0.008 -0.26882,0.0215 l -0.12418,0.0148 c -0.5147,0.0141 -1.03187,0.0342 -1.55575,0.0561 l -0.13934,0.004 c -0.0106,3.5e-4 -0.0208,0.001 -0.031,0.002 -0.073,-0.004 -0.11112,-0.0519 -0.1277,-0.0815 -0.018,-0.0324 -0.0413,-0.0974 0.006,-0.16792 l 0.98389,-1.46014 c 0.0286,-0.0427 0.0783,-0.0681 0.13088,-0.0681 0.008,0 0.0173,7e-4 0.0265,0.002 0.2667,0.0427 0.53587,0.0642 0.8001,0.0642 1.80517,0 3.45652,-1.07138 4.10775,-2.66347 0.078,-0.18627 0.0603,-0.39476 -0.0494,-0.56233 -0.10619,-0.15663 -0.29034,-0.25294 -0.49142,-0.25823 -0.54222,-0.0155 -0.91581,-0.15028 -1.11055,-0.40111 -0.21025,-0.27058 -0.24765,-0.71508 -0.11112,-1.3208 0.34431,-1.52224 1.94486,-3.26002 5.40067,-3.57152 0.7038,-0.0547 1.59174,7e-4 2.63702,0.16439 0.0783,0.0123 0.11183,0.0677 0.12453,0.0998 0.0131,0.0317 0.0272,0.0942 -0.0201,0.15698 l -4.74804,6.3052 c -1.4485,1.81152 -3.22756,3.66395 -5.44018,3.66395 m -6.81249,12.76526 c 1.10243,-2.59185 2.07362,-4.79601 2.69169,-6.10587 0.93945,-2.03941 1.91241,-3.32529 3.83575,-3.43324 0.0173,0 0.0342,-0.001 0.0473,-0.002 0.17568,-0.007 0.34748,-0.0102 0.5154,-0.0102 1.87255,0 3.24768,0.41875 3.99521,1.22132 0.59161,0.63465 0.79234,1.54093 0.56445,2.55129 -0.28187,1.24883 -1.0153,2.45216 -2.06305,3.38737 -0.0832,0.0737 -0.16898,0.14535 -0.24976,0.21308 -2.40807,1.95086 -5.68502,2.05775 -8.57603,2.15194 -0.25682,0.008 -0.51082,0.0173 -0.76094,0.0268 m 27.98303,-31.5221 c 0.0628,-0.0854 0.14358,-0.0706 0.18557,-0.0543 0.043,0.0166 0.11324,0.06 0.10265,0.16546 l -0.15839,1.51835 -1.01142,7.0739 -0.0543,0.25012 c -0.018,0.0794 -0.0804,0.10866 -0.10689,0.11748 -0.0307,0.0102 -0.091,0.0205 -0.1464,-0.0268 -1.15217,-0.97155 -2.31352,-1.70815 -3.54965,-2.25213 -0.0646,-0.0289 -0.0871,-0.0811 -0.0945,-0.10971 -0.007,-0.0268 -0.0134,-0.0801 0.025,-0.133 z m -3.92112,43.84816 c -0.55457,0 -0.90417,-0.10089 -1.06998,-0.30798 -0.18309,-0.22824 -0.20108,-0.6738 -0.0547,-1.32397 0.10443,-0.46531 0.2593,-0.97049 0.44768,-1.46297 0.0155,-0.0279 0.0296,-0.0575 0.043,-0.0907 1.21461,-3.21028 4.92548,-12.09887 6.40115,-15.23612 0.99801,-2.06587 2.00519,-3.4417 3.67489,-3.4417 0.6992,0 1.20826,-0.3422 1.43227,-0.96203 0.054,-0.14675 0.13441,-0.30586 0.22296,-0.48154 0.0914,-0.1845 0.18591,-0.37571 0.25435,-0.56056 0.17921,-0.44521 0.043,-0.74119 -0.0554,-0.87948 -0.16581,-0.23142 -0.44556,-0.35348 -0.75142,-0.33478 -0.0466,-0.006 -0.0945,-0.01 -0.14393,-0.01 -0.62971,0 -1.03647,-0.13688 -1.31904,-0.44309 -0.38559,-0.41733 -0.53763,-1.17334 -0.45226,-2.2419 l 0.83361,-8.90587 c 0.15452,-1.56528 0.35031,-3.12738 0.53975,-4.63833 0.0921,-0.73589 0.18486,-1.4739 0.27482,-2.21932 l 0.64805,-5.46912 c 0.0582,-0.30197 -0.005,-0.5849 -0.17851,-0.79833 -0.19085,-0.23495 -0.50094,-0.36936 -0.85054,-0.36936 -0.0314,0 -0.0628,0.003 -0.0924,0.007 -0.56409,0.0751 -2.0507,0.12559 -3.69958,0.12559 -1.42134,0 -2.84022,-0.0452 -3.79589,-0.12065 -0.0205,-0.002 -0.0409,-0.002 -0.0614,0 l -0.37183,0.0321 c -0.0261,0.002 -0.0515,0.007 -0.0762,0.0148 -0.4953,0.15063 -0.78705,0.51752 -1.01494,0.8703 l -0.59302,1.05481 c -0.0261,0.0519 -0.0462,0.10583 -0.0603,0.1658 -0.0614,0.27446 -0.004,0.53834 0.15981,0.7433 0.16616,0.20744 0.41981,0.32632 0.69638,0.32632 0.46708,0 0.56022,0.10795 0.56092,0.10795 0.0272,0.0519 0.0205,0.33373 -0.34572,0.91687 l -5.87269,7.753 c -0.0374,0.0487 -0.0956,0.0723 -0.15452,0.0621 -0.88124,-0.15275 -1.5882,-0.22684 -2.16112,-0.22684 -2.96933,0 -6.223,0.84526 -8.92668,2.31952 -2.79542,1.52505 -4.65632,3.54612 -5.10611,5.54496 -0.0984,0.43286 -0.12806,0.8449 -0.0868,1.22661 0.006,0.0529 -0.0109,0.10477 -0.0452,0.13723 -2.63207,2.51953 -5.56225,4.02413 -7.83766,4.02413 h -0.635 c -1.4284,0 -2.32057,-0.22789 -2.65077,-0.67663 -0.37324,-0.51082 -0.0734,-1.50777 0.30585,-2.50895 l 0.83856,-2.21086 c 1.20121,-3.06776 4.27637,-10.42599 5.51603,-13.02561 0.99801,-2.06693 2.00448,-3.44347 3.67453,-3.44347 0.69921,0 1.20827,-0.34219 1.43263,-0.96167 0.0505,-0.13723 0.12277,-0.28363 0.21379,-0.46355 l 0.0141,-0.0286 c 0.09,-0.18239 0.18309,-0.37077 0.24624,-0.54787 0.1845,-0.44944 0.0455,-0.74577 -0.0501,-0.877 -0.1524,-0.21696 -0.41239,-0.34114 -0.71367,-0.34114 -0.019,0 -0.0363,0.001 -0.0286,0.002 -0.0109,0 -0.0226,3.5e-4 -0.0335,10e-4 -1.65347,0.14993 -3.45016,0.21978 -5.65326,0.21978 -2.16112,0 -3.78848,-0.0649 -5.12057,-0.20461 -0.0215,-0.002 -0.0434,-0.002 -0.0656,-10e-4 l -0.41592,0.0296 c -0.0247,10e-4 -0.0494,0.006 -0.073,0.0123 -0.49741,0.13758 -0.86324,0.45649 -1.03293,0.90346 -0.0508,0.14006 -0.12876,0.30092 -0.22048,0.49072 -0.0977,0.20038 -0.19897,0.4071 -0.27094,0.60819 -0.1584,0.41627 -0.024,0.69391 0.0691,0.82091 0.15698,0.21696 0.42756,0.3369 0.76129,0.3369 0.54116,0 0.88477,0.1009 1.05093,0.30833 0.19226,0.2406 0.21025,0.71543 0.0536,1.41111 -0.0988,0.43639 -0.2533,0.93416 -0.4251,1.3709 -0.018,0.0318 -0.0339,0.0639 -0.0455,0.0949 -1.0294,2.70828 -3.90313,9.89119 -5.31953,13.02809 l -1.04387,2.23026 c -1.10102,2.49449 -2.09444,3.42194 -3.66572,3.42194 -0.6731,0 -1.19415,0.3549 -1.43192,0.97543 l -0.55351,1.17687 c -0.0198,0.0437 -0.0342,0.0875 -0.0423,0.127 -0.0624,0.27305 -0.007,0.53587 0.15628,0.74048 0.16757,0.2099 0.42651,0.33055 0.72637,0.33055 h 10e-4 c 2.15088,-0.09 4.37621,-0.15557 6.43572,-0.19015 0.0991,-0.007 0.13476,0.0617 0.15029,0.0998 0.0152,0.0374 0.0307,0.11007 -0.0374,0.17463 -1.21567,1.14194 -2.01612,2.44651 -2.31528,3.77295 -0.25717,1.14406 -0.0614,2.19534 0.55069,2.96051 0.58067,0.72567 1.48872,1.12537 2.55693,1.12537 1.61502,0 3.24168,-1.0414 3.8668,-2.47298 0.0826,-0.1852 0.0706,-0.39475 -0.0363,-0.56691 -0.10442,-0.16051 -0.28257,-0.25788 -0.49142,-0.26776 -0.35948,-0.0138 -0.65581,-0.16016 -0.85795,-0.42263 -0.254,-0.33055 -0.33197,-0.8202 -0.21343,-1.34267 0.29668,-1.31656 1.92969,-2.86032 3.86185,-3.05858 l 0.0755,-0.003 0.79587,0.0159 0.12065,0.0109 c 0.42156,0.0762 0.71578,0.2473 0.89958,0.52282 0.29986,0.44979 0.33231,1.21003 0.0956,2.25919 -0.10054,0.44309 -0.24059,0.86536 -0.37606,1.25201 -1.26259,3.48227 -4.54695,11.21163 -6.07907,14.44413 -1.07844,2.37031 -2.20944,3.42759 -3.66712,3.42759 -0.6978,0 -1.20721,0.34184 -1.43651,0.96732 -0.0476,0.13687 -0.12453,0.29562 -0.20567,0.46355 l -0.013,0.0268 c -0.097,0.19896 -0.19791,0.40428 -0.26388,0.58949 -0.16722,0.40887 -0.0374,0.69391 0.0561,0.82867 0.16439,0.23495 0.45755,0.36654 0.76905,0.3429 2.05811,-0.1464 4.13244,-0.17709 5.51075,-0.17709 2.69592,0 5.18054,0.12418 7.81085,0.25612 l 0.17533,0.008 c 0.5087,0.0469 0.97225,0.0469 1.42099,0.0469 3.96698,0 7.45596,-0.98107 10.08944,-2.83563 2.19604,-1.54551 3.73874,-3.68511 4.23228,-5.87163 0.45508,-2.02071 -0.46602,-4.07105 -2.46345,-5.48393 -0.0614,-0.0434 -0.0667,-0.10513 -0.0646,-0.13829 0.002,-0.0265 0.0138,-0.0928 0.0833,-0.12841 3.4805,-1.79705 5.90373,-4.40231 6.48229,-6.96912 0.19332,-0.85549 0.42792,-2.96439 -1.35502,-4.65455 0.0159,-0.0261 0.0314,-0.0529 0.0466,-0.0808 l 0.53445,-1.0668 c 0.0166,-0.0346 0.0406,-0.0885 0.0512,-0.14605 0.067,-0.30057 0.0155,-0.57609 -0.14464,-0.77611 -0.15205,-0.18909 -0.387,-0.29316 -0.66217,-0.29316 -1.09819,0 -1.44709,-0.23177 -1.55786,-0.37006 -0.10442,-0.13053 -0.11924,-0.32879 -0.0487,-0.64276 0.0928,-0.41099 0.37218,-0.94368 0.75036,-1.43087 l 0.22084,-0.29669 c 0.48048,-0.64311 1.13842,-1.52435 1.59315,-2.19251 l 3.12067,-3.99662 c 0.0494,-0.0632 0.13829,-0.0783 0.21131,-0.0363 3.16054,1.81893 5.02003,4.46476 4.97487,7.0545 l -0.008,0.1083 c -0.11042,0.79552 -0.29951,1.27706 -0.59796,1.51624 -0.23706,0.19262 -0.60889,0.28681 -1.13665,0.28681 -0.0755,0 -0.1524,0.006 -0.23495,0.0173 0,0 -3.5e-4,-3.6e-4 -7e-4,-3.6e-4 l -0.0265,-0.002 c -0.0797,-0.0123 -0.14781,-0.005 -0.19015,10e-4 -0.62653,0.0896 -1.08161,0.4265 -1.28305,0.95426 -0.0508,0.13829 -0.12876,0.29916 -0.2219,0.49142 l -0.012,0.0254 c -0.0924,0.19226 -0.18768,0.39123 -0.25577,0.57961 -0.1598,0.41522 -0.0272,0.69356 0.067,0.82339 0.11219,0.15416 0.33549,0.33796 0.76094,0.33796 0.54152,0 0.88548,0.10089 1.05093,0.30797 0.19226,0.24024 0.21025,0.71544 0.0536,1.41182 -0.11007,0.48542 -0.28328,1.02799 -0.4706,1.46614 -1.20862,3.1937 -4.91843,12.07947 -6.4008,15.23577 -0.86537,1.78752 -1.90924,3.4417 -3.6756,3.4417 -0.6985,0 -1.20755,0.34219 -1.43263,0.96344 -0.0508,0.14005 -0.12876,0.30092 -0.22048,0.49106 -0.0967,0.19967 -0.19685,0.40605 -0.27023,0.60713 -0.15699,0.40464 -0.0543,0.67769 0.0603,0.83644 0.0875,0.1203 0.29703,0.32173 0.72001,0.32173 0.0141,0 0.0325,-0.001 0.0512,-0.003 2.07539,-0.14887 3.81388,-0.21802 5.47017,-0.21802 1.6256,0 3.35703,0.0706 5.14632,0.20955 0.0205,0.002 0.0413,0.001 0.0614,-3.5e-4 l 0.40005,-0.0349 c 0.0229,-0.002 0.0459,-0.006 0.0677,-0.0123 0.496,-0.13829 0.86148,-0.4572 1.03258,-0.90488 0.0462,-0.1277 0.11712,-0.27093 0.19226,-0.42263 l 0.0173,-0.0353 c 0.10618,-0.20991 0.19967,-0.3997 0.26317,-0.5775 0.17921,-0.42933 0.078,-0.71473 -0.0367,-0.8763 -0.10971,-0.15699 -0.33337,-0.34396 -0.77505,-0.34396"
       style="fill:#013da6;fill-opacity:1;fill-rule:nonzero;stroke:none;stroke-width:0.352778" />
    <path
       id="path36"
       d="m 390.57528,153.2339 3.5e-4,-3.5e-4 0.0261,-0.11995 c 0.0166,-0.0635 0.0222,-0.12947 0.0166,-0.2039 -0.0836,-0.85725 -0.15699,-1.80058 -0.21908,-2.61867 l -0.006,-0.0861 c -0.0776,-1.00083 -0.15769,-2.03553 -0.25576,-2.96792 -3.5e-4,-0.001 -3.5e-4,-0.002 -3.5e-4,-0.002 -0.0173,-0.1845 0.0455,-0.35313 0.17251,-0.46319 1.68839,-1.46015 2.81622,-3.27378 3.26107,-5.24546 0.9899,-4.39737 -2.28035,-7.00757 -5.16819,-9.31262 l -0.1711,-0.13582 c -1.87078,-1.51624 -3.80541,-3.08399 -3.41348,-4.82106 0.4625,-2.05176 3.00179,-2.81658 4.49404,-2.81658 3.44452,0 4.76391,1.93675 5.67126,4.01567 0.23424,0.60254 0.85689,0.94791 1.7092,0.94791 0.94121,0 2.06446,-0.48224 2.23873,-1.26224 l 0.0275,-0.12417 c 0.0159,-0.0646 0.0212,-0.13053 0.0152,-0.19968 -0.0822,-0.84384 -0.15311,-1.75789 -0.21908,-2.62219 l -0.003,-0.0438 c -0.0783,-1.01494 -0.15946,-2.0641 -0.25859,-3.00249 -0.066,-0.73554 -0.496,-1.01247 -0.74577,-1.11196 -0.26176,-0.10512 -0.70697,-0.16721 -1.35185,0.13724 l -1.36419,0.71684 c -0.14252,0.0748 -0.31573,0.0765 -0.46319,0.005 -1.96709,-0.95603 -4.22064,-1.03011 -4.86481,-1.03011 -5.18724,0 -11.21128,2.92523 -12.31265,7.82002 -0.81985,3.6322 1.96321,6.15739 4.8828,8.43174 2.29905,1.8087 4.31941,3.62374 3.80047,5.92914 -0.28116,1.24601 -1.09961,2.31951 -2.30434,3.0226 -0.1076,0.0624 -0.23072,0.0868 -0.34819,0.067 -0.92499,-0.15346 -1.69616,-0.17639 -2.07363,-0.17639 -1.22731,0 -2.4825,0.1591 -3.73168,0.47343 -0.12595,0.0314 -0.25471,0.0197 -0.36231,-0.0349 -1.1557,-0.58385 -1.66511,-1.6009 -1.3977,-2.78941 0.20884,-0.92993 0.9271,-1.72015 1.87501,-2.06234 0.16581,-0.06 0.31045,-0.18168 0.40076,-0.34114 0.0984,-0.18344 0.10301,-0.39652 0.0116,-0.57185 -0.4826,-0.91264 -1.43863,-1.37513 -2.84198,-1.37513 -2.25072,0 -4.99392,1.56034 -5.6455,4.45206 -0.44027,1.95015 0.2928,3.61209 2.11949,4.80624 0.13405,0.0878 0.21731,0.23001 0.2286,0.39053 0.0113,0.16369 -0.054,0.31961 -0.17816,0.42756 -1.45556,1.26471 -2.4204,2.80176 -2.79082,4.44465 -0.81986,3.63114 1.96321,6.15597 4.8828,8.42998 2.29905,1.80904 4.31976,3.62408 3.80047,5.92913 -0.52916,2.34774 -2.88643,3.92466 -5.86563,3.92466 -2.36291,0 -3.441,-0.72708 -3.92889,-1.33703 -0.56691,-0.70803 -0.54292,-1.4919 -0.42333,-2.02424 0.21061,-0.92922 0.92921,-1.71979 1.87289,-2.06234 0.17428,-0.0617 0.32209,-0.18803 0.40252,-0.34184 0.0981,-0.18203 0.10337,-0.39405 0.0123,-0.56974 -0.48225,-0.91404 -1.43863,-1.37724 -2.84233,-1.37724 -2.25037,0 -4.99392,1.56033 -5.64515,4.45205 -0.30833,1.36772 -0.0459,2.58481 0.7807,3.61809 1.52118,1.90253 4.93218,3.03812 9.12459,3.03812 7.07602,0 12.83688,-3.63537 14.00916,-8.84096 0.9906,-4.39737 -2.28106,-7.00863 -5.1689,-9.31333 l -0.1718,-0.13653 c -1.87008,-1.51588 -3.804,-3.08292 -3.41207,-4.81965 0.24483,-1.08055 1.06469,-1.73284 1.70992,-2.08985 0.96167,-0.53587 2.06869,-0.72672 2.78447,-0.72672 0.89782,0 1.70321,0.13723 2.39466,0.40887 1.80692,0.70379 2.67299,2.22532 3.27624,3.60679 0.2346,0.6022 0.85761,0.94757 1.70957,0.94757 0.94121,0 2.06445,-0.4826 2.23837,-1.26189"
       style="fill:#013da6;fill-opacity:1;fill-rule:nonzero;stroke:none;stroke-width:0.352778" />
    <path
       id="path37"
       d="m 414.18569,157.1044 c -0.73589,3.26178 -2.65712,7.02204 -5.01368,9.81181 -1.98437,2.34809 -5.19994,5.14703 -9.25089,5.14703 -1.02447,0 -2.9143,-0.21414 -4.05906,-1.64571 -1.08444,-1.35608 -1.30281,-3.51402 -0.64876,-6.41315 0.72496,-3.22509 2.65219,-6.96277 5.0292,-9.75536 1.53176,-1.80199 3.17324,-3.15842 4.87821,-4.03119 1.45662,-0.74754 2.95134,-1.12678 4.44324,-1.12678 h 0.12347 c 2.06305,0.0289 3.48791,0.7807 4.23545,2.23485 0.70944,1.38642 0.80045,3.38455 0.26282,5.7785 m 6.84847,1.3589 v -3.5e-4 c 1.38184,-6.13446 -1.08408,-10.65989 -6.59588,-12.10592 -0.0794,-0.0208 -0.10654,-0.0794 -0.11571,-0.11254 -0.009,-0.0328 -0.0159,-0.0967 0.0406,-0.15487 1.30563,-1.34091 2.15935,-2.8762 2.53647,-4.56212 0.99236,-4.39879 -2.27895,-7.00934 -5.16573,-9.31298 l -0.1725,-0.13723 c -1.87114,-1.51554 -3.80612,-3.08293 -3.41348,-4.82071 0.46214,-2.05176 3.00143,-2.81623 4.49298,-2.81623 3.45933,0 4.81188,2.03624 5.67231,4.0132 0.23213,0.60396 0.85513,0.95039 1.70886,0.95039 0.94156,0 2.06516,-0.4819 2.23837,-1.25836 l 0.0349,-0.15346 c 0.01,-0.0575 0.0127,-0.11148 0.008,-0.17321 -0.0765,-0.79869 -0.14393,-1.66864 -0.20885,-2.51002 l -0.0272,-0.35136 c -0.0734,-0.94933 -0.14922,-1.93111 -0.24342,-2.80847 -0.0645,-0.73554 -0.49671,-1.01317 -0.74753,-1.11266 -0.26141,-0.10513 -0.70626,-0.16757 -1.34902,0.139 l -1.52471,0.8008 c -0.0448,0.0236 -0.10019,0.0215 -0.15311,-0.006 -2.00025,-1.02446 -4.34586,-1.10419 -5.01755,-1.10419 -5.18478,0 -11.2074,2.92523 -12.31195,7.82002 -0.81985,3.63291 1.96286,6.15739 4.88209,8.43104 2.29906,1.80975 4.31942,3.62479 3.80189,5.93019 -0.28998,1.28905 -1.15041,2.38584 -2.42006,3.0861 -0.019,0.0102 -0.0385,0.0169 -0.0529,0.0194 -1.08056,0.17497 -2.17205,0.43779 -3.24485,0.78175 l -0.21872,0.0346 c -2.31952,-0.0152 -3.37997,-0.7366 -3.86151,-1.34055 -0.56268,-0.70661 -0.53834,-1.48731 -0.41875,-2.01754 0.21026,-0.93133 0.92781,-1.7219 1.87184,-2.0641 0.17357,-0.0621 0.32032,-0.18732 0.39547,-0.32949 0.10724,-0.18451 0.11394,-0.40288 0.0176,-0.5842 -0.48225,-0.91229 -1.43828,-1.37443 -2.84198,-1.37443 -2.24826,0 -4.99004,1.56034 -5.64374,4.45206 -0.6029,2.67864 1.06927,4.83764 4.58682,5.92279 0.0804,0.025 0.1016,0.0896 0.10689,0.12558 0.005,0.03 0.007,0.10478 -0.0681,0.15593 -0.54151,0.37042 -1.06645,0.76024 -1.55963,1.15852 -3.90772,3.1489 -6.70278,7.41469 -7.66904,11.70341 -0.87171,3.8682 -0.24976,7.09647 1.79952,9.33626 1.95439,2.13113 5.08882,3.25755 9.06392,3.25755 5.00839,0 10.04782,-1.8609 14.18943,-5.24051 3.86786,-3.1556 6.63716,-7.40798 7.59777,-11.66707"
       style="fill:#013da6;fill-opacity:1;fill-rule:nonzero;stroke:none;stroke-width:0.352778" />
    <path
       id="path38"
       d="m 455.88577,155.31674 c -0.20567,-0.26035 -0.62124,-0.50059 -0.80962,-0.5842 -0.92146,-0.41028 -1.94734,-0.2473 -2.87691,0.0445 -1.43228,0.44909 -2.76824,1.17263 -4.0894,1.8729 -0.36442,0.19297 -0.70097,0.37041 -0.99977,0.52105 0.70273,-1.59738 1.3522,-3.0099 1.93851,-4.21569 1.00154,-2.27013 2.62961,-3.4216 4.83941,-3.4216 0.69921,0 1.20791,-0.34219 1.43334,-0.9659 0.0434,-0.12206 0.11006,-0.25612 0.18027,-0.39829 l 0.0282,-0.0575 c 0.1023,-0.20144 0.19967,-0.39829 0.26423,-0.57961 0.18062,-0.43886 0.048,-0.73731 -0.0519,-0.88195 -0.17074,-0.23848 -0.46108,-0.36301 -0.77576,-0.33267 -1.63442,0.14817 -3.43076,0.21731 -5.65326,0.21731 -2.1523,0 -3.77825,-0.0642 -5.11634,-0.20249 -0.0229,-3.5e-4 -0.0451,-3.5e-4 -0.0681,-7.1e-4 l -0.42052,0.03 c -0.0233,0.004 -0.0473,0.008 -0.0706,0.012 -0.4946,0.13653 -0.86007,0.45544 -1.03188,0.90206 -0.0522,0.14217 -0.13017,0.30621 -0.21872,0.4893 -0.0875,0.17886 -0.19685,0.40217 -0.27093,0.60748 -0.15946,0.41452 -0.0272,0.69286 0.0674,0.82339 0.11254,0.15416 0.33549,0.3376 0.76059,0.3376 1.11689,0 1.83621,0.19121 2.13783,0.56868 0.21555,0.26988 0.24624,0.6798 0.0995,1.32962 -0.0818,0.36583 -0.21202,0.77188 -0.37606,1.17722 -0.0247,0.0409 -0.0437,0.0801 -0.0536,0.11148 -0.33196,0.88406 -1.04704,2.65959 -2.01401,4.99992 -0.7366,1.78752 -1.60549,3.86679 -2.44686,5.8547 -0.0187,0.0437 -0.0459,0.0723 -0.084,0.0861 -0.0438,0.0162 -0.097,0.013 -0.14182,-0.01 -0.0423,-0.0205 -0.0684,-0.0582 -0.0776,-0.10901 l -2.88572,-16.26658 c -0.1778,-0.94756 -1.14547,-0.9585 -1.48979,-0.96132 l -0.16827,0.0109 c -1.13912,0.14075 -2.62714,0.20919 -4.54766,0.20919 -2.34562,0 -4.52755,-0.13299 -5.35763,-0.21766 -0.0409,-0.004 -0.10372,-0.005 -0.1651,0.005 -0.61737,0.0882 -1.08444,0.43426 -1.28306,0.95391 -0.0533,0.14428 -0.13052,0.30727 -0.21837,0.4893 -0.0875,0.17886 -0.19685,0.40217 -0.27234,0.60995 -0.15663,0.41593 -0.0247,0.69215 0.0681,0.82056 0.11253,0.15417 0.33549,0.33796 0.76094,0.33796 1.14829,0 1.78611,0.1577 2.06869,0.51083 0.22754,0.28363 0.26387,0.75212 0.11147,1.4298 -0.0892,0.39229 -0.22472,0.8001 -0.3556,1.19451 l -0.0169,0.0515 c -1.19839,3.18381 -4.86269,12.08757 -6.35847,15.24529 -1.05374,2.27718 -2.68287,3.43147 -4.84222,3.43147 -0.69886,0 -1.20791,0.34219 -1.43263,0.96343 -0.0508,0.14005 -0.12877,0.30092 -0.2219,0.49354 -0.0974,0.20002 -0.19862,0.4064 -0.26141,0.58808 -0.17286,0.41487 -0.0381,0.70097 0.0557,0.8315 0.1531,0.21801 0.41451,0.34325 0.7172,0.34325 0.0138,0 0.0321,-0.001 0.0512,-0.003 1.9618,-0.1404 3.93947,-0.21801 5.56824,-0.21801 1.6182,0 3.43818,0.073 5.26309,0.21096 0.0145,3.5e-4 0.0286,7e-4 0.0427,7e-4 l 0.27129,-0.0109 c 0.0183,-0.002 0.037,-0.005 0.0554,-0.007 0.56798,-0.11253 0.98355,-0.44308 1.17087,-0.93309 0.0529,-0.14182 0.13088,-0.29916 0.21449,-0.46461 l 0.0145,-0.03 c 0.0896,-0.18097 0.18203,-0.36794 0.24906,-0.54892 0.13899,-0.34537 0.12559,-0.63888 -0.0385,-0.87207 -0.11006,-0.15663 -0.33372,-0.34395 -0.77752,-0.34395 -1.14265,0 -1.86972,-0.18239 -2.16112,-0.54258 -0.1979,-0.24482 -0.23283,-0.61136 -0.11218,-1.18745 l 0.0328,-0.10724 c 0.0138,-0.0377 0.0272,-0.0776 0.0409,-0.11995 l 0.0702,-0.21731 c 0.042,-0.12947 0.0896,-0.27693 0.13547,-0.42262 l 0.0864,-0.27094 c 0.0409,-0.12806 0.0783,-0.24447 0.10195,-0.3182 1.05763,-2.80917 4.05942,-10.30429 6.27557,-15.23753 0.0416,-0.0917 0.12065,-0.0981 0.16333,-0.0935 0.0423,0.005 0.11677,0.0261 0.13865,0.12347 1.77235,7.69514 3.50026,19.89561 3.53695,20.46782 0.003,0.0279 0.009,0.0787 0.0258,0.12347 0.24271,0.74824 0.85372,0.8442 1.3596,0.8442 h 0.98884 l 0.12771,-0.002 c 2.7252,-0.0473 3.29247,-0.0571 3.7412,-0.86183 0.006,-0.0117 0.0208,-0.0434 0.0261,-0.0557 0.006,-0.012 0.0116,-0.0247 0.0162,-0.0374 0.47201,-1.27705 0.9532,-2.55058 1.44074,-3.82164 0.47731,-1.24425 0.86325,-2.63878 1.49437,-3.80647 0.90946,-1.6824 2.3943,-2.83563 3.81494,-4.05553 1.16064,-0.99695 2.28,-2.04012 3.40219,-3.0794 0.95814,-0.88759 1.8997,-1.83974 3.10232,-2.39501 0.29034,-0.13406 0.59408,-0.24306 0.90876,-0.30339 0.29492,-0.0561 0.61101,-0.003 0.89676,-0.0762 0.31891,-0.0822 0.47061,-0.35383 0.254,-0.62759"
       style="fill:#013da6;fill-opacity:1;fill-rule:nonzero;stroke:none;stroke-width:0.352778" />
  </g>
</svg>
