<?xml version="1.0" encoding="UTF-8" standalone="no"?>
<!-- Created with Inkscape (http://www.inkscape.org/) -->

<svg
   width="202.84738mm"
   height="23.734529mm"
   viewBox="0 0 202.84738 23.73453"
   version="1.1"
   id="svg1"
   xmlns="http://www.w3.org/2000/svg"
   xmlns:svg="http://www.w3.org/2000/svg">
  <defs
     id="defs1" />
  <g
     id="layer1"
     transform="translate(-147.38571,-176.75931)">
    <path
       id="path3"
       d="m 162.86117,184.50998 c -0.10724,0.51964 -0.0205,1.016 0.23213,1.32362 0.22084,0.27023 0.55456,0.40675 0.99307,0.40675 1.6196,0 2.93193,-1.6838 3.26566,-3.30976 0.21766,-1.07703 0.0261,-2.08421 -0.52811,-2.76366 -0.60678,-0.74295 -1.61113,-1.12042 -2.98732,-1.12042 -3.26884,0 -5.85823,2.3107 -7.45772,4.24427 -1.90147,2.30505 -3.41983,5.38797 -3.96275,8.04404 -0.23213,1.13806 -0.63289,3.96557 0.68509,5.57988 0.63571,0.7807 1.60831,1.17546 2.89137,1.17546 2.73755,0 4.80448,-1.61396 5.81766,-4.54589 0.31361,-0.89994 0.32808,-1.12078 0.23212,-1.26013 -0.0607,-0.0811 -0.28151,-0.21484 -1.04492,-0.20002 -0.10443,0 -0.35137,-0.003 -0.49354,-0.21202 -0.0667,-0.0988 -0.12771,-0.27305 -0.0377,-0.54857 0.0582,-0.16863 0.13053,-0.32808 0.19756,-0.47343 0.0579,-0.13053 0.11888,-0.26423 0.15945,-0.38876 0.006,-0.0176 0.0145,-0.0349 0.0233,-0.0526 0.18591,-0.3803 0.48789,-0.62124 0.85054,-0.68192 0.0293,-0.003 0.0582,-0.006 0.0871,-0.003 0.78387,0.0699 1.72438,0.1076 2.6476,0.1076 1.62842,0 3.39936,-0.11042 5.1181,-0.32244 0.0783,-0.008 0.15663,0.006 0.2233,0.0438 0.25859,0.14499 0.35737,0.44414 0.22931,0.72284 l -0.35983,0.91157 c -0.15099,0.44697 -0.45579,0.68228 -0.88548,0.68228 h -0.006 c -1.34126,0.0289 -1.8348,0.5341 -2.33398,1.53282 l -2.36608,5.97711 c -0.0699,0.18874 -0.2293,0.35701 -0.42686,0.44697 -0.22049,0.1016 -0.45579,0.10477 -0.62971,0.006 -0.0205,-0.0117 -0.0377,-0.0233 -0.0554,-0.0349 l -1.47461,-1.21355 -0.10443,0.0522 c -2.2673,1.14406 -4.1282,1.84926 -6.3955,1.84926 -2.56611,0 -4.63903,-0.87383 -5.98876,-2.52836 -1.4605,-1.78823 -1.9364,-4.38362 -1.33844,-7.30391 0.67945,-3.32705 2.80423,-6.73523 5.82648,-9.34508 3.12949,-2.70546 6.88305,-4.31941 10.55511,-4.54872 h 0.0321 c 2.86244,0.0406 5.1181,0.90558 6.35177,2.4384 0.85337,1.05939 1.16981,2.38619 0.89711,3.73309 -0.28469,1.39065 -1.14371,2.67088 -2.41547,3.60292 -1.39629,1.02482 -3.19899,1.56457 -5.21088,1.56457 -1.58503,0 -2.9524,-0.51682 -3.66077,-1.38465 -0.45579,-0.55739 -0.61525,-1.24248 -0.46144,-1.98579 0.30198,-1.4806 1.64889,-2.36572 2.77813,-2.36572 0.55456,0 0.93204,0.2032 1.18145,0.63852 0.0871,0.15382 0.0466,0.35702 -0.0984,0.49072 -0.28187,0.25541 -0.46743,0.59796 -0.55174,1.01882"
       style="fill:#ffffff;fill-opacity:1;fill-rule:nonzero;stroke:none;stroke-width:0.352778" />
    <path
       id="path4"
       d="m 224.46035,194.50216 -0.32209,0.67627 c -1.53599,3.22545 -5.30965,5.30684 -9.61495,5.30684 -2.92347,0 -5.35623,-0.84173 -6.5084,-2.25566 -0.68227,-0.83608 -0.91158,-1.84044 -0.67945,-2.98133 0.46743,-2.28176 2.4384,-3.51543 4.05835,-3.51543 0.9959,0 1.67217,0.35702 2.0059,1.05657 0.0494,0.1016 0.0466,0.22367 -0.008,0.33373 -0.0494,0.1016 -0.13652,0.17992 -0.24094,0.22366 -0.72567,0.29034 -1.28024,0.96379 -1.44287,1.75931 -0.14217,0.69673 0.003,1.35255 0.40358,1.84608 0.55139,0.67345 1.55011,1.03082 2.88855,1.03082 2.2352,0 4.00614,-1.31516 4.40654,-3.27202 0.39476,-1.94768 -1.11477,-3.44558 -2.83633,-4.94065 -2.11631,-1.81433 -4.13385,-3.82905 -3.55036,-6.69431 0.80152,-3.91054 5.18478,-6.24452 8.96162,-6.24452 0.49071,0 2.20063,0.0639 3.65513,0.8883 l 0.09,0.0522 1.20473,-0.69956 c 0.35419,-0.18591 0.67628,-0.22366 0.93169,-0.11042 0.16263,0.0699 0.44132,0.26705 0.48507,0.79834 0.0723,0.76341 0.13053,1.61713 0.19156,2.45603 v 0.0349 c 0.0462,0.66746 0.1016,1.42522 0.15945,2.10185 0.003,0.0378 0.003,0.0723 -0.006,0.11007 l -0.0233,0.10759 c -0.11324,0.55739 -0.89393,0.92887 -1.55292,0.92887 -0.57785,0 -1.01636,-0.25824 -1.17017,-0.69956 -0.68227,-1.7272 -1.67216,-3.32105 -4.25556,-3.32105 -1.12359,0 -3.04235,0.64452 -3.39689,2.37455 -0.30445,1.49225 1.1497,2.78694 2.55481,4.04389 l 0.12207,0.10759 c 1.99143,1.75049 4.47039,3.93065 3.75919,7.41116 -0.0261,0.13088 -0.0579,0.26141 -0.09,0.38911 z"
       style="fill:#ffffff;fill-opacity:1;fill-rule:nonzero;stroke:none;stroke-width:0.352778" />
    <path
       id="path5"
       d="m 245.84979,182.35016 c 0.003,0.0406 0,0.0783 -0.006,0.11324 l -0.0233,0.11042 c -0.11324,0.55421 -0.89429,0.92604 -1.55328,0.92604 -0.5775,0 -1.016,-0.25858 -1.16981,-0.69991 -0.68509,-1.7272 -1.67217,-3.32105 -4.25591,-3.32105 -1.12642,0 -3.04236,0.64453 -3.39654,2.3749 -0.3048,1.49225 1.1497,2.78695 2.55481,4.04389 l 0.12171,0.10725 c 2.09621,1.84361 4.47075,3.93382 3.75955,7.41151 -0.85054,4.16277 -5.04825,7.06896 -10.20692,7.06896 -2.92347,0 -5.35622,-0.84208 -6.50875,-2.25566 -0.67345,-0.82445 -0.90558,-1.81434 -0.68509,-2.94076 l 0.13935,-0.7172 0.35419,-0.63288 c 0.85337,-1.524 2.40665,-2.20627 3.56764,-2.20627 0.99871,0 1.67216,0.35701 2.00907,1.05692 0.0494,0.1016 0.0466,0.22331 -0.009,0.33373 -0.0494,0.1016 -0.13617,0.17991 -0.24095,0.22366 -0.72849,0.28998 -1.28023,0.96379 -1.44286,1.75895 -0.14217,0.69673 0,1.3529 0.40358,1.84644 0.55174,0.67345 1.55046,1.03046 2.88854,1.03046 2.23555,0 4.00332,-1.3148 4.40408,-3.27166 0.39758,-1.94486 -1.11196,-3.44593 -2.83351,-4.94101 -2.11632,-1.81433 -4.13667,-3.82905 -3.55036,-6.69431 0.79834,-3.91018 5.18195,-6.24416 8.95879,-6.24416 0.49072,0 2.20345,0.0639 3.6576,0.88829 l 0.09,0.0522 1.20474,-0.69956 c 0.35419,-0.18309 0.67663,-0.22083 0.93204,-0.11041 0.16263,0.0695 0.44132,0.26987 0.48189,0.79833 0.0755,0.76941 0.1337,1.6256 0.19438,2.4705 0.0466,0.66746 0.0988,1.4224 0.15981,2.11914"
       style="fill:#ffffff;fill-opacity:1;fill-rule:nonzero;stroke:none;stroke-width:0.352778" />
    <path
       id="path6"
       d="m 268.69069,182.68689 c -0.21202,1.03928 -0.76341,2.038 -1.55328,2.81305 -0.0607,0.0582 -0.12171,0.11889 -0.18556,0.17427 -1.79105,1.60232 -4.21534,1.68945 -6.35459,1.76495 l -0.72002,0.0289 0.0984,-0.25824 c 0.80715,-2.08738 1.50107,-3.82058 1.95403,-4.87997 0.70521,-1.68663 1.43687,-2.75484 2.90301,-2.84515 l 0.0462,-0.003 c 1.59102,-0.061 2.75519,0.29034 3.37044,1.016 0.46178,0.54575 0.61841,1.32398 0.44132,2.18899 m -3.52143,10.19845 c -0.61242,2.99861 -3.71581,4.56636 -6.465,4.56636 -0.90876,0 -1.47179,-0.15099 -1.72438,-0.46179 -0.17709,-0.21484 -0.21766,-0.52811 -0.12771,-1.01 l -0.18273,-0.0582 0.10724,-0.34819 0.17145,0.0522 0.09,-0.31362 c 0.0667,-0.22931 0.13652,-0.47025 0.17709,-0.6156 0.33373,-1.00718 0.9839,-2.8014 1.78823,-4.92901 l 0.0434,-0.11924 h 3.58811 c 0.85372,0 1.61713,0.33408 2.09021,0.9144 0.48189,0.5895 0.6357,1.39065 0.44414,2.32269 m 7.36212,-13.65003 c -1.14088,-1.39947 -3.34433,-2.11067 -6.54932,-2.11067 -0.78951,0 -1.54728,0.0321 -2.35126,0.0667 l -0.12488,0.006 c -0.71403,0.0349 -1.68381,0.0349 -2.39219,0.0349 -1.31798,0 -2.1396,-0.0522 -2.74038,-0.09 l -0.23812,-0.0148 c -0.34537,-0.0377 -0.61243,-0.0377 -0.87066,-0.0377 -3.83505,0 -7.61471,2.64477 -8.25359,5.77709 -0.19156,0.93768 -0.0317,1.78258 0.45297,2.37772 0.40922,0.502 1.02764,0.77787 1.73884,0.77787 1.15253,0 2.31105,-0.81562 2.75802,-1.93922 0.0434,-0.11042 0.0349,-0.2293 -0.0205,-0.32526 -0.0579,-0.10124 -0.16546,-0.16227 -0.28716,-0.16827 -0.27023,-0.0116 -0.49954,-0.12771 -0.66499,-0.33973 -0.23495,-0.30162 -0.31327,-0.75459 -0.21167,-1.2453 0.24942,-1.22202 1.69792,-2.58939 3.26002,-2.58939 0.49636,0 0.84173,0.1277 1.05657,0.39476 0.31644,0.38629 0.37148,1.05657 0.16828,2.04964 -0.0783,0.37712 -0.18556,0.72848 -0.2787,1.03046 -0.93168,2.83034 -3.34998,9.10096 -4.4764,11.71645 -0.80997,1.9685 -1.66934,2.84516 -2.78094,2.84516 -0.47907,0 -0.8128,0.24094 -0.96379,0.70238 -0.0406,0.12488 -0.1016,0.26141 -0.16545,0.40358 -0.067,0.15663 -0.14253,0.32526 -0.19156,0.47307 -0.1016,0.28187 -0.0261,0.46461 0.0289,0.54892 0.1016,0.15664 0.28151,0.24377 0.48471,0.22931 1.51554,-0.11607 3.04236,-0.14217 4.05554,-0.14217 2.00307,0 3.84351,0.1016 5.79155,0.20884 l 0.0755,0.006 c 0.38312,0.0377 0.72002,0.0377 1.0481,0.0377 2.89984,0 5.44584,-0.78987 7.36777,-2.27895 1.59385,-1.23684 2.71145,-2.94393 3.06846,-4.68277 0.12206,-0.6096 0.35701,-2.71991 -1.86373,-4.38361 l -0.22366,-0.16546 0.24413,-0.13617 c 2.58656,-1.44004 4.38643,-3.54189 4.81012,-5.62328 0.12206,-0.59513 0.29316,-2.12513 -0.76059,-3.41383"
       style="fill:#ffffff;fill-opacity:1;fill-rule:nonzero;stroke:none;stroke-width:0.352778" />
    <path
       id="path7"
       d="m 285.97819,177.94337 c -0.0494,0.14499 -0.12206,0.3048 -0.19438,0.46143 -0.0582,0.13371 -0.11606,0.26141 -0.15381,0.37748 -0.15417,0.46178 -0.48789,0.70273 -0.96697,0.70273 -1.10313,0 -1.88383,0.80116 -2.78376,2.85644 -1.08868,2.55164 -3.82059,9.75713 -4.70888,12.35251 -0.009,0.0201 -0.0145,0.0374 -0.0349,0.0783 -0.13934,0.4064 -0.25541,0.82162 -0.33373,1.20191 -0.12206,0.59796 -0.0956,0.99554 0.0811,1.21038 0.14817,0.17992 0.42122,0.26706 0.83926,0.26706 0.23213,0 0.39758,0.0755 0.49636,0.2293 0.0988,0.15381 0.1016,0.34255 0.0116,0.58632 -0.0466,0.14252 -0.11606,0.29916 -0.18873,0.45579 -0.061,0.13652 -0.11924,0.26423 -0.15699,0.38347 -0.13335,0.38311 -0.44097,0.62971 -0.86783,0.69956 -0.0289,0.006 -0.061,0.006 -0.09,0.003 -1.36137,-0.11607 -2.66806,-0.1771 -3.88726,-0.1771 -1.22202,0 -2.50225,0.055 -4.01779,0.1771 l -0.0406,0.003 c -0.25823,0 -0.38911,-0.11889 -0.45578,-0.21484 -0.0667,-0.1016 -0.12489,-0.27552 -0.0289,-0.55139 0.0522,-0.15699 0.12488,-0.32244 0.19438,-0.4819 0.0639,-0.14534 0.12488,-0.28469 0.16545,-0.40922 0.15099,-0.45896 0.48472,-0.70273 0.96661,-0.70273 1.34726,0 2.13396,-1.37301 2.78412,-2.85644 1.0915,-2.55482 3.82059,-9.75995 4.70853,-12.3497 0.14252,-0.36865 0.27023,-0.80962 0.35137,-1.21038 0.13088,-0.63852 0.10477,-1.05657 -0.0811,-1.28622 -0.14535,-0.17675 -0.41522,-0.26388 -0.82162,-0.26388 -0.15381,0 -0.36301,-0.0377 -0.48754,-0.22966 -0.0554,-0.0811 -0.13088,-0.25823 -0.0349,-0.53975 0.0522,-0.15099 0.12171,-0.31362 0.19721,-0.48189 0.067,-0.15382 0.12488,-0.2847 0.16263,-0.40358 0.1337,-0.38312 0.44132,-0.63006 0.86818,-0.69956 0.0346,-0.006 0.0723,-0.006 0.11324,-0.003 0.96662,0.12171 2.17135,0.17709 3.79131,0.17709 1.61396,0 2.91465,-0.0554 4.08728,-0.17709 0.2032,-0.0205 0.38911,0.0639 0.49071,0.22648 0.0582,0.09 0.13935,0.28152 0.0261,0.58914"
       style="fill:#ffffff;fill-opacity:1;fill-rule:nonzero;stroke:none;stroke-width:0.352778" />
    <path
       id="path8"
       d="m 301.74741,182.36177 c 0.003,0.0349 0,0.0727 -0.006,0.11042 l -0.0233,0.10724 c -0.11324,0.55457 -0.89429,0.92887 -1.55328,0.92887 -0.5775,0 -1.016,-0.26106 -1.16981,-0.70238 -0.68509,-1.72438 -1.67217,-3.32105 -4.25591,-3.32105 -1.12642,0 -3.04236,0.64452 -3.39654,2.37454 -0.3048,1.49225 1.1497,2.78977 2.55481,4.0439 l 0.12171,0.10759 c 1.99143,1.75331 4.47075,3.93348 3.75955,7.41433 -0.85054,4.15996 -5.04825,7.06861 -10.20692,7.06861 -2.92347,0 -5.35622,-0.84455 -6.50875,-2.25531 -0.68509,-0.83926 -0.91157,-1.84079 -0.67909,-2.9845 0.46707,-2.28176 2.4384,-3.5126 4.05518,-3.5126 0.99871,0 1.67216,0.35418 2.00907,1.05656 0.0494,0.1016 0.0466,0.22367 -0.009,0.33409 -0.0494,0.0984 -0.13653,0.17991 -0.24095,0.22048 -0.72566,0.29034 -1.28023,0.96379 -1.44286,1.7593 -0.14217,0.69674 0.003,1.35291 0.40358,1.84644 0.55174,0.67346 1.55046,1.03047 2.88854,1.03047 2.2352,0 4.00332,-1.31516 4.40408,-3.27166 0.39758,-1.94522 -1.11196,-3.44594 -2.83351,-4.93819 -2.11632,-1.81716 -4.13667,-3.83187 -3.55036,-6.69713 0.79834,-3.90737 5.18478,-6.24452 8.96162,-6.24452 0.48753,0 2.20062,0.0639 3.65477,0.88829 l 0.09,0.0522 1.20474,-0.69674 c 0.35419,-0.18556 0.67663,-0.22331 0.93204,-0.11007 0.16263,0.0695 0.44132,0.26706 0.48189,0.79834 0.0727,0.75177 0.1337,1.58785 0.18874,2.39783 l 0.006,0.0695 c 0.0437,0.63006 0.096,1.41675 0.15981,2.12513"
       style="fill:#ffffff;fill-opacity:1;fill-rule:nonzero;stroke:none;stroke-width:0.352778" />
    <path
       id="path9"
       d="m 319.25844,185.77571 c -0.54292,2.66206 -1.96532,5.73052 -3.71016,8.00664 -1.46897,1.91876 -3.85516,4.20653 -6.86859,4.20653 -0.72284,0 -2.06692,-0.15981 -2.94357,-1.2312 -0.9144,-1.12042 -1.12043,-2.95522 -0.6096,-5.45183 0.53728,-2.63278 1.96532,-5.68113 3.7218,-7.96007 1.48625,-1.92476 3.88973,-4.21781 6.9208,-4.21781 1.6256,0 2.6998,0.61242 3.28612,1.86937 0.53693,1.15534 0.60678,2.8074 0.2032,4.77837 m 3.55917,-6.40115 c -1.39065,-1.70709 -3.62584,-2.60985 -6.45936,-2.60985 -3.70416,0 -7.42279,1.48943 -10.46832,4.19488 -2.85362,2.53435 -4.89162,5.96582 -5.59682,9.41176 -0.63289,3.09139 -0.18309,5.66667 1.29469,7.44325 1.41676,1.70674 3.69852,2.60668 6.59836,2.60668 3.66395,0 7.34765,-1.4979 10.37554,-4.22099 2.8247,-2.54282 4.84505,-5.96265 5.54461,-9.3853 0.18592,-0.90276 0.27587,-1.76212 0.27587,-2.5721 0,-1.94204 -0.52528,-3.59974 -1.56457,-4.86833"
       style="fill:#ffffff;fill-opacity:1;fill-rule:nonzero;stroke:none;stroke-width:0.352778" />
    <path
       id="path10"
       d="m 350.17555,177.94337 c -0.0466,0.14217 -0.11606,0.29916 -0.18591,0.45297 -0.0607,0.13617 -0.12171,0.26423 -0.15946,0.38594 -0.15416,0.45861 -0.48789,0.70273 -0.96696,0.70273 -1.68346,0 -2.87691,0.92886 -3.64032,2.83598 -2.02318,4.58964 -4.62456,11.83569 -6.2357,16.64617 -0.006,0.0201 -0.0145,0.0377 -0.0233,0.055 -0.29316,0.58068 -0.63853,0.60396 -2.67053,0.64453 h -0.81879 c -0.36266,0 -0.75495,-0.0699 -0.91158,-0.60678 -0.006,-0.0205 -0.0116,-0.0494 -0.0145,-0.0783 -0.0261,-0.45861 -1.31515,-10.4655 -2.62149,-16.68956 l -0.12171,-0.58067 -0.22366,0.54892 c -1.70109,4.15996 -3.90172,10.24749 -4.65349,12.44212 l -0.27587,0.95215 c -0.0201,0.0699 -0.0378,0.13088 -0.0639,0.20919 -0.10443,0.54293 -0.0667,0.90276 0.12488,1.13807 0.24659,0.30162 0.78105,0.44979 1.63442,0.44979 0.2293,0 0.39758,0.0755 0.49636,0.2293 0.0988,0.15381 0.1016,0.34255 0.0116,0.58632 -0.0466,0.14534 -0.11607,0.30198 -0.19156,0.46179 -0.061,0.13335 -0.11606,0.26105 -0.15381,0.37747 -0.1337,0.38311 -0.44133,0.62971 -0.86819,0.69956 -0.0201,0.003 -0.0406,0.006 -0.061,0.006 l -0.0346,-0.003 c -1.37619,-0.11607 -2.74073,-0.1771 -3.95393,-0.1771 -1.20192,0 -2.65642,0.0639 -4.09046,0.1771 l -0.0378,0.003 c -0.19156,0 -0.35983,-0.0871 -0.45579,-0.23213 -0.0522,-0.0843 -0.13052,-0.26705 -0.0261,-0.54857 0.0494,-0.14534 0.12206,-0.31362 0.19438,-0.47907 0.0639,-0.14217 0.12206,-0.27869 0.16263,-0.39758 0.15099,-0.45896 0.48472,-0.70273 0.96379,-0.70273 1.62595,0 2.85079,-0.95815 3.64349,-2.84798 1.10313,-2.56328 3.79694,-9.78288 4.68242,-12.37262 0.1016,-0.33373 0.20602,-0.6791 0.27305,-1.016 0.1277,-0.61842 0.084,-1.0481 -0.12806,-1.30916 -0.24095,-0.29316 -0.70803,-0.42086 -1.56457,-0.42086 -0.15381,0 -0.36301,-0.0377 -0.48754,-0.22966 -0.0526,-0.0811 -0.13088,-0.25823 -0.0321,-0.53693 0.0466,-0.14816 0.11606,-0.30762 0.19155,-0.48189 0.0639,-0.14499 0.12771,-0.28434 0.16546,-0.4064 0.1337,-0.38312 0.44132,-0.63006 0.86818,-0.69956 0.0346,-0.006 0.0695,-0.009 0.10443,-0.003 0.60395,0.0695 2.20627,0.17709 3.94229,0.17709 1.43122,0 2.54317,-0.0582 3.39372,-0.17427 0.0201,-0.003 0.0378,-0.006 0.055,-0.006 0.80998,0 0.96979,0.38912 1.01918,0.67945 l 2.24684,13.96048 0.24095,-0.62689 c 1.24248,-3.23391 2.82151,-7.44326 3.31822,-8.89776 0.008,-0.0233 0.0173,-0.0434 0.0406,-0.09 0.12171,-0.3309 0.21767,-0.66498 0.28152,-0.97261 0.12206,-0.59513 0.0811,-0.9726 -0.12488,-1.22484 -0.25541,-0.31362 -0.78388,-0.46743 -1.61396,-0.46743 -0.15381,0 -0.36019,-0.0377 -0.48472,-0.22966 -0.0554,-0.0811 -0.1337,-0.25823 -0.0349,-0.53693 0.0494,-0.15099 0.11888,-0.31362 0.19438,-0.48189 0.0639,-0.14499 0.12488,-0.28434 0.16545,-0.4064 0.13088,-0.38312 0.4385,-0.63006 0.86501,-0.69956 0.0378,-0.006 0.0727,-0.009 0.11324,-0.003 0.99872,0.12171 2.22391,0.17709 3.86398,0.17709 1.63159,0 2.95522,-0.0554 4.16313,-0.17709 0.0201,-0.003 0.0406,-0.003 0.0578,-0.003 0.17992,0 0.33691,0.0843 0.42969,0.22966 0.0582,0.09 0.13652,0.28434 0.0233,0.58914"
       style="fill:#ffffff;fill-opacity:1;fill-rule:nonzero;stroke:none;stroke-width:0.352778" />
    <path
       id="path11"
       d="m 201.6049,183.45619 -0.74612,5.75381 -0.11607,0.57785 -0.23812,-0.21802 c -0.87383,-0.81562 -1.75049,-1.42522 -2.68253,-1.86655 l -0.19155,-0.09 4.17477,-6.26462 z m 4.97276,14.16367 c -0.0928,-0.11324 -0.23495,-0.17709 -0.40041,-0.17709 -0.46461,0 -0.77223,-0.10724 -0.99871,-0.35101 -0.33091,-0.35702 -0.46743,-1.016 -0.39758,-1.95968 l 0.61242,-7.21678 c 0.11324,-1.26012 0.25823,-2.52871 0.39758,-3.75355 0.0667,-0.60678 0.13653,-1.20474 0.20038,-1.80587 l 0.47907,-4.42983 c 0.0378,-0.22931 -0.006,-0.42969 -0.1277,-0.57503 -0.12207,-0.14782 -0.31645,-0.23213 -0.53411,-0.23213 -0.0205,0 -0.0409,0 -0.0582,0.003 -0.41522,0.061 -1.51236,0.10442 -2.72873,0.10442 -1.07704,0 -2.18335,-0.0406 -2.88573,-0.10724 -0.0321,-0.003 -0.0667,0 -0.1016,0.006 -0.4325,0.067 -0.6678,0.38347 -0.85936,0.7172 l -0.41522,0.81562 c -0.0173,0.0349 -0.0317,0.0699 -0.0377,0.1076 -0.0406,0.19438 0,0.3743 0.11324,0.51365 0.1016,0.12805 0.25859,0.20037 0.42404,0.20037 0.25823,0 0.3743,0.0406 0.42968,0.0755 l 0.061,0.0406 0.0145,0.0727 c 0.0201,0.0815 0.0261,0.33091 -0.29316,0.87665 l -4.37797,6.36658 -0.11889,-0.0233 c -0.64452,-0.12206 -1.16134,-0.18027 -1.57621,-0.18027 -2.1717,0 -4.54942,0.67945 -6.52321,1.8669 -2.02636,1.2192 -3.37644,2.82751 -3.70135,4.41254 -0.0727,0.35702 -0.09,0.69074 -0.0554,0.99554 l 0.0116,0.0843 -0.0579,0.061 c -1.95968,2.07574 -4.14549,3.31505 -5.84658,3.31505 h -0.46743 c -1.08021,0 -1.75931,-0.1972 -2.02354,-0.59196 -0.29033,-0.4385 -0.12488,-1.18145 0.21202,-2.16006 l 0.61525,-1.79105 c 0.88547,-2.49379 3.14713,-8.46244 4.05871,-10.56711 0.89958,-2.05528 1.68063,-2.85362 2.78659,-2.85362 0.47907,0 0.8128,-0.24377 0.96379,-0.70238 0.0409,-0.12488 0.0988,-0.25541 0.16263,-0.39193 0.067,-0.15099 0.13934,-0.30763 0.18591,-0.45015 0.11324,-0.3048 0.0349,-0.49918 -0.0233,-0.58631 -0.0928,-0.14817 -0.25824,-0.22931 -0.45015,-0.22931 l -0.049,0.003 c -1.19627,0.11924 -2.5199,0.1771 -4.15431,0.1771 -1.63725,0 -2.86527,-0.0579 -3.86116,-0.1771 -0.0406,-0.006 -0.0783,-0.006 -0.11324,0.003 -0.42651,0.067 -0.73448,0.31645 -0.86783,0.69992 -0.0406,0.11888 -0.1016,0.25823 -0.16545,0.40357 -0.0727,0.16828 -0.14535,0.33091 -0.19474,0.4819 -0.0956,0.27869 -0.0201,0.45861 0.0349,0.53975 0.12488,0.18873 0.33408,0.2293 0.48789,0.2293 0.4064,0 0.67627,0.0871 0.82127,0.26423 0.18591,0.22649 0.21201,0.64735 0.0815,1.28306 -0.0727,0.35419 -0.18592,0.76376 -0.31362,1.12359 -0.0201,0.0434 -0.0289,0.0639 -0.0349,0.0843 -0.75741,2.19463 -2.8709,8.01793 -3.91618,10.56393 l -0.76624,1.80869 c -0.9465,2.3629 -1.76494,2.83598 -2.77812,2.83598 -0.46179,0 -0.80433,0.25576 -0.96379,0.7172 l -0.40922,0.95814 c -0.0116,0.0261 -0.0205,0.055 -0.0265,0.0811 -0.0378,0.19156 0,0.37465 0.11324,0.51082 0.10478,0.12771 0.26423,0.20038 0.44732,0.20038 1.23966,-0.055 2.50508,-0.1016 3.73592,-0.13053 1.23119,-0.0289 2.42711,-0.0466 3.53025,-0.0466 2.37454,0 4.9149,0.0582 7.76534,0.17991 0.45896,0 0.87418,-0.22331 1.15852,-0.62971 l 2.12196,-3.46921 0.12206,0.0233 c 0.19156,0.0346 0.38912,0.0522 0.58067,0.0522 1.29188,0 2.47051,-0.8389 2.93476,-2.09021 0.0409,-0.11042 0.0321,-0.2293 -0.0261,-0.32526 -0.061,-0.0956 -0.16828,-0.15663 -0.28752,-0.15945 -0.40604,-0.0145 -0.69638,-0.12489 -0.86183,-0.33691 -0.19756,-0.24941 -0.24095,-0.65898 -0.12771,-1.21355 0.26106,-1.27423 1.46297,-2.72874 4.05518,-2.98697 0.55175,-0.0466 1.23966,0.003 2.05564,0.15099 l 0.27269,0.0522 -3.72462,5.45183 c -1.07986,1.48907 -2.40665,3.01025 -4.07,3.01025 -0.44132,0 -0.78387,0.24095 -0.99272,0.69674 l -0.37747,0.83608 c -0.14817,0.28187 -0.09,0.47625 -0.0434,0.56903 0.09,0.17427 0.28434,0.27023 0.502,0.25859 1.34409,-0.11642 2.60985,-0.1771 3.6636,-0.1771 1.04211,0 2.24719,0.0579 3.57364,0.1771 h 0.0205 c 0.0173,0 0.0377,0 0.055,-0.003 0.38629,-0.0639 0.7112,-0.31644 0.89712,-0.69674 l 0.38911,-0.85619 c 0.0145,-0.0289 0.0229,-0.0582 0.0317,-0.09 0.0437,-0.21484 0.006,-0.40357 -0.1016,-0.53728 -0.0928,-0.11324 -0.23495,-0.17709 -0.4004,-0.17709 -0.62124,0 -1.02482,-0.10724 -1.19909,-0.31926 -0.14817,-0.17992 -0.11607,-0.44415 -0.0755,-0.653 0.0727,-0.35136 0.28752,-0.80433 0.57468,-1.21355 l 0.16862,-0.24977 c 0.3803,-0.56303 0.8562,-1.26576 1.17546,-1.78541 l 2.39501,-3.37608 0.14534,0.0928 c 2.34562,1.48343 3.77084,3.74227 3.72146,5.89033 -0.0868,0.72567 -0.23778,1.14088 -0.48472,1.36172 -0.19156,0.1711 -0.48472,0.25224 -0.89112,0.25224 -0.44132,0 -0.78387,0.24095 -0.98989,0.69674 l -0.3803,0.83608 c -0.14816,0.28187 -0.09,0.47625 -0.0409,0.56621 0.0903,0.17991 0.28751,0.28151 0.50518,0.26141 0.89711,-0.096 2.02635,-0.14253 3.36479,-0.14253 1.22202,0 2.60668,0.0466 4.22981,0.14253 0.0201,0.003 0.049,0 0.0783,-0.003 0.3803,-0.0639 0.70521,-0.31644 0.89112,-0.69674 l 0.39194,-0.85619 c 0.0116,-0.0289 0.0205,-0.0582 0.0289,-0.09 0.0437,-0.21484 0.006,-0.40357 -0.1016,-0.53728"
       style="fill:#ffffff;fill-opacity:1;fill-rule:nonzero;stroke:none;stroke-width:0.352778" />
  </g>
</svg>
