<?xml version="1.0" encoding="UTF-8" standalone="no"?>
<!-- Created with Inkscape (http://www.inkscape.org/) -->

<svg
   width="275.3822mm"
   height="71.063362mm"
   viewBox="0 0 275.38219 71.063363"
   version="1.1"
   id="svg1"
   xmlns="http://www.w3.org/2000/svg"
   xmlns:svg="http://www.w3.org/2000/svg">
  <defs
     id="defs1" />
  <g
     id="layer1"
     transform="translate(-229.90421,-112.84134)">
    <path
       id="path110"
       d="m 285.18207,113.20928 c -1.03353,0.14883 -2.36471,0.18603 -3.6959,0.18603 -1.92236,0 -3.84472,-0.11162 -4.51032,-0.18603 -0.21911,0.0372 -0.40514,0.14883 -0.44235,0.40514 -0.0372,0.29766 -0.14883,0.62839 -0.18603,0.92604 -0.0372,0.25632 0.14883,0.29352 0.26045,0.29352 2.03398,0 2.58795,0.85163 2.58795,2.18282 0,0.36793 -0.0372,0.77721 -0.11162,1.18235 v -0.0372 c -0.33486,2.69957 -1.62884,10.09137 -2.22002,12.75374 -0.40514,1.88516 -1.43867,3.21634 -3.50986,3.21634 -0.29766,0 -0.44235,0.11162 -0.47956,0.40514 -0.0372,0.29766 -0.14883,0.63252 -0.18603,0.92605 -0.0372,0.22324 0.11162,0.29765 0.22324,0.29765 1.36426,-0.11162 2.88148,-0.18603 4.21266,-0.18603 1.36839,0 2.8112,0.0744 4.13825,0.18603 0.22324,-0.0372 0.40928,-0.14883 0.44648,-0.40928 0.0372,-0.29352 0.14883,-0.59117 0.1819,-0.8847 0.0372,-0.22324 -0.0331,-0.33486 -0.25631,-0.33486 -2.07119,0 -2.58796,-0.85163 -2.58796,-2.1456 0,-0.36794 0.0372,-0.81029 0.11163,-1.21957 v 0.0372 c 0.33072,-2.62516 1.5875,-9.94255 2.21588,-12.75374 0,-0.1447 0.0744,-0.33073 0.44648,-2.2531 l 3.84473,19.37246 h 0.29352 l 10.38903,-19.40966 c 0,1.14515 -0.14883,2.03398 -0.18603,2.40192 -0.36794,2.66237 -1.66192,10.09137 -2.25309,12.75374 -0.40928,1.73633 -1.03767,3.21634 -2.62517,3.21634 -0.29765,0 -0.44648,0.11162 -0.47955,0.40514 -0.0372,0.29766 -0.14883,0.63252 -0.18604,0.92605 -0.0372,0.22324 0.11162,0.29765 0.21911,0.29765 1.36839,-0.11162 2.88561,-0.18603 4.21679,-0.18603 1.3684,0 2.80707,0.0744 4.13825,0.18603 0.22325,-0.0372 0.40928,-0.14883 0.44649,-0.40928 0.0372,-0.29352 0.14469,-0.59117 0.1819,-0.8847 0.0372,-0.22324 -0.0372,-0.33486 -0.25632,-0.33486 -1.33118,0 -1.70325,-0.77721 -1.70325,-1.95957 0,-0.44235 0.0372,-0.92191 0.11162,-1.4056 v 0.0372 c 0.37207,-2.65824 1.66605,-10.09137 2.25723,-12.75374 0.40514,-1.73633 0.99632,-3.21635 2.62516,-3.21635 0.29352,0 0.44235,-0.10748 0.47956,-0.40514 0.0372,-0.29352 0.14882,-0.59118 0.18603,-0.88883 0.0331,-0.21911 -0.0744,-0.33073 -0.22324,-0.33073 -1.29398,0.11162 -2.66237,0.18603 -3.84473,0.18603 -1.4056,0 -2.73678,-0.0744 -3.6959,-0.18603 -0.26044,0 -0.55397,0.14883 -0.7028,0.47956 l -6.98665,12.82815 -2.1456,-12.97698 c -0.11162,-0.21911 -0.29353,-0.33073 -0.74001,-0.33073 z m 37.11608,15.59801 c 0.44235,-1.92236 0.77721,-3.80752 1.07073,-5.65547 0.29766,-1.77353 0.59532,-3.50986 0.96325,-5.10149 0.40515,-1.81075 1.44281,-3.21635 3.50987,-3.21635 0.29765,0 0.44648,-0.10748 0.48369,-0.40514 0.0372,-0.29352 0.14469,-0.59118 0.1819,-0.88883 0.0372,-0.21911 -0.0703,-0.33073 -0.21911,-0.33073 -1.44281,0.14883 -2.92282,0.18603 -4.29121,0.18603 -1.36426,0 -2.80706,-0.0372 -4.06384,-0.18603 -0.22324,0.0372 -0.40927,0.14883 -0.44235,0.40514 -0.0372,0.29766 -0.14882,0.62839 -0.18603,0.92604 -0.0372,0.25632 0.14883,0.29352 0.25631,0.29352 2.03399,0 2.58796,0.85163 2.58796,2.18282 0,0.33073 -0.0372,0.81442 -0.10749,1.18235 -0.22324,1.81075 -0.85162,5.61827 -1.4428,8.57829 -0.77722,3.65869 -2.51354,7.57783 -7.17269,7.57783 -3.40238,0 -4.21266,-2.07119 -4.21266,-4.32428 0,-0.81442 0.11162,-1.62884 0.21911,-2.33164 l 0.52089,-2.80707 c 0.47956,-2.66236 0.99633,-5.65546 1.25677,-6.84195 0.40515,-1.73633 0.99633,-3.21635 2.62103,-3.21635 0.29766,0 0.44649,-0.10748 0.48369,-0.40514 0.0372,-0.29352 0.1447,-0.59118 0.1819,-0.88883 0.0372,-0.21911 -0.0744,-0.33073 -0.2191,-0.33073 -1.44281,0.14883 -2.92282,0.18603 -4.29121,0.18603 -1.36426,0 -2.80707,-0.0372 -4.06384,-0.18603 -0.22324,0.0372 -0.40928,0.14883 -0.44235,0.40514 -0.0372,0.29766 -0.14883,0.62839 -0.18603,0.92604 -0.0372,0.25632 0.14882,0.29352 0.25631,0.29352 1.33119,0 1.70326,0.81443 1.70326,2.03399 0,0.40928 -0.0372,0.88883 -0.11162,1.33118 v -0.0372 c -0.36794,2.47633 -0.88884,5.21311 -1.3684,7.68945 -0.14882,0.7028 -0.26045,1.4056 -0.36793,2.07119 -0.14883,0.85163 -0.22324,1.62471 -0.22324,2.2903 0,4.4359 3.14192,6.17637 7.65224,6.17637 6.28386,0 8.8346,-4.73356 9.46299,-7.58197 z m 14.67817,-15.89567 c -3.43958,0 -7.54476,2.07119 -7.54476,6.06475 0,2.8112 2.55075,4.84105 4.88239,6.5443 2.10427,1.55029 4.13825,3.21634 4.13825,5.43223 0,2.10839 -1.5875,3.7331 -4.21266,3.7331 -3.03031,0 -4.43591,-1.69912 -4.43591,-3.39824 0,-0.92604 0.47956,-1.77767 1.33119,-2.14561 -0.47956,-0.70279 -1.18236,-0.88883 -1.92236,-0.88883 -1.44281,0 -3.06752,1.11208 -3.06752,3.25355 0,3.58841 4.51032,4.95267 8.05739,4.95267 4.65915,0 8.64857,-2.47634 8.64857,-6.91224 0,-3.43545 -2.91869,-5.54385 -5.39502,-7.3918 -1.95957,-1.48001 -3.65869,-2.8112 -3.65869,-4.51032 0,-1.95957 1.92236,-2.8112 3.36103,-2.8112 2.69958,0 4.25401,1.62885 5.47357,3.66283 0.1819,0.33073 0.55397,0.47956 0.95912,0.47956 0.47955,0 1.03766,-0.26045 1.03766,-0.59118 v -0.11162 c -0.44649,-1.51722 -0.88884,-3.25355 -1.33119,-4.73356 -0.14883,-0.51677 -0.5209,-0.69867 -0.96325,-0.44235 l -1.29397,0.85162 c -1.4056,-0.81442 -3.06752,-1.03766 -4.06384,-1.03766 z m 7.02076,22.84925 c 1.36839,-0.11162 2.73679,-0.18603 4.14238,-0.18603 1.3684,0 2.77399,0.0744 4.06384,0.18603 0.22324,-0.0372 0.40928,-0.14883 0.44648,-0.40928 0.0372,-0.29352 0.14883,-0.59117 0.1819,-0.8847 0.0372,-0.22324 -0.0331,-0.33486 -0.25631,-0.33486 -1.33119,0 -1.69912,-0.77721 -1.69912,-1.95957 0,-0.44235 0.0372,-0.92191 0.10748,-1.4056 v 0.0372 c 0.37208,-2.65824 1.66605,-10.09137 2.25723,-12.75374 0.40515,-1.73633 0.99632,-3.21635 2.62517,-3.21635 0.29352,0 0.44234,-0.10748 0.47955,-0.40514 0.0372,-0.29352 0.14883,-0.59118 0.18604,-0.88883 0.0372,-0.21911 -0.0744,-0.33073 -0.22325,-0.33073 -1.40559,0.14883 -2.84427,0.18603 -4.21266,0.18603 -1.36839,0 -2.77399,-0.0372 -3.99355,-0.18603 -0.22325,0.0372 -0.40514,0.14883 -0.44235,0.40514 -0.0372,0.29766 -0.14883,0.62839 -0.18604,0.92604 -0.0372,0.25632 0.14883,0.29352 0.25632,0.29352 1.33118,0 1.70325,0.81443 1.70325,2.03399 0,0.40928 -0.0372,0.88883 -0.11162,1.29398 -0.36793,2.66237 -1.66191,10.09137 -2.25309,12.75374 -0.40928,1.73633 -1.03766,3.21634 -2.62516,3.21634 -0.29766,0 -0.44649,0.11162 -0.48369,0.40514 -0.0372,0.29766 -0.1447,0.63252 -0.18191,0.92605 -0.0372,0.26044 0.11163,0.29765 0.21911,0.29765 z m 31.01826,-15.8626 c 0.10749,0.29766 0.36794,0.44649 0.73587,0.44649 0.44649,0 0.88884,-0.18604 1.00046,-0.59118 0,-0.0372 0.0372,-0.0744 0.0372,-0.14883 l -1.3684,-6.10195 c -0.0372,-0.40514 -0.18603,-0.62839 -0.36793,-0.62839 -0.0744,0 -0.22324,0.0372 -0.33486,0.11163 l -1.29398,0.88883 c -1.4056,-0.85163 -2.73678,-1.03353 -3.99356,-1.03353 -7.94576,0 -13.12168,6.91224 -13.2705,13.67565 -0.14883,6.20944 3.95634,9.94255 9.28108,9.94255 5.1015,0 9.46299,-3.58428 9.53741,-7.31739 0.0744,-2.03398 -1.29398,-2.69957 -2.33165,-2.69957 -1.29397,0 -2.17867,0.77721 -2.47633,1.92236 0.77721,0.0744 1.29398,0.77721 1.25677,1.81074 -0.0372,2.03399 -2.03398,4.58474 -5.43223,4.58474 -4.39869,0 -5.65547,-3.80752 -5.58105,-7.65225 0.14469,-6.20944 3.91501,-12.64212 8.9793,-12.64212 3.36517,0 4.62194,2.58795 5.62239,5.46943 z m 24.58041,-6.28385 c -0.0703,-0.1819 -0.21911,-0.40514 -0.40514,-0.40514 -0.47956,0.0744 -1.66191,0.11162 -2.84427,0.11162 -1.03766,0 -2.22002,-0.0372 -3.03444,-0.11162 -0.21911,0.0372 -0.33073,0.18603 -0.44235,0.47956 l -0.26045,0.85162 c 0,0.18604 0.14883,0.29352 0.26045,0.29352 1.10794,0 1.21956,0.74001 0.85163,1.70326 l -6.91224,14.26683 c -0.88884,1.70325 -2.18282,3.32796 -3.88194,3.32796 -0.29765,0 -0.44648,0.14883 -0.5209,0.44235 l -0.2191,0.88884 c -0.0744,0.22324 0.0744,0.29765 0.1819,0.29765 1.2609,-0.11162 2.58795,-0.18603 3.77444,-0.18603 1.18236,0 2.47634,0.0744 3.73311,0.18603 0.21911,-0.0372 0.40514,-0.18603 0.47956,-0.44648 l 0.22324,-0.8847 c 0,-0.11162 -0.0372,-0.29766 -0.22324,-0.29766 -1.3684,0 -1.95957,-0.47956 -1.95957,-1.44281 0,-0.36793 0.11162,-0.8847 0.36793,-1.40146 0.29766,-0.62839 0.7028,-1.48001 0.96325,-2.1084 0.26045,-0.44235 0.77721,-0.88883 1.36839,-0.88883 h 5.02708 c 0.70281,0 1.07074,0.40927 1.14516,1.07487 l 0.11162,1.47588 c 0,0.18603 0.0372,0.37207 0.0372,0.51676 0.0372,0.44648 0.0744,0.81442 0.0744,1.18649 0,0.95912 -0.26045,1.5875 -1.44281,1.5875 -0.29765,0 -0.44235,0.14883 -0.51676,0.44235 l -0.18604,0.77721 c -0.0372,0.22325 0.0372,0.40928 0.29766,0.40928 1.03353,0 2.14147,-0.14883 3.32383,-0.14883 1.55442,0 3.14606,0.0744 4.40283,0.14883 0.21911,-0.0372 0.40514,-0.18603 0.47956,-0.44648 l 0.2191,-0.8847 c 0,-0.11162 -0.0372,-0.29766 -0.2191,-0.29766 -1.29398,0 -2.1084,-0.81442 -2.36885,-2.77399 l -0.8847,-7.429 c -0.22324,-1.92237 -0.37207,-3.80752 -0.55397,-5.72989 z m -3.0303,5.72988 0.44648,5.91592 c 0.0331,0.81442 -0.26045,1.14515 -1.07487,1.14515 h -3.47266 c -0.96324,0 -1.14928,-0.33073 -0.74,-1.18236 l 4.4359,-9.50019 z m 27.28205,15.85847 c 0.62839,-4.80384 1.77354,-12.30726 2.92282,-17.15244 0.36794,-1.88516 1.40146,-3.21635 3.50986,-3.21635 0.29766,0 0.44235,-0.10748 0.47956,-0.40514 0.0372,-0.29352 0.14883,-0.59118 0.18604,-0.88883 0.0372,-0.21911 -0.0744,-0.33073 -0.22325,-0.33073 -1.43867,0.14883 -2.91868,0.18603 -4.28707,0.18603 -1.3684,0 -2.80707,-0.0372 -4.06384,-0.18603 -0.22324,0.0372 -0.40928,0.14883 -0.44648,0.40514 -0.0372,0.29766 -0.14883,0.62839 -0.18604,0.92604 -0.0331,0.25632 0.14883,0.29352 0.26045,0.29352 2.03399,0 2.58796,0.85163 2.58796,2.18282 0,0.36793 -0.0372,0.77721 -0.11162,1.18235 v -0.0372 c -0.25632,1.88515 -1.36839,8.28063 -1.92237,11.24065 l -5.76709,-15.78818 c -0.11162,-0.29352 -0.33072,-0.40514 -0.77721,-0.40514 -1.03353,0.14883 -2.3275,0.18603 -3.50986,0.18603 -1.77354,0 -3.47679,-0.11162 -4.14238,-0.18603 -0.21911,0.0372 -0.40515,0.14883 -0.44236,0.40514 -0.0372,0.29766 -0.14883,0.62839 -0.18603,0.92604 -0.0331,0.25632 0.14883,0.29352 0.26045,0.29352 2.07119,0 2.55075,0.88884 2.55075,2.22002 0,0.36794 -0.0372,0.74001 -0.0744,1.10795 -0.36793,2.69957 -1.6247,10.12858 -2.21588,12.75374 -0.40928,1.88516 -1.44281,3.21634 -3.514,3.21634 -0.29352,0 -0.44235,0.11162 -0.47956,0.40514 -0.0372,0.29766 -0.14883,0.63252 -0.18603,0.92605 -0.0372,0.22324 0.11162,0.29765 0.22324,0.29765 1.36839,-0.11162 2.88148,-0.18603 4.21266,-0.18603 1.3684,0 2.8112,0.0744 4.14239,0.18603 0.2191,-0.0372 0.40514,-0.14883 0.44234,-0.40928 0.0372,-0.29352 0.14883,-0.59117 0.18604,-0.8847 0.0372,-0.22324 -0.0372,-0.33486 -0.26045,-0.33486 -2.07119,0 -2.58795,-0.85163 -2.58795,-2.1084 0,0.11162 0.0744,-0.81028 0.11162,-1.21956 0.36793,-2.69544 1.62884,-10.57093 2.55074,-14.56449 2.66238,5.95313 6.80062,18.29759 6.98666,19.00039 0.14883,0.29766 0.33486,0.37207 0.66559,0.37207 h 0.74001 c 1.92236,-0.0372 2.25309,-0.0372 2.36471,-0.40927 z m 14.6389,0.59531 c 9.13226,0.55397 13.71699,-6.76755 13.71699,-12.97699 0,-4.87825 -3.17913,-9.61181 -9.57461,-9.61181 -1.18649,0 -2.33164,0.0372 -3.43958,0.0744 -0.92604,0.0372 -2.07119,0.0744 -2.95589,0.0744 -1.14929,0 -2.29444,-0.0372 -3.36517,-0.14883 -0.22324,0.0372 -0.40928,0.14883 -0.44235,0.40514 -0.0372,0.29766 -0.14883,0.62839 -0.18604,0.92604 -0.0372,0.25632 0.14883,0.29352 0.25632,0.29352 1.33118,0 1.70325,0.81443 1.70325,2.03399 0,0.40928 -0.0372,0.88883 -0.11162,1.33118 v -0.0372 c -0.36793,2.62516 -1.62884,9.98388 -2.25722,12.75374 -0.36794,1.77353 -1.03353,3.21634 -2.62103,3.21634 -0.29766,0 -0.44649,0.11162 -0.48369,0.40514 -0.0372,0.29766 -0.1447,0.63252 -0.18191,0.92605 -0.0372,0.22324 0.10749,0.29765 0.21911,0.29765 1.48002,-0.11162 3.03444,-0.18603 4.29121,-0.18603 1.88516,0 3.62149,0.11162 5.43223,0.22324 z m -2.58796,-4.99401 c 0.37208,-2.69544 1.66192,-10.12858 2.25723,-12.75374 0.40514,-1.88516 1.43867,-3.21635 3.6959,-3.21635 4.21266,0 6.13502,3.80752 6.13502,7.76387 0,5.47357 -3.47265,11.83184 -9.31415,11.53418 h -0.22325 c -2.17867,-0.0372 -2.66237,-0.85163 -2.66237,-2.1084 0,-0.40514 0.0372,-0.81028 0.11162,-1.25677 z m -205.72283,34.6046 c 2.73678,-0.11162 5.36195,-0.18603 7.9499,-0.18603 2.80707,0 5.61826,0.0744 8.49974,0.18603 0.33487,0 0.59118,-0.14883 0.74001,-0.44648 l 2.8484,-6.94945 c 0.0744,-0.14883 0.0372,-0.36793 -0.40927,-0.36793 -0.62839,0 -0.95912,0.29352 -1.14515,0.62838 -1.29398,2.2903 -4.17546,5.39502 -7.09828,5.39502 h -1.14515 c -3.06751,0 -3.36517,-1.47588 -3.10472,-3.36103 0.11162,-0.92605 0.55398,-3.70004 0.66559,-4.2168 0.11163,-0.7028 0.47956,-1.03353 1.21957,-1.03353 h 2.07119 c 1.18236,0 1.69912,0.84749 1.55029,1.73633 l -0.10748,0.66559 c -0.0372,0.22324 0.0372,0.29766 0.25631,0.29766 h 1.36839 c 0.22325,0 0.40515,-0.11162 0.47956,-0.37207 0.0744,-1.77354 0.59118,-4.47311 1.11208,-6.32106 0,-0.18604 -0.14883,-0.26045 -0.26045,-0.26045 h -1.36839 c -0.26045,0 -0.40515,0.18603 -0.47956,0.44648 l -0.14883,0.59118 c -0.18603,0.74001 -1.03353,1.44281 -1.88516,1.44281 h -2.18281 c -0.84749,0 -1.10794,-0.40928 -0.95911,-1.1865 0.14883,-0.95911 0.59118,-3.14192 0.85162,-4.32428 0.40515,-1.73633 0.99633,-3.21634 2.62103,-3.21634 h 0.92604 c 3.10472,0 5.1015,2.29443 6.28386,4.4359 0.22324,0.40928 0.59118,0.4837 0.96325,0.4837 0.36793,0 0.62838,-0.14883 0.59118,-0.44649 l -1.84795,-5.76709 c -0.11162,-0.29352 -0.33487,-0.44235 -0.7028,-0.40514 -2.43913,0.11162 -4.77077,0.14883 -7.06107,0.14883 -2.33164,0 -4.62194,-0.0372 -7.02386,-0.14883 -0.22324,0.0372 -0.44235,0.14883 -0.47956,0.40514 l -0.18603,1.00046 c -0.0372,0.25631 0.14883,0.29352 0.25631,0.29352 1.33119,0 1.70326,0.81442 1.70326,2.03398 0,0.40515 -0.0372,0.88884 -0.11162,1.33119 -0.36794,2.62516 -1.59164,9.87226 -2.18282,12.5305 -0.40514,1.70325 -1.03352,3.32796 -2.62102,3.32796 -0.29766,0 -0.40928,0.0744 -0.4837,0.33487 l -0.2191,0.99632 c -0.0744,0.26045 0.14469,0.29765 0.25631,0.29765 z m 39.1852,-0.5581 c 0.62839,-4.80384 1.77354,-12.30726 2.92282,-17.15244 0.36794,-1.88516 1.40147,-3.21634 3.50987,-3.21634 0.29765,0 0.44235,-0.10749 0.47955,-0.40515 0.0372,-0.29352 0.14883,-0.59118 0.18604,-0.88883 0.0372,-0.21911 -0.0744,-0.33073 -0.22324,-0.33073 -1.43868,0.14883 -2.91869,0.18603 -4.28708,0.18603 -1.36839,0 -2.80706,-0.0372 -4.06383,-0.18603 -0.22325,0.0372 -0.40928,0.14883 -0.44649,0.40514 -0.0372,0.29766 -0.14883,0.62839 -0.18603,0.92604 -0.0331,0.25632 0.14882,0.29353 0.26045,0.29353 2.03398,0 2.58795,0.85162 2.58795,2.18281 0,0.36793 -0.0372,0.77721 -0.11162,1.18235 v -0.0372 c -0.25632,1.88515 -1.36839,8.28063 -1.92236,11.24065 l -5.76709,-15.78818 c -0.11162,-0.29352 -0.33073,-0.40514 -0.77722,-0.40514 -1.03353,0.14883 -2.3275,0.18603 -3.50986,0.18603 -1.77353,0 -3.47679,-0.11162 -4.14238,-0.18603 -0.21911,0.0372 -0.40515,0.14883 -0.44235,0.40514 -0.0372,0.29766 -0.14883,0.62839 -0.18604,0.92604 -0.0331,0.25632 0.14883,0.29353 0.26045,0.29353 2.07119,0 2.55075,0.88883 2.55075,2.22002 0,0.36793 -0.0372,0.74 -0.0744,1.10794 -0.36794,2.69957 -1.62471,10.12858 -2.21589,12.75374 -0.40928,1.88516 -1.44281,3.21634 -3.514,3.21634 -0.29352,0 -0.44235,0.11162 -0.47955,0.40514 -0.0372,0.29766 -0.14883,0.63252 -0.18604,0.92605 -0.0372,0.22324 0.11162,0.29765 0.22324,0.29765 1.36839,-0.11162 2.88148,-0.18603 4.21267,-0.18603 1.36839,0 2.81119,0.0744 4.14238,0.18603 0.21911,-0.0372 0.40514,-0.14883 0.44235,-0.40927 0.0372,-0.29353 0.14883,-0.59118 0.18603,-0.8847 0.0372,-0.22325 -0.0372,-0.33487 -0.26045,-0.33487 -2.07119,0 -2.58795,-0.85163 -2.58795,-2.1084 0,0.11162 0.0744,-0.81028 0.11162,-1.21956 0.36794,-2.69544 1.62884,-10.57093 2.55075,-14.56449 2.66237,5.95313 6.80062,18.29759 6.98665,19.00039 0.14883,0.29766 0.33487,0.37207 0.66559,0.37207 h 0.74001 c 1.92236,-0.0372 2.25309,-0.0372 2.36471,-0.40927 z m 8.83564,-21.99349 c -0.33073,-0.0372 -0.55397,0.11162 -0.7028,0.44235 l -2.32751,5.72988 c -0.0744,0.29766 0.33073,0.44649 0.81442,0.44649 0.40515,0 0.92191,-0.11162 1.10795,-0.5209 0.95911,-2.10427 2.95589,-4.36149 4.87825,-4.36149 1.44281,0 1.88516,0.74 1.88516,2.03398 0,0.40514 -0.0372,0.81442 -0.11162,1.29398 v -0.0372 c -0.36794,2.62516 -1.62471,9.90947 -2.25309,12.67933 -0.36794,1.77354 -1.03353,3.21634 -2.62517,3.21634 -0.29352,0 -0.44235,0.11162 -0.47955,0.40514 -0.0372,0.29766 -0.14883,0.63252 -0.18604,0.92605 -0.0372,0.22324 0.11162,0.29765 0.22324,0.29765 1.36839,-0.11162 2.88148,-0.18603 4.21266,-0.18603 1.3684,0 2.8112,0.0744 4.14239,0.18603 0.21911,-0.0372 0.40514,-0.14883 0.44235,-0.40927 0.0372,-0.29353 0.14883,-0.59118 0.18603,-0.8847 0.0372,-0.22325 -0.0372,-0.33487 -0.26045,-0.33487 -1.33118,0 -1.73632,-0.77721 -1.73632,-1.95957 0,-0.47956 0.0744,-0.8847 0.14882,-1.36839 0.36794,-2.84427 1.66192,-10.01696 2.2531,-12.67933 0.36793,-1.66191 0.96324,-3.06751 2.40192,-3.17913 2.07119,-0.14883 3.21634,2.1084 4.36149,4.39869 0.18603,0.37208 0.5209,0.5209 0.96325,0.5209 0.47955,0 0.95911,-0.18603 0.9219,-0.48369 l -1.5875,-5.76709 c -0.11162,-0.21911 -0.36793,-0.44235 -0.66559,-0.40514 -2.8484,0.14883 -5.76709,0.29352 -8.1318,0.29352 -2.1084,0 -4.73356,-0.14469 -6.83783,-0.25631 -0.37207,-0.0372 -0.7028,-0.0372 -1.00045,-0.0372 z m 15.89567,22.55159 c 2.73678,-0.11162 5.36195,-0.18603 7.9499,-0.18603 2.80707,0 5.61826,0.0744 8.49974,0.18603 0.33486,0 0.59118,-0.14883 0.74001,-0.44648 l 2.8484,-6.94945 c 0.0744,-0.14883 0.0372,-0.36793 -0.40927,-0.36793 -0.62839,0 -0.95912,0.29352 -1.14515,0.62838 -1.29398,2.2903 -4.17546,5.39502 -7.09828,5.39502 h -1.14515 c -3.06751,0 -3.36517,-1.47588 -3.10472,-3.36103 0.11162,-0.92605 0.55397,-3.70004 0.66559,-4.2168 0.11162,-0.7028 0.47956,-1.03353 1.21957,-1.03353 h 2.07119 c 1.18236,0 1.69912,0.84749 1.55029,1.73633 l -0.10749,0.66559 c -0.0372,0.22324 0.0372,0.29766 0.25632,0.29766 h 1.36839 c 0.22324,0 0.40514,-0.11162 0.47956,-0.37207 0.0744,-1.77354 0.59118,-4.47311 1.11207,-6.32106 0,-0.18604 -0.14882,-0.26045 -0.26044,-0.26045 h -1.3684 c -0.26044,0 -0.40514,0.18603 -0.47955,0.44648 l -0.14883,0.59118 c -0.18604,0.74001 -1.03353,1.44281 -1.88516,1.44281 h -2.18281 c -0.84749,0 -1.10794,-0.40928 -0.95911,-1.1865 0.14882,-0.95911 0.59117,-3.14192 0.85162,-4.32428 0.40515,-1.73633 0.99633,-3.21634 2.62103,-3.21634 h 0.92604 c 3.10473,0 5.1015,2.29443 6.28386,4.4359 0.22324,0.40928 0.59118,0.4837 0.96325,0.4837 0.36793,0 0.62838,-0.14883 0.59117,-0.44649 l -1.84795,-5.76709 c -0.11161,-0.29352 -0.33486,-0.44235 -0.70279,-0.40514 -2.43913,0.11162 -4.77077,0.14883 -7.06107,0.14883 -2.33164,0 -4.62194,-0.0372 -7.02386,-0.14883 -0.22324,0.0372 -0.44235,0.14883 -0.47956,0.40514 l -0.18603,1.00046 c -0.0372,0.25631 0.14882,0.29352 0.25631,0.29352 1.33119,0 1.70326,0.81442 1.70326,2.03398 0,0.40515 -0.0372,0.88884 -0.11162,1.33119 -0.36794,2.62516 -1.59164,9.87226 -2.18282,12.5305 -0.40514,1.70325 -1.03353,3.32796 -2.62103,3.32796 -0.29765,0 -0.40927,0.0744 -0.48369,0.33487 l -0.21911,0.99632 c -0.0744,0.26045 0.1447,0.29765 0.25632,0.29765 z m 34.30695,0 c 0.59118,-0.0372 1.5875,-0.0372 2.55075,-0.0372 0.95911,0 1.92236,0 2.66237,0.0372 0.29352,0 0.66559,-0.14883 0.70279,-0.40927 l 0.1447,-0.8847 c 0.0372,-0.22325 -0.10749,-0.33487 -0.33073,-0.33487 -1.33118,0 -2.29443,-0.74 -3.40237,-2.62516 l -2.03399,-3.43545 c 4.32842,-1.18649 7.35872,-5.06429 6.91637,-8.8346 -0.33486,-2.96003 -2.18281,-6.02754 -8.61549,-6.02754 -0.99632,0 -2.03399,0.0372 -3.03031,0.0744 -0.85162,0.0372 -1.92236,0.0744 -2.73678,0.0744 -1.03353,0 -2.14561,-0.0372 -3.0303,-0.14883 -0.22325,0.0372 -0.40928,0.14883 -0.44236,0.40514 -0.0372,0.29766 -0.14882,0.62839 -0.18603,0.92604 -0.0372,0.25632 0.14883,0.29353 0.25631,0.29353 1.33119,0 1.70326,0.77721 1.70326,1.99677 0,0.40928 -0.0372,0.88884 -0.11162,1.36839 v -0.0372 c -0.33487,2.62516 -1.62884,9.94668 -2.25723,12.75374 -0.36794,1.77354 -1.03353,3.21634 -2.62103,3.21634 -0.29765,0 -0.44648,0.11162 -0.48369,0.40514 -0.0372,0.29766 -0.14469,0.63252 -0.1819,0.92605 -0.0372,0.22324 0.10749,0.29765 0.21911,0.29765 1.36839,-0.11162 2.88561,-0.18603 4.21679,-0.18603 1.3684,0 2.80707,0.0744 4.13825,0.18603 0.22324,-0.0372 0.40928,-0.14883 0.44235,-0.40927 0.0372,-0.29353 0.14883,-0.59118 0.18604,-0.8847 0.0372,-0.22325 -0.0372,-0.33487 -0.25632,-0.33487 -1.33118,0 -1.74046,-0.77721 -1.74046,-1.95957 0,-0.47956 0.0744,-0.8847 0.14883,-1.36839 0.37207,-2.84427 1.66191,-10.05417 2.25723,-12.75374 0.36793,-1.77354 0.99632,-3.21634 2.73265,-3.21634 3.7331,0 4.73356,2.25722 5.02708,4.29121 0.59118,3.77031 -2.36471,7.35459 -6.09782,7.68945 -0.11162,0 -0.40514,0.0372 -0.7028,0.0372 -0.36794,0 -0.44235,0.25631 -0.26045,0.66559 1.25677,2.9931 1.74046,4.06383 2.48047,5.58105 0.25632,0.55397 0.59118,1.18236 0.95912,1.99678 0.14882,0.33073 0.33486,0.66559 0.77721,0.66559 z M 339.34,142.85708 c -0.33073,-0.0372 -0.55397,0.11162 -0.7028,0.44235 l -2.3275,5.72988 c -0.0744,0.29766 0.33073,0.44649 0.81442,0.44649 0.40514,0 0.9219,-0.11162 1.10794,-0.5209 0.95911,-2.10427 2.95589,-4.36149 4.87825,-4.36149 1.44281,0 1.88516,0.74 1.88516,2.03398 0,0.40514 -0.0372,0.81442 -0.11162,1.29398 v -0.0372 c -0.36794,2.62516 -1.62471,9.90947 -2.25309,12.67933 -0.36794,1.77354 -1.03353,3.21634 -2.62517,3.21634 -0.29352,0 -0.44234,0.11162 -0.47955,0.40514 -0.0372,0.29766 -0.14883,0.63252 -0.18604,0.92605 -0.0372,0.22324 0.11162,0.29765 0.22325,0.29765 1.36839,-0.11162 2.88147,-0.18603 4.21266,-0.18603 1.36839,0 2.81119,0.0744 4.14238,0.18603 0.21911,-0.0372 0.40514,-0.14883 0.44235,-0.40927 0.0372,-0.29353 0.14883,-0.59118 0.18603,-0.8847 0.0372,-0.22325 -0.0372,-0.33487 -0.26044,-0.33487 -1.33119,0 -1.73633,-0.77721 -1.73633,-1.95957 0,-0.47956 0.0744,-0.8847 0.14883,-1.36839 0.36793,-2.84427 1.66191,-10.01696 2.25309,-12.67933 0.36794,-1.66191 0.96325,-3.06751 2.40192,-3.17913 2.07119,-0.14883 3.21634,2.1084 4.36149,4.39869 0.18604,0.37208 0.5209,0.5209 0.96325,0.5209 0.47956,0 0.95911,-0.18603 0.9219,-0.48369 l -1.5875,-5.76709 c -0.11161,-0.21911 -0.36793,-0.44235 -0.66559,-0.40514 -2.8484,0.14883 -5.76709,0.29352 -8.1318,0.29352 -2.1084,0 -4.73356,-0.14469 -6.83783,-0.25631 -0.37207,-0.0372 -0.7028,-0.0372 -1.00045,-0.0372 z m 29.68398,0.40514 c -0.0703,-0.1819 -0.21911,-0.40514 -0.40515,-0.40514 -0.47955,0.0744 -1.66191,0.11162 -2.84427,0.11162 -1.03766,0 -2.22002,-0.0372 -3.03444,-0.11162 -0.21911,0.0372 -0.33073,0.18603 -0.44235,0.47956 l -0.26045,0.85162 c 0,0.18604 0.14883,0.29353 0.26045,0.29353 1.10795,0 1.21957,0.74 0.85163,1.70325 l -6.91224,14.26683 c -0.88883,1.70325 -2.18281,3.32796 -3.88193,3.32796 -0.29766,0 -0.44649,0.14883 -0.5209,0.44235 l -0.21911,0.88884 c -0.0744,0.22324 0.0744,0.29765 0.1819,0.29765 1.26091,-0.11162 2.58796,-0.18603 3.77445,-0.18603 1.18236,0 2.47633,0.0744 3.7331,0.18603 0.21911,-0.0372 0.40515,-0.18603 0.47956,-0.44648 l 0.22324,-0.8847 c 0,-0.11162 -0.0372,-0.29766 -0.22324,-0.29766 -1.36839,0 -1.95957,-0.47956 -1.95957,-1.4428 0,-0.36794 0.11162,-0.8847 0.36794,-1.40147 0.29765,-0.62838 0.7028,-1.48001 0.96324,-2.1084 0.26045,-0.44235 0.77722,-0.88883 1.3684,-0.88883 h 5.02708 c 0.7028,0 1.07073,0.40928 1.14515,1.07487 l 0.11162,1.47588 c 0,0.18603 0.0372,0.37207 0.0372,0.51676 0.0372,0.44649 0.0744,0.81442 0.0744,1.18649 0,0.95912 -0.26045,1.5875 -1.4428,1.5875 -0.29766,0 -0.44236,0.14883 -0.51677,0.44235 l -0.18603,0.77722 c -0.0372,0.22324 0.0372,0.40927 0.29765,0.40927 1.03353,0 2.14148,-0.14883 3.32383,-0.14883 1.55443,0 3.14606,0.0744 4.40283,0.14883 0.21911,-0.0372 0.40514,-0.18603 0.47956,-0.44648 l 0.21911,-0.8847 c 0,-0.11162 -0.0372,-0.29766 -0.21911,-0.29766 -1.29398,0 -2.1084,-0.81442 -2.36885,-2.77399 l -0.8847,-7.429 c -0.22324,-1.92237 -0.37207,-3.80752 -0.55397,-5.72989 z m -3.03031,5.72988 0.44649,5.91592 c 0.0331,0.81442 -0.26045,1.14515 -1.07488,1.14515 h -3.47265 c -0.96325,0 -1.14929,-0.33073 -0.74001,-1.18235 l 4.43591,-9.5002 z m 8.05842,16.41657 c 1.36839,-0.11162 2.73679,-0.18603 4.14239,-0.18603 1.36839,0 2.77399,0.0744 4.06383,0.18603 0.22324,-0.0372 0.40928,-0.14883 0.44648,-0.40927 0.0372,-0.29353 0.14883,-0.59118 0.18191,-0.8847 0.0372,-0.22325 -0.0331,-0.33487 -0.25632,-0.33487 -1.33118,0 -1.69912,-0.77721 -1.69912,-1.95957 0,-0.44235 0.0372,-0.92191 0.10749,-1.4056 v 0.0372 c 0.37207,-2.65824 1.66604,-10.09137 2.25722,-12.75374 0.40515,-1.73633 0.99632,-3.21634 2.62517,-3.21634 0.29352,0 0.44235,-0.10749 0.47955,-0.40515 0.0372,-0.29352 0.14883,-0.59118 0.18604,-0.88883 0.0372,-0.21911 -0.0744,-0.33073 -0.22324,-0.33073 -1.4056,0.14883 -2.84427,0.18603 -4.21267,0.18603 -1.36839,0 -2.77399,-0.0372 -3.99355,-0.18603 -0.22324,0.0372 -0.40514,0.14883 -0.44235,0.40514 -0.0372,0.29766 -0.14883,0.62839 -0.18604,0.92604 -0.0372,0.25632 0.14883,0.29353 0.25632,0.29353 1.33118,0 1.70325,0.81442 1.70325,2.03398 0,0.40928 -0.0372,0.88883 -0.11162,1.29398 -0.36793,2.66237 -1.66191,10.09137 -2.25309,12.75374 -0.40928,1.73633 -1.03766,3.21634 -2.62516,3.21634 -0.29766,0 -0.44649,0.11162 -0.48369,0.40514 -0.0372,0.29766 -0.1447,0.63252 -0.18191,0.92605 -0.0372,0.26045 0.11163,0.29765 0.21911,0.29765 z m 30.64619,-0.5581 c 0.62839,-4.80384 1.77354,-12.30726 2.92282,-17.15244 0.36794,-1.88516 1.40147,-3.21634 3.50987,-3.21634 0.29765,0 0.44234,-0.10749 0.47955,-0.40515 0.0372,-0.29352 0.14883,-0.59118 0.18604,-0.88883 0.0372,-0.21911 -0.0744,-0.33073 -0.22325,-0.33073 -1.43867,0.14883 -2.91868,0.18603 -4.28707,0.18603 -1.36839,0 -2.80706,-0.0372 -4.06384,-0.18603 -0.22324,0.0372 -0.40927,0.14883 -0.44648,0.40514 -0.0372,0.29766 -0.14883,0.62839 -0.18604,0.92604 -0.0331,0.25632 0.14883,0.29353 0.26045,0.29353 2.03399,0 2.58796,0.85162 2.58796,2.18281 0,0.36793 -0.0372,0.77721 -0.11162,1.18235 v -0.0372 c -0.25632,1.88515 -1.36839,8.28063 -1.92237,11.24065 l -5.76708,-15.78818 c -0.11163,-0.29352 -0.33073,-0.40514 -0.77722,-0.40514 -1.03353,0.14883 -2.3275,0.18603 -3.50986,0.18603 -1.77354,0 -3.47679,-0.11162 -4.14238,-0.18603 -0.21911,0.0372 -0.40515,0.14883 -0.44235,0.40514 -0.0372,0.29766 -0.14883,0.62839 -0.18604,0.92604 -0.0331,0.25632 0.14883,0.29353 0.26045,0.29353 2.07119,0 2.55075,0.88883 2.55075,2.22002 0,0.36793 -0.0372,0.74 -0.0744,1.10794 -0.36794,2.69957 -1.62471,10.12858 -2.21589,12.75374 -0.40928,1.88516 -1.44281,3.21634 -3.514,3.21634 -0.29352,0 -0.44235,0.11162 -0.47955,0.40514 -0.0372,0.29766 -0.14883,0.63252 -0.18604,0.92605 -0.0372,0.22324 0.11162,0.29765 0.22324,0.29765 1.36839,-0.11162 2.88148,-0.18603 4.21266,-0.18603 1.3684,0 2.8112,0.0744 4.14239,0.18603 0.2191,-0.0372 0.40514,-0.14883 0.44235,-0.40927 0.0372,-0.29353 0.14883,-0.59118 0.18603,-0.8847 0.0372,-0.22325 -0.0372,-0.33487 -0.26045,-0.33487 -2.07119,0 -2.58795,-0.85163 -2.58795,-2.1084 0,0.11162 0.0744,-0.81028 0.11162,-1.21956 0.36793,-2.69544 1.62884,-10.57093 2.55075,-14.56449 2.66237,5.95313 6.80062,18.29759 6.98665,19.00039 0.14883,0.29766 0.33486,0.37207 0.66559,0.37207 h 0.74001 c 1.92236,-0.0372 2.25309,-0.0372 2.36471,-0.40927 z m 17.00465,-21.99349 c -1.03353,0.14883 -2.36472,0.18603 -3.6959,0.18603 -1.92236,0 -3.84473,-0.11162 -4.51032,-0.18603 -0.21911,0.0372 -0.40514,0.14883 -0.44235,0.40514 -0.0372,0.29766 -0.14883,0.62839 -0.18603,0.92604 -0.0372,0.25632 0.14883,0.29353 0.26044,0.29353 2.03399,0 2.58796,0.85162 2.58796,2.18281 0,0.36793 -0.0372,0.77721 -0.11162,1.18235 v -0.0372 c -0.33486,2.69957 -1.62884,10.09137 -2.22002,12.75374 -0.40514,1.88516 -1.43867,3.21634 -3.50986,3.21634 -0.29766,0 -0.44235,0.11162 -0.47956,0.40514 -0.0372,0.29766 -0.14883,0.63252 -0.18603,0.92605 -0.0372,0.22324 0.11162,0.29765 0.22324,0.29765 1.36426,-0.11162 2.88148,-0.18603 4.21266,-0.18603 1.36839,0 2.8112,0.0744 4.13825,0.18603 0.22324,-0.0372 0.40928,-0.14883 0.44648,-0.40927 0.0372,-0.29353 0.14883,-0.59118 0.1819,-0.8847 0.0372,-0.22325 -0.0331,-0.33487 -0.25631,-0.33487 -2.07119,0 -2.58796,-0.85163 -2.58796,-2.1456 0,-0.36794 0.0372,-0.81029 0.11162,-1.21957 v 0.0372 c 0.33073,-2.62516 1.5875,-9.94255 2.21589,-12.75374 0,-0.1447 0.0744,-0.33073 0.44649,-2.2531 l 3.84472,19.37246 h 0.29352 l 10.38903,-19.40966 c 0,1.14515 -0.14883,2.03398 -0.18603,2.40192 -0.36794,2.66237 -1.66192,10.09137 -2.2531,12.75374 -0.40927,1.73633 -1.03766,3.21634 -2.62516,3.21634 -0.29766,0 -0.44648,0.11162 -0.47956,0.40514 -0.0372,0.29766 -0.14883,0.63252 -0.18603,0.92605 -0.0372,0.22324 0.11162,0.29765 0.21911,0.29765 1.36839,-0.11162 2.88561,-0.18603 4.21679,-0.18603 1.3684,0 2.80707,0.0744 4.13825,0.18603 0.22325,-0.0372 0.40928,-0.14883 0.44649,-0.40927 0.0372,-0.29353 0.14469,-0.59118 0.1819,-0.8847 0.0372,-0.22325 -0.0372,-0.33487 -0.25632,-0.33487 -1.33118,0 -1.70325,-0.77721 -1.70325,-1.95957 0,-0.44235 0.0372,-0.92191 0.11162,-1.4056 v 0.0372 c 0.37207,-2.65824 1.66605,-10.09137 2.25723,-12.75374 0.40514,-1.73633 0.99632,-3.21634 2.62516,-3.21634 0.29352,0 0.44235,-0.10749 0.47955,-0.40515 0.0372,-0.29352 0.14883,-0.59118 0.18604,-0.88883 0.0331,-0.21911 -0.0744,-0.33073 -0.22324,-0.33073 -1.29398,0.11162 -2.66237,0.18603 -3.84473,0.18603 -1.4056,0 -2.73678,-0.0744 -3.6959,-0.18603 -0.26045,0 -0.55397,0.14883 -0.7028,0.47956 l -6.98665,12.82815 -2.1456,-12.97698 c -0.11163,-0.21911 -0.29353,-0.33073 -0.74001,-0.33073 z m 17.30023,22.55159 c 2.73679,-0.11162 5.36195,-0.18603 7.94991,-0.18603 2.80706,0 5.61826,0.0744 8.49974,0.18603 0.33486,0 0.59117,-0.14883 0.74,-0.44648 l 2.84841,-6.94945 c 0.0744,-0.14883 0.0372,-0.36793 -0.40928,-0.36793 -0.62839,0 -0.95912,0.29352 -1.14515,0.62838 -1.29398,2.2903 -4.17546,5.39502 -7.09827,5.39502 h -1.14516 c -3.06751,0 -3.36516,-1.47588 -3.10472,-3.36103 0.11163,-0.92605 0.55398,-3.70004 0.6656,-4.2168 0.11162,-0.7028 0.47956,-1.03353 1.21956,-1.03353 h 2.07119 c 1.18236,0 1.69912,0.84749 1.5503,1.73633 l -0.10749,0.66559 c -0.0372,0.22324 0.0372,0.29766 0.25631,0.29766 h 1.3684 c 0.22324,0 0.40514,-0.11162 0.47955,-0.37207 0.0744,-1.77354 0.59118,-4.47311 1.11208,-6.32106 0,-0.18604 -0.14883,-0.26045 -0.26045,-0.26045 h -1.36839 c -0.26045,0 -0.40514,0.18603 -0.47956,0.44648 l -0.14883,0.59118 c -0.18603,0.74001 -1.03353,1.44281 -1.88515,1.44281 h -2.18281 c -0.8475,0 -1.10795,-0.40928 -0.95912,-1.1865 0.14883,-0.95911 0.59118,-3.14192 0.85163,-4.32428 0.40514,-1.73633 0.99632,-3.21634 2.62103,-3.21634 h 0.92604 c 3.10472,0 5.1015,2.29443 6.28385,4.4359 0.22324,0.40928 0.59118,0.4837 0.96325,0.4837 0.36794,0 0.62839,-0.14883 0.59118,-0.44649 l -1.84795,-5.76709 c -0.11162,-0.29352 -0.33486,-0.44235 -0.7028,-0.40514 -2.43913,0.11162 -4.77077,0.14883 -7.06107,0.14883 -2.33164,0 -4.62194,-0.0372 -7.02386,-0.14883 -0.22324,0.0372 -0.44235,0.14883 -0.47956,0.40514 l -0.18603,1.00046 c -0.0372,0.25631 0.14883,0.29352 0.25631,0.29352 1.33119,0 1.70326,0.81442 1.70326,2.03398 0,0.40515 -0.0372,0.88884 -0.11162,1.33119 -0.36794,2.62516 -1.59164,9.87226 -2.18281,12.5305 -0.40515,1.70325 -1.03353,3.32796 -2.62103,3.32796 -0.29766,0 -0.40928,0.0744 -0.48369,0.33487 l -0.21911,0.99632 c -0.0744,0.26045 0.14469,0.29765 0.25631,0.29765 z m 39.18521,-0.5581 c 0.62838,-4.80384 1.77353,-12.30726 2.92282,-17.15244 0.36793,-1.88516 1.40146,-3.21634 3.50986,-3.21634 0.29766,0 0.44235,-0.10749 0.47956,-0.40515 0.0372,-0.29352 0.14883,-0.59118 0.18603,-0.88883 0.0372,-0.21911 -0.0744,-0.33073 -0.22324,-0.33073 -1.43867,0.14883 -2.91869,0.18603 -4.28708,0.18603 -1.36839,0 -2.80706,-0.0372 -4.06383,-0.18603 -0.22325,0.0372 -0.40928,0.14883 -0.44649,0.40514 -0.0372,0.29766 -0.14882,0.62839 -0.18603,0.92604 -0.0331,0.25632 0.14883,0.29353 0.26045,0.29353 2.03398,0 2.58795,0.85162 2.58795,2.18281 0,0.36793 -0.0372,0.77721 -0.11162,1.18235 v -0.0372 c -0.25631,1.88515 -1.36839,8.28063 -1.92236,11.24065 l -5.76709,-15.78818 c -0.11162,-0.29352 -0.33073,-0.40514 -0.77721,-0.40514 -1.03353,0.14883 -2.32751,0.18603 -3.50987,0.18603 -1.77353,0 -3.47679,-0.11162 -4.14238,-0.18603 -0.21911,0.0372 -0.40514,0.14883 -0.44235,0.40514 -0.0372,0.29766 -0.14883,0.62839 -0.18604,0.92604 -0.0331,0.25632 0.14883,0.29353 0.26046,0.29353 2.07119,0 2.55074,0.88883 2.55074,2.22002 0,0.36793 -0.0372,0.74 -0.0744,1.10794 -0.36794,2.69957 -1.62471,10.12858 -2.21589,12.75374 -0.40927,1.88516 -1.4428,3.21634 -3.51399,3.21634 -0.29353,0 -0.44236,0.11162 -0.47956,0.40514 -0.0372,0.29766 -0.14883,0.63252 -0.18604,0.92605 -0.0372,0.22324 0.11163,0.29765 0.22324,0.29765 1.3684,-0.11162 2.88148,-0.18603 4.21267,-0.18603 1.36839,0 2.8112,0.0744 4.14238,0.18603 0.21911,-0.0372 0.40514,-0.14883 0.44235,-0.40927 0.0372,-0.29353 0.14883,-0.59118 0.18604,-0.8847 0.0372,-0.22325 -0.0372,-0.33487 -0.26045,-0.33487 -2.07119,0 -2.58796,-0.85163 -2.58796,-2.1084 0,0.11162 0.0744,-0.81028 0.11162,-1.21956 0.36794,-2.69544 1.62884,-10.57093 2.55075,-14.56449 2.66237,5.95313 6.80062,18.29759 6.98665,19.00039 0.14883,0.29766 0.33487,0.37207 0.6656,0.37207 h 0.74001 c 1.92236,-0.0372 2.25308,-0.0372 2.36471,-0.40927 z m 8.83563,-21.99349 c -0.33073,-0.0372 -0.55397,0.11162 -0.7028,0.44235 l -2.3275,5.72988 c -0.0744,0.29766 0.33073,0.44649 0.81442,0.44649 0.40514,0 0.92191,-0.11162 1.10794,-0.5209 0.95911,-2.10427 2.95589,-4.36149 4.87826,-4.36149 1.4428,0 1.88515,0.74 1.88515,2.03398 0,0.40514 -0.0372,0.81442 -0.11162,1.29398 v -0.0372 c -0.36794,2.62516 -1.62471,9.90947 -2.25309,12.67933 -0.36794,1.77354 -1.03353,3.21634 -2.62516,3.21634 -0.29353,0 -0.44236,0.11162 -0.47956,0.40514 -0.0372,0.29766 -0.14883,0.63252 -0.18604,0.92605 -0.0372,0.22324 0.11163,0.29765 0.22324,0.29765 1.3684,-0.11162 2.88148,-0.18603 4.21267,-0.18603 1.36839,0 2.8112,0.0744 4.14238,0.18603 0.21911,-0.0372 0.40514,-0.14883 0.44235,-0.40927 0.0372,-0.29353 0.14883,-0.59118 0.18604,-0.8847 0.0372,-0.22325 -0.0372,-0.33487 -0.26045,-0.33487 -1.33119,0 -1.73633,-0.77721 -1.73633,-1.95957 0,-0.47956 0.0744,-0.8847 0.14883,-1.36839 0.36793,-2.84427 1.66191,-10.01696 2.25309,-12.67933 0.36793,-1.66191 0.96325,-3.06751 2.40192,-3.17913 2.07119,-0.14883 3.21634,2.1084 4.36149,4.39869 0.18603,0.37208 0.5209,0.5209 0.96325,0.5209 0.47956,0 0.95911,-0.18603 0.92191,-0.48369 l -1.5875,-5.76709 c -0.11163,-0.21911 -0.36794,-0.44235 -0.6656,-0.40514 -2.8484,0.14883 -5.76709,0.29352 -8.1318,0.29352 -2.1084,0 -4.73356,-0.14469 -6.83782,-0.25631 -0.37207,-0.0372 -0.7028,-0.0372 -1.00046,-0.0372 z m 0,0"
       style="fill:#013da6;fill-opacity:1;fill-rule:nonzero;stroke:none;stroke-width:0.352778"
       aria-label="music and &#10;entertainment" />
    <path
       id="path111"
       d="m 278.43325,183.08202 0.13643,0.68626 h 0.84749 v -3.27009 h -2.54248 v 0.99219 h 1.33945 c -0.0413,0.42478 -0.1819,0.74828 -0.42168,0.97152 -0.23978,0.22117 -0.57877,0.33073 -1.01699,0.33073 -0.30076,0 -0.55604,-0.0558 -0.76481,-0.1695 -0.20671,-0.11576 -0.3762,-0.26975 -0.5085,-0.46302 -0.13022,-0.19224 -0.22531,-0.40928 -0.28525,-0.64906 -0.0579,-0.23978 -0.0868,-0.48576 -0.0868,-0.74 0,-0.26459 0.0289,-0.5209 0.0868,-0.76895 0.0599,-0.24805 0.15503,-0.46922 0.28525,-0.66559 0.1323,-0.19534 0.30179,-0.3514 0.5085,-0.46716 0.20877,-0.11575 0.46405,-0.17363 0.76481,-0.17363 0.31936,0 0.59221,0.0858 0.81856,0.25632 0.22531,0.16846 0.37827,0.42168 0.45888,0.76067 h 1.26918 c -0.0331,-0.34416 -0.12713,-0.64905 -0.28112,-0.91364 -0.15193,-0.26458 -0.3452,-0.48782 -0.57878,-0.66972 -0.23461,-0.1819 -0.49816,-0.31833 -0.78962,-0.40928 -0.28938,-0.093 -0.58911,-0.14056 -0.8971,-0.14056 -0.46302,0 -0.88057,0.0827 -1.25264,0.24805 -0.37,0.16329 -0.68109,0.3886 -0.93431,0.67799 -0.25424,0.28732 -0.44855,0.62322 -0.58291,1.00872 -0.13539,0.38654 -0.20257,0.80512 -0.20257,1.25678 0,0.44131 0.0672,0.85162 0.20257,1.23196 0.13436,0.38034 0.32867,0.71314 0.58291,0.99632 0.25322,0.28112 0.56431,0.50333 0.93431,0.6656 0.37207,0.15916 0.78962,0.23977 1.25264,0.23977 0.29146,0 0.58084,-0.061 0.86817,-0.1819 0.28938,-0.12092 0.5519,-0.33486 0.78961,-0.64078 z m 2.05569,-5.35782 v 6.04408 h 4.27881 v -1.11621 h -2.94763 v -4.92787 z m 6.54637,3.7083 0.78548,-2.22002 h 0.0207 l 0.76068,2.22002 z m 0.12816,-3.7083 -2.28617,6.04408 h 1.33532 l 0.47542,-1.34772 h 2.26136 l 0.45476,1.34772 h 1.38079 l -2.26136,-6.04408 z m 5.05189,4.03903 h -1.28571 c -0.006,0.37207 0.062,0.6935 0.20257,0.96325 0.14262,0.27079 0.33486,0.49403 0.57464,0.66973 0.23978,0.17363 0.5147,0.30179 0.82682,0.38447 0.31419,0.0827 0.63769,0.12402 0.97152,0.12402 0.41031,0 0.77308,-0.0486 1.08727,-0.14469 0.31419,-0.0961 0.57568,-0.22944 0.78548,-0.40101 0.21188,-0.17363 0.37207,-0.37827 0.47956,-0.61598 0.10749,-0.23668 0.16123,-0.49299 0.16123,-0.76895 0,-0.33899 -0.0723,-0.61701 -0.21497,-0.83509 -0.14366,-0.21704 -0.3142,-0.39067 -0.51263,-0.5209 -0.19844,-0.12919 -0.39895,-0.22324 -0.59945,-0.28112 -0.19844,-0.0599 -0.3545,-0.10128 -0.46716,-0.12402 -0.37827,-0.0961 -0.68419,-0.17467 -0.91777,-0.23564 -0.23461,-0.0631 -0.41961,-0.12506 -0.55397,-0.18604 -0.13229,-0.063 -0.22118,-0.13022 -0.26458,-0.20257 -0.0444,-0.0744 -0.0661,-0.17053 -0.0661,-0.28939 0,-0.12919 0.0269,-0.23668 0.0827,-0.32246 0.0579,-0.0848 0.12919,-0.15503 0.21498,-0.21084 0.0879,-0.0579 0.18603,-0.0971 0.29352,-0.11989 0.10749,-0.0217 0.21497,-0.0331 0.32246,-0.0331 0.16226,0 0.31213,0.0145 0.45062,0.0413 0.14056,0.0279 0.26251,0.0765 0.36793,0.14469 0.10749,0.0661 0.19224,0.15917 0.25632,0.27699 0.0661,0.11885 0.10542,0.26872 0.11989,0.45062 h 1.28571 c 0,-0.34934 -0.0661,-0.64699 -0.19844,-0.89297 -0.13229,-0.24495 -0.31212,-0.44649 -0.53743,-0.60358 -0.22635,-0.15917 -0.48576,-0.27389 -0.77722,-0.34313 -0.28939,-0.0713 -0.59324,-0.10749 -0.9095,-0.10749 -0.27079,0 -0.54157,0.0372 -0.81442,0.11162 -0.27079,0.0724 -0.51263,0.185 -0.72761,0.339 -0.2129,0.15193 -0.38654,0.3421 -0.5209,0.57051 -0.13229,0.22944 -0.19843,0.49816 -0.19843,0.80615 0,0.27905 0.0517,0.51573 0.15709,0.71107 0.10439,0.19327 0.24082,0.3545 0.40928,0.48369 0.17053,0.13022 0.3638,0.23564 0.57878,0.31832 0.21497,0.0827 0.43511,0.15193 0.66145,0.20671 0.21705,0.0641 0.43409,0.11989 0.64906,0.1695 0.21497,0.0496 0.40618,0.10955 0.57464,0.17777 0.17054,0.0692 0.30799,0.15502 0.41341,0.25631 0.10439,0.0992 0.1571,0.23151 0.1571,0.39688 0,0.15192 -0.0403,0.27698 -0.11989,0.3762 -0.0806,0.0992 -0.17983,0.17777 -0.29765,0.23564 -0.11886,0.0558 -0.24598,0.093 -0.38034,0.11163 -0.1354,0.0196 -0.26252,0.0289 -0.38034,0.0289 -0.17363,0 -0.34313,-0.0207 -0.5085,-0.062 -0.1633,-0.0434 -0.30489,-0.10852 -0.42581,-0.1943 -0.12196,-0.0879 -0.21911,-0.20257 -0.29352,-0.34313 -0.0744,-0.14263 -0.11162,-0.31523 -0.11162,-0.51677 z m 5.49423,0 h -1.28571 c -0.006,0.37207 0.062,0.6935 0.20257,0.96325 0.14263,0.27079 0.33487,0.49403 0.57465,0.66973 0.23978,0.17363 0.51469,0.30179 0.82682,0.38447 0.31419,0.0827 0.63769,0.12402 0.97152,0.12402 0.41031,0 0.77308,-0.0486 1.08727,-0.14469 0.31419,-0.0961 0.57567,-0.22944 0.78548,-0.40101 0.21187,-0.17363 0.37207,-0.37827 0.47956,-0.61598 0.10748,-0.23668 0.16123,-0.49299 0.16123,-0.76895 0,-0.33899 -0.0724,-0.61701 -0.21498,-0.83509 -0.14366,-0.21704 -0.31419,-0.39067 -0.51263,-0.5209 -0.19843,-0.12919 -0.39894,-0.22324 -0.59944,-0.28112 -0.19844,-0.0599 -0.3545,-0.10128 -0.46716,-0.12402 -0.37827,-0.0961 -0.68419,-0.17467 -0.91777,-0.23564 -0.23461,-0.0631 -0.41961,-0.12506 -0.55397,-0.18604 -0.13229,-0.063 -0.22118,-0.13022 -0.26459,-0.20257 -0.0444,-0.0744 -0.0661,-0.17053 -0.0661,-0.28939 0,-0.12919 0.0269,-0.23668 0.0827,-0.32246 0.0579,-0.0848 0.12919,-0.15503 0.21497,-0.21084 0.0879,-0.0579 0.18604,-0.0971 0.29353,-0.11989 0.10748,-0.0217 0.21497,-0.0331 0.32246,-0.0331 0.16226,0 0.31212,0.0145 0.45062,0.0413 0.14056,0.0279 0.26251,0.0765 0.36793,0.14469 0.10749,0.0661 0.19224,0.15917 0.25632,0.27699 0.0661,0.11885 0.10542,0.26872 0.11989,0.45062 h 1.28571 c 0,-0.34934 -0.0661,-0.64699 -0.19844,-0.89297 -0.13229,-0.24495 -0.31213,-0.44649 -0.53744,-0.60358 -0.22634,-0.15917 -0.48575,-0.27389 -0.77721,-0.34313 -0.28939,-0.0713 -0.59324,-0.10749 -0.9095,-0.10749 -0.27079,0 -0.54157,0.0372 -0.81442,0.11162 -0.27079,0.0724 -0.51264,0.185 -0.72761,0.339 -0.21291,0.15193 -0.38654,0.3421 -0.5209,0.57051 -0.13229,0.22944 -0.19844,0.49816 -0.19844,0.80615 0,0.27905 0.0517,0.51573 0.1571,0.71107 0.10439,0.19327 0.24081,0.3545 0.40928,0.48369 0.17053,0.13022 0.3638,0.23564 0.57877,0.31832 0.21498,0.0827 0.43512,0.15193 0.66146,0.20671 0.21704,0.0641 0.43409,0.11989 0.64906,0.1695 0.21497,0.0496 0.40618,0.10955 0.57464,0.17777 0.17053,0.0692 0.30799,0.15502 0.41341,0.25631 0.10439,0.0992 0.1571,0.23151 0.1571,0.39688 0,0.15192 -0.0403,0.27698 -0.11989,0.3762 -0.0806,0.0992 -0.17983,0.17777 -0.29766,0.23564 -0.11885,0.0558 -0.24598,0.093 -0.38034,0.11163 -0.13539,0.0196 -0.26251,0.0289 -0.38033,0.0289 -0.17364,0 -0.34314,-0.0207 -0.5085,-0.062 -0.1633,-0.0434 -0.30489,-0.10852 -0.42581,-0.1943 -0.12196,-0.0879 -0.21911,-0.20257 -0.29353,-0.34313 -0.0744,-0.14263 -0.11162,-0.31523 -0.11162,-0.51677 z m 8.27443,-1.59163 v -1.41387 h 1.24437 c 0.11782,0 0.23255,0.0103 0.34313,0.0289 0.10956,0.0196 0.20671,0.0558 0.28939,0.10749 0.0847,0.0496 0.15296,0.11989 0.20257,0.21084 0.0517,0.0889 0.0785,0.20464 0.0785,0.34726 0,0.25425 -0.0775,0.43719 -0.23151,0.54984 -0.15193,0.11369 -0.34623,0.1695 -0.58291,0.1695 z m -1.33118,-2.4474 v 6.04408 h 2.93109 c 0.26975,0 0.5333,-0.0331 0.78961,-0.0992 0.25838,-0.0682 0.48783,-0.17363 0.68626,-0.31419 0.20051,-0.14263 0.36071,-0.32453 0.47956,-0.54571 0.11782,-0.22324 0.17777,-0.48782 0.17777,-0.79375 0,-0.37723 -0.093,-0.69969 -0.27699,-0.96738 -0.1819,-0.26975 -0.45889,-0.45889 -0.83095,-0.56637 0.26975,-0.12919 0.47335,-0.29456 0.61184,-0.4961 0.13746,-0.2036 0.20671,-0.45888 0.20671,-0.76481 0,-0.28112 -0.0475,-0.51676 -0.14056,-0.70693 -0.0909,-0.19224 -0.22221,-0.34727 -0.39274,-0.46302 -0.16847,-0.11576 -0.37104,-0.19844 -0.60772,-0.24805 -0.23771,-0.0517 -0.50022,-0.0786 -0.78961,-0.0786 z m 1.33118,5.01055 v -1.65778 h 1.44694 c 0.28939,0 0.5209,0.0662 0.69453,0.19844 0.17364,0.13229 0.26045,0.3545 0.26045,0.66559 0,0.1571 -0.0269,0.28732 -0.0785,0.38861 -0.0527,0.10232 -0.12403,0.18397 -0.21498,0.24391 -0.091,0.0579 -0.19637,0.0992 -0.31419,0.12402 -0.11886,0.0248 -0.24288,0.0372 -0.37207,0.0372 z m 4.63021,-5.01055 v 6.04408 h 1.33119 v -6.04408 z m 3.40238,4.03903 h -1.28571 c -0.006,0.37207 0.062,0.6935 0.20257,0.96325 0.14262,0.27079 0.33486,0.49403 0.57464,0.66973 0.23978,0.17363 0.5147,0.30179 0.82682,0.38447 0.3142,0.0827 0.63769,0.12402 0.97152,0.12402 0.41031,0 0.77308,-0.0486 1.08727,-0.14469 0.3142,-0.0961 0.57568,-0.22944 0.78548,-0.40101 0.21188,-0.17363 0.37207,-0.37827 0.47956,-0.61598 0.10749,-0.23668 0.16123,-0.49299 0.16123,-0.76895 0,-0.33899 -0.0724,-0.61701 -0.21497,-0.83509 -0.14366,-0.21704 -0.31419,-0.39067 -0.51263,-0.5209 -0.19844,-0.12919 -0.39894,-0.22324 -0.59945,-0.28112 -0.19844,-0.0599 -0.3545,-0.10128 -0.46715,-0.12402 -0.37827,-0.0961 -0.6842,-0.17467 -0.91778,-0.23564 -0.23461,-0.0631 -0.41961,-0.12506 -0.55397,-0.18604 -0.13229,-0.063 -0.22117,-0.13022 -0.26458,-0.20257 -0.0444,-0.0744 -0.0661,-0.17053 -0.0661,-0.28939 0,-0.12919 0.0269,-0.23668 0.0827,-0.32246 0.0579,-0.0848 0.12919,-0.15503 0.21498,-0.21084 0.0879,-0.0579 0.18603,-0.0971 0.29352,-0.11989 0.10749,-0.0217 0.21497,-0.0331 0.32246,-0.0331 0.16227,0 0.31213,0.0145 0.45062,0.0413 0.14056,0.0279 0.26252,0.0765 0.36794,0.14469 0.10748,0.0661 0.19223,0.15917 0.25631,0.27699 0.0661,0.11885 0.10542,0.26872 0.11989,0.45062 h 1.28571 c 0,-0.34934 -0.0661,-0.64699 -0.19844,-0.89297 -0.13229,-0.24495 -0.31212,-0.44649 -0.53743,-0.60358 -0.22635,-0.15917 -0.48576,-0.27389 -0.77721,-0.34313 -0.28939,-0.0713 -0.59325,-0.10749 -0.90951,-0.10749 -0.27078,0 -0.54157,0.0372 -0.81442,0.11162 -0.27079,0.0724 -0.51263,0.185 -0.7276,0.339 -0.21291,0.15193 -0.38654,0.3421 -0.5209,0.57051 -0.13229,0.22944 -0.19844,0.49816 -0.19844,0.80615 0,0.27905 0.0517,0.51573 0.1571,0.71107 0.10438,0.19327 0.24081,0.3545 0.40927,0.48369 0.17053,0.13022 0.36381,0.23564 0.57878,0.31832 0.21497,0.0827 0.43511,0.15193 0.66146,0.20671 0.21704,0.0641 0.43408,0.11989 0.64905,0.1695 0.21498,0.0496 0.40618,0.10955 0.57464,0.17777 0.17054,0.0692 0.308,0.15502 0.41342,0.25631 0.10438,0.0992 0.15709,0.23151 0.15709,0.39688 0,0.15192 -0.0403,0.27698 -0.11989,0.3762 -0.0806,0.0992 -0.17983,0.17777 -0.29765,0.23564 -0.11886,0.0558 -0.24598,0.093 -0.38034,0.11163 -0.13539,0.0196 -0.26252,0.0289 -0.38034,0.0289 -0.17363,0 -0.34313,-0.0207 -0.5085,-0.062 -0.16329,-0.0434 -0.30489,-0.10852 -0.42581,-0.1943 -0.12196,-0.0879 -0.21911,-0.20257 -0.29352,-0.34313 -0.0744,-0.14263 -0.11162,-0.31523 -0.11162,-0.51677 z m 5.6565,-0.99218 c 0,-0.26459 0.0289,-0.5209 0.0868,-0.76895 0.0599,-0.24805 0.15504,-0.46922 0.28526,-0.66559 0.13229,-0.19534 0.30179,-0.3514 0.50849,-0.46716 0.20878,-0.11575 0.46406,-0.17363 0.76482,-0.17363 0.29765,0 0.55087,0.0579 0.76067,0.17363 0.20878,0.11576 0.37828,0.27182 0.5085,0.46716 0.12919,0.19637 0.22324,0.41754 0.28112,0.66559 0.0599,0.24805 0.0909,0.50436 0.0909,0.76895 0,0.25424 -0.031,0.50022 -0.0909,0.74 -0.0579,0.23978 -0.15193,0.45682 -0.28112,0.64906 -0.13022,0.19327 -0.29972,0.34726 -0.5085,0.46302 -0.2098,0.11369 -0.46302,0.1695 -0.76067,0.1695 -0.30076,0 -0.55604,-0.0558 -0.76482,-0.1695 -0.2067,-0.11576 -0.3762,-0.26975 -0.50849,-0.46302 -0.13022,-0.19224 -0.22531,-0.40928 -0.28526,-0.64906 -0.0579,-0.23978 -0.0868,-0.48576 -0.0868,-0.74 z m -1.32705,0 c 0,0.44131 0.0672,0.85162 0.20257,1.23196 0.13436,0.38034 0.32866,0.71314 0.58291,0.99632 0.25322,0.28112 0.56431,0.50333 0.93431,0.6656 0.37207,0.15916 0.78962,0.23977 1.25264,0.23977 0.46818,0 0.88573,-0.0806 1.25263,-0.23977 0.36587,-0.16227 0.67593,-0.38448 0.93018,-0.6656 0.25322,-0.28318 0.44752,-0.61598 0.58291,-0.99632 0.13746,-0.38034 0.2067,-0.79065 0.2067,-1.23196 0,-0.45166 -0.0692,-0.87024 -0.2067,-1.25678 -0.13539,-0.3855 -0.32969,-0.7214 -0.58291,-1.00872 -0.25425,-0.28939 -0.56431,-0.5147 -0.93018,-0.67799 -0.3669,-0.16537 -0.78445,-0.24805 -1.25263,-0.24805 -0.46302,0 -0.88057,0.0827 -1.25264,0.24805 -0.37,0.16329 -0.68109,0.3886 -0.93431,0.67799 -0.25425,0.28732 -0.44855,0.62322 -0.58291,1.00872 -0.13539,0.38654 -0.20257,0.80512 -0.20257,1.25678 z m 6.84713,-3.04685 v 6.04408 h 1.24436 v -4.0473 h 0.0165 l 2.51767,4.0473 h 1.32705 v -6.04408 h -1.24437 v 4.05557 h -0.0165 l -2.52181,-4.05557 z m 6.1991,4.74183 v 1.30225 h 1.32705 v -1.30225 z m 6.30763,-1.03353 0.78548,-2.22002 h 0.0207 l 0.76068,2.22002 z m 0.12815,-3.7083 -2.28616,6.04408 h 1.33532 l 0.47542,-1.34772 h 2.26136 l 0.45475,1.34772 h 1.3808 l -2.26136,-6.04408 z m 4.14652,0 v 6.04408 h 4.27881 v -1.11621 h -2.94763 v -4.92787 z m 5.02088,0 v 6.04408 h 4.27881 v -1.11621 h -2.94762 v -4.92787 z m 8.70541,2.73265 v -1.69912 h 1.45521 c 0.30592,0 0.53433,0.0661 0.68626,0.19844 0.1509,0.13229 0.22738,0.3452 0.22738,0.63665 0,0.30593 -0.0765,0.5271 -0.22738,0.66146 -0.15193,0.13539 -0.38034,0.20257 -0.68626,0.20257 z m -1.33118,-2.73265 v 6.04408 h 1.33118 v -2.36058 h 1.32705 c 0.3328,0 0.57258,0.0734 0.71934,0.21911 0.14883,0.14676 0.24494,0.37827 0.28939,0.69453 0.0331,0.24288 0.0579,0.49609 0.0744,0.76068 0.0186,0.26458 0.0641,0.49402 0.13643,0.68626 h 1.33118 c -0.0641,-0.0848 -0.11058,-0.1881 -0.14056,-0.31006 -0.031,-0.12092 -0.0527,-0.24908 -0.0661,-0.38447 -0.0145,-0.13436 -0.0248,-0.26665 -0.0331,-0.39688 -0.006,-0.12919 -0.0114,-0.24184 -0.0165,-0.33899 -0.0114,-0.1509 -0.032,-0.30283 -0.062,-0.45476 -0.031,-0.15399 -0.0806,-0.29455 -0.14883,-0.42168 -0.0661,-0.12609 -0.15297,-0.23668 -0.26045,-0.33073 -0.10749,-0.093 -0.24391,-0.16226 -0.40928,-0.2067 v -0.0165 c 0.339,-0.13436 0.58291,-0.33176 0.73174,-0.59118 0.15089,-0.26148 0.22738,-0.5705 0.22738,-0.92604 0,-0.23151 -0.0414,-0.44648 -0.12403,-0.64492 -0.0827,-0.2005 -0.20153,-0.37724 -0.35553,-0.52917 -0.15503,-0.15399 -0.34106,-0.27388 -0.55811,-0.35966 -0.21807,-0.0879 -0.46199,-0.1323 -0.73174,-0.1323 z m 6.11229,0 v 6.04408 h 1.33118 v -6.04408 z m 6.86779,5.35782 0.13643,0.68626 h 0.84749 v -3.27009 h -2.54248 v 0.99219 h 1.33945 c -0.0413,0.42478 -0.18189,0.74828 -0.42167,0.97152 -0.23978,0.22117 -0.57878,0.33073 -1.017,0.33073 -0.30075,0 -0.55604,-0.0558 -0.76481,-0.1695 -0.2067,-0.11576 -0.3762,-0.26975 -0.50849,-0.46302 -0.13023,-0.19224 -0.22531,-0.40928 -0.28526,-0.64906 -0.0579,-0.23978 -0.0868,-0.48576 -0.0868,-0.74 0,-0.26459 0.0289,-0.5209 0.0868,-0.76895 0.06,-0.24805 0.15503,-0.46922 0.28526,-0.66559 0.13229,-0.19534 0.30179,-0.3514 0.50849,-0.46716 0.20877,-0.11575 0.46406,-0.17363 0.76481,-0.17363 0.31936,0 0.59222,0.0858 0.81856,0.25632 0.22531,0.16846 0.37827,0.42168 0.45888,0.76067 h 1.26918 c -0.0331,-0.34416 -0.12713,-0.64905 -0.28112,-0.91364 -0.15193,-0.26458 -0.3452,-0.48782 -0.57878,-0.66972 -0.23461,-0.1819 -0.49816,-0.31833 -0.78962,-0.40928 -0.28938,-0.093 -0.58911,-0.14056 -0.8971,-0.14056 -0.46302,0 -0.88056,0.0827 -1.25263,0.24805 -0.37001,0.16329 -0.6811,0.3886 -0.93431,0.67799 -0.25425,0.28732 -0.44856,0.62322 -0.58291,1.00872 -0.1354,0.38654 -0.20258,0.80512 -0.20258,1.25678 0,0.44131 0.0672,0.85162 0.20258,1.23196 0.13435,0.38034 0.32866,0.71314 0.58291,0.99632 0.25321,0.28112 0.5643,0.50333 0.93431,0.6656 0.37207,0.15916 0.78961,0.23977 1.25263,0.23977 0.29146,0 0.58085,-0.061 0.86817,-0.1819 0.28939,-0.12092 0.5519,-0.33486 0.78961,-0.64078 z m 2.05672,-5.35782 v 6.04408 h 1.33119 v -2.60863 h 2.4474 v 2.60863 h 1.32705 v -6.04408 h -1.32705 v 2.31924 h -2.4474 v -2.31924 z m 7.61298,1.11621 v 4.92787 h 1.32705 v -4.92787 h 1.81487 v -1.11621 h -4.95266 v 1.11621 z m 4.73873,2.92282 h -1.28571 c -0.006,0.37207 0.062,0.6935 0.20257,0.96325 0.14262,0.27079 0.33486,0.49403 0.57464,0.66973 0.23978,0.17363 0.5147,0.30179 0.82682,0.38447 0.3142,0.0827 0.63769,0.12402 0.97152,0.12402 0.41031,0 0.77308,-0.0486 1.08727,-0.14469 0.31419,-0.0961 0.57567,-0.22944 0.78548,-0.40101 0.21188,-0.17363 0.37207,-0.37827 0.47956,-0.61598 0.10749,-0.23668 0.16123,-0.49299 0.16123,-0.76895 0,-0.33899 -0.0724,-0.61701 -0.21497,-0.83509 -0.14366,-0.21704 -0.3142,-0.39067 -0.51263,-0.5209 -0.19844,-0.12919 -0.39895,-0.22324 -0.59945,-0.28112 -0.19844,-0.0599 -0.3545,-0.10128 -0.46716,-0.12402 -0.37827,-0.0961 -0.68419,-0.17467 -0.91777,-0.23564 -0.23461,-0.0631 -0.41961,-0.12506 -0.55397,-0.18604 -0.13229,-0.063 -0.22118,-0.13022 -0.26458,-0.20257 -0.0444,-0.0744 -0.0662,-0.17053 -0.0662,-0.28939 0,-0.12919 0.0269,-0.23668 0.0827,-0.32246 0.0579,-0.0848 0.12919,-0.15503 0.21498,-0.21084 0.0879,-0.0579 0.18603,-0.0971 0.29352,-0.11989 0.10748,-0.0217 0.21497,-0.0331 0.32246,-0.0331 0.16226,0 0.31212,0.0145 0.45062,0.0413 0.14056,0.0279 0.26251,0.0765 0.36793,0.14469 0.10749,0.0661 0.19224,0.15917 0.25632,0.27699 0.0661,0.11885 0.10542,0.26872 0.11989,0.45062 h 1.28571 c 0,-0.34934 -0.0661,-0.64699 -0.19844,-0.89297 -0.13229,-0.24495 -0.31213,-0.44649 -0.53743,-0.60358 -0.22635,-0.15917 -0.48576,-0.27389 -0.77722,-0.34313 -0.28939,-0.0713 -0.59324,-0.10749 -0.9095,-0.10749 -0.27079,0 -0.54157,0.0372 -0.81442,0.11162 -0.27079,0.0724 -0.51263,0.185 -0.72761,0.339 -0.2129,0.15193 -0.38654,0.3421 -0.5209,0.57051 -0.13229,0.22944 -0.19843,0.49816 -0.19843,0.80615 0,0.27905 0.0517,0.51573 0.15709,0.71107 0.10439,0.19327 0.24081,0.3545 0.40928,0.48369 0.17053,0.13022 0.3638,0.23564 0.57878,0.31832 0.21497,0.0827 0.43511,0.15193 0.66146,0.20671 0.21704,0.0641 0.43408,0.11989 0.64905,0.1695 0.21498,0.0496 0.40618,0.10955 0.57464,0.17777 0.17054,0.0692 0.308,0.15502 0.41341,0.25631 0.10439,0.0992 0.1571,0.23151 0.1571,0.39688 0,0.15192 -0.0403,0.27698 -0.11989,0.3762 -0.0806,0.0992 -0.17983,0.17777 -0.29766,0.23564 -0.11885,0.0558 -0.24597,0.093 -0.38033,0.11163 -0.13539,0.0196 -0.26252,0.0289 -0.38034,0.0289 -0.17364,0 -0.34313,-0.0207 -0.5085,-0.062 -0.16329,-0.0434 -0.30489,-0.10852 -0.42581,-0.1943 -0.12196,-0.0879 -0.21911,-0.20257 -0.29352,-0.34313 -0.0744,-0.14263 -0.11162,-0.31523 -0.11162,-0.51677 z m 8.27443,-1.30638 v -1.69912 h 1.4552 c 0.30593,0 0.53434,0.0661 0.68627,0.19844 0.15089,0.13229 0.22737,0.3452 0.22737,0.63665 0,0.30593 -0.0765,0.5271 -0.22737,0.66146 -0.15193,0.13539 -0.38034,0.20257 -0.68627,0.20257 z m -1.33119,-2.73265 v 6.04408 h 1.33119 v -2.36058 h 1.32704 c 0.3328,0 0.57258,0.0734 0.71934,0.21911 0.14883,0.14676 0.24495,0.37827 0.28939,0.69453 0.0331,0.24288 0.0579,0.49609 0.0744,0.76068 0.0186,0.26458 0.0641,0.49402 0.13643,0.68626 h 1.33118 c -0.0641,-0.0848 -0.11058,-0.1881 -0.14055,-0.31006 -0.031,-0.12092 -0.0527,-0.24908 -0.0661,-0.38447 -0.0145,-0.13436 -0.0248,-0.26665 -0.0331,-0.39688 -0.006,-0.12919 -0.0114,-0.24184 -0.0165,-0.33899 -0.0114,-0.1509 -0.032,-0.30283 -0.062,-0.45476 -0.031,-0.15399 -0.0806,-0.29455 -0.14883,-0.42168 -0.0661,-0.12609 -0.15296,-0.23668 -0.26045,-0.33073 -0.10748,-0.093 -0.24391,-0.16226 -0.40928,-0.2067 v -0.0165 c 0.339,-0.13436 0.58291,-0.33176 0.73174,-0.59118 0.1509,-0.26148 0.22738,-0.5705 0.22738,-0.92604 0,-0.23151 -0.0413,-0.44648 -0.12403,-0.64492 -0.0827,-0.2005 -0.20153,-0.37724 -0.35553,-0.52917 -0.15503,-0.15399 -0.34107,-0.27388 -0.5581,-0.35966 -0.21808,-0.0879 -0.46199,-0.1323 -0.73174,-0.1323 z m 6.11332,0 v 6.04408 h 4.58887 v -1.11621 h -3.25768 v -1.48415 h 2.92695 v -1.03353 h -2.92695 v -1.29398 h 3.19153 v -1.11621 z m 6.39134,4.03903 h -1.28571 c -0.006,0.37207 0.062,0.6935 0.20257,0.96325 0.14263,0.27079 0.33487,0.49403 0.57465,0.66973 0.23978,0.17363 0.5147,0.30179 0.82682,0.38447 0.31419,0.0827 0.63769,0.12402 0.97152,0.12402 0.41031,0 0.77307,-0.0486 1.08727,-0.14469 0.31419,-0.0961 0.57567,-0.22944 0.78548,-0.40101 0.21187,-0.17363 0.37207,-0.37827 0.47956,-0.61598 0.10748,-0.23668 0.16123,-0.49299 0.16123,-0.76895 0,-0.33899 -0.0724,-0.61701 -0.21498,-0.83509 -0.14365,-0.21704 -0.31419,-0.39067 -0.51263,-0.5209 -0.19843,-0.12919 -0.39894,-0.22324 -0.59944,-0.28112 -0.19844,-0.0599 -0.3545,-0.10128 -0.46716,-0.12402 -0.37827,-0.0961 -0.68419,-0.17467 -0.91777,-0.23564 -0.23461,-0.0631 -0.41962,-0.12506 -0.55397,-0.18604 -0.1323,-0.063 -0.22118,-0.13022 -0.26459,-0.20257 -0.0444,-0.0744 -0.0661,-0.17053 -0.0661,-0.28939 0,-0.12919 0.0269,-0.23668 0.0827,-0.32246 0.0579,-0.0848 0.12919,-0.15503 0.21497,-0.21084 0.0879,-0.0579 0.18604,-0.0971 0.29353,-0.11989 0.10748,-0.0217 0.21497,-0.0331 0.32246,-0.0331 0.16226,0 0.31212,0.0145 0.45062,0.0413 0.14056,0.0279 0.26251,0.0765 0.36793,0.14469 0.10749,0.0661 0.19224,0.15917 0.25632,0.27699 0.0661,0.11885 0.10542,0.26872 0.11989,0.45062 h 1.28571 c 0,-0.34934 -0.0662,-0.64699 -0.19844,-0.89297 -0.13229,-0.24495 -0.31213,-0.44649 -0.53744,-0.60358 -0.22634,-0.15917 -0.48575,-0.27389 -0.77721,-0.34313 -0.28939,-0.0713 -0.59324,-0.10749 -0.9095,-0.10749 -0.27079,0 -0.54158,0.0372 -0.81442,0.11162 -0.27079,0.0724 -0.51264,0.185 -0.72761,0.339 -0.21291,0.15193 -0.38654,0.3421 -0.5209,0.57051 -0.13229,0.22944 -0.19844,0.49816 -0.19844,0.80615 0,0.27905 0.0517,0.51573 0.1571,0.71107 0.10439,0.19327 0.24081,0.3545 0.40928,0.48369 0.17053,0.13022 0.3638,0.23564 0.57878,0.31832 0.21497,0.0827 0.43511,0.15193 0.66145,0.20671 0.21704,0.0641 0.43409,0.11989 0.64906,0.1695 0.21497,0.0496 0.40618,0.10955 0.57464,0.17777 0.17053,0.0692 0.30799,0.15502 0.41341,0.25631 0.10439,0.0992 0.1571,0.23151 0.1571,0.39688 0,0.15192 -0.0403,0.27698 -0.11989,0.3762 -0.0806,0.0992 -0.17983,0.17777 -0.29766,0.23564 -0.11885,0.0558 -0.24598,0.093 -0.38033,0.11163 -0.1354,0.0196 -0.26252,0.0289 -0.38034,0.0289 -0.17364,0 -0.34313,-0.0207 -0.5085,-0.062 -0.1633,-0.0434 -0.30489,-0.10852 -0.42582,-0.1943 -0.12195,-0.0879 -0.2191,-0.20257 -0.29352,-0.34313 -0.0744,-0.14263 -0.11162,-0.31523 -0.11162,-0.51677 z m 4.5899,-4.03903 v 6.04408 h 4.58887 v -1.11621 h -3.25768 v -1.48415 h 2.92695 v -1.03353 h -2.92695 v -1.29398 h 3.19153 v -1.11621 z m 6.81716,2.73265 v -1.69912 h 1.45521 c 0.30592,0 0.53433,0.0661 0.68626,0.19844 0.15089,0.13229 0.22737,0.3452 0.22737,0.63665 0,0.30593 -0.0765,0.5271 -0.22737,0.66146 -0.15193,0.13539 -0.38034,0.20257 -0.68626,0.20257 z m -1.33119,-2.73265 v 6.04408 h 1.33119 v -2.36058 h 1.32705 c 0.3328,0 0.57257,0.0734 0.71933,0.21911 0.14883,0.14676 0.24495,0.37827 0.28939,0.69453 0.0331,0.24288 0.0579,0.49609 0.0744,0.76068 0.0186,0.26458 0.0641,0.49402 0.13642,0.68626 h 1.33119 c -0.0641,-0.0848 -0.11059,-0.1881 -0.14056,-0.31006 -0.031,-0.12092 -0.0527,-0.24908 -0.0661,-0.38447 -0.0145,-0.13436 -0.0248,-0.26665 -0.0331,-0.39688 -0.006,-0.12919 -0.0114,-0.24184 -0.0165,-0.33899 -0.0114,-0.1509 -0.032,-0.30283 -0.062,-0.45476 -0.031,-0.15399 -0.0806,-0.29455 -0.14883,-0.42168 -0.0661,-0.12609 -0.15296,-0.23668 -0.26044,-0.33073 -0.10749,-0.093 -0.24392,-0.16226 -0.40928,-0.2067 v -0.0165 c 0.33899,-0.13436 0.58291,-0.33176 0.73174,-0.59118 0.15089,-0.26148 0.22737,-0.5705 0.22737,-0.92604 0,-0.23151 -0.0413,-0.44648 -0.12402,-0.64492 -0.0827,-0.2005 -0.20154,-0.37724 -0.35554,-0.52917 -0.15503,-0.15399 -0.34106,-0.27388 -0.5581,-0.35966 -0.21808,-0.0879 -0.46199,-0.1323 -0.73174,-0.1323 z m 8.77259,6.04408 2.00918,-6.04408 h -1.37252 l -1.36426,4.24987 h -0.0165 l -1.34773,-4.24987 h -1.36012 l 1.95544,6.04408 z m 2.52285,-6.04408 v 6.04408 h 4.58886 v -1.11621 h -3.25768 v -1.48415 h 2.92696 v -1.03353 h -2.92696 v -1.29398 h 3.19154 v -1.11621 z m 6.81715,4.92787 v -3.81166 h 0.94671 c 0.32763,0 0.60359,0.0476 0.82683,0.14056 0.22324,0.0941 0.40204,0.22945 0.53743,0.40515 0.13436,0.17363 0.23151,0.38344 0.28939,0.62838 0.0599,0.24598 0.0909,0.51987 0.0909,0.82269 0,0.33383 -0.0434,0.61598 -0.12816,0.8475 -0.0827,0.23151 -0.19637,0.42064 -0.339,0.56637 -0.14056,0.14366 -0.30179,0.24701 -0.48369,0.31006 -0.17983,0.061 -0.3638,0.091 -0.55397,0.091 z m -1.33118,-4.92787 v 6.04408 h 2.60862 c 0.46302,0 0.86507,-0.0765 1.20716,-0.23151 0.34107,-0.1571 0.62632,-0.37 0.85576,-0.64079 0.22841,-0.26975 0.39895,-0.59118 0.51264,-0.96325 0.11265,-0.37414 0.1695,-0.78135 0.1695,-1.21956 0,-0.50436 -0.0703,-0.94258 -0.21085,-1.31465 -0.13849,-0.37207 -0.32969,-0.68213 -0.57464,-0.93018 -0.24598,-0.24804 -0.5364,-0.43408 -0.87229,-0.5581 -0.33694,-0.12402 -0.69867,-0.18604 -1.08728,-0.18604 z m 13.09274,3.54707 h -0.68626 c -0.031,0.20464 -0.12196,0.36587 -0.27286,0.4837 -0.15193,0.11885 -0.34623,0.17776 -0.58291,0.17776 -0.15193,0 -0.29145,-0.0331 -0.41754,-0.0992 -0.12403,-0.0661 -0.23048,-0.15296 -0.31833,-0.26045 -0.0858,-0.10955 -0.15296,-0.23977 -0.20257,-0.3886 -0.0475,-0.1509 -0.0703,-0.30799 -0.0703,-0.47129 0,-0.35554 0.0837,-0.64492 0.25218,-0.86817 0.17053,-0.22324 0.41755,-0.33486 0.74001,-0.33486 0.22014,0 0.40927,0.0568 0.56637,0.1695 0.1571,0.11369 0.25838,0.26768 0.30593,0.46302 h 0.65732 c -0.0279,-0.21187 -0.0868,-0.39894 -0.17777,-0.56224 -0.0889,-0.16536 -0.20154,-0.30282 -0.339,-0.41341 -0.13539,-0.10955 -0.28938,-0.19224 -0.46302,-0.24805 -0.17156,-0.0579 -0.3545,-0.0868 -0.54983,-0.0868 -0.28423,0 -0.53744,0.0486 -0.76068,0.14469 -0.22117,0.0971 -0.40928,0.23048 -0.56637,0.40101 -0.15503,0.16846 -0.27286,0.36794 -0.35554,0.59945 -0.0806,0.22944 -0.11989,0.47955 -0.11989,0.7524 0,0.26459 0.0424,0.5116 0.12816,0.74001 0.0879,0.22944 0.21084,0.42892 0.36793,0.59945 0.15917,0.16846 0.35141,0.30075 0.57465,0.39687 0.22324,0.0941 0.47232,0.14056 0.74827,0.14056 0.18397,0 0.36174,-0.0289 0.5333,-0.0868 0.17364,-0.0599 0.32866,-0.14883 0.46716,-0.26459 0.14056,-0.11575 0.25631,-0.25631 0.34726,-0.42168 0.093,-0.16536 0.15813,-0.35243 0.19431,-0.56224 z m -4.0473,-0.52503 c 0,-0.3607 0.062,-0.69246 0.18604,-0.99632 0.12402,-0.30592 0.29145,-0.56844 0.50436,-0.78962 0.21497,-0.22014 0.46715,-0.39274 0.75654,-0.51676 0.29146,-0.12402 0.60461,-0.18604 0.93844,-0.18604 0.32763,0 0.63666,0.062 0.92604,0.18604 0.29146,0.12402 0.54571,0.29662 0.76068,0.51676 0.21498,0.22118 0.38551,0.4837 0.51263,0.78962 0.12609,0.30386 0.19017,0.63562 0.19017,0.99632 0,0.36174 -0.0641,0.69453 -0.19017,1.00046 -0.12712,0.30385 -0.29765,0.56534 -0.51263,0.78548 -0.21497,0.22117 -0.46922,0.39274 -0.76068,0.51676 -0.28938,0.12403 -0.59841,0.18604 -0.92604,0.18604 -0.33383,0 -0.64698,-0.062 -0.93844,-0.18604 -0.28939,-0.12402 -0.54157,-0.29559 -0.75654,-0.51676 -0.21291,-0.22014 -0.38034,-0.48163 -0.50436,-0.78548 -0.12403,-0.30593 -0.18604,-0.63872 -0.18604,-1.00046 z m -0.86403,0 c 0,0.47956 0.0879,0.91571 0.26458,1.30638 0.1788,0.38861 0.41755,0.7214 0.71521,0.99632 0.29972,0.27596 0.64595,0.48783 1.03766,0.63666 0.39377,0.14572 0.80408,0.2191 1.23196,0.2191 0.42995,0 0.84026,-0.0734 1.23197,-0.2191 0.39377,-0.14883 0.74,-0.3607 1.03766,-0.63666 0.29972,-0.27492 0.53847,-0.60771 0.7152,-0.99632 0.1788,-0.39067 0.26872,-0.82682 0.26872,-1.30638 0,-0.48472 -0.0899,-0.92191 -0.26872,-1.31051 -0.17673,-0.39068 -0.41548,-0.72347 -0.7152,-0.99632 -0.29766,-0.27492 -0.64389,-0.48783 -1.03766,-0.63666 -0.39171,-0.14883 -0.80202,-0.22324 -1.23197,-0.22324 -0.42788,0 -0.83819,0.0744 -1.23196,0.22324 -0.39171,0.14883 -0.73794,0.36174 -1.03766,0.63666 -0.29766,0.27285 -0.53641,0.60564 -0.71521,0.99632 -0.17673,0.3886 -0.26458,0.82579 -0.26458,1.31051 z m 6.95048,-0.62838 h 1.14928 c 0,-0.1571 0.0145,-0.31523 0.0455,-0.47543 0.0331,-0.16226 0.0847,-0.31006 0.15709,-0.44235 0.0744,-0.13229 0.17157,-0.23771 0.29353,-0.31832 0.12092,-0.0827 0.26975,-0.12403 0.44648,-0.12403 0.25838,0 0.47129,0.0806 0.63666,0.23978 0.16743,0.1602 0.25218,0.38447 0.25218,0.67386 0,0.17984 -0.0413,0.34107 -0.12403,0.48369 -0.0827,0.14056 -0.185,0.26769 -0.30592,0.38034 -0.12196,0.11369 -0.25528,0.21704 -0.40101,0.31006 -0.14676,0.0909 -0.28422,0.1819 -0.41341,0.27285 -0.25632,0.17363 -0.4992,0.34623 -0.72761,0.51677 -0.22634,0.16846 -0.42478,0.35346 -0.59531,0.55397 -0.16846,0.20154 -0.30179,0.42891 -0.40101,0.68213 -0.0992,0.25424 -0.14883,0.55293 -0.14883,0.8971 h 4.35323 v -1.03353 h -2.80294 c 0.14573,-0.2036 0.3142,-0.38137 0.50437,-0.5333 0.19223,-0.1509 0.39067,-0.29352 0.59531,-0.42581 0.20361,-0.1323 0.40514,-0.26562 0.60358,-0.40101 0.20051,-0.13746 0.38034,-0.28939 0.53744,-0.45476 0.15916,-0.16743 0.28628,-0.3576 0.38033,-0.5705 0.0961,-0.21498 0.1447,-0.47233 0.1447,-0.77308 0,-0.28629 -0.0558,-0.54571 -0.16537,-0.77722 -0.10748,-0.23151 -0.25528,-0.42581 -0.44235,-0.58291 -0.1881,-0.15916 -0.40411,-0.28112 -0.64905,-0.3638 -0.24598,-0.0848 -0.50333,-0.12816 -0.77308,-0.12816 -0.35553,0 -0.6718,0.061 -0.94671,0.1819 -0.27286,0.12196 -0.50023,0.29146 -0.68213,0.5085 -0.17984,0.21497 -0.31419,0.46922 -0.40514,0.76068 -0.0889,0.28939 -0.12713,0.60358 -0.11576,0.94258 z m 5.77432,0.66145 c 0,-0.10128 10e-4,-0.22427 0.004,-0.36793 0.002,-0.14263 0.0124,-0.29042 0.0289,-0.44235 0.0165,-0.154 0.0434,-0.30593 0.0827,-0.45476 0.0413,-0.14882 0.0961,-0.28215 0.16537,-0.401 0.0713,-0.11783 0.16226,-0.21498 0.27285,-0.28939 0.10955,-0.0744 0.24598,-0.11162 0.40927,-0.11162 0.16537,0 0.30386,0.0372 0.41755,0.11162 0.11265,0.0744 0.20464,0.17156 0.27698,0.28939 0.0744,0.11885 0.12919,0.25218 0.16537,0.401 0.0351,0.14883 0.063,0.30076 0.0827,0.45476 0.0217,0.15193 0.0341,0.29972 0.0372,0.44235 0.002,0.14366 0.004,0.26665 0.004,0.36793 0,0.16847 -0.006,0.37414 -0.0165,0.61599 -0.0114,0.23978 -0.0475,0.47129 -0.10749,0.69453 -0.0579,0.22117 -0.15502,0.41134 -0.28938,0.57051 -0.13229,0.15709 -0.32246,0.23564 -0.57051,0.23564 -0.24288,0 -0.42892,-0.0786 -0.55811,-0.23564 -0.13022,-0.15917 -0.2253,-0.34934 -0.28525,-0.57051 -0.0579,-0.22324 -0.093,-0.45475 -0.10335,-0.69453 -0.0114,-0.24185 -0.0165,-0.44752 -0.0165,-0.61599 z m -1.20302,0 c 0,0.59325 0.0579,1.08934 0.17363,1.48829 0.11575,0.39687 0.27078,0.71416 0.46716,0.95084 0.19843,0.23771 0.42788,0.40721 0.69039,0.5085 0.26459,0.10128 0.5426,0.15296 0.83509,0.15296 0.29972,0 0.58085,-0.0517 0.84336,-0.15296 0.26148,-0.10129 0.49299,-0.27079 0.69453,-0.5085 0.20051,-0.23668 0.35967,-0.55397 0.47543,-0.95084 0.11575,-0.39895 0.17363,-0.89504 0.17363,-1.48829 0,-0.57567 -0.0579,-1.05936 -0.17363,-1.45107 -0.11576,-0.39377 -0.27492,-0.709 -0.47543,-0.94671 -0.20154,-0.23668 -0.43305,-0.40515 -0.69453,-0.50436 -0.26251,-0.10129 -0.54364,-0.15297 -0.84336,-0.15297 -0.29249,0 -0.5705,0.0517 -0.83509,0.15297 -0.26251,0.0992 -0.49196,0.26768 -0.69039,0.50436 -0.19638,0.23771 -0.35141,0.55294 -0.46716,0.94671 -0.11576,0.39171 -0.17363,0.8754 -0.17363,1.45107 z m 4.84414,-0.66145 h 1.14929 c 0,-0.1571 0.0145,-0.31523 0.0455,-0.47543 0.0331,-0.16226 0.0847,-0.31006 0.1571,-0.44235 0.0744,-0.13229 0.17156,-0.23771 0.29352,-0.31832 0.12092,-0.0827 0.26975,-0.12403 0.44649,-0.12403 0.25838,0 0.47129,0.0806 0.63665,0.23978 0.16743,0.1602 0.25218,0.38447 0.25218,0.67386 0,0.17984 -0.0413,0.34107 -0.12402,0.48369 -0.0827,0.14056 -0.185,0.26769 -0.30593,0.38034 -0.12195,0.11369 -0.25528,0.21704 -0.40101,0.31006 -0.14676,0.0909 -0.28422,0.1819 -0.41341,0.27285 -0.25631,0.17363 -0.49919,0.34623 -0.7276,0.51677 -0.22634,0.16846 -0.42478,0.35346 -0.59531,0.55397 -0.16847,0.20154 -0.30179,0.42891 -0.40101,0.68213 -0.0992,0.25424 -0.14883,0.55293 -0.14883,0.8971 h 4.35322 v -1.03353 h -2.80293 c 0.14573,-0.2036 0.31419,-0.38137 0.50436,-0.5333 0.19224,-0.1509 0.39068,-0.29352 0.59531,-0.42581 0.20361,-0.1323 0.40515,-0.26562 0.60359,-0.40101 0.2005,-0.13746 0.38034,-0.28939 0.53743,-0.45476 0.15916,-0.16743 0.28629,-0.3576 0.38034,-0.5705 0.0961,-0.21498 0.14469,-0.47233 0.14469,-0.77308 0,-0.28629 -0.0558,-0.54571 -0.16536,-0.77722 -0.10749,-0.23151 -0.25528,-0.42581 -0.44235,-0.58291 -0.1881,-0.15916 -0.40411,-0.28112 -0.64906,-0.3638 -0.24598,-0.0848 -0.50333,-0.12816 -0.77308,-0.12816 -0.35553,0 -0.67179,0.061 -0.94671,0.1819 -0.27285,0.12196 -0.50023,0.29146 -0.68213,0.5085 -0.17983,0.21497 -0.31419,0.46922 -0.40514,0.76068 -0.0889,0.28939 -0.12712,0.60358 -0.11576,0.94258 z m 6.81509,0.57877 c 0.1509,0 0.28526,0.0331 0.40101,0.0992 0.11576,0.0641 0.20877,0.1478 0.28112,0.25218 0.0744,0.10232 0.12919,0.22118 0.16537,0.35554 0.0382,0.13229 0.0579,0.26871 0.0579,0.40927 0,0.13539 -0.0207,0.26769 -0.062,0.39688 -0.0393,0.13022 -0.0982,0.24598 -0.17777,0.34726 -0.0775,0.10232 -0.17156,0.185 -0.28111,0.24805 -0.11059,0.061 -0.23875,0.091 -0.38448,0.091 -0.15503,0 -0.29145,-0.03 -0.40927,-0.091 -0.11886,-0.063 -0.21911,-0.14676 -0.3018,-0.25218 -0.0806,-0.10439 -0.14262,-0.22324 -0.18603,-0.35553 -0.0413,-0.1323 -0.062,-0.26562 -0.062,-0.40101 0,-0.14573 0.0186,-0.28526 0.0579,-0.41755 0.0413,-0.13436 0.10025,-0.25218 0.17776,-0.3514 0.0796,-0.10128 0.17984,-0.1819 0.30179,-0.23978 0.12092,-0.0599 0.26148,-0.0909 0.42168,-0.0909 z m 0.86403,-1.33118 h 1.14102 c -0.0331,-0.26459 -0.10335,-0.49816 -0.21084,-0.7028 -0.10749,-0.20361 -0.24701,-0.37414 -0.41755,-0.51263 -0.16846,-0.13746 -0.36277,-0.24185 -0.58291,-0.3142 -0.22117,-0.0744 -0.45785,-0.11162 -0.71107,-0.11162 -0.42167,0 -0.78031,0.0941 -1.07487,0.28112 -0.29248,0.18501 -0.53226,0.42582 -0.71933,0.72347 -0.1881,0.29559 -0.32453,0.62632 -0.40928,0.99219 -0.0827,0.3669 -0.12402,0.73381 -0.12402,1.09968 0,0.38033 0.0331,0.7524 0.0992,1.11621 0.0682,0.3638 0.19016,0.69039 0.3638,0.97978 0.1757,0.28732 0.41031,0.51987 0.7028,0.69867 0.29455,0.1757 0.66559,0.26458 1.11207,0.26458 0.3111,0 0.59325,-0.0558 0.8475,-0.16536 0.25321,-0.10956 0.47129,-0.26252 0.65319,-0.45889 0.18397,-0.19534 0.32659,-0.42375 0.42581,-0.68626 0.0992,-0.26149 0.14883,-0.54571 0.14883,-0.85163 0,-0.23668 -0.0372,-0.47129 -0.11162,-0.7028 -0.0744,-0.23151 -0.19017,-0.43615 -0.34727,-0.61598 -0.16846,-0.18707 -0.37413,-0.3359 -0.61598,-0.44649 -0.24288,-0.10955 -0.49196,-0.16536 -0.74827,-0.16536 -0.28733,0 -0.54054,0.0517 -0.76068,0.15296 -0.22118,0.10232 -0.41238,0.27182 -0.57464,0.50849 l -0.0165,-0.0165 c 0.005,-0.16227 0.0269,-0.3483 0.0661,-0.55811 0.0382,-0.20877 0.10025,-0.40514 0.18603,-0.58704 0.0847,-0.18397 0.19947,-0.34003 0.34313,-0.46716 0.14263,-0.12609 0.32246,-0.19017 0.53744,-0.19017 0.20877,0 0.38447,0.0734 0.52503,0.21911 0.14056,0.14676 0.23151,0.31833 0.27285,0.51677 z m 0,0"
       style="fill:#013da6;fill-opacity:1;fill-rule:nonzero;stroke:none;stroke-width:0.352778"
       aria-label="GLASS BISON. ALL RIGHTS RESERVED ©2026" />
  </g>
</svg>
