<?xml version="1.0" encoding="UTF-8" standalone="no"?>
<!-- Created with Inkscape (http://www.inkscape.org/) -->

<svg
   width="186.58899mm"
   height="105.83332mm"
   viewBox="0 0 186.58898 105.83332"
   version="1.1"
   id="svg1"
   xmlns="http://www.w3.org/2000/svg"
   xmlns:svg="http://www.w3.org/2000/svg">
  <defs
     id="defs1" />
  <g
     id="layer1"
     transform="translate(-274.08953,-95.378849)">
    <path
       id="path73"
       d="m 442.63593,177.6565 c -0.40675,0.32702 -0.82056,0.64946 -1.24142,0.97084 -16.7125,12.74939 -43.66472,21.04179 -74.01066,21.04179 -30.46765,0 -57.51371,-8.35837 -74.21104,-21.19489 -0.41945,-0.32244 -0.83185,-0.64805 -1.23719,-0.97473 -10.03194,-8.10048 -16.01399,-17.88689 -16.29304,-28.43247 -0.007,-0.25647 -0.01,-0.51329 -0.01,-0.77153 0,-0.25823 0.003,-0.5147 0.01,-0.77152 0.28046,-10.58475 6.3059,-20.40502 16.40664,-28.52208 0.40675,-0.32809 0.82091,-0.65229 1.24036,-0.97332 16.70544,-12.78749 43.69682,-21.106339 74.09427,-21.106339 30.51986,0 57.60508,8.386229 74.29535,21.260509 0.41804,0.32279 0.83044,0.64805 1.23578,0.97648 9.98149,8.08743 15.9325,17.8488 16.21049,28.36475 0.007,0.25682 0.01,0.51329 0.01,0.77152 0,0.25824 -0.003,0.51506 -0.01,0.77153 -0.28046,10.61437 -6.33977,20.45829 -16.48954,28.58946 m 18.03259,-30.13251 c -0.1711,-6.93738 -2.66418,-13.65709 -7.41574,-19.98804 -2.48991,-3.31787 -5.54144,-6.45477 -9.12989,-9.38953 -0.40252,-0.32985 -0.81351,-0.65652 -1.23014,-0.98213 -2.91112,-2.26836 -6.15174,-4.40796 -9.70668,-6.41244 -8.56015,-4.82459 -18.52224,-8.61096 -29.60899,-11.253968 -11.46598,-2.73297 -23.64281,-4.119033 -36.19323,-4.119033 -12.55007,0 -24.7269,1.386063 -36.19288,4.119033 -11.08675,2.643008 -21.04884,6.429378 -29.60899,11.253968 -3.47522,1.95826 -6.64845,4.04706 -9.50736,6.25686 -0.41805,0.32385 -0.83044,0.65088 -1.23473,0.97896 -3.67277,2.97991 -6.78991,6.17008 -9.32497,9.54828 -4.75156,6.33095 -7.24429,13.05066 -7.41539,19.98804 -0.007,0.25682 -0.01,0.51329 -0.01,0.77152 0,0.25824 0.003,0.51506 0.01,0.77153 0.1711,6.93737 2.66383,13.65708 7.41539,19.98839 2.5086,3.34292 5.58906,6.5024 9.21279,9.45691 0.40393,0.32949 0.81386,0.65652 1.2319,0.98037 2.88996,2.24331 6.10094,4.36174 9.62237,6.34682 8.56015,4.82459 18.52224,8.61096 29.60899,11.25397 11.46598,2.73261 23.64281,4.11868 36.19288,4.11868 12.55042,0 24.72725,-1.38607 36.19323,-4.11868 11.08675,-2.64301 21.04884,-6.42938 29.60899,-11.25397 3.43994,-1.93886 6.5853,-4.00649 9.42305,-6.19231 0.41945,-0.3242 0.83079,-0.64946 1.23613,-0.97648 3.70911,-2.99932 6.85447,-6.21207 9.40753,-9.61531 4.75156,-6.33131 7.24464,-13.05102 7.41574,-19.98839 0.007,-0.25647 0.01,-0.51329 0.01,-0.77153 0,-0.25823 -0.003,-0.5147 -0.01,-0.77152"
       style="fill:#013da6;fill-opacity:1;fill-rule:nonzero;stroke:none;stroke-width:0.352778" />
    <path
       id="path74"
       d="m 427.06253,160.64517 c -3.22651,3.8481 -7.86165,7.31308 -13.77491,10.29582 -12.24845,6.17961 -28.54995,9.58285 -45.90345,9.58285 -17.35384,0 -33.65535,-3.40324 -45.90379,-9.58285 -5.91326,-2.98274 -10.54841,-6.44772 -13.77491,-10.29582 -3.29107,-3.92677 -4.95935,-8.08073 -4.95935,-12.34969 0,-0.17956 0.003,-0.35913 0.01,-0.53728 0.0169,-0.54716 0.0617,-1.0915 0.13618,-1.63442 0.4699,-3.50555 2.08315,-6.92009 4.8133,-10.17764 3.2265,-3.8481 7.86165,-7.31344 13.77491,-10.29582 12.24844,-6.17961 28.54995,-9.58321 45.90379,-9.58321 17.3535,0 33.655,3.4036 45.90345,9.58321 5.91326,2.98238 10.5484,6.44772 13.77491,10.29582 2.73015,3.25755 4.3434,6.67209 4.8133,10.17764 0.0744,0.54292 0.11924,1.08726 0.13617,1.63442 0.007,0.17815 0.01,0.35772 0.01,0.53728 0,4.26896 -1.66829,8.42292 -4.95935,12.34969 m 6.50099,-12.47175 c -0.003,-0.54293 -0.031,-1.08303 -0.0843,-1.62031 -0.39123,-4.02202 -2.14771,-7.91633 -5.23416,-11.59757 -3.36268,-4.01073 -8.16045,-7.60483 -14.26139,-10.68282 -12.46047,-6.2865 -29.01033,-9.74866 -46.59948,-9.74866 -17.58949,0 -34.13936,3.46216 -46.59982,9.74866 -6.10094,3.07799 -10.89872,6.67209 -14.26139,10.68282 -3.08646,3.68124 -4.84294,7.57555 -5.23417,11.59757 -0.0536,0.53728 -0.0815,1.07738 -0.0843,1.62031 -0.001,0.0409 -0.001,0.0815 -0.001,0.12206 0,4.64079 1.78999,9.12989 5.31989,13.33994 3.36267,4.01108 8.16045,7.60518 14.26139,10.68317 12.46046,6.28614 29.01033,9.74866 46.59982,9.74866 17.58915,0 34.13901,-3.46252 46.59948,-9.74866 6.10094,-3.07799 10.89871,-6.67209 14.26139,-10.68317 3.5299,-4.21005 5.31989,-8.69915 5.31989,-13.33994 0,-0.0406 0,-0.0811 -0.001,-0.12206"
       style="fill:#013da6;fill-opacity:1;fill-rule:nonzero;stroke:none;stroke-width:0.352778" />
    <path
       id="path75"
       d="m 302.75597,149.06711 h -28.66601 v -1.54305 h 28.66601 z"
       style="fill:#013da6;fill-opacity:1;fill-rule:nonzero;stroke:none;stroke-width:0.352778" />
    <path
       id="path76"
       d="m 460.67835,149.06711 h -28.66637 v -1.54305 h 28.66637 z"
       style="fill:#013da6;fill-opacity:1;fill-rule:nonzero;stroke:none;stroke-width:0.352778" />
    <path
       id="path77"
       d="m 310.18848,132.20874 -0.99201,1.1811 -9.07662,-7.61612 -1.21744,-1.02129 -6.85306,-5.75028 -0.60184,-0.50518 -0.60748,-0.50905 c 0.40393,-0.32844 0.81633,-0.65547 1.23437,-0.97932 l 0.61031,0.51189 0.60466,0.508 6.92044,5.80636 1.23437,1.03682 z"
       style="fill:#013da6;fill-opacity:1;fill-rule:nonzero;stroke:none;stroke-width:0.352778" />
    <path
       id="path78"
       d="m 309.80409,164.51849 -8.48466,7.11976 -1.23296,1.03505 -6.91338,5.80108 -0.60325,0.50623 -0.61031,0.51224 c -0.41804,-0.32421 -0.82761,-0.65088 -1.2319,-0.98072 l 0.60749,-0.50906 0.60042,-0.50377 6.85024,-5.74887 1.21497,-1.01847 8.81168,-7.39457 z"
       style="fill:#013da6;fill-opacity:1;fill-rule:nonzero;stroke:none;stroke-width:0.352778" />
    <path
       id="path79"
       d="m 443.84523,178.67077 c -0.40534,0.32702 -0.81668,0.65229 -1.23613,0.97649 l -1.21462,-1.01988 -6.92608,-5.81096 -1.23755,-1.03787 -8.65152,-7.26017 0.99201,-1.1811 8.98948,7.54345 1.21779,1.02129 6.8573,5.75451 z"
       style="fill:#013da6;fill-opacity:1;fill-rule:nonzero;stroke:none;stroke-width:0.352778" />
    <path
       id="path80"
       d="m 444.12289,118.14628 -1.20791,1.01282 -6.84742,5.7464 -1.21355,1.01847 -8.89847,7.46619 -0.99166,-1.18145 8.57568,-7.19667 1.23331,-1.03399 6.90633,-5.79543 1.21355,-1.01847 c 0.41663,0.32561 0.82762,0.65228 1.23014,0.98213"
       style="fill:#013da6;fill-opacity:1;fill-rule:nonzero;stroke:none;stroke-width:0.352778" />
    <path
       id="path81"
       d="m 288.59115,149.06718 c -0.006,-0.25682 -0.01,-0.51364 -0.01,-0.77152 0,-0.25824 0.004,-0.51506 0.01,-0.77153 0.24553,-8.94362 4.73886,-16.84302 11.52878,-21.75051 0.43215,-0.31397 0.87418,-0.61419 1.32432,-0.90206 l -1.23436,-1.03646 c -0.44486,0.29457 -0.88124,0.60043 -1.3074,0.91723 -7.00193,5.20488 -11.61309,13.45529 -11.85439,22.7718 -0.007,0.25647 -0.01,0.51329 -0.01,0.77153 0,0.25788 0.003,0.5147 0.01,0.77152 0.23989,9.26465 4.80201,17.47555 11.73762,22.68326 0.4251,0.31961 0.85866,0.62688 1.30069,0.92286 l 1.23296,-1.03505 c -0.44873,-0.28927 -0.88794,-0.59231 -1.31868,-0.90628 -6.72395,-4.91455 -11.16542,-12.77479 -11.40954,-21.66479"
       style="fill:#013da6;fill-opacity:1;fill-rule:nonzero;stroke:none;stroke-width:0.352778" />
    <path
       id="path82"
       d="m 447.71992,147.52399 c -0.23989,-9.2269 -4.76426,-17.40711 -11.65225,-22.6187 -0.42227,-0.31997 -0.85443,-0.62971 -1.29505,-0.9271 l -1.23295,1.03364 c 0.44732,0.29069 0.88511,0.59478 1.31445,0.91193 6.6749,4.91843 11.07863,12.74798 11.32275,21.60023 0.006,0.25682 0.01,0.51329 0.01,0.77152 0,0.25824 -0.004,0.51506 -0.01,0.77153 -0.24694,8.98137 -4.77696,16.9104 -11.61591,21.81366 -0.43357,0.31115 -0.87666,0.61136 -1.32998,0.89782 l 1.2372,1.03787 c 0.44485,-0.29457 0.88265,-0.59902 1.31057,-0.9144 7.05061,-5.20065 11.69846,-13.47893 11.94117,-22.83495 0.007,-0.25647 0.01,-0.51329 0.01,-0.77153 0,-0.25823 -0.003,-0.5147 -0.01,-0.77152"
       style="fill:#013da6;fill-opacity:1;fill-rule:nonzero;stroke:none;stroke-width:0.352778" />
    <path
       id="path83"
       d="m 329.63501,141.99705 c 0.35031,0 0.58173,-0.16827 0.70238,-0.50236 l 0.35807,-0.81879 c 0.0988,-0.1838 -0.002,-0.36054 -0.15064,-0.43568 -0.0328,-0.0166 -0.0727,-0.0233 -0.11394,-0.0183 -1.68699,0.18662 -3.42477,0.28505 -5.02497,0.28505 -0.89253,0 -1.79493,-0.0321 -2.54706,-0.091 -0.0557,0.004 -0.109,0.007 -0.16474,0.01 -0.20214,0.0444 -0.45685,0.17039 -0.63747,0.50376 -0.005,0.01 -0.009,0.019 -0.0127,0.0286 -0.042,0.11606 -0.10125,0.2346 -0.1644,0.36019 -0.0653,0.13052 -0.13299,0.26564 -0.18344,0.40428 -0.0533,0.14711 -0.049,0.26423 0.0134,0.34748 0.0882,0.11819 0.25542,0.11854 0.33691,0.11819 0.65405,-0.012 1.03822,0.0716 1.17616,0.25505 0.16333,0.21802 0.0279,0.61807 -0.21449,1.25131 -1.01671,2.66911 -3.09598,4.13914 -5.8547,4.13914 -4.69582,0 -3.99415,-4.73287 -3.66748,-6.18349 1.01565,-4.50638 5.63704,-11.02572 11.33757,-11.02572 3.26849,0 3.9871,1.95827 3.60927,3.63503 -0.33902,1.50495 -1.68945,3.06175 -3.36267,3.06175 -1.20897,0 -1.55822,-0.89358 -1.37125,-1.72367 0.0917,-0.40746 0.29104,-0.74048 0.59231,-0.99025 0.0815,-0.0677 0.1076,-0.16862 0.0628,-0.23988 -0.21273,-0.33655 -0.52176,-0.48649 -1.00189,-0.48649 -1.03364,0 -2.26907,0.73731 -2.54706,1.97133 -0.40957,1.81857 1.68311,2.79964 3.8601,2.79964 1.9311,0 3.6576,-0.46849 4.9918,-1.35537 1.20968,-0.80363 2.02424,-1.905 2.29376,-3.10056 0.57962,-2.57281 -1.60337,-5.21194 -6.89645,-5.28426 -0.0162,3.5e-4 -0.0332,7e-4 -0.0494,0.001 -3.55565,0.20355 -7.18008,1.62207 -10.20798,3.99485 -2.92735,2.29411 -4.98298,5.2832 -5.64056,8.20103 -1.13206,5.02461 1.74343,8.53369 6.99241,8.53369 2.13607,0 3.96981,-0.6163 6.1729,-1.62243 0.12771,-0.0582 0.27729,-0.043 0.38947,0.0406 l 1.34938,1.00613 c 0.007,0.005 0.0152,0.0102 0.0233,0.0145 0.12206,0.0614 0.29845,0.0579 0.46002,-0.01 0.15452,-0.0646 0.27552,-0.18062 0.32985,-0.31397 l 2.31069,-5.29308 c 0.005,-0.012 0.0113,-0.024 0.0176,-0.0356 0.49883,-0.90593 1.04175,-1.40229 2.43311,-1.43157"
       style="fill:#013da6;fill-opacity:1;fill-rule:nonzero;stroke:none;stroke-width:0.352778" />
    <path
       id="path84"
       d="m 357.7726,138.05903 3.45581,-4.70747 c 0.23142,-0.31538 0.73096,-0.12241 0.69039,0.26635 l -0.11466,1.10173 -0.73095,5.10681 c -0.001,0.01 -0.003,0.0201 -0.006,0.03 l -0.0332,0.14746 c -0.0628,0.2787 -0.39899,0.39582 -0.61736,0.21202 -0.80786,-0.67945 -1.63018,-1.20156 -2.48673,-1.57832 -0.22578,-0.0995 -0.30374,-0.37959 -0.15769,-0.57856 m -7.42562,6.46712 c -1.08091,1.3522 -2.41547,2.73438 -4.11974,2.73438 -0.0639,0 -0.12453,0.007 -0.18274,0.018 -0.0194,0.004 -0.0392,0.006 -0.0589,0.007 -0.37959,0.0109 -0.76024,0.0257 -1.15182,0.0413 l -0.0991,0.004 c -0.002,0 -0.005,0 -0.007,3.5e-4 -0.31398,0.0138 -0.50906,-0.3369 -0.33373,-0.59761 l 0.70591,-1.04845 c 0.0836,-0.12383 0.23177,-0.18698 0.37923,-0.16334 0.18592,0.03 0.36725,0.043 0.53305,0.043 1.18992,0 2.27683,-0.70309 2.7051,-1.74943 0.0215,-0.0533 0.018,-0.10795 -0.0106,-0.14957 -0.0282,-0.042 -0.0787,-0.067 -0.13794,-0.0688 -0.97931,-0.0279 -1.36031,-0.55422 -1.13277,-1.56457 0.26741,-1.1864 1.4919,-2.53859 4.12397,-2.77566 0.53023,-0.0416 1.19698,3.5e-4 1.95757,0.12065 0.28575,0.0452 0.42121,0.37888 0.24729,0.60995 z m -0.381,7.54733 c -0.21449,0.9525 -0.77082,1.86725 -1.56669,2.57598 -0.0614,0.055 -0.12453,0.10831 -0.18908,0.16052 -1.79882,1.45873 -4.20265,1.5374 -6.32319,1.6069 -0.22296,0.007 -0.44239,0.0145 -0.65793,0.0233 -0.036,0.001 -0.0836,0.001 -0.14006,7.1e-4 -0.0317,-3.5e-4 -0.066,-3.5e-4 -0.10089,-3.5e-4 -0.0215,0 -0.043,0 -0.0653,0 0.8001,-1.88772 1.59279,-3.701 2.09938,-4.77415 0.69567,-1.51271 1.47214,-2.53788 3.00037,-2.62325 0.008,-3.5e-4 0.0152,-0.001 0.0229,-0.002 1.61502,-0.0617 2.80776,0.2674 3.44982,0.95567 0.48753,0.52282 0.65475,1.26048 0.4706,2.07716 m -3.44311,9.04698 c -0.61771,2.74179 -3.73415,4.17654 -6.49323,4.17654 -1.92687,0 -2.18052,-0.62547 -1.96885,-1.56457 3.5e-4,-0.002 7.1e-4,-0.004 10e-4,-0.006 0.0127,-0.0321 0.0236,-0.0656 0.0339,-0.0984 l 0.0935,-0.29386 c 0.0755,-0.23848 0.16616,-0.52459 0.22119,-0.69286 0.34608,-0.94862 1.0026,-2.58374 1.73426,-4.34587 0.0596,-0.14323 0.19932,-0.23671 0.35454,-0.23671 h 3.37361 c 1.61925,0 3.0981,1.07279 2.65007,3.06175 m 12.1031,4.17654 c -1.00048,0 -1.31057,-0.43462 -1.07033,-1.50072 0.0797,-0.35348 0.1972,-0.73589 0.34114,-1.11054 0.009,-0.0134 0.0162,-0.0275 0.0219,-0.0423 0.87312,-2.30717 3.54577,-8.70762 4.61116,-10.97351 0.762,-1.57656 1.54411,-2.62643 2.8836,-2.62643 0.39229,0 0.6537,-0.17321 0.77753,-0.5147 0.0423,-0.11642 0.1016,-0.2346 0.16439,-0.36019 0.0656,-0.13053 0.13335,-0.26564 0.18062,-0.39687 0.078,-0.1905 0.0385,-0.30904 -0.008,-0.37501 -0.0624,-0.0885 -0.17463,-0.14146 -0.31433,-0.12876 -0.007,3.5e-4 -0.0137,0.001 -0.0205,0.002 -0.0282,-0.006 -0.0582,-0.009 -0.0907,-0.009 -0.73766,0 -1.70004,-0.23107 -1.54093,-2.22391 l 0.59972,-6.40221 c 0.11006,-1.12077 0.25153,-2.24931 0.38876,-3.34045 0.0663,-0.52917 0.133,-1.05975 0.19685,-1.59385 l 0.46743,-3.94194 c 0.0727,-0.34678 -0.18168,-0.52811 -0.47378,-0.52811 -0.0106,0 -0.0212,7.1e-4 -0.0317,0.002 -0.41945,0.0568 -1.47673,0.0935 -2.69381,0.0935 -1.03258,0 -2.09656,-0.0349 -2.79365,-0.091 -0.0473,0.002 -0.0931,0.004 -0.14005,0.005 -0.31856,0.0621 -0.50306,0.28292 -0.65899,0.52599 -0.005,0.008 -0.01,0.0155 -0.0141,0.0233 l -0.40429,0.72108 c -0.01,0.0176 -0.0169,0.036 -0.0212,0.0547 -0.0596,0.26458 0.13441,0.44203 0.35278,0.44203 0.34713,0 0.56268,0.0748 0.64099,0.2219 0.0995,0.18697 0.001,0.5207 -0.28469,0.96661 -0.006,0.01 -0.0131,0.0194 -0.0201,0.0289 l -4.18959,5.52344 c -0.0864,0.11394 -0.22824,0.17039 -0.36935,0.14605 -0.46814,-0.0801 -1.02976,-0.15805 -1.50707,-0.15805 -2.09233,0 -4.38432,0.59549 -6.28791,1.63372 -1.94134,1.05868 -3.23109,2.44757 -3.53801,3.81 -0.067,0.29739 -0.0822,0.55985 -0.0568,0.79163 0.0131,0.11994 -0.0265,0.23989 -0.11359,0.32314 -1.68099,1.60832 -3.87385,2.96651 -5.81907,2.96651 h -0.4565 c -1.13382,0 -1.82809,-0.19508 -2.12231,-0.59619 -0.32526,-0.4438 -0.16122,-1.14335 0.18592,-2.0574 l 0.60395,-1.59068 c 0.86572,-2.21227 3.08081,-7.51346 3.97193,-9.38283 0.762,-1.57656 1.54411,-2.62678 2.88396,-2.62678 0.39193,0 0.65334,-0.17286 0.77752,-0.5147 0.042,-0.11607 0.1016,-0.2346 0.16439,-0.36019 0.0653,-0.13053 0.133,-0.26564 0.18063,-0.39687 0.0776,-0.19015 0.0385,-0.30868 -0.008,-0.37501 -0.0593,-0.0836 -0.16334,-0.12982 -0.29245,-0.12982 -0.007,0 -0.0141,3.5e-4 -0.0212,0.001 -1.18498,0.10795 -2.48391,0.1584 -4.08799,0.1584 -1.58186,0 -2.77636,-0.0487 -3.7525,-0.15276 -0.0522,0.001 -0.10371,0.002 -0.15592,0.004 -0.32527,0.06 -0.55845,0.23672 -0.66111,0.50447 -0.0427,0.11748 -0.10407,0.24448 -0.16898,0.37853 -0.067,0.13794 -0.13617,0.28046 -0.18486,0.41452 -0.0656,0.1718 -0.0279,0.27834 0.0155,0.33725 0.0628,0.0861 0.17674,0.13159 0.32949,0.13159 1.00048,0 1.30634,0.45332 1.05622,1.56457 -0.0748,0.3309 -0.19191,0.70661 -0.32491,1.04352 -0.01,0.0141 -0.018,0.0296 -0.024,0.0455 -0.74048,1.94875 -2.80952,7.12047 -3.83187,9.38319 l -0.74719,1.59702 c -0.8322,1.88525 -1.64006,2.62008 -2.88078,2.62008 -0.37465,0 -0.65158,0.1905 -0.78105,0.53728 l -0.40075,0.85196 c -0.006,0.0131 -0.0109,0.0268 -0.0141,0.0406 -0.0596,0.26458 0.13406,0.44238 0.36231,0.44203 h 3.5e-4 c 1.54623,-0.0649 3.12984,-0.11148 4.63268,-0.13688 0.3489,-0.006 0.52352,0.42157 0.26952,0.66076 -0.80574,0.75776 -1.37477,1.64182 -1.58538,2.57633 -0.33514,1.48731 0.51258,2.60844 1.97167,2.60844 1.05834,0 2.12372,-0.68015 2.53365,-1.61749 0.0236,-0.0536 0.0212,-0.109 -0.007,-0.15169 -0.0275,-0.0427 -0.0776,-0.0688 -0.13723,-0.0709 -0.7687,-0.0293 -1.21744,-0.7306 -1.02235,-1.59667 0.24095,-1.06962 1.51306,-2.25354 3.0286,-2.40736 0.0173,-0.002 0.0346,-0.002 0.0519,-0.002 0.2025,0.003 0.40781,0.007 0.61313,0.0106 0.0198,7.1e-4 0.0399,0.002 0.0593,0.005 0.97261,0.15311 1.29293,0.91793 0.97472,2.3301 -0.0773,0.34325 -0.18485,0.66252 -0.27869,0.93204 -0.91264,2.51389 -3.27731,8.07931 -4.37762,10.402 -0.82515,1.81363 -1.71379,2.6222 -2.88149,2.6222 -0.39229,0 -0.6537,0.17321 -0.77787,0.5147 -0.0423,0.11748 -0.10407,0.24413 -0.16898,0.37853 -0.067,0.13794 -0.13618,0.28046 -0.1831,0.41028 -0.0695,0.17004 -0.0317,0.2794 0.0116,0.34114 0.0621,0.0875 0.17568,0.14041 0.31291,0.13159 1.48872,-0.10513 2.98626,-0.127 3.98004,-0.127 1.96215,0 3.76696,0.0903 5.6776,0.18626 l 0.0882,0.004 c 0.35419,0.0328 0.68086,0.0328 0.99659,0.0328 2.79506,0 5.24934,-0.68792 7.09754,-1.98932 1.52576,-1.07385 2.59539,-2.55376 2.93476,-4.05977 0.2473,-1.09819 -0.0981,-2.55693 -1.6637,-3.6643 -0.23213,-0.16439 -0.20673,-0.51893 0.0459,-0.64946 2.42147,-1.24954 4.11762,-3.04095 4.52049,-4.82882 0.14429,-0.6403 0.28293,-2.11914 -1.07456,-3.25014 0.0593,-0.0639 0.11219,-0.13512 0.15523,-0.21485 l 0.38311,-0.76447 c 0.007,-0.0152 0.0127,-0.0303 0.0162,-0.0459 0.0596,-0.26423 -0.0681,-0.44203 -0.31785,-0.44203 -1.45768,0 -1.53423,-0.5334 -1.41676,-1.0548 0.0748,-0.33126 0.29281,-0.75283 0.58632,-1.13101 l 0.1591,-0.21308 c 0.37218,-0.49953 0.83397,-1.11936 1.15817,-1.59455 0.004,-0.007 0.009,-0.0127 0.0138,-0.019 l 2.21897,-2.83845 c 0.11853,-0.1517 0.33055,-0.1905 0.49742,-0.0942 2.3495,1.35114 3.75602,3.36267 3.71016,5.34634 -3.5e-4,0.0176 -0.002,0.0356 -0.004,0.0533 -0.0907,0.66252 -0.25436,1.05798 -0.52882,1.27988 -0.22119,0.17886 -0.54363,0.26564 -0.98636,0.26564 -0.0571,0 -0.11113,0.006 -0.16369,0.0145 -0.0215,-0.002 -0.0437,-0.005 -0.0653,-0.007 -0.0187,-0.002 -0.0388,-0.002 -0.0589,0.001 -0.3496,0.0512 -0.60078,0.23178 -0.70802,0.51188 -0.0423,0.11748 -0.10407,0.24448 -0.16898,0.37853 -0.067,0.13794 -0.13618,0.28081 -0.18486,0.41487 -0.0656,0.17145 -0.0279,0.27799 0.0155,0.33726 0.0628,0.0861 0.17674,0.13158 0.3295,0.13158 1.00047,0 1.30633,0.45332 1.05586,1.56457 -0.0808,0.35842 -0.2099,0.76271 -0.34854,1.08903 -0.87313,2.30751 -3.54577,8.70796 -4.61116,10.9735 -0.65934,1.36419 -1.46509,2.62643 -2.88361,2.62643 -0.39193,0 -0.6537,0.17321 -0.77752,0.5147 -0.0427,0.11748 -0.10442,0.24413 -0.16933,0.37853 -0.0663,0.13723 -0.13547,0.2794 -0.18521,0.41628 -0.055,0.14535 -0.0519,0.26176 0.0102,0.34678 0.0399,0.055 0.12488,0.1203 0.30021,0.1203 0.006,0 0.0113,0 0.0169,-3.5e-4 1.49683,-0.10831 2.75272,-0.15875 3.95181,-0.15875 1.18287,0 2.44863,0.0522 3.76273,0.15487 0.0466,-0.002 0.0942,-0.004 0.14076,-0.005 0.32773,-0.0593 0.56268,-0.23636 0.66569,-0.50518 0.042,-0.11642 0.1016,-0.23495 0.16439,-0.36019 0.0653,-0.13088 0.133,-0.26599 0.18027,-0.39687 0.0656,-0.16016 0.0663,-0.28258 0.002,-0.37395 -0.0617,-0.0868 -0.17533,-0.13123 -0.33761,-0.13123"
       style="fill:#013da6;fill-opacity:1;fill-rule:nonzero;stroke:none;stroke-width:0.352778" />
    <path
       id="path85"
       d="m 381.91908,151.91395 0.0212,-0.0956 c 0.004,-0.0176 0.006,-0.0353 0.004,-0.0529 -0.0586,-0.60149 -0.10971,-1.25483 -0.15769,-1.88771 -0.0571,-0.73907 -0.11571,-1.50284 -0.18803,-2.18899 -0.004,-0.0392 -0.009,-0.0762 -0.0155,-0.11077 -0.0275,-0.13935 0.025,-0.27975 0.1337,-0.37112 1.19733,-1.0033 2.03023,-2.26978 2.35479,-3.70876 0.67522,-2.99755 -1.6069,-4.81823 -3.61985,-6.42514 l -0.1203,-0.0952 c -1.41005,-1.143 -2.86985,-2.3241 -2.55129,-3.73697 0.36689,-1.62701 2.33645,-2.23379 3.4925,-2.23379 2.63807,0 3.66783,1.54799 4.32647,3.05752 0.12629,0.32456 0.4826,0.51012 0.9786,0.51012 0.56233,0 1.25519,-0.28646 1.34691,-0.69674 l 0.0212,-0.0956 c 0.005,-0.0176 0.006,-0.0353 0.005,-0.0533 -0.0586,-0.60254 -0.10971,-1.2573 -0.15804,-1.89018 -0.0572,-0.73766 -0.11571,-1.50142 -0.18768,-2.18616 -0.0332,-0.36689 -0.21802,-0.514 -0.3683,-0.57397 -0.14005,-0.0561 -0.38065,-0.0861 -0.74718,0.0871 l -1.09608,0.57574 c -0.11184,0.0586 -0.24448,0.0557 -0.35702,-0.002 -1.37618,-0.70591 -2.99402,-0.76482 -3.48262,-0.76482 -3.62303,0 -7.82602,2.0253 -8.58837,5.41161 -0.55457,2.45886 1.38289,4.20864 3.41418,5.79049 1.72261,1.35573 3.23497,2.72204 2.82751,4.53214 -0.23248,1.03152 -0.91792,1.87149 -1.88242,2.40136 -0.0758,0.0416 -0.16545,0.0536 -0.25082,0.0384 -0.69039,-0.121 -1.26683,-0.13652 -1.52577,-0.13652 -0.88829,0 -1.8108,0.1217 -2.70862,0.35595 -0.0833,0.0215 -0.17216,0.0169 -0.25012,-0.0191 -1.10243,-0.50588 -1.45803,-1.43263 -1.2506,-2.35409 0.17004,-0.75671 0.75177,-1.39911 1.51835,-1.67604 0.0603,-0.0219 0.11289,-0.0667 0.14288,-0.11995 0.0286,-0.0533 0.0317,-0.11183 0.007,-0.15804 -0.30057,-0.56868 -0.89147,-0.84561 -1.80552,-0.84561 -1.51377,0 -3.35844,1.04881 -3.79589,2.99085 -0.33937,1.50354 0.39582,2.60491 1.67993,3.33622 0.23671,0.13476 0.26811,0.46355 0.055,0.63288 -1.08408,0.86184 -1.88736,1.96427 -2.18122,3.26849 -0.55492,2.45745 1.38289,4.20722 3.41383,5.78908 1.72297,1.35572 3.23532,2.72239 2.82787,4.53214 -0.40887,1.81221 -2.20839,3.03036 -4.47852,3.03036 -2.76895,0 -3.69676,-1.37901 -3.38984,-2.74391 0.1711,-0.75565 0.75177,-1.39806 1.51836,-1.6764 0.0617,-0.0215 0.1143,-0.0653 0.14287,-0.11994 0.0286,-0.0529 0.0314,-0.11042 0.007,-0.15664 -0.30057,-0.57009 -0.89147,-0.84702 -1.80552,-0.84702 -1.51377,0 -3.35844,1.04881 -3.79589,2.99085 -0.69003,3.06176 3.07129,4.45665 6.858,4.45665 4.95971,0 8.99301,-2.52695 9.80793,-6.14504 0.67487,-2.99649 -1.60725,-4.81824 -3.6202,-6.42479 l -0.11995,-0.0956 c -1.4104,-1.143 -2.8702,-2.32375 -2.55129,-3.73662 0.17604,-0.77611 0.7172,-1.32151 1.36031,-1.67746 0.70238,-0.39159 1.52753,-0.55669 2.13184,-0.55669 0.7172,0 1.31551,0.11466 1.81892,0.31257 1.35149,0.52634 2.02812,1.64606 2.5079,2.74531 0.12629,0.32456 0.48225,0.50977 0.9786,0.50977 0.56374,0 1.25519,-0.28611 1.34691,-0.69674"
       style="fill:#013da6;fill-opacity:1;fill-rule:nonzero;stroke:none;stroke-width:0.352778" />
    <path
       id="path86"
       d="m 395.75271,161.98011 c -1.46121,1.73073 -3.83787,3.79554 -6.85377,3.79554 -1.51235,0 -4.89161,-0.59761 -3.64701,-6.1207 0.53057,-2.35691 1.93781,-5.08705 3.67277,-7.12717 0.88547,-1.04069 2.10149,-2.20133 3.58845,-2.96227 0.9906,-0.50871 2.10291,-0.84032 3.31611,-0.84032 0.0318,0 0.0632,0 0.0935,0.001 1.59032,0.0219 2.6924,0.6096 3.27872,1.75119 0.53975,1.05304 0.61312,2.55164 0.21201,4.33564 -0.53692,2.38231 -1.93957,5.12904 -3.66077,7.16668 m 8.05921,-6.30767 c 0.97331,-4.32082 -0.77964,-7.39563 -4.5466,-8.38447 -0.28505,-0.0748 -0.38453,-0.4265 -0.17886,-0.63782 0.87701,-0.89993 1.48872,-1.96744 1.75507,-3.15207 0.67486,-2.99649 -1.60549,-4.81859 -3.61844,-6.42514 l -0.1203,-0.0952 c -1.41182,-1.143 -2.87126,-2.3241 -2.5527,-3.73697 0.36689,-1.62701 2.33609,-2.23379 3.49215,-2.23379 2.63842,0 3.66959,1.54799 4.32682,3.05752 0.12594,0.32456 0.48224,0.51012 0.9786,0.51012 0.56374,0 1.25519,-0.28646 1.34691,-0.69674 l 0.0226,-0.0956 c 0.003,-0.0176 0.005,-0.0353 0.003,-0.0533 -0.0586,-0.60007 -0.10795,-1.25307 -0.15628,-1.88454 -0.0572,-0.74048 -0.11571,-1.50565 -0.18944,-2.19181 -0.0314,-0.36688 -0.21802,-0.51399 -0.3683,-0.57397 -0.1397,-0.0561 -0.3803,-0.0861 -0.74578,0.0871 l -1.09537,0.57573 c -0.11218,0.0586 -0.24483,0.0557 -0.35737,-0.002 -1.37795,-0.70591 -2.99578,-0.76482 -3.48403,-0.76482 -3.62161,0 -7.82496,2.0253 -8.58837,5.41161 -0.55492,2.45886 1.38289,4.20864 3.41383,5.79049 1.72296,1.35573 3.23532,2.72204 2.82786,4.53179 -0.23142,1.02834 -0.91193,1.86619 -1.8736,2.39606 -0.0381,0.0212 -0.0801,0.0353 -0.12347,0.042 -0.79128,0.12912 -1.57515,0.31997 -2.34597,0.57115 -0.0416,0.007 -0.0829,0.0134 -0.12453,0.0201 -2.77601,0.004 -3.70805,-1.37583 -3.39937,-2.74285 0.16969,-0.75671 0.75177,-1.39911 1.51694,-1.67605 0.0614,-0.0219 0.1143,-0.0667 0.14288,-0.11994 0.03,-0.0533 0.0314,-0.11183 0.007,-0.15804 -0.30057,-0.56868 -0.89147,-0.84561 -1.80552,-0.84561 -1.51377,0 -3.35703,1.04881 -3.79589,2.99085 -0.45049,2.00131 1.00013,3.28965 3.11574,3.94194 0.30444,0.0938 0.363,0.50059 0.0998,0.68015 -0.37712,0.25682 -0.74577,0.53023 -1.1049,0.81915 -2.76154,2.22568 -4.7371,5.23699 -5.41972,8.26347 -0.60572,2.69205 -0.18027,4.92866 1.22978,6.46959 1.35326,1.47426 3.53589,2.2546 6.31719,2.2546 3.53872,0 7.10177,-1.31621 10.03018,-3.70558 2.73438,-2.23096 4.69194,-5.23416 5.36822,-8.23736"
       style="fill:#013da6;fill-opacity:1;fill-rule:nonzero;stroke:none;stroke-width:0.352778" />
    <path
       id="path87"
       d="m 428.80372,147.39674 c -0.0624,-0.0882 -0.17533,-0.14146 -0.31397,-0.12912 -1.18463,0.10795 -2.48391,0.1584 -4.08799,0.1584 -1.5815,0 -2.77601,-0.0483 -3.75215,-0.1524 -0.0526,0.001 -0.10406,0.002 -0.15628,0.004 -0.32526,0.06 -0.55844,0.23671 -0.66075,0.50412 -0.0427,0.11747 -0.10372,0.24412 -0.16898,0.37818 -0.0667,0.13793 -0.13582,0.28081 -0.18485,0.41521 -0.0656,0.17181 -0.0279,0.27799 0.0155,0.33726 0.0628,0.0861 0.17674,0.13159 0.32949,0.13159 1.97838,0 2.06799,0.81315 1.87008,1.69192 -0.0653,0.28892 -0.16616,0.60254 -0.29316,0.91158 -0.0113,0.0159 -0.0205,0.0328 -0.0272,0.0504 -0.50376,1.33809 -2.05881,5.092 -3.20957,7.81262 -0.14887,0.35137 -0.66392,0.29281 -0.7306,-0.0829 l -2.07327,-11.68824 c -0.0766,-0.40675 -0.44415,-0.46954 -0.80046,-0.47201 -0.0261,0.001 -0.0515,0.003 -0.078,0.005 -0.83785,0.10407 -1.9237,0.15452 -3.31823,0.15452 -1.70462,0 -3.28119,-0.097 -3.87456,-0.15804 -0.018,-0.002 -0.0374,-0.002 -0.0568,0.001 -0.34996,0.0512 -0.60078,0.23177 -0.70803,0.51188 -0.0427,0.11747 -0.10372,0.24412 -0.16898,0.37818 -0.0667,0.13793 -0.13617,0.28081 -0.18486,0.41521 -0.0656,0.17145 -0.0279,0.27799 0.0152,0.33726 0.0628,0.0861 0.17675,0.13159 0.3295,0.13159 1.36842,0 2.15124,0.28822 1.82809,1.72367 -0.0702,0.3108 -0.17709,0.629 -0.27799,0.93027 -0.86148,2.28918 -3.49849,8.6988 -4.57729,10.97633 -0.80645,1.74061 -2.05951,2.62326 -3.72498,2.62326 -0.39193,0 -0.6537,0.17321 -0.77752,0.5147 -0.0427,0.11747 -0.10407,0.24412 -0.16933,0.37818 -0.0667,0.13829 -0.13582,0.28081 -0.1831,0.41063 -0.0691,0.17004 -0.0317,0.2794 0.012,0.34078 0.0596,0.0843 0.16722,0.1323 0.29598,0.1323 0.006,0 0.0113,0 0.0169,-7.1e-4 1.41535,-0.10195 2.84374,-0.1584 4.02238,-0.1584 1.17404,0 2.49907,0.0536 3.83398,0.15487 0.0466,-0.002 0.0935,-0.004 0.14041,-0.005 0.32738,-0.0593 0.56233,-0.23636 0.66499,-0.50482 0.042,-0.11642 0.1016,-0.23495 0.16439,-0.36019 0.0653,-0.13088 0.133,-0.26564 0.18062,-0.39688 0.0656,-0.16051 0.066,-0.28257 10e-4,-0.37394 -0.0617,-0.0871 -0.17533,-0.13123 -0.33761,-0.13123 -1.84396,0 -2.09796,-0.63395 -1.89265,-1.58997 0.004,-0.0208 0.0109,-0.0409 0.0183,-0.0607 0.0166,-0.0427 0.0321,-0.0914 0.0494,-0.14464 0.0374,-0.11536 0.0864,-0.26917 0.13546,-0.42227 0.0526,-0.16475 0.10513,-0.32915 0.1397,-0.43639 0.69497,-1.84679 2.84621,-7.24994 4.51873,-10.96857 0.15064,-0.33478 0.64065,-0.28681 0.7232,0.0713 1.26717,5.50475 2.5153,14.2554 2.5467,14.74223 7.1e-4,0.0123 0.003,0.0243 0.007,0.036 0.11394,0.35066 0.37112,0.42227 0.72178,0.42227 h 0.70203 0.004 l 0.0924,-0.001 c 1.8736,-0.0328 2.21121,-0.0385 2.45815,-0.4826 0.005,-0.01 0.01,-0.0194 0.0134,-0.0296 1.57868,-4.27214 4.12221,-10.70152 6.09988,-14.7694 0.76729,-1.73813 2.02,-2.61972 3.72322,-2.61972 0.39193,0 0.65369,-0.17322 0.77752,-0.51471 0.0423,-0.11606 0.1016,-0.23424 0.16439,-0.35983 0.0653,-0.13053 0.13335,-0.26599 0.18062,-0.39723 0.078,-0.19014 0.0388,-0.30903 -0.008,-0.375"
       style="fill:#013da6;fill-opacity:1;fill-rule:nonzero;stroke:none;stroke-width:0.352778" />
    <path
       id="path88"
       d="m 326.34796,112.8261 0.0265,-2.57281 1.61607,1.99179 z m -18.93005,3.90631 c 0.10971,0.0258 0.21942,0.0663 0.32526,0.121 0.0765,0.0399 0.14922,0.12136 0.21484,0.2413 l 3.83646,7.00793 c 0.0561,0.10301 0.0797,0.19579 0.072,0.28293 -0.0106,0.11606 -0.0356,0.22578 -0.0748,0.32526 -0.0504,0.13017 -0.0935,0.25012 -0.12805,0.35701 -0.0564,0.17498 -0.0427,0.34643 0.0392,0.49601 0.12348,0.22577 0.29563,0.28187 0.4191,0.28963 l 0.0332,10e-4 c 0.0783,0 0.15204,-0.0187 0.21907,-0.055 l 2.28106,-1.24848 c 0.0755,-0.0416 0.13653,-0.10336 0.18062,-0.18309 0.06,-0.10795 0.10584,-0.28399 -0.0176,-0.50906 -0.0593,-0.10865 -0.18203,-0.24871 -0.42968,-0.29633 -0.11888,-0.0229 -0.25047,-0.0452 -0.39546,-0.0667 -0.11677,-0.0173 -0.23284,-0.0511 -0.34572,-0.10124 -0.0801,-0.0353 -0.14535,-0.0995 -0.19827,-0.19721 l -2.27435,-4.15431 c 0.44203,0.34361 0.84384,0.65652 1.20579,0.93874 l 0.0219,0.0169 c 0.63077,0.49177 1.17087,0.91158 1.61961,1.25836 0.44873,0.34819 0.81738,0.63217 1.10666,0.85266 0.28892,0.22119 0.52246,0.39934 0.69956,0.53411 0.17921,0.13687 0.31256,0.23671 0.39934,0.29986 0.078,0.0575 0.14041,0.10689 0.1965,0.15628 0.14005,0.11112 0.28645,0.16298 0.45473,0.15875 0.091,0.004 0.1711,-0.0183 0.25153,-0.0624 l 1.01353,-0.55528 c 0.0674,-0.0367 0.12559,-0.0903 0.17886,-0.16439 l 0.0187,-0.0258 0.0557,-0.16087 c 0.0279,-0.0864 0.0328,-0.18274 0.0145,-0.29492 -0.0155,-0.096 -0.0374,-0.29563 -0.0624,-0.5775 -0.0279,-0.3048 -0.079,-0.75777 -0.15205,-1.34655 -0.0744,-0.60114 -0.16369,-1.3709 -0.26529,-2.28847 -0.0667,-0.59267 -0.1464,-1.28164 -0.23989,-2.05705 l 2.16853,3.96205 c 0.0568,0.10336 0.0801,0.19579 0.0716,0.28293 -0.0102,0.11571 -0.0353,0.22471 -0.0741,0.3249 -0.0508,0.13053 -0.0938,0.25083 -0.12841,0.35701 -0.0564,0.17463 -0.0427,0.34643 0.0395,0.49672 0.12347,0.22507 0.29563,0.28151 0.41874,0.28892 0.0907,0.005 0.1778,-0.0127 0.25224,-0.0536 l 3.3401,-1.8281 c 0.0755,-0.0416 0.13617,-0.10336 0.18027,-0.18309 0.0321,-0.0575 0.0579,-0.13546 0.0582,-0.2286 0.0402,0.0533 0.0871,0.0974 0.14323,0.12736 0.0762,0.0416 0.15769,0.0667 0.242,0.0751 0.0187,0.002 0.0381,0.003 0.0572,0.003 0.0741,0 0.1524,-0.0148 0.23354,-0.0434 l 2.62784,-0.92957 c 0.0917,-0.0324 0.1711,-0.0815 0.23848,-0.14852 l 0.0173,-0.0201 c 0.0448,-0.0568 0.0804,-0.12453 0.10512,-0.20214 0.0321,-0.10195 0.0254,-0.21802 -0.0194,-0.34502 -0.0811,-0.22965 -0.24906,-0.381 -0.48507,-0.43709 -0.13899,-0.0328 -0.28434,-0.0727 -0.4318,-0.11782 -0.11289,-0.0346 -0.21167,-0.0956 -0.30162,-0.18662 -0.0244,-0.024 -0.10443,-0.13018 -0.10831,-0.46426 l 0.0124,-1.8609 2.76648,-0.97826 1.35361,1.6309 c 0.11607,0.14393 0.17992,0.27446 0.17181,0.34819 -0.0124,0.10689 -0.0462,0.1965 -0.10337,0.2734 -0.0829,0.11218 -0.1651,0.21908 -0.24659,0.31962 -0.18203,0.22578 -0.16087,0.44168 -0.11113,0.58279 0.0452,0.12735 0.11325,0.22189 0.20144,0.2801 0.066,0.0444 0.13653,0.0748 0.21308,0.0921 l 0.0272,0.004 c 0.0907,0.01 0.1771,-3.5e-4 0.25788,-0.0289 l 3.79801,-1.34338 c 0.10407,-0.0367 0.18627,-0.0857 0.24977,-0.14957 0.0617,-0.061 0.10936,-0.13229 0.14216,-0.21096 0.0462,-0.11042 0.0459,-0.23531 -0.002,-0.37218 -0.0441,-0.12348 -0.14747,-0.28999 -0.39194,-0.381 -0.121,-0.0448 -0.26494,-0.0907 -0.42827,-0.13618 -0.14217,-0.0392 -0.29034,-0.091 -0.44062,-0.15416 -0.11924,-0.0494 -0.23037,-0.13723 -0.32985,-0.26106 -0.89182,-1.09396 -1.65664,-2.03376 -2.29552,-2.81975 -0.63853,-0.78599 -1.18075,-1.45274 -1.62666,-1.9999 -0.44168,-0.54186 -0.80892,-0.98672 -1.09185,-1.32327 -0.27623,-0.32808 -0.49706,-0.59513 -0.65758,-0.79339 l -0.52987,-0.65758 c -0.0709,-0.0875 -0.14605,-0.14817 -0.22895,-0.18486 l -0.13582,-0.0607 -0.0543,-0.009 c -0.0907,-0.01 -0.17004,-0.002 -0.24024,0.0233 l -1.61925,0.57256 c -0.0698,0.0251 -0.13794,0.0699 -0.20461,0.13652 l -0.019,0.0212 c -0.0861,0.10936 -0.133,0.25118 -0.14358,0.4378 3.5e-4,0.0723 0,0.2039 -7.1e-4,0.39405 l -0.001,0.26141 c -0.002,0.33584 -0.006,0.86818 -0.0116,1.59738 -0.006,0.72989 -0.0113,1.70144 -0.0155,2.91394 -0.004,1.21214 -0.0102,2.75731 -0.0187,4.63726 0,0.1584 -0.031,0.29634 -0.0924,0.40993 -0.0765,0.14252 -0.15945,0.27587 -0.24553,0.39652 -0.0953,0.133 -0.17886,0.2593 -0.24765,0.37536 -0.0808,0.13547 -0.10019,0.25788 -0.096,0.36266 -0.0836,-0.11536 -0.2032,-0.19862 -0.3549,-0.23884 -0.11218,-0.0289 -0.23601,-0.0575 -0.369,-0.0843 -0.10584,-0.0212 -0.21167,-0.0589 -0.31433,-0.11218 -0.078,-0.0406 -0.14287,-0.11007 -0.19897,-0.21308 l -3.8361,-7.00828 c -0.0663,-0.1203 -0.0956,-0.22472 -0.0875,-0.31115 0.0106,-0.11713 0.0353,-0.23143 0.0734,-0.33902 0.0462,-0.12982 0.0868,-0.25541 0.12029,-0.37324 0.0504,-0.17639 0.0317,-0.35207 -0.0536,-0.508 -0.11606,-0.21273 -0.32702,-0.31468 -0.56409,-0.27446 -0.0921,0.013 -0.18344,0.0441 -0.27093,0.0921 l -2.25743,1.23578 -0.037,0.0254 c -0.0596,0.0494 -0.11077,0.10266 -0.14993,0.15558 -0.12488,0.14958 -0.17709,0.33196 -0.15099,0.52564 l 0.89429,7.92374 -6.37787,-4.92937 c -0.1651,-0.12664 -0.33514,-0.18379 -0.49953,-0.17533 -0.0917,0.006 -0.16827,0.0258 -0.23354,0.0617 l -2.44475,1.33844 c -0.0751,0.0409 -0.13617,0.10266 -0.18133,0.1838 -0.06,0.10759 -0.10301,0.28857 0.0332,0.53657 0.0854,0.15628 0.22367,0.2667 0.39935,0.31926 0.11324,0.0339 0.24059,0.0674 0.37924,0.0995"
       style="fill:#013da6;fill-opacity:1;fill-rule:nonzero;stroke:none;stroke-width:0.352778" />
    <path
       id="path89"
       d="m 333.24988,105.19023 c 0.0981,0.0628 0.21167,0.13017 0.3369,0.19967 0.0984,0.0547 0.19262,0.12383 0.2794,0.20567 0.0635,0.0603 0.11113,0.15805 0.14076,0.2914 l 1.75966,7.79356 c 0.0261,0.11395 0.0229,0.2092 -0.009,0.2914 -0.042,0.1083 -0.096,0.20637 -0.16122,0.2921 -0.0847,0.11183 -0.15911,0.21519 -0.22155,0.30797 -0.1023,0.1524 -0.13582,0.32138 -0.0984,0.48789 0.0596,0.26423 0.22789,0.35948 0.32208,0.393 0.0543,0.0194 0.10866,0.0289 0.16158,0.0289 0.0325,0 0.0649,-0.004 0.0967,-0.0106 l 2.53682,-0.57291 c 0.0843,-0.0194 0.15981,-0.0617 0.22366,-0.12629 0.0875,-0.0868 0.17992,-0.24307 0.12348,-0.49424 -0.0275,-0.12101 -0.10725,-0.28964 -0.33197,-0.40358 -0.10795,-0.0547 -0.22789,-0.11183 -0.3616,-0.17286 -0.10689,-0.0483 -0.20919,-0.11289 -0.30444,-0.19191 -0.0677,-0.0564 -0.11254,-0.13618 -0.13653,-0.24448 l -1.33703,-5.92173 7.26335,5.98699 c 0.0977,0.0829 0.18873,0.13829 0.27799,0.17004 0.0684,0.0243 0.13088,0.0427 0.19261,0.0561 l 0.0176,0.003 c 0.0914,0.0134 0.17745,0.0113 0.25471,-0.006 l 0.6798,-0.15346 c 0.097,-0.0222 0.18697,-0.0593 0.25788,-0.10618 0.2092,-0.12877 0.30304,-0.34079 0.25188,-0.56762 l -2.05352,-9.09461 c -0.0268,-0.11924 -0.0261,-0.21343 0.004,-0.28046 0.0444,-0.10125 0.10195,-0.19791 0.16969,-0.28751 0.0833,-0.10937 0.15769,-0.21308 0.22154,-0.30798 0.10231,-0.1524 0.13653,-0.32138 0.0988,-0.4886 -0.0504,-0.22225 -0.2099,-0.37006 -0.43392,-0.40463 -0.0864,-0.0176 -0.18168,-0.0145 -0.28257,0.008 l -2.30435,0.52035 c -0.091,0.0208 -0.17286,0.0579 -0.23953,0.1083 -0.1905,0.12982 -0.27094,0.33197 -0.22049,0.55386 0.0279,0.12383 0.11042,0.29457 0.34643,0.40499 0.10971,0.0519 0.22613,0.1076 0.3489,0.16651 0.10971,0.0533 0.21872,0.11783 0.32349,0.19191 0.0614,0.0441 0.10407,0.11924 0.12877,0.23001 l 1.01917,4.51415 -5.85823,-4.80166 c -0.0984,-0.0931 -0.18273,-0.15275 -0.26564,-0.18768 -0.0561,-0.0233 -0.10477,-0.042 -0.15063,-0.0586 l -0.0289,-0.008 c -0.0885,-0.0194 -0.17498,-0.0201 -0.25788,-10e-4 l -2.56999,0.58032 c -0.0981,0.0222 -0.18732,0.0596 -0.26705,0.11218 l -0.0166,0.012 c -0.0617,0.0487 -0.11642,0.10795 -0.16228,0.17639 -0.0505,0.0751 -0.1016,0.20355 -0.06,0.3884 0.0388,0.17392 0.14146,0.31786 0.29598,0.41734"
       style="fill:#013da6;fill-opacity:1;fill-rule:nonzero;stroke:none;stroke-width:0.352778" />
    <path
       id="path90"
       d="m 351.70319,106.87107 -1.73002,0.20532 0.59161,-2.50367 z m 5.98946,3.8287 c -0.10971,-0.0716 -0.24024,-0.14782 -0.38841,-0.22754 -0.12841,-0.0688 -0.26176,-0.15205 -0.39581,-0.2473 -0.10513,-0.0744 -0.19403,-0.1845 -0.26459,-0.32738 -0.629,-1.26294 -1.16875,-2.34844 -1.61854,-3.25543 -0.44979,-0.90735 -0.8322,-1.67676 -1.14724,-2.30893 -0.3115,-0.62583 -0.57185,-1.14124 -0.77328,-1.53106 -0.19685,-0.37994 -0.35384,-0.68933 -0.46673,-0.91863 l -0.37289,-0.75812 c -0.0504,-0.1016 -0.11006,-0.1771 -0.18273,-0.23072 l -0.1196,-0.0889 -0.0501,-0.0205 c -0.0864,-0.0289 -0.16404,-0.0388 -0.23989,-0.03 l -1.70462,0.20215 c -0.0744,0.009 -0.14887,0.0367 -0.23107,0.0882 l -0.0226,0.0166 c -0.10795,0.0875 -0.18521,0.21555 -0.23636,0.39547 -0.0145,0.0649 -0.0402,0.1785 -0.0776,0.34184 l -0.0684,0.29668 c -0.0755,0.32738 -0.19579,0.84596 -0.3623,1.55575 -0.16687,0.7112 -0.38594,1.65735 -0.65617,2.83951 -0.27093,1.1811 -0.61665,2.68746 -1.03893,4.51944 -0.0342,0.15416 -0.0949,0.28187 -0.17992,0.37923 -0.10759,0.12383 -0.21801,0.23601 -0.32737,0.33303 -0.12524,0.11183 -0.2339,0.2166 -0.32385,0.31185 -0.17921,0.18944 -0.19862,0.38453 -0.18274,0.5147 0.0169,0.14323 0.0713,0.25612 0.16157,0.33408 0.0653,0.0572 0.13935,0.0998 0.21943,0.1263 0.0593,0.0201 0.12523,0.0307 0.19614,0.0307 0.0307,0 0.0628,-0.002 0.096,-0.006 l 2.76824,-0.32843 c 0.0974,-0.012 0.18521,-0.0423 0.26388,-0.0924 l 0.0226,-0.0159 c 0.0568,-0.0459 0.10619,-0.10407 0.14711,-0.17392 0.0536,-0.0928 0.073,-0.20778 0.0568,-0.34113 -0.0282,-0.24201 -0.1584,-0.42651 -0.37677,-0.53305 -0.13018,-0.0635 -0.26317,-0.13441 -0.39582,-0.21025 -0.1023,-0.0586 -0.18485,-0.13935 -0.25259,-0.24801 -0.0183,-0.0293 -0.0734,-0.14993 -0.004,-0.47695 l 0.42157,-1.81222 2.91359,-0.34608 0.96168,1.88878 c 0.0818,0.16615 0.11606,0.30726 0.0914,0.37747 -0.0353,0.1016 -0.0882,0.18133 -0.16087,0.24412 -0.10583,0.0914 -0.2092,0.17709 -0.3108,0.25753 -0.22719,0.17991 -0.254,0.39511 -0.23636,0.54433 0.0162,0.13688 0.0607,0.2406 0.13476,0.3175 0.055,0.0579 0.11677,0.10337 0.18733,0.13653 l 0.0254,0.0102 c 0.0854,0.0289 0.1718,0.0388 0.25823,0.0286 l 4.00015,-0.47483 c 0.10759,-0.0131 0.20073,-0.0438 0.27728,-0.0917 0.0734,-0.0462 0.13582,-0.10512 0.18486,-0.17427 0.0695,-0.0977 0.0963,-0.21978 0.0787,-0.36301 -0.0152,-0.13017 -0.079,-0.31538 -0.29775,-0.4579"
       style="fill:#013da6;fill-opacity:1;fill-rule:nonzero;stroke:none;stroke-width:0.352778" />
    <path
       id="path91"
       d="m 361.71637,111.36091 c 0.74754,0.29069 1.62242,0.43815 2.59891,0.43815 0.0688,0 0.13865,-7.1e-4 0.2085,-0.002 0.48789,-0.0102 0.99659,-0.0656 1.51306,-0.16404 0.51435,-0.0988 0.99236,-0.22895 1.42028,-0.387 0.43815,-0.16157 0.80504,-0.34783 1.09114,-0.55421 0.34326,-0.2473 0.514,-0.52352 0.50836,-0.82127 l -0.0505,-2.395 c -0.003,-0.13653 0.019,-0.24272 0.0663,-0.31609 0.0649,-0.1016 0.14147,-0.19579 0.22719,-0.28046 0.10231,-0.1009 0.19297,-0.19332 0.27305,-0.27764 0.12594,-0.13335 0.19085,-0.29774 0.18733,-0.47589 -0.006,-0.26988 -0.13335,-0.40252 -0.23954,-0.46638 -0.0769,-0.0462 -0.15804,-0.0723 -0.2473,-0.0684 l -4.35081,0.0914 c -0.10265,0.002 -0.19438,0.0219 -0.26811,0.0564 -0.22613,0.0878 -0.35348,0.27023 -0.34854,0.5013 0.006,0.28539 0.14605,0.50623 0.39476,0.62159 0.16122,0.0751 0.33655,0.14922 0.52176,0.22154 0.15698,0.061 0.30374,0.14605 0.43603,0.25295 0.0896,0.0723 0.13723,0.21237 0.14111,0.41663 l 0.0282,1.35008 c 0.009,0.39687 -0.0825,0.70379 -0.27164,0.91193 -0.18521,0.2039 -0.54257,0.31256 -1.06256,0.32349 -0.4378,0.009 -0.85725,-0.0854 -1.23755,-0.2794 -0.38523,-0.19649 -0.72637,-0.4893 -1.01494,-0.87136 -0.29351,-0.38876 -0.53022,-0.87418 -0.70273,-1.44286 -0.17427,-0.57467 -0.27058,-1.2326 -0.28575,-1.95474 -0.0155,-0.71967 0.0582,-1.37619 0.21907,-1.95227 0.15875,-0.56868 0.38806,-1.06116 0.68157,-1.46368 0.28857,-0.3944 0.63923,-0.70308 1.04316,-0.91687 0.40323,-0.21343 0.84914,-0.32632 1.32433,-0.33619 0.22225,-0.005 0.46284,0.0106 0.71473,0.0459 0.24341,0.0339 0.48613,0.10089 0.71966,0.19826 0.23213,0.0967 0.45579,0.23213 0.66429,0.40252 0.20672,0.16863 0.39123,0.38382 0.54821,0.63853 0.0931,0.15804 0.17815,0.30303 0.25435,0.43427 0.0808,0.14075 0.16017,0.26387 0.23601,0.36653 0.09,0.12171 0.1898,0.21837 0.29669,0.28716 0.121,0.0787 0.25753,0.11854 0.40499,0.11854 0.007,0 0.0145,0 0.0222,-3.6e-4 0.15558,-0.004 0.28152,-0.0459 0.3743,-0.12629 0.0773,-0.0667 0.13547,-0.14887 0.17357,-0.24412 0.0349,-0.0875 0.0515,-0.18274 0.0497,-0.28364 l -0.0332,-1.57515 c -0.006,-0.29104 -0.17075,-0.55739 -0.4886,-0.79163 -0.26846,-0.19756 -0.61313,-0.37148 -1.02411,-0.51576 -0.40076,-0.141114 -0.85373,-0.252239 -1.3462,-0.330556 -0.49213,-0.07796 -0.99201,-0.111831 -1.4785,-0.101953 -1.06009,0.02223 -2.0133,0.208492 -2.83386,0.552799 -0.82162,0.34537 -1.52259,0.80998 -2.08386,1.38042 -0.56162,0.5708 -0.99166,1.23543 -1.27811,1.97485 -0.28575,0.73837 -0.42228,1.51448 -0.4057,2.30682 0.0166,0.7881 0.16369,1.55434 0.4378,2.27647 0.27587,0.72884 0.69215,1.37725 1.2386,1.92758 0.54575,0.54998 1.23014,0.98707 2.03271,1.29928"
       style="fill:#013da6;fill-opacity:1;fill-rule:nonzero;stroke:none;stroke-width:0.352778" />
    <path
       id="path92"
       d="m 370.3384,111.47476 c 0.0744,0.0547 0.15593,0.0854 0.24236,0.091 l 7.30885,0.49212 c 0.12206,0.008 0.21872,0.0173 0.29633,0.0272 0.0917,0.0123 0.16757,0.0201 0.22895,0.0243 0.0473,0.003 0.0949,0.008 0.14323,0.0162 0.0646,0.0106 0.13617,0.0187 0.21096,0.0236 0.0183,0.001 0.0367,0.002 0.0547,0.002 0.10866,0 0.20708,-0.0229 0.2914,-0.0688 0.0829,-0.0448 0.14887,-0.096 0.18803,-0.14464 0.0653,-0.0713 0.11183,-0.15487 0.13935,-0.25364 l 0.37923,-1.80622 c 0.0268,-0.12277 0.0226,-0.23707 -0.0127,-0.34149 -0.0289,-0.0833 -0.0695,-0.1577 -0.11888,-0.22084 -0.0808,-0.10231 -0.20779,-0.15981 -0.37818,-0.1711 -0.29387,-0.0191 -0.5401,0.0875 -0.70767,0.30868 -0.10795,0.14217 -0.24025,0.30057 -0.39335,0.47061 -0.13582,0.15134 -0.32632,0.28998 -0.56586,0.41169 -0.22507,0.1143 -0.58314,0.15557 -1.06151,0.12382 l -1.25483,-0.0847 c -0.39899,-0.0268 -0.6858,-0.13582 -0.8516,-0.32491 -0.16757,-0.1905 -0.2406,-0.41381 -0.2226,-0.68369 l 0.19332,-2.87302 2.49343,0.16792 c 0.11748,0.008 0.2092,0.0441 0.28046,0.11042 0.10301,0.0967 0.19473,0.20109 0.27234,0.3101 0.0868,0.12241 0.16616,0.23636 0.23707,0.34113 0.15064,0.22366 0.33761,0.28117 0.46814,0.28999 0.1404,0.01 0.25294,-0.0219 0.33796,-0.0917 l 0.0857,-0.0716 0.0342,-0.0349 c 0.0603,-0.0751 0.0946,-0.16333 0.10054,-0.26176 l 0.16969,-2.51812 c 0.006,-0.09 -0.0124,-0.1778 -0.0515,-0.24871 -0.0416,-0.097 -0.15451,-0.26318 -0.44061,-0.28223 -0.13265,-0.009 -0.32385,0.0243 -0.50236,0.22402 -0.0847,0.0949 -0.17851,0.1972 -0.28081,0.30656 -0.0903,0.097 -0.19509,0.18803 -0.3115,0.27058 -0.0794,0.0565 -0.17569,0.0797 -0.29246,0.072 l -2.49378,-0.16757 0.18697,-2.77671 c 0.009,-0.13088 0.0547,-0.22719 0.14358,-0.3041 0.0896,-0.0766 0.21378,-0.10865 0.37782,-0.0977 l 1.93323,0.13018 c 0.33514,0.0226 0.57961,0.097 0.72672,0.22154 0.16933,0.14288 0.30339,0.2981 0.40005,0.46073 0.11289,0.19226 0.21872,0.36759 0.31715,0.52564 0.14322,0.23177 0.37288,0.36442 0.66357,0.38417 0.16404,0.0113 0.29069,-0.008 0.39405,-0.0575 0.0977,-0.0469 0.17357,-0.10971 0.22261,-0.18133 0.0705,-0.084 0.11042,-0.18485 0.11782,-0.30268 l 0.0395,-1.8669 -0.003,-0.0279 c -0.0116,-0.0794 -0.0328,-0.15381 -0.0674,-0.23107 -0.0663,-0.13159 -0.20778,-0.29245 -0.50306,-0.31256 -0.0748,-0.005 -0.1457,-0.006 -0.21378,-0.005 -0.0483,7.1e-4 -0.096,0 -0.14288,-0.003 -0.1143,-0.008 -0.26317,-0.001 -0.52705,-0.0198 l -7.25875,-0.488241 c -0.085,-0.0053 -0.17039,0.01411 -0.25118,0.0575 -0.1083,0.0586 -0.24165,0.18768 -0.2607,0.47025 -0.012,0.1778 0.0452,0.34537 0.16474,0.48366 0.0755,0.0878 0.16475,0.18486 0.266,0.28787 0.079,0.0808 0.14958,0.17392 0.2092,0.27658 0.0437,0.0758 0.061,0.18344 0.0515,0.31961 l -0.53622,7.97172 c -0.008,0.11677 -0.0378,0.20744 -0.0917,0.27658 -0.0713,0.0921 -0.15134,0.17075 -0.23777,0.23425 -0.11289,0.0825 -0.21379,0.16086 -0.29987,0.23177 -0.14181,0.11677 -0.22225,0.26882 -0.23389,0.43956 -0.0183,0.26988 0.11501,0.40922 0.1965,0.46849"
       style="fill:#013da6;fill-opacity:1;fill-rule:nonzero;stroke:none;stroke-width:0.352778" />
    <path
       id="path93"
       d="m 380.14658,112.0544 c 0.0677,0.0621 0.14605,0.10125 0.23142,0.11571 l 2.56329,0.44097 c 0.0857,0.0138 0.17074,0.004 0.25505,-0.031 0.11395,-0.0469 0.2593,-0.15628 0.30304,-0.40958 0.0208,-0.12276 0.0113,-0.30868 -0.15275,-0.49953 -0.0783,-0.0917 -0.16757,-0.1912 -0.26811,-0.29845 -0.0801,-0.085 -0.14993,-0.18415 -0.20744,-0.29422 -0.0413,-0.0773 -0.0519,-0.16827 -0.0328,-0.27763 l 0.80222,-4.6669 0.36724,1.51095 c 0.18839,0.77787 0.35031,1.44215 0.48542,1.99284 0.13512,0.55174 0.2473,1.00365 0.3362,1.35643 l 0.21625,0.85302 c 0.0554,0.21872 0.0974,0.37994 0.12595,0.48295 0.0254,0.0938 0.0437,0.1711 0.0571,0.24483 0.0406,0.17568 0.12876,0.31326 0.25717,0.40675 0.0663,0.0561 0.1457,0.0924 0.23566,0.1076 l 1.13947,0.19614 c 0.0748,0.0123 0.15416,0.007 0.242,-0.018 l 0.0303,-0.008 0.14394,-0.0917 c 0.0758,-0.0508 0.13934,-0.12347 0.19508,-0.22225 0.0455,-0.0815 0.14958,-0.24659 0.31009,-0.49106 0.16934,-0.25859 0.41134,-0.64488 0.71861,-1.149 0.3108,-0.51012 0.72002,-1.16875 1.21462,-1.95721 0.3175,-0.50588 0.68368,-1.09679 1.09184,-1.75966 l -0.76588,4.45135 c -0.0197,0.11571 -0.0586,0.2025 -0.11959,0.266 -0.0801,0.084 -0.16757,0.15381 -0.26,0.20849 -0.12065,0.0702 -0.22965,0.13758 -0.32208,0.19967 -0.15346,0.10195 -0.24942,0.24483 -0.27834,0.41346 -0.0441,0.25294 0.0561,0.40428 0.14746,0.48612 0.0681,0.0617 0.14605,0.10055 0.23142,0.11572 l 3.7525,0.64523 c 0.0247,0.004 0.0494,0.006 0.0741,0.006 0.0603,0 0.12136,-0.0127 0.18098,-0.0374 0.11394,-0.0473 0.25893,-0.15628 0.30268,-0.40957 0.0293,-0.16828 -0.0141,-0.33549 -0.12418,-0.48296 -0.0695,-0.0924 -0.14887,-0.19155 -0.23671,-0.29562 -0.0698,-0.0833 -0.12912,-0.17851 -0.17604,-0.28328 -0.036,-0.0801 -0.0437,-0.17498 -0.0236,-0.29069 l 1.35432,-7.874 c 0.0233,-0.13512 0.0653,-0.23566 0.12488,-0.29775 0.0815,-0.0857 0.17216,-0.15981 0.26847,-0.22013 0.11571,-0.072 0.22542,-0.14534 0.32632,-0.21731 0.14957,-0.10725 0.24447,-0.25682 0.2741,-0.43145 0.0413,-0.23883 -0.0607,-0.4505 -0.27093,-0.5655 -0.0804,-0.0473 -0.1711,-0.0797 -0.26987,-0.0967 l -2.56223,-0.43921 -0.018,3.5e-4 c -0.0773,10e-4 -0.15099,0.0109 -0.21449,0.0282 -0.19121,0.0395 -0.34572,0.14993 -0.44556,0.31821 l -4.22733,6.76099 -1.92899,-7.82708 c -0.0508,-0.20074 -0.14535,-0.35102 -0.28223,-0.44697 -0.0751,-0.0526 -0.14746,-0.0843 -0.22119,-0.0974 L 382.35,100.7028 c -0.084,-0.0141 -0.17039,-0.004 -0.25576,0.0314 -0.11395,0.0469 -0.25965,0.16192 -0.30798,0.44097 -0.03,0.17568 0.01,0.34784 0.11465,0.49847 0.0681,0.0981 0.14711,0.2032 0.2346,0.31292 0.0709,0.0896 0.13159,0.18979 0.17956,0.29704 0.0353,0.0797 0.0416,0.18838 0.0184,0.32314 l -1.35431,7.87435 c -0.0194,0.11501 -0.0586,0.20179 -0.11924,0.26565 -0.0808,0.0847 -0.16863,0.15451 -0.26106,0.20849 -0.12347,0.0723 -0.22895,0.13758 -0.32209,0.19967 -0.15239,0.10195 -0.2487,0.24518 -0.27763,0.4131 -0.0459,0.2667 0.0723,0.4191 0.14746,0.48613"
       style="fill:#013da6;fill-opacity:1;fill-rule:nonzero;stroke:none;stroke-width:0.352778" />
    <path
       id="path94"
       d="m 397.29214,104.85262 c 0.06,0.097 0.10866,0.2032 0.14464,0.31574 0.0258,0.0825 0.0197,0.1912 -0.019,0.32279 l -2.24543,7.66762 c -0.0328,0.11254 -0.0811,0.19438 -0.14923,0.25083 -0.0889,0.0737 -0.18344,0.13335 -0.28257,0.17674 -0.12877,0.0568 -0.24377,0.11112 -0.34255,0.16157 -0.16369,0.084 -0.27552,0.21484 -0.32385,0.37888 -0.072,0.24695 0.01,0.40852 0.0914,0.50024 0.0607,0.0691 0.13335,0.11677 0.21625,0.14076 l 7.03122,2.05917 c 0.11712,0.0342 0.20919,0.0639 0.28257,0.0907 0.0868,0.0314 0.15946,0.0554 0.21802,0.0727 0.0459,0.0134 0.0914,0.0289 0.13688,0.0476 0.061,0.024 0.12876,0.0469 0.20143,0.0681 0.0674,0.0201 0.13406,0.0303 0.19826,0.0303 0.0533,0 0.10372,-0.007 0.15417,-0.0208 0.091,-0.0265 0.16651,-0.0624 0.21413,-0.1009 0.079,-0.0554 0.14217,-0.127 0.19121,-0.21731 l 0.76024,-1.68239 c 0.0533,-0.1143 0.0734,-0.22719 0.0607,-0.33514 -0.01,-0.0875 -0.0332,-0.16863 -0.0681,-0.24201 -0.0568,-0.11712 -0.16863,-0.20073 -0.33197,-0.24835 -0.28363,-0.0833 -0.54574,-0.0321 -0.75776,0.14816 -0.13265,0.11324 -0.29598,0.23919 -0.48543,0.37465 -0.16651,0.11854 -0.38241,0.21273 -0.6417,0.27975 -0.24447,0.0635 -0.60148,0.0268 -1.06292,-0.1083 l -1.2072,-0.35348 c -0.38383,-0.11254 -0.63994,-0.28117 -0.7613,-0.5013 -0.12276,-0.2219 -0.14534,-0.45649 -0.0695,-0.71543 l 0.80928,-2.76331 2.39818,0.70238 c 0.11289,0.0332 0.19438,0.0878 0.24941,0.16792 0.0804,0.11748 0.14747,0.23919 0.19968,0.3616 0.0582,0.13864 0.11077,0.26705 0.15734,0.38453 0.0984,0.25082 0.26916,0.34713 0.39475,0.38417 0.13371,0.0392 0.25153,0.0335 0.35031,-0.0169 l 0.13864,-0.0769 c 0.0759,-0.0607 0.12806,-0.1397 0.15558,-0.23495 l 0.70908,-2.42182 c 0.0254,-0.0864 0.0261,-0.17638 0.004,-0.254 -0.0197,-0.10407 -0.0942,-0.29033 -0.36936,-0.37077 -0.12488,-0.0367 -0.31997,-0.0473 -0.53869,0.11042 -0.10336,0.0744 -0.21696,0.15382 -0.34043,0.23848 -0.10971,0.0751 -0.23142,0.14147 -0.36265,0.1972 -0.0896,0.0378 -0.18768,0.0406 -0.30128,0.007 l -2.39853,-0.70238 0.78246,-2.67088 c 0.036,-0.12347 0.10336,-0.21026 0.20567,-0.26564 0.10372,-0.0554 0.23142,-0.0603 0.38982,-0.0141 l 1.85984,0.54469 c 0.32209,0.0945 0.54504,0.22013 0.66181,0.37323 0.13441,0.17675 0.23213,0.35702 0.29034,0.53658 0.0691,0.21202 0.13441,0.40605 0.1965,0.58173 0.0903,0.25682 0.28539,0.43603 0.56515,0.51823 0.15628,0.0455 0.28539,0.0547 0.39652,0.0289 0.10513,-0.0247 0.19332,-0.0695 0.25753,-0.12912 0.0868,-0.067 0.14711,-0.15663 0.17991,-0.26987 l 0.43886,-1.80305 0.006,-0.0395 c 0.006,-0.0822 10e-4,-0.15734 -0.0159,-0.23954 -0.0356,-0.14287 -0.13829,-0.33055 -0.42333,-0.41416 -0.073,-0.0212 -0.14217,-0.0384 -0.20779,-0.0512 -0.0473,-0.009 -0.0935,-0.0201 -0.13935,-0.0339 -0.0589,-0.0169 -0.13299,-0.0356 -0.2233,-0.0561 -0.0759,-0.0169 -0.16934,-0.042 -0.28646,-0.0762 l -6.98182,-2.0447 c -0.0826,-0.0243 -0.16898,-0.0233 -0.25824,0.001 -0.11818,0.0342 -0.27587,0.13194 -0.3563,0.40358 -0.0494,0.1711 -0.03,0.34678 0.0572,0.508 0.0575,0.10689 0.12382,0.22049 0.1972,0.33796"
       style="fill:#013da6;fill-opacity:1;fill-rule:nonzero;stroke:none;stroke-width:0.352778" />
    <path
       id="path95"
       d="m 407.95368,108.07172 c 0.048,0.10301 0.0833,0.21414 0.10583,0.3302 0.0159,0.0857 -0.004,0.19262 -0.0571,0.31856 l -3.1443,7.34483 c -0.0466,0.10795 -0.10478,0.18345 -0.17816,0.23107 -0.0977,0.0632 -0.19932,0.11077 -0.30233,0.14182 -0.13441,0.0413 -0.25506,0.0811 -0.35913,0.11959 -0.1725,0.0635 -0.29915,0.17992 -0.36653,0.33761 -0.10125,0.23636 -0.0395,0.40675 0.0307,0.50764 0.0519,0.0759 0.11853,0.13159 0.19791,0.16581 l 2.39077,1.02341 c 0.079,0.0335 0.16546,0.0434 0.25577,0.0293 0.12206,-0.0194 0.28822,-0.0921 0.38982,-0.32844 0.0487,-0.1143 0.0825,-0.29739 -0.0325,-0.5214 -0.0554,-0.10725 -0.11889,-0.22437 -0.19156,-0.35207 -0.0586,-0.10231 -0.10371,-0.21449 -0.13405,-0.33444 -0.0222,-0.0843 -0.0113,-0.17533 0.0324,-0.27763 l 2.38937,-5.58095 2.37313,9.10943 c 0.0307,0.12382 0.0716,0.22225 0.12489,0.30021 0.0416,0.06 0.0818,0.11148 0.12347,0.1584 l 0.0127,0.013 c 0.0663,0.0646 0.13723,0.11324 0.2099,0.14464 l 0.64064,0.27411 c 0.0914,0.0392 0.18557,0.0617 0.27164,0.0656 0.0169,0.001 0.0332,0.002 0.0501,0.002 0.22331,-3.5e-4 0.40075,-0.11465 0.48613,-0.31397 l 3.66924,-8.5718 c 0.0476,-0.11042 0.10548,-0.18803 0.16792,-0.22436 0.096,-0.0557 0.19861,-0.1009 0.30551,-0.13371 0.13088,-0.0391 0.25223,-0.0797 0.36053,-0.11959 0.17216,-0.0635 0.29845,-0.18027 0.36619,-0.33761 0.09,-0.20955 0.0473,-0.42298 -0.1143,-0.58243 -0.0586,-0.0642 -0.13723,-0.11783 -0.23354,-0.1591 l -2.17205,-0.92993 c -0.0896,-0.0381 -0.17745,-0.0564 -0.25647,-0.0522 -0.22755,-0.008 -0.41275,0.10689 -0.50412,0.31927 -0.0501,0.11677 -0.0829,0.30374 0.0434,0.53093 0.0582,0.10654 0.11994,0.21978 0.1845,0.33937 0.0589,0.10936 0.10866,0.22542 0.14958,0.34537 0.0247,0.072 0.0145,0.15804 -0.0303,0.26211 l -1.82139,4.25415 -1.9297,-7.32508 c -0.0247,-0.13088 -0.0589,-0.23142 -0.10512,-0.30797 -0.0321,-0.0519 -0.0603,-0.0953 -0.0879,-0.13512 l -0.018,-0.0233 c -0.0593,-0.067 -0.12947,-0.11853 -0.20849,-0.15275 l -2.42217,-1.03682 c -0.0924,-0.0395 -0.18627,-0.0617 -0.27975,-0.0656 h -0.0198 -0.003 c -0.0787,0.003 -0.15769,0.0191 -0.2353,0.0476 -0.085,0.0314 -0.20179,0.10513 -0.27658,0.2794 -0.0702,0.1644 -0.072,0.34114 -0.005,0.51118 0.0437,0.11147 0.096,0.23283 0.15593,0.35983"
       style="fill:#013da6;fill-opacity:1;fill-rule:nonzero;stroke:none;stroke-width:0.352778" />
    <path
       id="path96"
       d="m 428.52332,117.26803 c -0.0635,-0.0395 -0.12524,-0.0748 -0.18556,-0.10548 -0.0434,-0.0215 -0.0854,-0.0452 -0.12524,-0.0706 -0.0519,-0.0324 -0.11853,-0.0705 -0.19967,-0.11465 -0.0681,-0.037 -0.15205,-0.0864 -0.25576,-0.15134 l -6.55285,-4.10739 c -0.10372,-0.0649 -0.18486,-0.11854 -0.24836,-0.1644 -0.0748,-0.0533 -0.13793,-0.0963 -0.18944,-0.12876 -0.0409,-0.0258 -0.0804,-0.0529 -0.11959,-0.0829 -0.0529,-0.0406 -0.11218,-0.0811 -0.17427,-0.1203 -0.25294,-0.1584 -0.46567,-0.10795 -0.60113,-0.0363 -0.0653,0.0377 -0.1263,0.0857 -0.18874,0.15276 l -1.05163,1.57374 c -0.0505,0.0811 -0.0801,0.16686 -0.0875,0.25188 -0.018,0.12806 -0.005,0.37077 0.28504,0.55245 0.24942,0.15593 0.5133,0.18098 0.76165,0.0716 0.16722,-0.0737 0.35102,-0.15629 0.55033,-0.24836 0.16652,-0.0769 0.36231,-0.12418 0.58174,-0.14076 0.18344,-0.0152 0.43285,0.0684 0.71825,0.24695 l 0.76341,0.47836 c 0.0617,0.0388 0.0684,0.0695 0.0709,0.0815 0.007,0.0328 0.003,0.0575 -0.0166,0.0879 l -4.37903,6.98782 c -0.0624,0.0995 -0.13159,0.1651 -0.21167,0.20073 -0.10654,0.0473 -0.21449,0.0787 -0.32067,0.0935 -0.13864,0.0198 -0.26459,0.0409 -0.37359,0.0628 -0.17992,0.036 -0.32315,0.13158 -0.41452,0.27693 -0.13617,0.21766 -0.10089,0.39546 -0.048,0.50624 0.0402,0.0829 0.0977,0.14816 0.1704,0.19402 l 3.24026,2.03059 c 0.072,0.0455 0.15487,0.0684 0.24306,0.0684 0.003,7.1e-4 0.01,3.5e-4 0.0148,3.5e-4 0.12206,0 0.29034,-0.0476 0.42651,-0.26423 0.0903,-0.14499 0.11395,-0.31573 0.0677,-0.49318 -0.0286,-0.11113 -0.0646,-0.23354 -0.10654,-0.36407 -0.0328,-0.10195 -0.0515,-0.21272 -0.055,-0.32914 -0.003,-0.0871 0.0258,-0.1778 0.0885,-0.27728 l 4.39667,-7.01534 c 0.0247,-0.0399 0.0437,-0.055 0.0423,-0.0561 0.006,0 0.0317,0.006 0.0734,0.0321 l 0.79198,0.49636 c 0.29281,0.18344 0.4752,0.36512 0.54116,0.53975 0.0769,0.20249 0.11783,0.39899 0.12136,0.58385 0.004,0.22436 0.0124,0.43109 0.024,0.61418 0.0166,0.27199 0.15628,0.49777 0.40322,0.65264 0.13265,0.0829 0.25224,0.11606 0.36866,0.10231 0.0864,-0.0106 0.16757,-0.0378 0.2413,-0.0801 0.0822,-0.0473 0.14852,-0.11289 0.2039,-0.20179 l 0.94227,-1.59985 0.0173,-0.0384 c 0.0279,-0.0759 0.0441,-0.1517 0.0504,-0.23531 0.004,-0.14746 -0.0441,-0.3563 -0.29527,-0.51364"
       style="fill:#013da6;fill-opacity:1;fill-rule:nonzero;stroke:none;stroke-width:0.352778" />
    <path
       id="path97"
       d="m 319.20767,185.62183 h -3.5e-4 c -0.0377,-0.10054 -0.0617,-0.2099 -0.0709,-0.32526 -0.007,-0.0878 0.0173,-0.17992 0.0748,-0.28222 l 3.90807,-6.96878 c 0.067,-0.11959 0.14005,-0.20002 0.21696,-0.23883 0.10618,-0.0536 0.2159,-0.0931 0.32702,-0.11747 0.13653,-0.0303 0.26388,-0.0624 0.37994,-0.096 0.17639,-0.0508 0.31574,-0.1598 0.40288,-0.31503 0.11818,-0.21131 0.0928,-0.44485 -0.0667,-0.623 -0.0603,-0.072 -0.13511,-0.133 -0.2226,-0.18204 l -2.24402,-1.25835 -0.0402,-0.0173 c -0.073,-0.0247 -0.14569,-0.0399 -0.21237,-0.0455 -0.19685,-0.0261 -0.37571,0.0265 -0.52564,0.15099 l -6.24381,4.95935 0.79728,-8.02146 c 0.0197,-0.20567 -0.0194,-0.37924 -0.11607,-0.51611 -0.0533,-0.0744 -0.11077,-0.12842 -0.17639,-0.1651 l -2.43134,-1.36349 c -0.0751,-0.042 -0.16157,-0.061 -0.25153,-0.0561 -0.12312,0.006 -0.2988,0.066 -0.43745,0.31256 -0.0868,0.15522 -0.10724,0.3309 -0.0589,0.50835 0.0307,0.11183 0.0699,0.23742 0.11642,0.37324 0.037,0.10901 0.0607,0.22331 0.0702,0.34078 0.007,0.0857 -0.0233,0.19015 -0.0907,0.3101 l -3.90808,6.96877 c -0.0568,0.10195 -0.12276,0.17074 -0.20108,0.21061 -0.10442,0.0526 -0.21061,0.0892 -0.31574,0.109 -0.1404,0.0272 -0.2614,0.0533 -0.37041,0.0808 -0.17851,0.0452 -0.3168,0.14746 -0.40005,0.29669 -0.12559,0.22401 -0.0818,0.39969 -0.0233,0.50764 0.0434,0.0811 0.10407,0.14358 0.17957,0.18627 l 2.26836,1.27176 c 0.0762,0.043 0.16298,0.0621 0.25118,0.0565 0.12312,-0.006 0.29598,-0.061 0.42227,-0.28505 0.0603,-0.10865 0.11324,-0.2868 0.0229,-0.52175 -0.0437,-0.11289 -0.0945,-0.23637 -0.15275,-0.37077 -0.0469,-0.10654 -0.0801,-0.22296 -0.0981,-0.34608 -0.0127,-0.0868 0.008,-0.17639 0.0621,-0.2734 l 2.31669,-4.13103 c -0.0582,0.56833 -0.11148,1.08444 -0.15946,1.54764 -0.0825,0.79586 -0.15204,1.47602 -0.20849,2.04046 -0.0568,0.56515 -0.1023,1.02906 -0.13582,1.39065 -0.0346,0.36231 -0.0617,0.65441 -0.0822,0.8763 -0.0208,0.22472 -0.0349,0.39053 -0.0427,0.49777 -0.007,0.0963 -0.0155,0.17533 -0.0279,0.24942 -0.0201,0.17956 0.0166,0.33902 0.10654,0.46884 0.043,0.0748 0.10583,0.13582 0.18626,0.18062 l 1.00789,0.56515 c 0.0663,0.0374 0.14288,0.0586 0.23424,0.0646 l 0.0427,0.003 0.15522,-0.0388 c 0.0882,-0.0222 0.17251,-0.0695 0.25788,-0.14394 0.0741,-0.0649 0.23178,-0.18909 0.4565,-0.35948 0.23848,-0.18097 0.58596,-0.45685 1.06115,-0.84278 0.46144,-0.37465 1.0668,-0.85867 1.79917,-1.43863 0.46849,-0.37077 1.01141,-0.80504 1.61713,-1.29364 l -2.20909,3.93947 c -0.0579,0.10266 -0.12383,0.17145 -0.20179,0.21096 -0.10407,0.0526 -0.21026,0.0893 -0.31538,0.10901 -0.13582,0.0261 -0.26106,0.0533 -0.37007,0.0808 -0.17815,0.0444 -0.31679,0.14711 -0.4004,0.29633 -0.13264,0.23636 -0.0716,0.41981 -0.0236,0.50729 0.0437,0.0819 0.10407,0.14429 0.17992,0.18662 l 3.3207,1.86232 c 0.0674,0.0377 0.14252,0.0572 0.2226,0.0572 0.01,0 0.019,-3.6e-4 0.0279,-0.001 0.12347,-0.006 0.29669,-0.06 0.42298,-0.28469 0.0833,-0.14887 0.0984,-0.32032 0.0441,-0.49636 -0.0335,-0.10725 -0.0751,-0.22754 -0.12418,-0.35807"
       style="fill:#013da6;fill-opacity:1;fill-rule:nonzero;stroke:none;stroke-width:0.352778" />
    <path
       id="path98"
       d="m 328.50838,181.93164 -0.0208,2.56469 -1.63689,-0.59725 z m 3.35456,8.30545 c -0.0847,-0.12101 -0.16615,-0.25541 -0.24235,-0.39935 -0.0603,-0.1143 -0.09,-0.25259 -0.0882,-0.41169 0.008,-1.41111 0.0162,-2.6229 0.024,-3.63573 0.007,-1.01282 0.0131,-1.87184 0.0169,-2.5781 0.004,-0.70344 0.004,-1.28058 0,-1.7152 -0.004,-0.42898 -0.005,-0.77576 -0.002,-1.03047 l 0.009,-0.84419 c 0.001,-0.11254 -0.018,-0.20708 -0.0586,-0.28822 l -0.0663,-0.13371 -0.0363,-0.0416 c -0.0649,-0.0649 -0.13018,-0.10901 -0.20038,-0.13476 l -1.6129,-0.58808 c -0.0688,-0.0254 -0.14746,-0.0335 -0.24518,-0.0254 l -0.0279,0.005 c -0.13582,0.0293 -0.26211,0.10866 -0.38911,0.24589 -0.0649,0.0787 -0.20497,0.24694 -0.41875,0.50447 -0.21484,0.25823 -0.55633,0.6664 -1.02517,1.2252 -0.46955,0.55915 -1.0915,1.30527 -1.86655,2.23802 -0.77435,0.93239 -1.76212,2.12055 -2.9651,3.56552 -0.10018,0.12171 -0.21166,0.20814 -0.33161,0.25718 -0.15204,0.0614 -0.30092,0.11183 -0.44273,0.14958 -0.16263,0.0434 -0.30692,0.0878 -0.42933,0.13229 -0.24483,0.0878 -0.35031,0.25365 -0.39511,0.37712 -0.0498,0.13546 -0.0519,0.25999 -0.007,0.37006 0.0317,0.0804 0.079,0.15205 0.13935,0.21308 0.0642,0.0653 0.1457,0.11536 0.24941,0.15346 l 2.61903,0.95497 c 0.0914,0.0335 0.18273,0.0452 0.27728,0.037 l 0.0265,-0.005 c 0.0716,-0.0152 0.14252,-0.0448 0.20919,-0.0885 0.0903,-0.0582 0.15946,-0.15205 0.20532,-0.2787 0.084,-0.2293 0.0508,-0.45261 -0.0956,-0.64594 -0.0861,-0.11324 -0.17286,-0.23636 -0.25823,-0.36583 -0.0649,-0.0984 -0.10231,-0.20813 -0.1143,-0.33584 -0.004,-0.0342 0.002,-0.16686 0.21166,-0.42757 l 1.1938,-1.42734 2.75696,1.00542 0.006,2.11949 c -0.002,0.18521 -0.0349,0.32632 -0.0886,0.37818 -0.0773,0.0744 -0.16087,0.12241 -0.25329,0.14569 -0.13547,0.0335 -0.26706,0.0635 -0.39406,0.0893 -0.28363,0.0582 -0.40463,0.23848 -0.45649,0.37923 -0.0469,0.12947 -0.0543,0.24236 -0.0226,0.34467 0.0229,0.0765 0.0579,0.14499 0.10548,0.20567 l 0.018,0.0205 c 0.0632,0.0646 0.13618,0.11253 0.21767,0.14217 l 3.7846,1.38042 c 0.0843,0.0307 0.16157,0.0455 0.23671,0.0455 0.0176,0 0.0353,-7.1e-4 0.0519,-0.002 0.0861,-0.008 0.16792,-0.0325 0.24306,-0.0723 0.10654,-0.0561 0.18556,-0.15311 0.23495,-0.28822 0.0448,-0.12348 0.0706,-0.31786 -0.06,-0.54328 -0.0674,-0.11642 -0.14958,-0.24342 -0.24342,-0.37747"
       style="fill:#013da6;fill-opacity:1;fill-rule:nonzero;stroke:none;stroke-width:0.352778" />
    <path
       id="path99"
       d="m 346.17242,184.6555 c 0.085,-0.072 0.17851,-0.1337 0.27799,-0.1838 0.12312,-0.0624 0.23565,-0.12312 0.33408,-0.18027 0.1591,-0.0921 0.26352,-0.22895 0.30268,-0.39546 0.0526,-0.2226 -0.0258,-0.4251 -0.21308,-0.55457 -0.0691,-0.0529 -0.15592,-0.0921 -0.25682,-0.11606 l -2.29905,-0.54187 c -0.0903,-0.0219 -0.18027,-0.0243 -0.26317,-0.008 -0.2279,0.0328 -0.38876,0.17921 -0.44097,0.40111 -0.0293,0.12347 -0.0296,0.31291 0.13405,0.51576 0.0759,0.0945 0.15628,0.19579 0.24095,0.30268 0.0762,0.0977 0.1457,0.20356 0.20637,0.31468 0.036,0.066 0.0413,0.15205 0.0148,0.26282 l -1.06186,4.50427 -3.16124,-6.8834 c -0.0473,-0.12559 -0.0984,-0.21872 -0.15734,-0.28505 -0.0399,-0.0455 -0.0748,-0.0832 -0.1083,-0.11782 l -0.0236,-0.0212 c -0.0713,-0.0561 -0.14887,-0.0942 -0.23107,-0.1136 l -2.56434,-0.60466 c -0.0981,-0.0229 -0.19438,-0.0289 -0.28963,-0.0162 l -0.0198,0.004 c -0.0769,0.0169 -0.15169,0.0462 -0.22225,0.0871 -0.0787,0.0455 -0.18133,0.13829 -0.22507,0.3235 -0.0409,0.17356 -0.012,0.34819 0.0833,0.50447 0.06,0.0991 0.13229,0.2092 0.21519,0.32667 0.0646,0.0931 0.11924,0.1965 0.16122,0.30762 0.0303,0.0815 0.03,0.1905 -10e-4,0.3235 l -1.83338,7.77663 c -0.0272,0.11395 -0.0716,0.19826 -0.13582,0.25824 -0.0857,0.0794 -0.1778,0.14393 -0.27341,0.19191 -0.12841,0.0649 -0.23742,0.12382 -0.33372,0.17991 -0.1584,0.0921 -0.26318,0.2286 -0.30233,0.39547 -0.0625,0.26352 0.0469,0.42263 0.11712,0.49389 0.0642,0.066 0.13934,0.10936 0.22436,0.12982 l 2.53048,0.59655 c 0.084,0.0194 0.17074,0.0145 0.25788,-0.0152 0.11642,-0.0402 0.26776,-0.14041 0.32667,-0.38982 0.0286,-0.12065 0.031,-0.30692 -0.12135,-0.50871 -0.073,-0.0963 -0.15628,-0.20073 -0.24942,-0.31362 -0.0751,-0.0907 -0.13899,-0.19367 -0.18944,-0.30656 -0.0363,-0.0797 -0.0413,-0.1711 -0.0159,-0.2794 l 1.39311,-5.90868 3.90525,8.56474 c 0.0515,0.11677 0.10866,0.20673 0.17498,0.27482 0.0512,0.0515 0.0995,0.0952 0.14711,0.13335 l 0.0162,0.012 c 0.0769,0.0522 0.15487,0.0878 0.23213,0.10619 l 0.67804,0.15981 c 0.0656,0.0155 0.13017,0.0233 0.19155,0.0233 0.0307,0 0.0607,-0.002 0.0868,-0.006 0.24412,-0.024 0.42157,-0.17356 0.47484,-0.39969 l 2.13959,-9.07521 c 0.0282,-0.11853 0.0709,-0.20285 0.12665,-0.25012"
       style="fill:#013da6;fill-opacity:1;fill-rule:nonzero;stroke:none;stroke-width:0.352778" />
    <path
       id="path100"
       d="m 352.58719,190.20346 -1.72791,-0.2219 1.18322,-2.28423 z m 4.55683,4.85634 c -0.10936,-0.0991 -0.21837,-0.21202 -0.3242,-0.3362 -0.084,-0.0981 -0.14323,-0.22648 -0.17674,-0.38241 -0.30269,-1.3783 -0.56233,-2.56187 -0.77753,-3.55141 -0.2159,-0.98954 -0.40005,-1.8288 -0.55139,-2.51848 -0.14993,-0.6851 -0.27728,-1.24813 -0.37782,-1.67323 -0.0977,-0.41522 -0.17498,-0.75283 -0.22896,-1.00471 l -0.17674,-0.8255 c -0.0243,-0.11112 -0.0639,-0.19897 -0.121,-0.26882 l -0.0942,-0.11535 -0.0444,-0.0321 c -0.0769,-0.0494 -0.15064,-0.078 -0.22507,-0.0871 l -1.70216,-0.21873 c -0.0727,-0.0102 -0.15451,-7e-4 -0.24553,0.0293 l -0.0261,0.0106 c -0.12594,0.0586 -0.23177,0.16404 -0.32526,0.32526 -0.0462,0.091 -0.14534,0.28645 -0.29739,0.58455 -0.1524,0.2988 -0.39617,0.77259 -0.73025,1.42064 -0.33478,0.64911 -0.77717,1.51377 -1.32785,2.59433 -0.54928,1.0802 -1.25131,2.45674 -2.10644,4.13102 -0.0716,0.14147 -0.16157,0.25048 -0.26741,0.32421 -0.13476,0.0935 -0.26881,0.17533 -0.39828,0.24341 -0.14746,0.0769 -0.2787,0.15205 -0.38982,0.22331 -0.22013,0.14005 -0.2861,0.32491 -0.30268,0.45508 -0.0187,0.14288 0.007,0.26494 0.0748,0.36231 0.049,0.0713 0.11078,0.13052 0.18239,0.17674 0.0759,0.049 0.16933,0.0811 0.27764,0.0949 l 2.76542,0.35524 c 0.0967,0.0113 0.1898,0.004 0.27905,-0.0254 l 0.0254,-0.0102 c 0.066,-0.0307 0.12806,-0.0755 0.18415,-0.13299 0.0744,-0.0769 0.121,-0.18345 0.13829,-0.3168 0.0307,-0.242 -0.0508,-0.45226 -0.23566,-0.60854 -0.10936,-0.0917 -0.22084,-0.19262 -0.33231,-0.30021 -0.0854,-0.0815 -0.1457,-0.18027 -0.18557,-0.30198 -0.0106,-0.0328 -0.0342,-0.16404 0.11254,-0.46391 l 0.8502,-1.65523 2.91006,0.37359 0.47343,2.06587 c 0.0385,0.18097 0.037,0.32632 -0.004,0.38876 -0.0589,0.0896 -0.12912,0.15452 -0.2152,0.19756 -0.12453,0.0628 -0.24624,0.12065 -0.36407,0.17392 -0.26458,0.11959 -0.34254,0.32173 -0.36194,0.47025 -0.0173,0.13688 3.5e-4,0.24871 0.0533,0.34043 0.0388,0.0688 0.0875,0.12806 0.14923,0.17886 l 0.0215,0.0155 c 0.0755,0.049 0.15769,0.0797 0.24377,0.0907 l 3.99556,0.51294 c 0.0363,0.005 0.0709,0.007 0.10407,0.007 0.0667,0 0.12912,-0.01 0.18732,-0.0286 0.0826,-0.0268 0.15699,-0.0688 0.2212,-0.12417 0.0914,-0.078 0.1471,-0.19015 0.1651,-0.33303 0.0169,-0.13017 -3.6e-4,-0.32561 -0.1778,-0.51682 -0.09,-0.097 -0.19756,-0.20249 -0.32068,-0.31432"
       style="fill:#013da6;fill-opacity:1;fill-rule:nonzero;stroke:none;stroke-width:0.352778" />
    <path
       id="path101"
       d="m 370.60677,191.07507 h -3.5e-4 c -0.0766,-0.0515 -0.1584,-0.0787 -0.24377,-0.0811 l -4.3494,-0.1337 c -0.0974,-0.004 -0.19579,0.012 -0.27093,0.0427 -0.23072,0.0759 -0.36689,0.25153 -0.37395,0.48225 -0.009,0.2854 0.11959,0.51294 0.36195,0.641 0.15734,0.0836 0.32879,0.16686 0.50977,0.248 0.1531,0.0688 0.29492,0.16157 0.42192,0.27552 0.0861,0.0765 0.12629,0.21908 0.11994,0.42298 l -0.0413,1.34973 c -0.012,0.39723 -0.11924,0.6992 -0.31821,0.89711 -0.19614,0.19368 -0.55986,0.28187 -1.07879,0.26811 -0.43921,-0.0134 -0.84984,-0.12876 -1.22132,-0.3429 -0.37394,-0.2159 -0.69991,-0.52634 -0.96802,-0.92286 -0.27376,-0.40393 -0.48472,-0.901 -0.62724,-1.47708 -0.14464,-0.58456 -0.20708,-1.24637 -0.18485,-1.96709 0.0222,-0.72002 0.12982,-1.37231 0.31996,-1.93816 0.18804,-0.55986 0.44239,-1.03964 0.75671,-1.42664 0.30833,-0.37923 0.67451,-0.66922 1.08868,-0.86148 0.41451,-0.19262 0.86501,-0.28187 1.34055,-0.26776 0.22155,0.007 0.46073,0.0349 0.7105,0.0829 0.24094,0.0462 0.47942,0.12558 0.70873,0.23495 0.22577,0.1083 0.44203,0.25505 0.64276,0.43673 0.19685,0.17816 0.37006,0.40288 0.51435,0.66605 0.085,0.16263 0.16227,0.31185 0.23107,0.44662 0.072,0.14146 0.14499,0.26916 0.21731,0.37853 0.0833,0.12629 0.17815,0.22789 0.28116,0.30162 0.12171,0.0885 0.26282,0.13582 0.41981,0.14041 0.15839,0.009 0.28292,-0.03 0.38064,-0.1069 0.0808,-0.0621 0.14358,-0.14111 0.18698,-0.23459 0.0392,-0.0854 0.061,-0.17992 0.0639,-0.28046 l 0.0483,-1.57445 c 0.009,-0.29139 -0.14111,-0.56585 -0.44662,-0.81633 -0.25788,-0.21131 -0.59302,-0.40252 -0.99624,-0.56832 -0.393,-0.16122 -0.83961,-0.29598 -1.3275,-0.3997 -0.48684,-0.10301 -0.98214,-0.16298 -1.47109,-0.1778 -1.06256,-0.0339 -2.02141,0.10337 -2.85891,0.40534 -0.8389,0.30304 -1.56316,0.73061 -2.1523,1.27071 -0.59019,0.54151 -1.05445,1.18286 -1.37865,1.90641 -0.3235,0.72249 -0.49989,1.49049 -0.52388,2.28283 -0.024,0.78845 0.0829,1.56104 0.31892,2.29587 0.23812,0.74225 0.62053,1.41111 1.13735,1.98896 0.51682,0.57715 1.17722,1.04916 1.96321,1.403 0.78458,0.35243 1.72014,0.54786 2.7813,0.58032 0.0836,0.002 0.16792,0.004 0.25259,0.004 0.41028,0 0.83643,-0.0303 1.26647,-0.09 0.51788,-0.0716 1.00224,-0.17674 1.43863,-0.31221 0.44591,-0.13899 0.82197,-0.30621 1.1183,-0.49741 0.35596,-0.22931 0.54081,-0.49636 0.54963,-0.79375 l 0.0737,-2.39431 c 0.004,-0.13687 0.0317,-0.242 0.0825,-0.31256 0.0706,-0.0984 0.1517,-0.18873 0.2413,-0.26811 0.1076,-0.0956 0.20355,-0.18344 0.28751,-0.26352 0.13265,-0.127 0.20567,-0.28787 0.21097,-0.46532 0.009,-0.26952 -0.11183,-0.40887 -0.21414,-0.47801"
       style="fill:#013da6;fill-opacity:1;fill-rule:nonzero;stroke:none;stroke-width:0.352778" />
    <path
       id="path102"
       d="m 381.28001,193.44585 c -0.0928,-0.091 -0.22542,-0.13123 -0.39617,-0.12347 -0.29527,0.0166 -0.52493,0.15275 -0.66463,0.39405 -0.0882,0.15275 -0.19967,0.32597 -0.33161,0.51541 -0.11713,0.16757 -0.28928,0.32879 -0.51118,0.47837 -0.20955,0.14146 -0.5588,0.22683 -1.03858,0.25364 l -1.25518,0.0713 c -0.39687,0.024 -0.69674,-0.0501 -0.88477,-0.21731 -0.1905,-0.16792 -0.29033,-0.381 -0.3055,-0.65087 l -0.16299,-2.87479 2.49555,-0.14111 c 0.11889,-0.009 0.21202,0.0173 0.2914,0.0748 0.1143,0.0833 0.21802,0.17533 0.30868,0.27376 0.10125,0.11112 0.19403,0.21448 0.27728,0.30938 0.17745,0.20426 0.36513,0.23707 0.50059,0.23001 0.14041,-0.008 0.24624,-0.0515 0.32421,-0.13335 l 0.0765,-0.0815 0.0286,-0.0381 c 0.0501,-0.0811 0.0734,-0.17286 0.0677,-0.2727 l -0.14252,-2.51989 c -0.005,-0.0896 -0.0346,-0.17498 -0.0815,-0.24024 -0.0533,-0.0903 -0.17815,-0.23495 -0.47236,-0.22578 -0.12983,0.007 -0.3175,0.0628 -0.47096,0.28469 -0.072,0.10478 -0.15276,0.21767 -0.2406,0.33867 -0.079,0.10866 -0.17145,0.21202 -0.27587,0.30727 -0.0716,0.0656 -0.16369,0.10054 -0.28187,0.10724 l -2.49449,0.14147 -0.15769,-2.77848 c -0.007,-0.13053 0.0261,-0.23177 0.10513,-0.31926 0.0794,-0.0875 0.1979,-0.13441 0.36336,-0.14358 l 1.93428,-0.10972 c 0.33302,-0.019 0.58596,0.0243 0.74824,0.13018 0.18591,0.12135 0.33867,0.25858 0.45367,0.40781 0.13617,0.17674 0.26282,0.33761 0.37924,0.4826 0.17145,0.21237 0.41098,0.31644 0.70661,0.29915 0.16157,-0.009 0.28716,-0.0437 0.38382,-0.10583 0.091,-0.0586 0.15875,-0.13053 0.19862,-0.20779 0.0596,-0.0921 0.0864,-0.19685 0.0794,-0.31432 l -0.19015,-1.84644 -0.007,-0.0381 c -0.0215,-0.0783 -0.0526,-0.14958 -0.096,-0.22119 -0.11888,-0.17745 -0.30444,-0.26211 -0.53798,-0.24836 -0.0759,0.005 -0.14641,0.0117 -0.21132,0.0215 -0.048,0.007 -0.0953,0.012 -0.14393,0.0148 -0.061,0.004 -0.13723,0.0106 -0.2286,0.0215 -0.0769,0.01 -0.17674,0.0176 -0.29633,0.0243 l -7.26229,0.41134 c -0.0857,0.005 -0.16757,0.0342 -0.24341,0.0878 -0.10019,0.072 -0.21661,0.21661 -0.20003,0.49883 0.01,0.17745 0.0871,0.33655 0.22331,0.46037 0.0885,0.0801 0.18909,0.1651 0.2988,0.25224 0.0893,0.0713 0.17075,0.15487 0.24201,0.24941 0.0522,0.0688 0.0829,0.17322 0.091,0.30974 l 0.45155,7.97737 c 0.007,0.11712 -0.012,0.2106 -0.0568,0.2861 -0.0596,0.10019 -0.12911,0.18803 -0.20743,0.26105 -0.10372,0.0984 -0.19156,0.18592 -0.26846,0.26741 -0.1263,0.1337 -0.18803,0.29457 -0.17816,0.46531 0.0152,0.26988 0.1651,0.39194 0.25295,0.44027 0.0723,0.0406 0.14851,0.0614 0.22683,0.0614 0.008,0 0.0176,0 0.0251,-7e-4 l 7.31343,-0.41416 c 0.1069,-0.006 0.19403,-0.01 0.26565,-0.01 0.11042,-3.5e-4 0.19402,-3.5e-4 0.26176,-0.004 0.048,-0.003 0.096,-0.003 0.14499,-0.001 0.0649,0.003 0.13688,0.002 0.21202,-0.002 0.13123,-0.008 0.24412,-0.0445 0.33443,-0.10936 0.0769,-0.0543 0.13617,-0.11324 0.16934,-0.16687 0.0557,-0.0787 0.0917,-0.16721 0.10689,-0.26846 l 0.15345,-1.83974 c 0.0116,-0.12559 -0.007,-0.23883 -0.055,-0.33725 -0.0395,-0.0797 -0.0885,-0.14852 -0.14499,-0.20426"
       style="fill:#013da6;fill-opacity:1;fill-rule:nonzero;stroke:none;stroke-width:0.352778" />
    <path
       id="path103"
       d="m 396.60827,193.09995 h -3.5e-4 c -0.0952,-0.0649 -0.20214,-0.13335 -0.31927,-0.20391 -0.0924,-0.0554 -0.17921,-0.12664 -0.25823,-0.21131 -0.0596,-0.0639 -0.0974,-0.15134 -0.11606,-0.2674 l -1.25625,-7.89023 c -0.0215,-0.13582 -0.0141,-0.24412 0.0222,-0.32244 0.0497,-0.10795 0.11148,-0.20673 0.18344,-0.29492 0.0857,-0.10513 0.16581,-0.20955 0.23848,-0.31045 0.10689,-0.14958 0.14852,-0.32173 0.1203,-0.49706 -0.0377,-0.23883 -0.2025,-0.4064 -0.4385,-0.44803 -0.091,-0.0187 -0.18768,-0.0201 -0.28681,-0.005 l -2.54141,0.40499 -0.043,0.0116 c -0.0723,0.0261 -0.13864,0.0593 -0.19332,0.096 -0.16793,0.0984 -0.27835,0.25259 -0.31927,0.4445 l -1.82245,7.76288 -4.34904,-6.7871 c -0.11183,-0.17356 -0.25047,-0.28575 -0.41169,-0.33267 -0.0871,-0.025 -0.16616,-0.0314 -0.23989,-0.0205 l -2.75308,0.43851 c -0.084,0.0134 -0.16228,0.0512 -0.23213,0.11218 -0.0928,0.0815 -0.19367,0.23742 -0.14922,0.51682 0.0279,0.17568 0.121,0.32632 0.26881,0.43462 0.097,0.0713 0.20532,0.1457 0.3228,0.22084 0.0956,0.0617 0.1852,0.13688 0.26599,0.22366 0.0596,0.0639 0.10054,0.16475 0.12171,0.29951 l 1.25659,7.89023 c 0.0183,0.11571 0.01,0.2106 -0.0275,0.29033 -0.0494,0.10619 -0.10972,0.20073 -0.17957,0.28117 -0.0917,0.10583 -0.17251,0.20461 -0.24024,0.29315 -0.11218,0.1457 -0.15699,0.31186 -0.13017,0.48084 0.0427,0.26776 0.20425,0.37324 0.29598,0.41205 0.0614,0.0268 0.12417,0.0409 0.18732,0.0409 0.0233,0 0.0466,-0.002 0.0691,-0.006 l 2.56786,-0.40887 c 0.0854,-0.0134 0.16369,-0.0512 0.23248,-0.11183 0.0928,-0.0811 0.19509,-0.23107 0.15417,-0.48471 -0.0187,-0.12277 -0.0875,-0.29598 -0.30515,-0.42475 -0.10407,-0.061 -0.22084,-0.12629 -0.34996,-0.19544 -0.10336,-0.055 -0.20144,-0.12629 -0.29104,-0.21131 -0.0642,-0.0603 -0.10336,-0.14252 -0.121,-0.25224 l -0.74436,-4.67712 c 0.30656,0.48154 0.5849,0.91933 0.83431,1.31233 0.42898,0.67557 0.79622,1.25236 1.10208,1.72967 0.30586,0.47872 0.5581,0.87065 0.75565,1.17545 l 0.47907,0.73801 c 0.12277,0.18945 0.21485,0.32844 0.27552,0.41734 0.0547,0.0808 0.0967,0.14746 0.13265,0.21273 0.0949,0.15275 0.2226,0.25505 0.375,0.30233 0.0808,0.0314 0.16722,0.0395 0.25753,0.0257 l 1.14123,-0.18168 c 0.0748,-0.012 0.14782,-0.0427 0.22367,-0.0949 l 0.0264,-0.0183 0.10619,-0.13265 c 0.0554,-0.072 0.0924,-0.16086 0.11289,-0.27269 0.0176,-0.0956 0.0632,-0.28575 0.13547,-0.56515 0.0762,-0.29422 0.18027,-0.73802 0.30973,-1.31939 0.13089,-0.58738 0.30586,-1.34268 0.51929,-2.24438 0.13476,-0.56938 0.28752,-1.23225 0.46602,-2.01788 l 0.7105,4.46087 c 0.0183,0.11571 0.009,0.21096 -0.0275,0.29034 -0.0494,0.10618 -0.10971,0.20037 -0.17992,0.28116 -0.0914,0.10583 -0.17215,0.20426 -0.24024,0.29281 -0.11218,0.14569 -0.15698,0.31185 -0.13017,0.48118 0.0427,0.26706 0.20426,0.37324 0.29668,0.41275 0.0836,0.036 0.16934,0.0483 0.25647,0.0342 l 3.75991,-0.59866 c 0.0857,-0.0138 0.16369,-0.0512 0.23142,-0.11112 0.0931,-0.0815 0.19544,-0.23143 0.15452,-0.48578 -0.0268,-0.16827 -0.12101,-0.31256 -0.2727,-0.41663"
       style="fill:#013da6;fill-opacity:1;fill-rule:nonzero;stroke:none;stroke-width:0.352778" />
    <path
       id="path104"
       d="m 407.1706,188.4594 -3.5e-4,-3.5e-4 c -0.055,-0.0691 -0.11748,-0.12559 -0.18486,-0.16863 -0.11006,-0.0699 -0.24835,-0.0822 -0.4131,-0.037 -0.2854,0.079 -0.48119,0.2607 -0.56621,0.52564 -0.0536,0.16721 -0.12629,0.36018 -0.21555,0.57361 -0.079,0.18874 -0.21343,0.38241 -0.39864,0.57609 -0.17427,0.18239 -0.49741,0.33937 -0.96096,0.46743 l -1.21179,0.33514 c -0.3863,0.10654 -0.69215,0.0981 -0.91123,-0.0254 -0.22119,-0.12418 -0.36371,-0.31115 -0.43638,-0.5715 l -0.76624,-2.7753 2.40877,-0.6657 c 0.11324,-0.0317 0.21131,-0.0275 0.30057,0.0117 0.13052,0.0575 0.25188,0.12559 0.35983,0.20214 0.12241,0.0871 0.23495,0.16863 0.3362,0.24377 0.21695,0.16192 0.41345,0.15381 0.53833,0.11888 0.13441,-0.0377 0.23143,-0.10442 0.28822,-0.19861 l 0.0575,-0.0956 0.0205,-0.0444 c 0.0317,-0.0903 0.0349,-0.18451 0.008,-0.28011 l -0.67239,-2.43275 c -0.0236,-0.0868 -0.0706,-0.16334 -0.13088,-0.21802 -0.0716,-0.0773 -0.23107,-0.19685 -0.50906,-0.1203 -0.12523,0.0346 -0.29704,0.12841 -0.3997,0.37712 -0.0487,0.11783 -0.10336,0.24553 -0.16368,0.38241 -0.0536,0.12171 -0.12207,0.24201 -0.20462,0.35842 -0.0564,0.0794 -0.13899,0.13335 -0.25258,0.16475 l -2.40877,0.66569 -0.74119,-2.68217 c -0.0349,-0.12594 -0.0236,-0.23248 0.0349,-0.33443 0.0589,-0.10195 0.1651,-0.17321 0.32455,-0.21731 l 1.86761,-0.51611 c 0.32385,-0.0893 0.57926,-0.0998 0.75918,-0.031 0.20637,0.079 0.38488,0.18098 0.52952,0.30304 0.17003,0.14393 0.32773,0.27446 0.47272,0.39088 0.21131,0.17074 0.47131,0.22048 0.75353,0.14322 0.15663,-0.043 0.27199,-0.10336 0.35313,-0.1845 0.0769,-0.0769 0.12806,-0.16192 0.14958,-0.24483 0.0392,-0.10266 0.0434,-0.21096 0.0113,-0.3242 l -0.57644,-1.76495 -0.0148,-0.0353 c -0.0377,-0.072 -0.0825,-0.13511 -0.14005,-0.19614 -0.10583,-0.10195 -0.29139,-0.20743 -0.57856,-0.12876 -0.073,0.0201 -0.14075,0.0423 -0.2032,0.066 -0.0451,0.0173 -0.0903,0.0317 -0.13617,0.0444 -0.0589,0.0162 -0.13158,0.0392 -0.21943,0.0695 -0.0734,0.0258 -0.16615,0.054 -0.28398,0.0864 l -7.01146,1.93781 c -0.0825,0.0226 -0.15628,0.0684 -0.21872,0.13723 -0.0833,0.0914 -0.16616,0.25753 -0.0907,0.52987 0.0473,0.17181 0.15629,0.3108 0.31539,0.40252 0.10442,0.06 0.22084,0.12171 0.34607,0.18345 0.10125,0.0501 0.19826,0.115 0.28893,0.19226 0.0663,0.0568 0.11783,0.1524 0.15451,0.28399 l 2.12831,7.70149 c 0.0314,0.11289 0.0328,0.20814 0.005,0.29139 -0.037,0.11078 -0.0864,0.21132 -0.14711,0.29951 -0.0787,0.11501 -0.14816,0.2219 -0.20637,0.31821 -0.0949,0.15698 -0.121,0.32702 -0.0751,0.49212 0.0681,0.2473 0.2226,0.34149 0.34007,0.37712 0.0469,0.0145 0.0946,0.0219 0.14112,0.0219 0.0392,0 0.079,-0.006 0.11782,-0.0159 l 7.06085,-1.95157 c 0.11748,-0.0325 0.21167,-0.0561 0.28857,-0.072 0.0903,-0.019 0.1644,-0.0367 0.22331,-0.0529 0.0466,-0.0127 0.0924,-0.0233 0.14217,-0.0317 0.0642,-0.012 0.13335,-0.0279 0.20638,-0.0476 0.12594,-0.0349 0.22824,-0.0949 0.30374,-0.1778 0.0639,-0.0698 0.10936,-0.14005 0.13017,-0.19896 0.0374,-0.0882 0.0536,-0.18239 0.0476,-0.28469 l -0.23919,-1.83127 c -0.0152,-0.12453 -0.0575,-0.23107 -0.12488,-0.31715"
       style="fill:#013da6;fill-opacity:1;fill-rule:nonzero;stroke:none;stroke-width:0.352778" />
    <path
       id="path105"
       d="m 415.65345,177.36948 c -0.0459,-0.11289 -0.06,-0.20602 -0.0416,-0.27693 0.0282,-0.10866 0.0688,-0.21343 0.12065,-0.31115 0.0632,-0.11924 0.11995,-0.23354 0.16828,-0.33973 0.0765,-0.16721 0.0832,-0.33937 0.0187,-0.49812 -0.0854,-0.2099 -0.25999,-0.32949 -0.4766,-0.32949 -0.006,0 -0.0116,3.5e-4 -0.0173,3.5e-4 -0.0879,-0.003 -0.17992,0.0145 -0.27764,0.0536 l -2.18969,0.88759 c -0.0868,0.0349 -0.16122,0.085 -0.21837,0.14535 -0.16722,0.15945 -0.21378,0.37182 -0.12771,0.58243 0.0473,0.11748 0.15593,0.27235 0.40746,0.34361 0.11642,0.0335 0.24095,0.0695 0.37148,0.10795 0.11747,0.0346 0.2353,0.0808 0.3503,0.13688 0.0677,0.0332 0.12171,0.10054 0.1644,0.20602 l 1.73778,4.28872 -6.55955,-3.78778 c -0.11289,-0.0765 -0.20602,-0.12171 -0.2928,-0.14217 -0.0589,-0.0138 -0.11007,-0.0247 -0.15699,-0.0332 l -0.0307,-0.004 c -0.0924,-0.005 -0.17639,0.01 -0.25471,0.0406 l -2.44228,0.9899 c -0.0928,0.0377 -0.17427,0.0889 -0.24447,0.15346 l -0.0141,0.0141 c -0.0536,0.0582 -0.0981,0.12559 -0.13229,0.20108 -0.0374,0.0825 -0.0674,0.21766 0.004,0.39335 0.0674,0.1651 0.19156,0.29104 0.36019,0.36336 0.11007,0.0476 0.23283,0.0952 0.36442,0.14252 0.10618,0.0378 0.21025,0.091 0.30938,0.15769 0.072,0.0487 0.13477,0.13759 0.18557,0.26459 l 3.00072,7.4048 c 0.0441,0.10901 0.0568,0.20355 0.0392,0.28928 -0.024,0.11324 -0.0614,0.21872 -0.11218,0.31397 -0.0663,0.12594 -0.12136,0.23707 -0.16828,0.33973 -0.0762,0.16721 -0.0825,0.33902 -0.0183,0.49812 0.0963,0.23777 0.26105,0.31362 0.38241,0.33514 0.03,0.006 0.06,0.008 0.0892,0.008 0.0575,0 0.11395,-0.0109 0.16757,-0.0324 l 2.41053,-0.97684 c 0.0808,-0.0325 0.14817,-0.0871 0.20003,-0.16052 0.0723,-0.0998 0.13829,-0.26917 0.0416,-0.508 -0.0469,-0.115 -0.15311,-0.26811 -0.393,-0.34431 -0.115,-0.036 -0.24342,-0.0734 -0.38523,-0.11183 -0.11324,-0.0303 -0.22507,-0.0776 -0.33126,-0.14005 -0.0755,-0.0441 -0.13264,-0.11571 -0.17427,-0.21908 l -2.27965,-5.6261 8.13823,4.72934 c 0.10936,0.066 0.20849,0.10619 0.30162,0.12277 0.0734,0.0134 0.13829,0.0212 0.19826,0.0243 l 0.019,3.5e-4 c 0.0931,-0.002 0.17745,-0.018 0.25048,-0.0476 l 0.64593,-0.26141 c 0.0921,-0.0374 0.17533,-0.0889 0.23707,-0.14711 0.18521,-0.16086 0.24377,-0.38523 0.15663,-0.60043 z"
       style="fill:#013da6;fill-opacity:1;fill-rule:nonzero;stroke:none;stroke-width:0.352778" />
    <path
       id="path106"
       d="m 427.83807,180.70605 h -3.5e-4 c -0.11148,-0.0254 -0.23672,-0.0501 -0.37183,-0.0727 -0.10619,-0.018 -0.21273,-0.0522 -0.31679,-0.10231 -0.0794,-0.0381 -0.14676,-0.10548 -0.20638,-0.20673 l -4.20229,-7.13281 c -0.0243,-0.0406 -0.0289,-0.0642 -0.0303,-0.0642 0.003,-0.005 0.0194,-0.0247 0.0621,-0.0501 l 0.80539,-0.47413 c 0.29775,-0.17533 0.54399,-0.25471 0.72814,-0.23213 0.2159,0.0254 0.40887,0.0797 0.57397,0.16157 0.20108,0.0995 0.38805,0.18733 0.55633,0.26141 0.24906,0.11042 0.51399,0.0903 0.76482,-0.0575 0.13441,-0.079 0.21943,-0.17075 0.2607,-0.27976 0.0307,-0.0815 0.0441,-0.16615 0.0402,-0.25153 -0.004,-0.0945 -0.0317,-0.18379 -0.085,-0.2741 l -0.98602,-1.57163 -0.0268,-0.0349 c -0.055,-0.0593 -0.11465,-0.10866 -0.18591,-0.1524 -0.12876,-0.0709 -0.33584,-0.12453 -0.59161,0.0257 -0.0653,0.0381 -0.12488,0.0773 -0.17921,0.11606 -0.0388,0.0286 -0.079,0.0547 -0.1203,0.079 -0.0529,0.031 -0.11747,0.0723 -0.19367,0.12418 -0.0639,0.043 -0.1464,0.0945 -0.25224,0.15699 l -6.66291,3.92571 c -0.10584,0.0624 -0.19085,0.10971 -0.26035,0.14499 -0.0815,0.0416 -0.14923,0.0776 -0.20214,0.10901 -0.0413,0.0243 -0.0833,0.0466 -0.12771,0.0674 -0.06,0.0282 -0.12312,0.0617 -0.18768,0.0998 -0.20284,0.11959 -0.30974,0.29739 -0.30938,0.51717 0.004,0.0741 0.0183,0.14993 0.049,0.23707 l 0.91299,1.65805 c 0.0483,0.0822 0.11077,0.14817 0.18345,0.19368 0.10477,0.0755 0.32526,0.17603 0.62124,0.001 0.25365,-0.14923 0.39687,-0.37183 0.41416,-0.64276 0.012,-0.18239 0.0233,-0.38347 0.0332,-0.6029 0.008,-0.18345 0.0564,-0.37924 0.14252,-0.58103 0.0762,-0.17744 0.26106,-0.35383 0.55034,-0.52422 l 0.77646,-0.4572 c 0.0621,-0.037 0.0924,-0.0289 0.10477,-0.0258 0.0325,0.009 0.0522,0.0243 0.0706,0.055 l 4.18606,7.10529 c 0.0596,0.10125 0.0861,0.19297 0.0811,0.28046 -0.007,0.11677 -0.0286,0.22648 -0.0646,0.32703 -0.0462,0.13088 -0.0854,0.25259 -0.11677,0.36124 -0.0508,0.17674 -0.0317,0.34749 0.055,0.4946 0.13052,0.22154 0.3048,0.27234 0.44485,0.27622 0.085,0 0.16369,-0.0208 0.23318,-0.0621 l 3.2953,-1.94133 c 0.0744,-0.0438 0.13335,-0.1076 0.17463,-0.18839 0.0568,-0.10936 0.0967,-0.28645 -0.0339,-0.5087 -0.0864,-0.14676 -0.22684,-0.24624 -0.4064,-0.28787"
       style="fill:#013da6;fill-opacity:1;fill-rule:nonzero;stroke:none;stroke-width:0.352778" />
  </g>
</svg>
